<?xml version="1.0" encoding="utf-8" standalone="no"?>
<!DOCTYPE svg PUBLIC "-//W3C//DTD SVG 1.1//EN"
  "http://www.w3.org/Graphics/SVG/1.1/DTD/svg11.dtd">
<!-- Created with matplotlib (https://matplotlib.org/) -->
<svg height="360pt" version="1.1" viewBox="0 0 720 360" width="720pt" xmlns="http://www.w3.org/2000/svg" xmlns:xlink="http://www.w3.org/1999/xlink">
 <defs>
  <style type="text/css">
*{stroke-linecap:butt;stroke-linejoin:round;}
  </style>
 </defs>
 <g id="figure_1">
  <g id="patch_1">
   <path d="M 0 360 
L 720 360 
L 720 0 
L 0 0 
z
" style="fill:#ffffff;"/>
  </g>
  <g id="axes_1">
   <g id="patch_2">
    <path d="M 90 320.4 
L 648 320.4 
L 648 43.2 
L 90 43.2 
z
" style="fill:#ffffff;"/>
   </g>
   <g id="PathCollection_1">
    <defs>
     <path d="M 0 1.118034 
C 0.296506 1.118034 0.580908 1.000231 0.790569 0.790569 
C 1.000231 0.580908 1.118034 0.296506 1.118034 0 
C 1.118034 -0.296506 1.000231 -0.580908 0.790569 -0.790569 
C 0.580908 -1.000231 0.296506 -1.118034 0 -1.118034 
C -0.296506 -1.118034 -0.580908 -1.000231 -0.790569 -0.790569 
C -1.000231 -0.580908 -1.118034 -0.296506 -1.118034 0 
C -1.118034 0.296506 -1.000231 0.580908 -0.790569 0.790569 
C -0.580908 1.000231 -0.296506 1.118034 0 1.118034 
z
" id="ma89db37ca1" style="stroke:#1f77b4;"/>
    </defs>
    <g clip-path="url(#pbfc87eac41)">
     <use style="fill:#1f77b4;stroke:#1f77b4;" x="115.363636" xlink:href="#ma89db37ca1" y="180.66129"/>
     <use style="fill:#1f77b4;stroke:#1f77b4;" x="126.391304" xlink:href="#ma89db37ca1" y="307.8"/>
     <use style="fill:#1f77b4;stroke:#1f77b4;" x="137.418972" xlink:href="#ma89db37ca1" y="307.8"/>
     <use style="fill:#1f77b4;stroke:#1f77b4;" x="148.44664" xlink:href="#ma89db37ca1" y="192.807531"/>
     <use style="fill:#1f77b4;stroke:#1f77b4;" x="159.474308" xlink:href="#ma89db37ca1" y="307.8"/>
     <use style="fill:#1f77b4;stroke:#1f77b4;" x="170.501976" xlink:href="#ma89db37ca1" y="307.8"/>
     <use style="fill:#1f77b4;stroke:#1f77b4;" x="181.529644" xlink:href="#ma89db37ca1" y="307.8"/>
     <use style="fill:#1f77b4;stroke:#1f77b4;" x="192.557312" xlink:href="#ma89db37ca1" y="153.591045"/>
     <use style="fill:#1f77b4;stroke:#1f77b4;" x="203.58498" xlink:href="#ma89db37ca1" y="246.620211"/>
     <use style="fill:#1f77b4;stroke:#1f77b4;" x="214.612648" xlink:href="#ma89db37ca1" y="307.8"/>
     <use style="fill:#1f77b4;stroke:#1f77b4;" x="225.640316" xlink:href="#ma89db37ca1" y="307.8"/>
     <use style="fill:#1f77b4;stroke:#1f77b4;" x="236.667984" xlink:href="#ma89db37ca1" y="190.909681"/>
     <use style="fill:#1f77b4;stroke:#1f77b4;" x="247.695652" xlink:href="#ma89db37ca1" y="268.99759"/>
     <use style="fill:#1f77b4;stroke:#1f77b4;" x="258.72332" xlink:href="#ma89db37ca1" y="181.610215"/>
     <use style="fill:#1f77b4;stroke:#1f77b4;" x="269.750988" xlink:href="#ma89db37ca1" y="270.602136"/>
     <use style="fill:#1f77b4;stroke:#1f77b4;" x="280.778656" xlink:href="#ma89db37ca1" y="307.8"/>
     <use style="fill:#1f77b4;stroke:#1f77b4;" x="291.806324" xlink:href="#ma89db37ca1" y="307.8"/>
     <use style="fill:#1f77b4;stroke:#1f77b4;" x="302.833992" xlink:href="#ma89db37ca1" y="307.8"/>
     <use style="fill:#1f77b4;stroke:#1f77b4;" x="313.86166" xlink:href="#ma89db37ca1" y="307.8"/>
     <use style="fill:#1f77b4;stroke:#1f77b4;" x="324.889328" xlink:href="#ma89db37ca1" y="272.396467"/>
     <use style="fill:#1f77b4;stroke:#1f77b4;" x="335.916996" xlink:href="#ma89db37ca1" y="290.426044"/>
     <use style="fill:#1f77b4;stroke:#1f77b4;" x="346.944664" xlink:href="#ma89db37ca1" y="247.293085"/>
     <use style="fill:#1f77b4;stroke:#1f77b4;" x="357.972332" xlink:href="#ma89db37ca1" y="279.073449"/>
     <use style="fill:#1f77b4;stroke:#1f77b4;" x="369" xlink:href="#ma89db37ca1" y="307.8"/>
     <use style="fill:#1f77b4;stroke:#1f77b4;" x="380.027668" xlink:href="#ma89db37ca1" y="307.8"/>
     <use style="fill:#1f77b4;stroke:#1f77b4;" x="391.055336" xlink:href="#ma89db37ca1" y="307.8"/>
     <use style="fill:#1f77b4;stroke:#1f77b4;" x="402.083004" xlink:href="#ma89db37ca1" y="307.8"/>
     <use style="fill:#1f77b4;stroke:#1f77b4;" x="413.110672" xlink:href="#ma89db37ca1" y="307.8"/>
     <use style="fill:#1f77b4;stroke:#1f77b4;" x="424.13834" xlink:href="#ma89db37ca1" y="307.8"/>
     <use style="fill:#1f77b4;stroke:#1f77b4;" x="435.166008" xlink:href="#ma89db37ca1" y="307.8"/>
     <use style="fill:#1f77b4;stroke:#1f77b4;" x="446.193676" xlink:href="#ma89db37ca1" y="307.8"/>
     <use style="fill:#1f77b4;stroke:#1f77b4;" x="457.221344" xlink:href="#ma89db37ca1" y="307.8"/>
     <use style="fill:#1f77b4;stroke:#1f77b4;" x="468.249012" xlink:href="#ma89db37ca1" y="307.8"/>
     <use style="fill:#1f77b4;stroke:#1f77b4;" x="479.27668" xlink:href="#ma89db37ca1" y="307.8"/>
     <use style="fill:#1f77b4;stroke:#1f77b4;" x="490.304348" xlink:href="#ma89db37ca1" y="307.8"/>
     <use style="fill:#1f77b4;stroke:#1f77b4;" x="501.332016" xlink:href="#ma89db37ca1" y="137.235027"/>
     <use style="fill:#1f77b4;stroke:#1f77b4;" x="512.359684" xlink:href="#ma89db37ca1" y="307.8"/>
     <use style="fill:#1f77b4;stroke:#1f77b4;" x="523.387352" xlink:href="#ma89db37ca1" y="307.8"/>
     <use style="fill:#1f77b4;stroke:#1f77b4;" x="534.41502" xlink:href="#ma89db37ca1" y="307.8"/>
     <use style="fill:#1f77b4;stroke:#1f77b4;" x="545.442688" xlink:href="#ma89db37ca1" y="307.8"/>
     <use style="fill:#1f77b4;stroke:#1f77b4;" x="556.470356" xlink:href="#ma89db37ca1" y="307.8"/>
     <use style="fill:#1f77b4;stroke:#1f77b4;" x="567.498024" xlink:href="#ma89db37ca1" y="307.8"/>
     <use style="fill:#1f77b4;stroke:#1f77b4;" x="578.525692" xlink:href="#ma89db37ca1" y="180.247213"/>
     <use style="fill:#1f77b4;stroke:#1f77b4;" x="589.55336" xlink:href="#ma89db37ca1" y="272.758784"/>
     <use style="fill:#1f77b4;stroke:#1f77b4;" x="600.581028" xlink:href="#ma89db37ca1" y="263.407559"/>
     <use style="fill:#1f77b4;stroke:#1f77b4;" x="611.608696" xlink:href="#ma89db37ca1" y="254.211612"/>
     <use style="fill:#1f77b4;stroke:#1f77b4;" x="622.636364" xlink:href="#ma89db37ca1" y="186.147802"/>
    </g>
   </g>
   <g id="PathCollection_2">
    <defs>
     <path d="M 0 1.118034 
C 0.296506 1.118034 0.580908 1.000231 0.790569 0.790569 
C 1.000231 0.580908 1.118034 0.296506 1.118034 0 
C 1.118034 -0.296506 1.000231 -0.580908 0.790569 -0.790569 
C 0.580908 -1.000231 0.296506 -1.118034 0 -1.118034 
C -0.296506 -1.118034 -0.580908 -1.000231 -0.790569 -0.790569 
C -1.000231 -0.580908 -1.118034 -0.296506 -1.118034 0 
C -1.118034 0.296506 -1.000231 0.580908 -0.790569 0.790569 
C -0.580908 1.000231 -0.296506 1.118034 0 1.118034 
z
" id="m242cc00641" style="stroke:#ff7f0e;"/>
    </defs>
    <g clip-path="url(#pbfc87eac41)">
     <use style="fill:#ff7f0e;stroke:#ff7f0e;" x="115.363636" xlink:href="#m242cc00641" y="289.356347"/>
     <use style="fill:#ff7f0e;stroke:#ff7f0e;" x="126.391304" xlink:href="#m242cc00641" y="307.8"/>
     <use style="fill:#ff7f0e;stroke:#ff7f0e;" x="137.418972" xlink:href="#m242cc00641" y="307.8"/>
     <use style="fill:#ff7f0e;stroke:#ff7f0e;" x="148.44664" xlink:href="#m242cc00641" y="307.8"/>
     <use style="fill:#ff7f0e;stroke:#ff7f0e;" x="159.474308" xlink:href="#m242cc00641" y="307.8"/>
     <use style="fill:#ff7f0e;stroke:#ff7f0e;" x="170.501976" xlink:href="#m242cc00641" y="307.8"/>
     <use style="fill:#ff7f0e;stroke:#ff7f0e;" x="181.529644" xlink:href="#m242cc00641" y="307.8"/>
     <use style="fill:#ff7f0e;stroke:#ff7f0e;" x="192.557312" xlink:href="#m242cc00641" y="280.833274"/>
     <use style="fill:#ff7f0e;stroke:#ff7f0e;" x="203.58498" xlink:href="#m242cc00641" y="307.8"/>
     <use style="fill:#ff7f0e;stroke:#ff7f0e;" x="214.612648" xlink:href="#m242cc00641" y="307.8"/>
     <use style="fill:#ff7f0e;stroke:#ff7f0e;" x="225.640316" xlink:href="#m242cc00641" y="307.8"/>
     <use style="fill:#ff7f0e;stroke:#ff7f0e;" x="236.667984" xlink:href="#m242cc00641" y="293.773162"/>
     <use style="fill:#ff7f0e;stroke:#ff7f0e;" x="247.695652" xlink:href="#m242cc00641" y="297.103026"/>
     <use style="fill:#ff7f0e;stroke:#ff7f0e;" x="258.72332" xlink:href="#m242cc00641" y="307.8"/>
     <use style="fill:#ff7f0e;stroke:#ff7f0e;" x="269.750988" xlink:href="#m242cc00641" y="297.896673"/>
     <use style="fill:#ff7f0e;stroke:#ff7f0e;" x="280.778656" xlink:href="#m242cc00641" y="307.8"/>
     <use style="fill:#ff7f0e;stroke:#ff7f0e;" x="291.806324" xlink:href="#m242cc00641" y="307.8"/>
     <use style="fill:#ff7f0e;stroke:#ff7f0e;" x="302.833992" xlink:href="#m242cc00641" y="307.8"/>
     <use style="fill:#ff7f0e;stroke:#ff7f0e;" x="313.86166" xlink:href="#m242cc00641" y="271.395783"/>
     <use style="fill:#ff7f0e;stroke:#ff7f0e;" x="324.889328" xlink:href="#m242cc00641" y="307.8"/>
     <use style="fill:#ff7f0e;stroke:#ff7f0e;" x="335.916996" xlink:href="#m242cc00641" y="304.901465"/>
     <use style="fill:#ff7f0e;stroke:#ff7f0e;" x="346.944664" xlink:href="#m242cc00641" y="149.277749"/>
     <use style="fill:#ff7f0e;stroke:#ff7f0e;" x="357.972332" xlink:href="#m242cc00641" y="264.287471"/>
     <use style="fill:#ff7f0e;stroke:#ff7f0e;" x="369" xlink:href="#m242cc00641" y="299.156155"/>
     <use style="fill:#ff7f0e;stroke:#ff7f0e;" x="380.027668" xlink:href="#m242cc00641" y="286.923648"/>
     <use style="fill:#ff7f0e;stroke:#ff7f0e;" x="391.055336" xlink:href="#m242cc00641" y="302.261728"/>
     <use style="fill:#ff7f0e;stroke:#ff7f0e;" x="402.083004" xlink:href="#m242cc00641" y="276.416459"/>
     <use style="fill:#ff7f0e;stroke:#ff7f0e;" x="413.110672" xlink:href="#m242cc00641" y="307.8"/>
     <use style="fill:#ff7f0e;stroke:#ff7f0e;" x="424.13834" xlink:href="#m242cc00641" y="246.533945"/>
     <use style="fill:#ff7f0e;stroke:#ff7f0e;" x="435.166008" xlink:href="#m242cc00641" y="302.158209"/>
     <use style="fill:#ff7f0e;stroke:#ff7f0e;" x="446.193676" xlink:href="#m242cc00641" y="267.669095"/>
     <use style="fill:#ff7f0e;stroke:#ff7f0e;" x="457.221344" xlink:href="#m242cc00641" y="263.079748"/>
     <use style="fill:#ff7f0e;stroke:#ff7f0e;" x="468.249012" xlink:href="#m242cc00641" y="55.8"/>
     <use style="fill:#ff7f0e;stroke:#ff7f0e;" x="479.27668" xlink:href="#m242cc00641" y="290.391538"/>
     <use style="fill:#ff7f0e;stroke:#ff7f0e;" x="490.304348" xlink:href="#m242cc00641" y="297.154786"/>
     <use style="fill:#ff7f0e;stroke:#ff7f0e;" x="501.332016" xlink:href="#m242cc00641" y="294.756593"/>
     <use style="fill:#ff7f0e;stroke:#ff7f0e;" x="512.359684" xlink:href="#m242cc00641" y="265.236396"/>
     <use style="fill:#ff7f0e;stroke:#ff7f0e;" x="523.387352" xlink:href="#m242cc00641" y="186.475613"/>
     <use style="fill:#ff7f0e;stroke:#ff7f0e;" x="534.41502" xlink:href="#m242cc00641" y="256.834096"/>
     <use style="fill:#ff7f0e;stroke:#ff7f0e;" x="545.442688" xlink:href="#m242cc00641" y="292.686211"/>
     <use style="fill:#ff7f0e;stroke:#ff7f0e;" x="556.470356" xlink:href="#m242cc00641" y="307.8"/>
     <use style="fill:#ff7f0e;stroke:#ff7f0e;" x="567.498024" xlink:href="#m242cc00641" y="307.8"/>
     <use style="fill:#ff7f0e;stroke:#ff7f0e;" x="578.525692" xlink:href="#m242cc00641" y="307.8"/>
     <use style="fill:#ff7f0e;stroke:#ff7f0e;" x="589.55336" xlink:href="#m242cc00641" y="307.8"/>
     <use style="fill:#ff7f0e;stroke:#ff7f0e;" x="600.581028" xlink:href="#m242cc00641" y="307.8"/>
     <use style="fill:#ff7f0e;stroke:#ff7f0e;" x="611.608696" xlink:href="#m242cc00641" y="307.8"/>
     <use style="fill:#ff7f0e;stroke:#ff7f0e;" x="622.636364" xlink:href="#m242cc00641" y="307.8"/>
    </g>
   </g>
   <g id="PathCollection_3">
    <defs>
     <path d="M 0 1.118034 
C 0.296506 1.118034 0.580908 1.000231 0.790569 0.790569 
C 1.000231 0.580908 1.118034 0.296506 1.118034 0 
C 1.118034 -0.296506 1.000231 -0.580908 0.790569 -0.790569 
C 0.580908 -1.000231 0.296506 -1.118034 0 -1.118034 
C -0.296506 -1.118034 -0.580908 -1.000231 -0.790569 -0.790569 
C -1.000231 -0.580908 -1.118034 -0.296506 -1.118034 0 
C -1.118034 0.296506 -1.000231 0.580908 -0.790569 0.790569 
C -0.580908 1.000231 -0.296506 1.118034 0 1.118034 
z
" id="mf943e1e169" style="stroke:#2ca02c;"/>
    </defs>
    <g clip-path="url(#pbfc87eac41)">
     <use style="fill:#2ca02c;stroke:#2ca02c;" x="115.363636" xlink:href="#mf943e1e169" y="307.8"/>
     <use style="fill:#2ca02c;stroke:#2ca02c;" x="126.391304" xlink:href="#mf943e1e169" y="307.8"/>
     <use style="fill:#2ca02c;stroke:#2ca02c;" x="137.418972" xlink:href="#mf943e1e169" y="307.8"/>
     <use style="fill:#2ca02c;stroke:#2ca02c;" x="148.44664" xlink:href="#mf943e1e169" y="307.8"/>
     <use style="fill:#2ca02c;stroke:#2ca02c;" x="159.474308" xlink:href="#mf943e1e169" y="307.592962"/>
     <use style="fill:#2ca02c;stroke:#2ca02c;" x="170.501976" xlink:href="#mf943e1e169" y="292.272135"/>
     <use style="fill:#2ca02c;stroke:#2ca02c;" x="181.529644" xlink:href="#mf943e1e169" y="306.350733"/>
     <use style="fill:#2ca02c;stroke:#2ca02c;" x="192.557312" xlink:href="#mf943e1e169" y="307.8"/>
     <use style="fill:#2ca02c;stroke:#2ca02c;" x="203.58498" xlink:href="#mf943e1e169" y="307.8"/>
     <use style="fill:#2ca02c;stroke:#2ca02c;" x="214.612648" xlink:href="#mf943e1e169" y="307.8"/>
     <use style="fill:#2ca02c;stroke:#2ca02c;" x="225.640316" xlink:href="#mf943e1e169" y="307.8"/>
     <use style="fill:#2ca02c;stroke:#2ca02c;" x="236.667984" xlink:href="#mf943e1e169" y="305.539833"/>
     <use style="fill:#2ca02c;stroke:#2ca02c;" x="247.695652" xlink:href="#mf943e1e169" y="307.8"/>
     <use style="fill:#2ca02c;stroke:#2ca02c;" x="258.72332" xlink:href="#mf943e1e169" y="307.8"/>
     <use style="fill:#2ca02c;stroke:#2ca02c;" x="269.750988" xlink:href="#mf943e1e169" y="307.8"/>
     <use style="fill:#2ca02c;stroke:#2ca02c;" x="280.778656" xlink:href="#mf943e1e169" y="307.8"/>
     <use style="fill:#2ca02c;stroke:#2ca02c;" x="291.806324" xlink:href="#mf943e1e169" y="307.8"/>
     <use style="fill:#2ca02c;stroke:#2ca02c;" x="302.833992" xlink:href="#mf943e1e169" y="306.764809"/>
     <use style="fill:#2ca02c;stroke:#2ca02c;" x="313.86166" xlink:href="#mf943e1e169" y="307.8"/>
     <use style="fill:#2ca02c;stroke:#2ca02c;" x="324.889328" xlink:href="#mf943e1e169" y="307.8"/>
     <use style="fill:#2ca02c;stroke:#2ca02c;" x="335.916996" xlink:href="#mf943e1e169" y="306.316226"/>
     <use style="fill:#2ca02c;stroke:#2ca02c;" x="346.944664" xlink:href="#mf943e1e169" y="307.8"/>
     <use style="fill:#2ca02c;stroke:#2ca02c;" x="357.972332" xlink:href="#mf943e1e169" y="307.8"/>
     <use style="fill:#2ca02c;stroke:#2ca02c;" x="369" xlink:href="#mf943e1e169" y="307.8"/>
     <use style="fill:#2ca02c;stroke:#2ca02c;" x="380.027668" xlink:href="#mf943e1e169" y="307.8"/>
     <use style="fill:#2ca02c;stroke:#2ca02c;" x="391.055336" xlink:href="#mf943e1e169" y="307.8"/>
     <use style="fill:#2ca02c;stroke:#2ca02c;" x="402.083004" xlink:href="#mf943e1e169" y="307.8"/>
     <use style="fill:#2ca02c;stroke:#2ca02c;" x="413.110672" xlink:href="#mf943e1e169" y="299.915295"/>
     <use style="fill:#2ca02c;stroke:#2ca02c;" x="424.13834" xlink:href="#mf943e1e169" y="307.213392"/>
     <use style="fill:#2ca02c;stroke:#2ca02c;" x="435.166008" xlink:href="#mf943e1e169" y="293.617883"/>
     <use style="fill:#2ca02c;stroke:#2ca02c;" x="446.193676" xlink:href="#mf943e1e169" y="307.8"/>
     <use style="fill:#2ca02c;stroke:#2ca02c;" x="457.221344" xlink:href="#mf943e1e169" y="307.8"/>
     <use style="fill:#2ca02c;stroke:#2ca02c;" x="468.249012" xlink:href="#mf943e1e169" y="288.200383"/>
     <use style="fill:#2ca02c;stroke:#2ca02c;" x="479.27668" xlink:href="#mf943e1e169" y="307.8"/>
     <use style="fill:#2ca02c;stroke:#2ca02c;" x="490.304348" xlink:href="#mf943e1e169" y="305.539833"/>
     <use style="fill:#2ca02c;stroke:#2ca02c;" x="501.332016" xlink:href="#mf943e1e169" y="302.399754"/>
     <use style="fill:#2ca02c;stroke:#2ca02c;" x="512.359684" xlink:href="#mf943e1e169" y="307.8"/>
     <use style="fill:#2ca02c;stroke:#2ca02c;" x="523.387352" xlink:href="#mf943e1e169" y="307.523949"/>
     <use style="fill:#2ca02c;stroke:#2ca02c;" x="534.41502" xlink:href="#mf943e1e169" y="307.8"/>
     <use style="fill:#2ca02c;stroke:#2ca02c;" x="545.442688" xlink:href="#mf943e1e169" y="307.8"/>
     <use style="fill:#2ca02c;stroke:#2ca02c;" x="556.470356" xlink:href="#mf943e1e169" y="306.091935"/>
     <use style="fill:#2ca02c;stroke:#2ca02c;" x="567.498024" xlink:href="#mf943e1e169" y="306.764809"/>
     <use style="fill:#2ca02c;stroke:#2ca02c;" x="578.525692" xlink:href="#mf943e1e169" y="307.8"/>
     <use style="fill:#2ca02c;stroke:#2ca02c;" x="589.55336" xlink:href="#mf943e1e169" y="307.8"/>
     <use style="fill:#2ca02c;stroke:#2ca02c;" x="600.581028" xlink:href="#mf943e1e169" y="307.8"/>
     <use style="fill:#2ca02c;stroke:#2ca02c;" x="611.608696" xlink:href="#mf943e1e169" y="307.213392"/>
     <use style="fill:#2ca02c;stroke:#2ca02c;" x="622.636364" xlink:href="#mf943e1e169" y="307.8"/>
    </g>
   </g>
   <g id="PathCollection_4">
    <defs>
     <path d="M 0 1.118034 
C 0.296506 1.118034 0.580908 1.000231 0.790569 0.790569 
C 1.000231 0.580908 1.118034 0.296506 1.118034 0 
C 1.118034 -0.296506 1.000231 -0.580908 0.790569 -0.790569 
C 0.580908 -1.000231 0.296506 -1.118034 0 -1.118034 
C -0.296506 -1.118034 -0.580908 -1.000231 -0.790569 -0.790569 
C -1.000231 -0.580908 -1.118034 -0.296506 -1.118034 0 
C -1.118034 0.296506 -1.000231 0.580908 -0.790569 0.790569 
C -0.580908 1.000231 -0.296506 1.118034 0 1.118034 
z
" id="mb33e117556" style="stroke:#d62728;"/>
    </defs>
    <g clip-path="url(#pbfc87eac41)">
     <use style="fill:#d62728;stroke:#d62728;" x="115.363636" xlink:href="#mb33e117556" y="307.8"/>
     <use style="fill:#d62728;stroke:#d62728;" x="126.391304" xlink:href="#mb33e117556" y="302.244475"/>
     <use style="fill:#d62728;stroke:#d62728;" x="137.418972" xlink:href="#mb33e117556" y="307.8"/>
     <use style="fill:#d62728;stroke:#d62728;" x="148.44664" xlink:href="#mb33e117556" y="307.8"/>
     <use style="fill:#d62728;stroke:#d62728;" x="159.474308" xlink:href="#mb33e117556" y="299.000876"/>
     <use style="fill:#d62728;stroke:#d62728;" x="170.501976" xlink:href="#mb33e117556" y="307.8"/>
     <use style="fill:#d62728;stroke:#d62728;" x="181.529644" xlink:href="#mb33e117556" y="307.8"/>
     <use style="fill:#d62728;stroke:#d62728;" x="192.557312" xlink:href="#mb33e117556" y="248.172997"/>
     <use style="fill:#d62728;stroke:#d62728;" x="203.58498" xlink:href="#mb33e117556" y="297.01676"/>
     <use style="fill:#d62728;stroke:#d62728;" x="214.612648" xlink:href="#mb33e117556" y="307.8"/>
     <use style="fill:#d62728;stroke:#d62728;" x="225.640316" xlink:href="#mb33e117556" y="283.455758"/>
     <use style="fill:#d62728;stroke:#d62728;" x="236.667984" xlink:href="#mb33e117556" y="307.8"/>
     <use style="fill:#d62728;stroke:#d62728;" x="247.695652" xlink:href="#mb33e117556" y="307.8"/>
     <use style="fill:#d62728;stroke:#d62728;" x="258.72332" xlink:href="#mb33e117556" y="307.8"/>
     <use style="fill:#d62728;stroke:#d62728;" x="269.750988" xlink:href="#mb33e117556" y="307.8"/>
     <use style="fill:#d62728;stroke:#d62728;" x="280.778656" xlink:href="#mb33e117556" y="307.8"/>
     <use style="fill:#d62728;stroke:#d62728;" x="291.806324" xlink:href="#mb33e117556" y="307.8"/>
     <use style="fill:#d62728;stroke:#d62728;" x="302.833992" xlink:href="#mb33e117556" y="307.8"/>
     <use style="fill:#d62728;stroke:#d62728;" x="313.86166" xlink:href="#mb33e117556" y="307.8"/>
     <use style="fill:#d62728;stroke:#d62728;" x="324.889328" xlink:href="#mb33e117556" y="307.8"/>
     <use style="fill:#d62728;stroke:#d62728;" x="335.916996" xlink:href="#mb33e117556" y="307.8"/>
     <use style="fill:#d62728;stroke:#d62728;" x="346.944664" xlink:href="#mb33e117556" y="296.154101"/>
     <use style="fill:#d62728;stroke:#d62728;" x="357.972332" xlink:href="#mb33e117556" y="307.8"/>
     <use style="fill:#d62728;stroke:#d62728;" x="369" xlink:href="#mb33e117556" y="307.8"/>
     <use style="fill:#d62728;stroke:#d62728;" x="380.027668" xlink:href="#mb33e117556" y="307.8"/>
     <use style="fill:#d62728;stroke:#d62728;" x="391.055336" xlink:href="#mb33e117556" y="307.8"/>
     <use style="fill:#d62728;stroke:#d62728;" x="402.083004" xlink:href="#mb33e117556" y="307.8"/>
     <use style="fill:#d62728;stroke:#d62728;" x="413.110672" xlink:href="#mb33e117556" y="307.8"/>
     <use style="fill:#d62728;stroke:#d62728;" x="424.13834" xlink:href="#mb33e117556" y="289.252828"/>
     <use style="fill:#d62728;stroke:#d62728;" x="435.166008" xlink:href="#mb33e117556" y="277.054827"/>
     <use style="fill:#d62728;stroke:#d62728;" x="446.193676" xlink:href="#mb33e117556" y="307.8"/>
     <use style="fill:#d62728;stroke:#d62728;" x="457.221344" xlink:href="#mb33e117556" y="285.025798"/>
     <use style="fill:#d62728;stroke:#d62728;" x="468.249012" xlink:href="#mb33e117556" y="221.982665"/>
     <use style="fill:#d62728;stroke:#d62728;" x="479.27668" xlink:href="#mb33e117556" y="302.123703"/>
     <use style="fill:#d62728;stroke:#d62728;" x="490.304348" xlink:href="#mb33e117556" y="307.8"/>
     <use style="fill:#d62728;stroke:#d62728;" x="501.332016" xlink:href="#mb33e117556" y="307.8"/>
     <use style="fill:#d62728;stroke:#d62728;" x="512.359684" xlink:href="#mb33e117556" y="307.8"/>
     <use style="fill:#d62728;stroke:#d62728;" x="523.387352" xlink:href="#mb33e117556" y="235.802465"/>
     <use style="fill:#d62728;stroke:#d62728;" x="534.41502" xlink:href="#mb33e117556" y="307.8"/>
     <use style="fill:#d62728;stroke:#d62728;" x="545.442688" xlink:href="#mb33e117556" y="294.135479"/>
     <use style="fill:#d62728;stroke:#d62728;" x="556.470356" xlink:href="#mb33e117556" y="284.818759"/>
     <use style="fill:#d62728;stroke:#d62728;" x="567.498024" xlink:href="#mb33e117556" y="307.8"/>
     <use style="fill:#d62728;stroke:#d62728;" x="578.525692" xlink:href="#mb33e117556" y="307.8"/>
     <use style="fill:#d62728;stroke:#d62728;" x="589.55336" xlink:href="#mb33e117556" y="307.8"/>
     <use style="fill:#d62728;stroke:#d62728;" x="600.581028" xlink:href="#mb33e117556" y="307.8"/>
     <use style="fill:#d62728;stroke:#d62728;" x="611.608696" xlink:href="#mb33e117556" y="301.088512"/>
     <use style="fill:#d62728;stroke:#d62728;" x="622.636364" xlink:href="#mb33e117556" y="296.274873"/>
    </g>
   </g>
   <g id="PathCollection_5">
    <defs>
     <path d="M 0 1.118034 
C 0.296506 1.118034 0.580908 1.000231 0.790569 0.790569 
C 1.000231 0.580908 1.118034 0.296506 1.118034 0 
C 1.118034 -0.296506 1.000231 -0.580908 0.790569 -0.790569 
C 0.580908 -1.000231 0.296506 -1.118034 0 -1.118034 
C -0.296506 -1.118034 -0.580908 -1.000231 -0.790569 -0.790569 
C -1.000231 -0.580908 -1.118034 -0.296506 -1.118034 0 
C -1.118034 0.296506 -1.000231 0.580908 -0.790569 0.790569 
C -0.580908 1.000231 -0.296506 1.118034 0 1.118034 
z
" id="m38581d8169" style="stroke:#9467bd;"/>
    </defs>
    <g clip-path="url(#pbfc87eac41)">
     <use style="fill:#9467bd;stroke:#9467bd;" x="115.363636" xlink:href="#m38581d8169" y="307.8"/>
     <use style="fill:#9467bd;stroke:#9467bd;" x="126.391304" xlink:href="#m38581d8169" y="307.8"/>
     <use style="fill:#9467bd;stroke:#9467bd;" x="137.418972" xlink:href="#m38581d8169" y="307.8"/>
     <use style="fill:#9467bd;stroke:#9467bd;" x="148.44664" xlink:href="#m38581d8169" y="307.8"/>
     <use style="fill:#9467bd;stroke:#9467bd;" x="159.474308" xlink:href="#m38581d8169" y="279.159715"/>
     <use style="fill:#9467bd;stroke:#9467bd;" x="170.501976" xlink:href="#m38581d8169" y="307.8"/>
     <use style="fill:#9467bd;stroke:#9467bd;" x="181.529644" xlink:href="#m38581d8169" y="307.782747"/>
     <use style="fill:#9467bd;stroke:#9467bd;" x="192.557312" xlink:href="#m38581d8169" y="307.8"/>
     <use style="fill:#9467bd;stroke:#9467bd;" x="203.58498" xlink:href="#m38581d8169" y="307.782747"/>
     <use style="fill:#9467bd;stroke:#9467bd;" x="214.612648" xlink:href="#m38581d8169" y="307.8"/>
     <use style="fill:#9467bd;stroke:#9467bd;" x="225.640316" xlink:href="#m38581d8169" y="307.8"/>
     <use style="fill:#9467bd;stroke:#9467bd;" x="236.667984" xlink:href="#m38581d8169" y="307.8"/>
     <use style="fill:#9467bd;stroke:#9467bd;" x="247.695652" xlink:href="#m38581d8169" y="307.8"/>
     <use style="fill:#9467bd;stroke:#9467bd;" x="258.72332" xlink:href="#m38581d8169" y="307.8"/>
     <use style="fill:#9467bd;stroke:#9467bd;" x="269.750988" xlink:href="#m38581d8169" y="307.8"/>
     <use style="fill:#9467bd;stroke:#9467bd;" x="280.778656" xlink:href="#m38581d8169" y="307.8"/>
     <use style="fill:#9467bd;stroke:#9467bd;" x="291.806324" xlink:href="#m38581d8169" y="307.8"/>
     <use style="fill:#9467bd;stroke:#9467bd;" x="302.833992" xlink:href="#m38581d8169" y="307.8"/>
     <use style="fill:#9467bd;stroke:#9467bd;" x="313.86166" xlink:href="#m38581d8169" y="305.746871"/>
     <use style="fill:#9467bd;stroke:#9467bd;" x="324.889328" xlink:href="#m38581d8169" y="307.8"/>
     <use style="fill:#9467bd;stroke:#9467bd;" x="335.916996" xlink:href="#m38581d8169" y="307.8"/>
     <use style="fill:#9467bd;stroke:#9467bd;" x="346.944664" xlink:href="#m38581d8169" y="307.8"/>
     <use style="fill:#9467bd;stroke:#9467bd;" x="357.972332" xlink:href="#m38581d8169" y="307.8"/>
     <use style="fill:#9467bd;stroke:#9467bd;" x="369" xlink:href="#m38581d8169" y="307.8"/>
     <use style="fill:#9467bd;stroke:#9467bd;" x="380.027668" xlink:href="#m38581d8169" y="307.8"/>
     <use style="fill:#9467bd;stroke:#9467bd;" x="391.055336" xlink:href="#m38581d8169" y="307.8"/>
     <use style="fill:#9467bd;stroke:#9467bd;" x="402.083004" xlink:href="#m38581d8169" y="304.418376"/>
     <use style="fill:#9467bd;stroke:#9467bd;" x="413.110672" xlink:href="#m38581d8169" y="307.8"/>
     <use style="fill:#9467bd;stroke:#9467bd;" x="424.13834" xlink:href="#m38581d8169" y="307.8"/>
     <use style="fill:#9467bd;stroke:#9467bd;" x="435.166008" xlink:href="#m38581d8169" y="307.8"/>
     <use style="fill:#9467bd;stroke:#9467bd;" x="446.193676" xlink:href="#m38581d8169" y="307.8"/>
     <use style="fill:#9467bd;stroke:#9467bd;" x="457.221344" xlink:href="#m38581d8169" y="307.8"/>
     <use style="fill:#9467bd;stroke:#9467bd;" x="468.249012" xlink:href="#m38581d8169" y="307.8"/>
     <use style="fill:#9467bd;stroke:#9467bd;" x="479.27668" xlink:href="#m38581d8169" y="307.8"/>
     <use style="fill:#9467bd;stroke:#9467bd;" x="490.304348" xlink:href="#m38581d8169" y="307.8"/>
     <use style="fill:#9467bd;stroke:#9467bd;" x="501.332016" xlink:href="#m38581d8169" y="307.8"/>
     <use style="fill:#9467bd;stroke:#9467bd;" x="512.359684" xlink:href="#m38581d8169" y="307.8"/>
     <use style="fill:#9467bd;stroke:#9467bd;" x="523.387352" xlink:href="#m38581d8169" y="266.047296"/>
     <use style="fill:#9467bd;stroke:#9467bd;" x="534.41502" xlink:href="#m38581d8169" y="307.8"/>
     <use style="fill:#9467bd;stroke:#9467bd;" x="545.442688" xlink:href="#m38581d8169" y="307.8"/>
     <use style="fill:#9467bd;stroke:#9467bd;" x="556.470356" xlink:href="#m38581d8169" y="307.8"/>
     <use style="fill:#9467bd;stroke:#9467bd;" x="567.498024" xlink:href="#m38581d8169" y="307.8"/>
     <use style="fill:#9467bd;stroke:#9467bd;" x="578.525692" xlink:href="#m38581d8169" y="307.8"/>
     <use style="fill:#9467bd;stroke:#9467bd;" x="589.55336" xlink:href="#m38581d8169" y="307.8"/>
     <use style="fill:#9467bd;stroke:#9467bd;" x="600.581028" xlink:href="#m38581d8169" y="307.8"/>
     <use style="fill:#9467bd;stroke:#9467bd;" x="611.608696" xlink:href="#m38581d8169" y="307.8"/>
     <use style="fill:#9467bd;stroke:#9467bd;" x="622.636364" xlink:href="#m38581d8169" y="307.8"/>
    </g>
   </g>
   <g id="PathCollection_6">
    <defs>
     <path d="M 0 1.118034 
C 0.296506 1.118034 0.580908 1.000231 0.790569 0.790569 
C 1.000231 0.580908 1.118034 0.296506 1.118034 0 
C 1.118034 -0.296506 1.000231 -0.580908 0.790569 -0.790569 
C 0.580908 -1.000231 0.296506 -1.118034 0 -1.118034 
C -0.296506 -1.118034 -0.580908 -1.000231 -0.790569 -0.790569 
C -1.000231 -0.580908 -1.118034 -0.296506 -1.118034 0 
C -1.118034 0.296506 -1.000231 0.580908 -0.790569 0.790569 
C -0.580908 1.000231 -0.296506 1.118034 0 1.118034 
z
" id="mfce375dc81" style="stroke:#8c564b;"/>
    </defs>
    <g clip-path="url(#pbfc87eac41)">
     <use style="fill:#8c564b;stroke:#8c564b;" x="115.363636" xlink:href="#mfce375dc81" y="293.031275"/>
     <use style="fill:#8c564b;stroke:#8c564b;" x="126.391304" xlink:href="#mfce375dc81" y="287.165192"/>
     <use style="fill:#8c564b;stroke:#8c564b;" x="137.418972" xlink:href="#mfce375dc81" y="290.94364"/>
     <use style="fill:#8c564b;stroke:#8c564b;" x="148.44664" xlink:href="#mfce375dc81" y="295.947063"/>
     <use style="fill:#8c564b;stroke:#8c564b;" x="159.474308" xlink:href="#mfce375dc81" y="273.707709"/>
     <use style="fill:#8c564b;stroke:#8c564b;" x="170.501976" xlink:href="#mfce375dc81" y="299.77727"/>
     <use style="fill:#8c564b;stroke:#8c564b;" x="181.529644" xlink:href="#mfce375dc81" y="305.004984"/>
     <use style="fill:#8c564b;stroke:#8c564b;" x="192.557312" xlink:href="#mfce375dc81" y="282.351554"/>
     <use style="fill:#8c564b;stroke:#8c564b;" x="203.58498" xlink:href="#mfce375dc81" y="289.183815"/>
     <use style="fill:#8c564b;stroke:#8c564b;" x="214.612648" xlink:href="#mfce375dc81" y="281.023059"/>
     <use style="fill:#8c564b;stroke:#8c564b;" x="225.640316" xlink:href="#mfce375dc81" y="288.907764"/>
     <use style="fill:#8c564b;stroke:#8c564b;" x="236.667984" xlink:href="#mfce375dc81" y="254.74646"/>
     <use style="fill:#8c564b;stroke:#8c564b;" x="247.695652" xlink:href="#mfce375dc81" y="296.930494"/>
     <use style="fill:#8c564b;stroke:#8c564b;" x="258.72332" xlink:href="#mfce375dc81" y="307.8"/>
     <use style="fill:#8c564b;stroke:#8c564b;" x="269.750988" xlink:href="#mfce375dc81" y="301.640613"/>
     <use style="fill:#8c564b;stroke:#8c564b;" x="280.778656" xlink:href="#mfce375dc81" y="295.446721"/>
     <use style="fill:#8c564b;stroke:#8c564b;" x="291.806324" xlink:href="#mfce375dc81" y="286.71661"/>
     <use style="fill:#8c564b;stroke:#8c564b;" x="302.833992" xlink:href="#mfce375dc81" y="300.432891"/>
     <use style="fill:#8c564b;stroke:#8c564b;" x="313.86166" xlink:href="#mfce375dc81" y="301.761386"/>
     <use style="fill:#8c564b;stroke:#8c564b;" x="324.889328" xlink:href="#mfce375dc81" y="306.782062"/>
     <use style="fill:#8c564b;stroke:#8c564b;" x="335.916996" xlink:href="#mfce375dc81" y="305.160263"/>
     <use style="fill:#8c564b;stroke:#8c564b;" x="346.944664" xlink:href="#mfce375dc81" y="301.450828"/>
     <use style="fill:#8c564b;stroke:#8c564b;" x="357.972332" xlink:href="#mfce375dc81" y="301.830398"/>
     <use style="fill:#8c564b;stroke:#8c564b;" x="369" xlink:href="#mfce375dc81" y="301.157524"/>
     <use style="fill:#8c564b;stroke:#8c564b;" x="380.027668" xlink:href="#mfce375dc81" y="299.639244"/>
     <use style="fill:#8c564b;stroke:#8c564b;" x="391.055336" xlink:href="#mfce375dc81" y="302.261728"/>
     <use style="fill:#8c564b;stroke:#8c564b;" x="402.083004" xlink:href="#mfce375dc81" y="299.311434"/>
     <use style="fill:#8c564b;stroke:#8c564b;" x="413.110672" xlink:href="#mfce375dc81" y="305.988416"/>
     <use style="fill:#8c564b;stroke:#8c564b;" x="424.13834" xlink:href="#mfce375dc81" y="300.760701"/>
     <use style="fill:#8c564b;stroke:#8c564b;" x="435.166008" xlink:href="#mfce375dc81" y="306.005669"/>
     <use style="fill:#8c564b;stroke:#8c564b;" x="446.193676" xlink:href="#mfce375dc81" y="296.378392"/>
     <use style="fill:#8c564b;stroke:#8c564b;" x="457.221344" xlink:href="#mfce375dc81" y="301.381816"/>
     <use style="fill:#8c564b;stroke:#8c564b;" x="468.249012" xlink:href="#mfce375dc81" y="301.036752"/>
     <use style="fill:#8c564b;stroke:#8c564b;" x="479.27668" xlink:href="#mfce375dc81" y="300.036067"/>
     <use style="fill:#8c564b;stroke:#8c564b;" x="490.304348" xlink:href="#mfce375dc81" y="300.260359"/>
     <use style="fill:#8c564b;stroke:#8c564b;" x="501.332016" xlink:href="#mfce375dc81" y="305.125757"/>
     <use style="fill:#8c564b;stroke:#8c564b;" x="512.359684" xlink:href="#mfce375dc81" y="301.657867"/>
     <use style="fill:#8c564b;stroke:#8c564b;" x="523.387352" xlink:href="#mfce375dc81" y="271.067972"/>
     <use style="fill:#8c564b;stroke:#8c564b;" x="534.41502" xlink:href="#mfce375dc81" y="305.52258"/>
     <use style="fill:#8c564b;stroke:#8c564b;" x="545.442688" xlink:href="#mfce375dc81" y="307.316911"/>
     <use style="fill:#8c564b;stroke:#8c564b;" x="556.470356" xlink:href="#mfce375dc81" y="305.384554"/>
     <use style="fill:#8c564b;stroke:#8c564b;" x="567.498024" xlink:href="#mfce375dc81" y="306.143694"/>
     <use style="fill:#8c564b;stroke:#8c564b;" x="578.525692" xlink:href="#mfce375dc81" y="291.633767"/>
     <use style="fill:#8c564b;stroke:#8c564b;" x="589.55336" xlink:href="#mfce375dc81" y="294.722087"/>
     <use style="fill:#8c564b;stroke:#8c564b;" x="600.581028" xlink:href="#mfce375dc81" y="283.57653"/>
     <use style="fill:#8c564b;stroke:#8c564b;" x="611.608696" xlink:href="#mfce375dc81" y="290.615829"/>
     <use style="fill:#8c564b;stroke:#8c564b;" x="622.636364" xlink:href="#mfce375dc81" y="272.396467"/>
    </g>
   </g>
   <g id="matplotlib.axis_1">
    <g id="xtick_1">
     <g id="line2d_1">
      <defs>
       <path d="M 0 0 
L 0 3.5 
" id="maf78872f0d" style="stroke:#000000;stroke-width:0.8;"/>
      </defs>
      <g>
       <use style="stroke:#000000;stroke-width:0.8;" x="137.418972" xlink:href="#maf78872f0d" y="320.4"/>
      </g>
     </g>
     <g id="text_1">
      <!-- 2020-04-01 -->
      <defs>
       <path d="M 19.1875 8.296875 
L 53.609375 8.296875 
L 53.609375 0 
L 7.328125 0 
L 7.328125 8.296875 
Q 12.9375 14.109375 22.625 23.890625 
Q 32.328125 33.6875 34.8125 36.53125 
Q 39.546875 41.84375 41.421875 45.53125 
Q 43.3125 49.21875 43.3125 52.78125 
Q 43.3125 58.59375 39.234375 62.25 
Q 35.15625 65.921875 28.609375 65.921875 
Q 23.96875 65.921875 18.8125 64.3125 
Q 13.671875 62.703125 7.8125 59.421875 
L 7.8125 69.390625 
Q 13.765625 71.78125 18.9375 73 
Q 24.125 74.21875 28.421875 74.21875 
Q 39.75 74.21875 46.484375 68.546875 
Q 53.21875 62.890625 53.21875 53.421875 
Q 53.21875 48.921875 51.53125 44.890625 
Q 49.859375 40.875 45.40625 35.40625 
Q 44.1875 33.984375 37.640625 27.21875 
Q 31.109375 20.453125 19.1875 8.296875 
z
" id="DejaVuSans-50"/>
       <path d="M 31.78125 66.40625 
Q 24.171875 66.40625 20.328125 58.90625 
Q 16.5 51.421875 16.5 36.375 
Q 16.5 21.390625 20.328125 13.890625 
Q 24.171875 6.390625 31.78125 6.390625 
Q 39.453125 6.390625 43.28125 13.890625 
Q 47.125 21.390625 47.125 36.375 
Q 47.125 51.421875 43.28125 58.90625 
Q 39.453125 66.40625 31.78125 66.40625 
z
M 31.78125 74.21875 
Q 44.046875 74.21875 50.515625 64.515625 
Q 56.984375 54.828125 56.984375 36.375 
Q 56.984375 17.96875 50.515625 8.265625 
Q 44.046875 -1.421875 31.78125 -1.421875 
Q 19.53125 -1.421875 13.0625 8.265625 
Q 6.59375 17.96875 6.59375 36.375 
Q 6.59375 54.828125 13.0625 64.515625 
Q 19.53125 74.21875 31.78125 74.21875 
z
" id="DejaVuSans-48"/>
       <path d="M 4.890625 31.390625 
L 31.203125 31.390625 
L 31.203125 23.390625 
L 4.890625 23.390625 
z
" id="DejaVuSans-45"/>
       <path d="M 37.796875 64.3125 
L 12.890625 25.390625 
L 37.796875 25.390625 
z
M 35.203125 72.90625 
L 47.609375 72.90625 
L 47.609375 25.390625 
L 58.015625 25.390625 
L 58.015625 17.1875 
L 47.609375 17.1875 
L 47.609375 0 
L 37.796875 0 
L 37.796875 17.1875 
L 4.890625 17.1875 
L 4.890625 26.703125 
z
" id="DejaVuSans-52"/>
       <path d="M 12.40625 8.296875 
L 28.515625 8.296875 
L 28.515625 63.921875 
L 10.984375 60.40625 
L 10.984375 69.390625 
L 28.421875 72.90625 
L 38.28125 72.90625 
L 38.28125 8.296875 
L 54.390625 8.296875 
L 54.390625 0 
L 12.40625 0 
z
" id="DejaVuSans-49"/>
      </defs>
      <g transform="translate(108.36116 334.998438)scale(0.1 -0.1)">
       <use xlink:href="#DejaVuSans-50"/>
       <use x="63.623047" xlink:href="#DejaVuSans-48"/>
       <use x="127.246094" xlink:href="#DejaVuSans-50"/>
       <use x="190.869141" xlink:href="#DejaVuSans-48"/>
       <use x="254.492188" xlink:href="#DejaVuSans-45"/>
       <use x="290.576172" xlink:href="#DejaVuSans-48"/>
       <use x="354.199219" xlink:href="#DejaVuSans-52"/>
       <use x="417.822266" xlink:href="#DejaVuSans-45"/>
       <use x="453.90625" xlink:href="#DejaVuSans-48"/>
       <use x="517.529297" xlink:href="#DejaVuSans-49"/>
      </g>
     </g>
    </g>
    <g id="xtick_2">
     <g id="line2d_2">
      <g>
       <use style="stroke:#000000;stroke-width:0.8;" x="214.612648" xlink:href="#maf78872f0d" y="320.4"/>
      </g>
     </g>
     <g id="text_2">
      <!-- 2020-04-08 -->
      <defs>
       <path d="M 31.78125 34.625 
Q 24.75 34.625 20.71875 30.859375 
Q 16.703125 27.09375 16.703125 20.515625 
Q 16.703125 13.921875 20.71875 10.15625 
Q 24.75 6.390625 31.78125 6.390625 
Q 38.8125 6.390625 42.859375 10.171875 
Q 46.921875 13.96875 46.921875 20.515625 
Q 46.921875 27.09375 42.890625 30.859375 
Q 38.875 34.625 31.78125 34.625 
z
M 21.921875 38.8125 
Q 15.578125 40.375 12.03125 44.71875 
Q 8.5 49.078125 8.5 55.328125 
Q 8.5 64.0625 14.71875 69.140625 
Q 20.953125 74.21875 31.78125 74.21875 
Q 42.671875 74.21875 48.875 69.140625 
Q 55.078125 64.0625 55.078125 55.328125 
Q 55.078125 49.078125 51.53125 44.71875 
Q 48 40.375 41.703125 38.8125 
Q 48.828125 37.15625 52.796875 32.3125 
Q 56.78125 27.484375 56.78125 20.515625 
Q 56.78125 9.90625 50.3125 4.234375 
Q 43.84375 -1.421875 31.78125 -1.421875 
Q 19.734375 -1.421875 13.25 4.234375 
Q 6.78125 9.90625 6.78125 20.515625 
Q 6.78125 27.484375 10.78125 32.3125 
Q 14.796875 37.15625 21.921875 38.8125 
z
M 18.3125 54.390625 
Q 18.3125 48.734375 21.84375 45.5625 
Q 25.390625 42.390625 31.78125 42.390625 
Q 38.140625 42.390625 41.71875 45.5625 
Q 45.3125 48.734375 45.3125 54.390625 
Q 45.3125 60.0625 41.71875 63.234375 
Q 38.140625 66.40625 31.78125 66.40625 
Q 25.390625 66.40625 21.84375 63.234375 
Q 18.3125 60.0625 18.3125 54.390625 
z
" id="DejaVuSans-56"/>
      </defs>
      <g transform="translate(185.554836 334.998438)scale(0.1 -0.1)">
       <use xlink:href="#DejaVuSans-50"/>
       <use x="63.623047" xlink:href="#DejaVuSans-48"/>
       <use x="127.246094" xlink:href="#DejaVuSans-50"/>
       <use x="190.869141" xlink:href="#DejaVuSans-48"/>
       <use x="254.492188" xlink:href="#DejaVuSans-45"/>
       <use x="290.576172" xlink:href="#DejaVuSans-48"/>
       <use x="354.199219" xlink:href="#DejaVuSans-52"/>
       <use x="417.822266" xlink:href="#DejaVuSans-45"/>
       <use x="453.90625" xlink:href="#DejaVuSans-48"/>
       <use x="517.529297" xlink:href="#DejaVuSans-56"/>
      </g>
     </g>
    </g>
    <g id="xtick_3">
     <g id="line2d_3">
      <g>
       <use style="stroke:#000000;stroke-width:0.8;" x="291.806324" xlink:href="#maf78872f0d" y="320.4"/>
      </g>
     </g>
     <g id="text_3">
      <!-- 2020-04-15 -->
      <defs>
       <path d="M 10.796875 72.90625 
L 49.515625 72.90625 
L 49.515625 64.59375 
L 19.828125 64.59375 
L 19.828125 46.734375 
Q 21.96875 47.46875 24.109375 47.828125 
Q 26.265625 48.1875 28.421875 48.1875 
Q 40.625 48.1875 47.75 41.5 
Q 54.890625 34.8125 54.890625 23.390625 
Q 54.890625 11.625 47.5625 5.09375 
Q 40.234375 -1.421875 26.90625 -1.421875 
Q 22.3125 -1.421875 17.546875 -0.640625 
Q 12.796875 0.140625 7.71875 1.703125 
L 7.71875 11.625 
Q 12.109375 9.234375 16.796875 8.0625 
Q 21.484375 6.890625 26.703125 6.890625 
Q 35.15625 6.890625 40.078125 11.328125 
Q 45.015625 15.765625 45.015625 23.390625 
Q 45.015625 31 40.078125 35.4375 
Q 35.15625 39.890625 26.703125 39.890625 
Q 22.75 39.890625 18.8125 39.015625 
Q 14.890625 38.140625 10.796875 36.28125 
z
" id="DejaVuSans-53"/>
      </defs>
      <g transform="translate(262.748512 334.998438)scale(0.1 -0.1)">
       <use xlink:href="#DejaVuSans-50"/>
       <use x="63.623047" xlink:href="#DejaVuSans-48"/>
       <use x="127.246094" xlink:href="#DejaVuSans-50"/>
       <use x="190.869141" xlink:href="#DejaVuSans-48"/>
       <use x="254.492188" xlink:href="#DejaVuSans-45"/>
       <use x="290.576172" xlink:href="#DejaVuSans-48"/>
       <use x="354.199219" xlink:href="#DejaVuSans-52"/>
       <use x="417.822266" xlink:href="#DejaVuSans-45"/>
       <use x="453.90625" xlink:href="#DejaVuSans-49"/>
       <use x="517.529297" xlink:href="#DejaVuSans-53"/>
      </g>
     </g>
    </g>
    <g id="xtick_4">
     <g id="line2d_4">
      <g>
       <use style="stroke:#000000;stroke-width:0.8;" x="369" xlink:href="#maf78872f0d" y="320.4"/>
      </g>
     </g>
     <g id="text_4">
      <!-- 2020-04-22 -->
      <g transform="translate(339.942188 334.998438)scale(0.1 -0.1)">
       <use xlink:href="#DejaVuSans-50"/>
       <use x="63.623047" xlink:href="#DejaVuSans-48"/>
       <use x="127.246094" xlink:href="#DejaVuSans-50"/>
       <use x="190.869141" xlink:href="#DejaVuSans-48"/>
       <use x="254.492188" xlink:href="#DejaVuSans-45"/>
       <use x="290.576172" xlink:href="#DejaVuSans-48"/>
       <use x="354.199219" xlink:href="#DejaVuSans-52"/>
       <use x="417.822266" xlink:href="#DejaVuSans-45"/>
       <use x="453.90625" xlink:href="#DejaVuSans-50"/>
       <use x="517.529297" xlink:href="#DejaVuSans-50"/>
      </g>
     </g>
    </g>
    <g id="xtick_5">
     <g id="line2d_5">
      <g>
       <use style="stroke:#000000;stroke-width:0.8;" x="468.249012" xlink:href="#maf78872f0d" y="320.4"/>
      </g>
     </g>
     <g id="text_5">
      <!-- 2020-05-01 -->
      <g transform="translate(439.191199 334.998438)scale(0.1 -0.1)">
       <use xlink:href="#DejaVuSans-50"/>
       <use x="63.623047" xlink:href="#DejaVuSans-48"/>
       <use x="127.246094" xlink:href="#DejaVuSans-50"/>
       <use x="190.869141" xlink:href="#DejaVuSans-48"/>
       <use x="254.492188" xlink:href="#DejaVuSans-45"/>
       <use x="290.576172" xlink:href="#DejaVuSans-48"/>
       <use x="354.199219" xlink:href="#DejaVuSans-53"/>
       <use x="417.822266" xlink:href="#DejaVuSans-45"/>
       <use x="453.90625" xlink:href="#DejaVuSans-48"/>
       <use x="517.529297" xlink:href="#DejaVuSans-49"/>
      </g>
     </g>
    </g>
    <g id="xtick_6">
     <g id="line2d_6">
      <g>
       <use style="stroke:#000000;stroke-width:0.8;" x="545.442688" xlink:href="#maf78872f0d" y="320.4"/>
      </g>
     </g>
     <g id="text_6">
      <!-- 2020-05-08 -->
      <g transform="translate(516.384875 334.998438)scale(0.1 -0.1)">
       <use xlink:href="#DejaVuSans-50"/>
       <use x="63.623047" xlink:href="#DejaVuSans-48"/>
       <use x="127.246094" xlink:href="#DejaVuSans-50"/>
       <use x="190.869141" xlink:href="#DejaVuSans-48"/>
       <use x="254.492188" xlink:href="#DejaVuSans-45"/>
       <use x="290.576172" xlink:href="#DejaVuSans-48"/>
       <use x="354.199219" xlink:href="#DejaVuSans-53"/>
       <use x="417.822266" xlink:href="#DejaVuSans-45"/>
       <use x="453.90625" xlink:href="#DejaVuSans-48"/>
       <use x="517.529297" xlink:href="#DejaVuSans-56"/>
      </g>
     </g>
    </g>
    <g id="xtick_7">
     <g id="line2d_7">
      <g>
       <use style="stroke:#000000;stroke-width:0.8;" x="622.636364" xlink:href="#maf78872f0d" y="320.4"/>
      </g>
     </g>
     <g id="text_7">
      <!-- 2020-05-15 -->
      <g transform="translate(593.578551 334.998438)scale(0.1 -0.1)">
       <use xlink:href="#DejaVuSans-50"/>
       <use x="63.623047" xlink:href="#DejaVuSans-48"/>
       <use x="127.246094" xlink:href="#DejaVuSans-50"/>
       <use x="190.869141" xlink:href="#DejaVuSans-48"/>
       <use x="254.492188" xlink:href="#DejaVuSans-45"/>
       <use x="290.576172" xlink:href="#DejaVuSans-48"/>
       <use x="354.199219" xlink:href="#DejaVuSans-53"/>
       <use x="417.822266" xlink:href="#DejaVuSans-45"/>
       <use x="453.90625" xlink:href="#DejaVuSans-49"/>
       <use x="517.529297" xlink:href="#DejaVuSans-53"/>
      </g>
     </g>
    </g>
    <g id="text_8">
     <!-- Date -->
     <defs>
      <path d="M 19.671875 64.796875 
L 19.671875 8.109375 
L 31.59375 8.109375 
Q 46.6875 8.109375 53.6875 14.9375 
Q 60.6875 21.78125 60.6875 36.53125 
Q 60.6875 51.171875 53.6875 57.984375 
Q 46.6875 64.796875 31.59375 64.796875 
z
M 9.8125 72.90625 
L 30.078125 72.90625 
Q 51.265625 72.90625 61.171875 64.09375 
Q 71.09375 55.28125 71.09375 36.53125 
Q 71.09375 17.671875 61.125 8.828125 
Q 51.171875 0 30.078125 0 
L 9.8125 0 
z
" id="DejaVuSans-68"/>
      <path d="M 34.28125 27.484375 
Q 23.390625 27.484375 19.1875 25 
Q 14.984375 22.515625 14.984375 16.5 
Q 14.984375 11.71875 18.140625 8.90625 
Q 21.296875 6.109375 26.703125 6.109375 
Q 34.1875 6.109375 38.703125 11.40625 
Q 43.21875 16.703125 43.21875 25.484375 
L 43.21875 27.484375 
z
M 52.203125 31.203125 
L 52.203125 0 
L 43.21875 0 
L 43.21875 8.296875 
Q 40.140625 3.328125 35.546875 0.953125 
Q 30.953125 -1.421875 24.3125 -1.421875 
Q 15.921875 -1.421875 10.953125 3.296875 
Q 6 8.015625 6 15.921875 
Q 6 25.140625 12.171875 29.828125 
Q 18.359375 34.515625 30.609375 34.515625 
L 43.21875 34.515625 
L 43.21875 35.40625 
Q 43.21875 41.609375 39.140625 45 
Q 35.0625 48.390625 27.6875 48.390625 
Q 23 48.390625 18.546875 47.265625 
Q 14.109375 46.140625 10.015625 43.890625 
L 10.015625 52.203125 
Q 14.9375 54.109375 19.578125 55.046875 
Q 24.21875 56 28.609375 56 
Q 40.484375 56 46.34375 49.84375 
Q 52.203125 43.703125 52.203125 31.203125 
z
" id="DejaVuSans-97"/>
      <path d="M 18.3125 70.21875 
L 18.3125 54.6875 
L 36.8125 54.6875 
L 36.8125 47.703125 
L 18.3125 47.703125 
L 18.3125 18.015625 
Q 18.3125 11.328125 20.140625 9.421875 
Q 21.96875 7.515625 27.59375 7.515625 
L 36.8125 7.515625 
L 36.8125 0 
L 27.59375 0 
Q 17.1875 0 13.234375 3.875 
Q 9.28125 7.765625 9.28125 18.015625 
L 9.28125 47.703125 
L 2.6875 47.703125 
L 2.6875 54.6875 
L 9.28125 54.6875 
L 9.28125 70.21875 
z
" id="DejaVuSans-116"/>
      <path d="M 56.203125 29.59375 
L 56.203125 25.203125 
L 14.890625 25.203125 
Q 15.484375 15.921875 20.484375 11.0625 
Q 25.484375 6.203125 34.421875 6.203125 
Q 39.59375 6.203125 44.453125 7.46875 
Q 49.3125 8.734375 54.109375 11.28125 
L 54.109375 2.78125 
Q 49.265625 0.734375 44.1875 -0.34375 
Q 39.109375 -1.421875 33.890625 -1.421875 
Q 20.796875 -1.421875 13.15625 6.1875 
Q 5.515625 13.8125 5.515625 26.8125 
Q 5.515625 40.234375 12.765625 48.109375 
Q 20.015625 56 32.328125 56 
Q 43.359375 56 49.78125 48.890625 
Q 56.203125 41.796875 56.203125 29.59375 
z
M 47.21875 32.234375 
Q 47.125 39.59375 43.09375 43.984375 
Q 39.0625 48.390625 32.421875 48.390625 
Q 24.90625 48.390625 20.390625 44.140625 
Q 15.875 39.890625 15.1875 32.171875 
z
" id="DejaVuSans-101"/>
     </defs>
     <g transform="translate(357.049219 348.676562)scale(0.1 -0.1)">
      <use xlink:href="#DejaVuSans-68"/>
      <use x="77.001953" xlink:href="#DejaVuSans-97"/>
      <use x="138.28125" xlink:href="#DejaVuSans-116"/>
      <use x="177.490234" xlink:href="#DejaVuSans-101"/>
     </g>
    </g>
   </g>
   <g id="matplotlib.axis_2">
    <g id="ytick_1">
     <g id="line2d_8">
      <defs>
       <path d="M 0 0 
L -3.5 0 
" id="m6bd8e94b79" style="stroke:#000000;stroke-width:0.8;"/>
      </defs>
      <g>
       <use style="stroke:#000000;stroke-width:0.8;" x="90" xlink:href="#m6bd8e94b79" y="307.8"/>
      </g>
     </g>
     <g id="text_9">
      <!-- 0 -->
      <g transform="translate(76.6375 311.599219)scale(0.1 -0.1)">
       <use xlink:href="#DejaVuSans-48"/>
      </g>
     </g>
    </g>
    <g id="ytick_2">
     <g id="line2d_9">
      <g>
       <use style="stroke:#000000;stroke-width:0.8;" x="90" xlink:href="#m6bd8e94b79" y="273.293633"/>
      </g>
     </g>
     <g id="text_10">
      <!-- 2000 -->
      <g transform="translate(57.55 277.092852)scale(0.1 -0.1)">
       <use xlink:href="#DejaVuSans-50"/>
       <use x="63.623047" xlink:href="#DejaVuSans-48"/>
       <use x="127.246094" xlink:href="#DejaVuSans-48"/>
       <use x="190.869141" xlink:href="#DejaVuSans-48"/>
      </g>
     </g>
    </g>
    <g id="ytick_3">
     <g id="line2d_10">
      <g>
       <use style="stroke:#000000;stroke-width:0.8;" x="90" xlink:href="#m6bd8e94b79" y="238.787266"/>
      </g>
     </g>
     <g id="text_11">
      <!-- 4000 -->
      <g transform="translate(57.55 242.586484)scale(0.1 -0.1)">
       <use xlink:href="#DejaVuSans-52"/>
       <use x="63.623047" xlink:href="#DejaVuSans-48"/>
       <use x="127.246094" xlink:href="#DejaVuSans-48"/>
       <use x="190.869141" xlink:href="#DejaVuSans-48"/>
      </g>
     </g>
    </g>
    <g id="ytick_4">
     <g id="line2d_11">
      <g>
       <use style="stroke:#000000;stroke-width:0.8;" x="90" xlink:href="#m6bd8e94b79" y="204.280898"/>
      </g>
     </g>
     <g id="text_12">
      <!-- 6000 -->
      <defs>
       <path d="M 33.015625 40.375 
Q 26.375 40.375 22.484375 35.828125 
Q 18.609375 31.296875 18.609375 23.390625 
Q 18.609375 15.53125 22.484375 10.953125 
Q 26.375 6.390625 33.015625 6.390625 
Q 39.65625 6.390625 43.53125 10.953125 
Q 47.40625 15.53125 47.40625 23.390625 
Q 47.40625 31.296875 43.53125 35.828125 
Q 39.65625 40.375 33.015625 40.375 
z
M 52.59375 71.296875 
L 52.59375 62.3125 
Q 48.875 64.0625 45.09375 64.984375 
Q 41.3125 65.921875 37.59375 65.921875 
Q 27.828125 65.921875 22.671875 59.328125 
Q 17.53125 52.734375 16.796875 39.40625 
Q 19.671875 43.65625 24.015625 45.921875 
Q 28.375 48.1875 33.59375 48.1875 
Q 44.578125 48.1875 50.953125 41.515625 
Q 57.328125 34.859375 57.328125 23.390625 
Q 57.328125 12.15625 50.6875 5.359375 
Q 44.046875 -1.421875 33.015625 -1.421875 
Q 20.359375 -1.421875 13.671875 8.265625 
Q 6.984375 17.96875 6.984375 36.375 
Q 6.984375 53.65625 15.1875 63.9375 
Q 23.390625 74.21875 37.203125 74.21875 
Q 40.921875 74.21875 44.703125 73.484375 
Q 48.484375 72.75 52.59375 71.296875 
z
" id="DejaVuSans-54"/>
      </defs>
      <g transform="translate(57.55 208.080117)scale(0.1 -0.1)">
       <use xlink:href="#DejaVuSans-54"/>
       <use x="63.623047" xlink:href="#DejaVuSans-48"/>
       <use x="127.246094" xlink:href="#DejaVuSans-48"/>
       <use x="190.869141" xlink:href="#DejaVuSans-48"/>
      </g>
     </g>
    </g>
    <g id="ytick_5">
     <g id="line2d_12">
      <g>
       <use style="stroke:#000000;stroke-width:0.8;" x="90" xlink:href="#m6bd8e94b79" y="169.774531"/>
      </g>
     </g>
     <g id="text_13">
      <!-- 8000 -->
      <g transform="translate(57.55 173.57375)scale(0.1 -0.1)">
       <use xlink:href="#DejaVuSans-56"/>
       <use x="63.623047" xlink:href="#DejaVuSans-48"/>
       <use x="127.246094" xlink:href="#DejaVuSans-48"/>
       <use x="190.869141" xlink:href="#DejaVuSans-48"/>
      </g>
     </g>
    </g>
    <g id="ytick_6">
     <g id="line2d_13">
      <g>
       <use style="stroke:#000000;stroke-width:0.8;" x="90" xlink:href="#m6bd8e94b79" y="135.268164"/>
      </g>
     </g>
     <g id="text_14">
      <!-- 10000 -->
      <g transform="translate(51.1875 139.067383)scale(0.1 -0.1)">
       <use xlink:href="#DejaVuSans-49"/>
       <use x="63.623047" xlink:href="#DejaVuSans-48"/>
       <use x="127.246094" xlink:href="#DejaVuSans-48"/>
       <use x="190.869141" xlink:href="#DejaVuSans-48"/>
       <use x="254.492188" xlink:href="#DejaVuSans-48"/>
      </g>
     </g>
    </g>
    <g id="ytick_7">
     <g id="line2d_14">
      <g>
       <use style="stroke:#000000;stroke-width:0.8;" x="90" xlink:href="#m6bd8e94b79" y="100.761797"/>
      </g>
     </g>
     <g id="text_15">
      <!-- 12000 -->
      <g transform="translate(51.1875 104.561015)scale(0.1 -0.1)">
       <use xlink:href="#DejaVuSans-49"/>
       <use x="63.623047" xlink:href="#DejaVuSans-50"/>
       <use x="127.246094" xlink:href="#DejaVuSans-48"/>
       <use x="190.869141" xlink:href="#DejaVuSans-48"/>
       <use x="254.492188" xlink:href="#DejaVuSans-48"/>
      </g>
     </g>
    </g>
    <g id="ytick_8">
     <g id="line2d_15">
      <g>
       <use style="stroke:#000000;stroke-width:0.8;" x="90" xlink:href="#m6bd8e94b79" y="66.255429"/>
      </g>
     </g>
     <g id="text_16">
      <!-- 14000 -->
      <g transform="translate(51.1875 70.054648)scale(0.1 -0.1)">
       <use xlink:href="#DejaVuSans-49"/>
       <use x="63.623047" xlink:href="#DejaVuSans-52"/>
       <use x="127.246094" xlink:href="#DejaVuSans-48"/>
       <use x="190.869141" xlink:href="#DejaVuSans-48"/>
       <use x="254.492188" xlink:href="#DejaVuSans-48"/>
      </g>
     </g>
    </g>
    <g id="text_17">
     <!-- Favorite count -->
     <defs>
      <path d="M 9.8125 72.90625 
L 51.703125 72.90625 
L 51.703125 64.59375 
L 19.671875 64.59375 
L 19.671875 43.109375 
L 48.578125 43.109375 
L 48.578125 34.8125 
L 19.671875 34.8125 
L 19.671875 0 
L 9.8125 0 
z
" id="DejaVuSans-70"/>
      <path d="M 2.984375 54.6875 
L 12.5 54.6875 
L 29.59375 8.796875 
L 46.6875 54.6875 
L 56.203125 54.6875 
L 35.6875 0 
L 23.484375 0 
z
" id="DejaVuSans-118"/>
      <path d="M 30.609375 48.390625 
Q 23.390625 48.390625 19.1875 42.75 
Q 14.984375 37.109375 14.984375 27.296875 
Q 14.984375 17.484375 19.15625 11.84375 
Q 23.34375 6.203125 30.609375 6.203125 
Q 37.796875 6.203125 41.984375 11.859375 
Q 46.1875 17.53125 46.1875 27.296875 
Q 46.1875 37.015625 41.984375 42.703125 
Q 37.796875 48.390625 30.609375 48.390625 
z
M 30.609375 56 
Q 42.328125 56 49.015625 48.375 
Q 55.71875 40.765625 55.71875 27.296875 
Q 55.71875 13.875 49.015625 6.21875 
Q 42.328125 -1.421875 30.609375 -1.421875 
Q 18.84375 -1.421875 12.171875 6.21875 
Q 5.515625 13.875 5.515625 27.296875 
Q 5.515625 40.765625 12.171875 48.375 
Q 18.84375 56 30.609375 56 
z
" id="DejaVuSans-111"/>
      <path d="M 41.109375 46.296875 
Q 39.59375 47.171875 37.8125 47.578125 
Q 36.03125 48 33.890625 48 
Q 26.265625 48 22.1875 43.046875 
Q 18.109375 38.09375 18.109375 28.8125 
L 18.109375 0 
L 9.078125 0 
L 9.078125 54.6875 
L 18.109375 54.6875 
L 18.109375 46.1875 
Q 20.953125 51.171875 25.484375 53.578125 
Q 30.03125 56 36.53125 56 
Q 37.453125 56 38.578125 55.875 
Q 39.703125 55.765625 41.0625 55.515625 
z
" id="DejaVuSans-114"/>
      <path d="M 9.421875 54.6875 
L 18.40625 54.6875 
L 18.40625 0 
L 9.421875 0 
z
M 9.421875 75.984375 
L 18.40625 75.984375 
L 18.40625 64.59375 
L 9.421875 64.59375 
z
" id="DejaVuSans-105"/>
      <path id="DejaVuSans-32"/>
      <path d="M 48.78125 52.59375 
L 48.78125 44.1875 
Q 44.96875 46.296875 41.140625 47.34375 
Q 37.3125 48.390625 33.40625 48.390625 
Q 24.65625 48.390625 19.8125 42.84375 
Q 14.984375 37.3125 14.984375 27.296875 
Q 14.984375 17.28125 19.8125 11.734375 
Q 24.65625 6.203125 33.40625 6.203125 
Q 37.3125 6.203125 41.140625 7.25 
Q 44.96875 8.296875 48.78125 10.40625 
L 48.78125 2.09375 
Q 45.015625 0.34375 40.984375 -0.53125 
Q 36.96875 -1.421875 32.421875 -1.421875 
Q 20.0625 -1.421875 12.78125 6.34375 
Q 5.515625 14.109375 5.515625 27.296875 
Q 5.515625 40.671875 12.859375 48.328125 
Q 20.21875 56 33.015625 56 
Q 37.15625 56 41.109375 55.140625 
Q 45.0625 54.296875 48.78125 52.59375 
z
" id="DejaVuSans-99"/>
      <path d="M 8.5 21.578125 
L 8.5 54.6875 
L 17.484375 54.6875 
L 17.484375 21.921875 
Q 17.484375 14.15625 20.5 10.265625 
Q 23.53125 6.390625 29.59375 6.390625 
Q 36.859375 6.390625 41.078125 11.03125 
Q 45.3125 15.671875 45.3125 23.6875 
L 45.3125 54.6875 
L 54.296875 54.6875 
L 54.296875 0 
L 45.3125 0 
L 45.3125 8.40625 
Q 42.046875 3.421875 37.71875 1 
Q 33.40625 -1.421875 27.6875 -1.421875 
Q 18.265625 -1.421875 13.375 4.4375 
Q 8.5 10.296875 8.5 21.578125 
z
M 31.109375 56 
z
" id="DejaVuSans-117"/>
      <path d="M 54.890625 33.015625 
L 54.890625 0 
L 45.90625 0 
L 45.90625 32.71875 
Q 45.90625 40.484375 42.875 44.328125 
Q 39.84375 48.1875 33.796875 48.1875 
Q 26.515625 48.1875 22.3125 43.546875 
Q 18.109375 38.921875 18.109375 30.90625 
L 18.109375 0 
L 9.078125 0 
L 9.078125 54.6875 
L 18.109375 54.6875 
L 18.109375 46.1875 
Q 21.34375 51.125 25.703125 53.5625 
Q 30.078125 56 35.796875 56 
Q 45.21875 56 50.046875 50.171875 
Q 54.890625 44.34375 54.890625 33.015625 
z
" id="DejaVuSans-110"/>
     </defs>
     <g transform="translate(45.107812 217.478906)rotate(-90)scale(0.1 -0.1)">
      <use xlink:href="#DejaVuSans-70"/>
      <use x="48.394531" xlink:href="#DejaVuSans-97"/>
      <use x="109.673828" xlink:href="#DejaVuSans-118"/>
      <use x="168.853516" xlink:href="#DejaVuSans-111"/>
      <use x="230.035156" xlink:href="#DejaVuSans-114"/>
      <use x="271.148438" xlink:href="#DejaVuSans-105"/>
      <use x="298.931641" xlink:href="#DejaVuSans-116"/>
      <use x="338.140625" xlink:href="#DejaVuSans-101"/>
      <use x="399.664062" xlink:href="#DejaVuSans-32"/>
      <use x="431.451172" xlink:href="#DejaVuSans-99"/>
      <use x="486.431641" xlink:href="#DejaVuSans-111"/>
      <use x="547.613281" xlink:href="#DejaVuSans-117"/>
      <use x="610.992188" xlink:href="#DejaVuSans-110"/>
      <use x="674.371094" xlink:href="#DejaVuSans-116"/>
     </g>
    </g>
   </g>
   <g id="line2d_16">
    <path clip-path="url(#pbfc87eac41)" d="M 115.363636 180.66129 
L 126.391304 307.8 
L 137.418972 307.8 
L 148.44664 192.807531 
L 159.474308 307.8 
L 170.501976 307.8 
L 181.529644 307.8 
L 192.557312 153.591045 
L 203.58498 246.620211 
L 214.612648 307.8 
L 225.640316 307.8 
L 236.667984 190.909681 
L 247.695652 268.99759 
L 258.72332 181.610215 
L 269.750988 270.602136 
L 280.778656 307.8 
L 291.806324 307.8 
L 302.833992 307.8 
L 313.86166 307.8 
L 324.889328 272.396467 
L 335.916996 290.426044 
L 346.944664 247.293085 
L 357.972332 279.073449 
L 369 307.8 
L 380.027668 307.8 
L 391.055336 307.8 
L 402.083004 307.8 
L 413.110672 307.8 
L 424.13834 307.8 
L 435.166008 307.8 
L 446.193676 307.8 
L 457.221344 307.8 
L 468.249012 307.8 
L 479.27668 307.8 
L 490.304348 307.8 
L 501.332016 137.235027 
L 512.359684 307.8 
L 523.387352 307.8 
L 534.41502 307.8 
L 545.442688 307.8 
L 556.470356 307.8 
L 567.498024 307.8 
L 578.525692 180.247213 
L 589.55336 272.758784 
L 600.581028 263.407559 
L 611.608696 254.211612 
L 622.636364 186.147802 
" style="fill:none;stroke:#1f77b4;stroke-linecap:square;stroke-width:1.5;"/>
   </g>
   <g id="line2d_17">
    <path clip-path="url(#pbfc87eac41)" d="M 115.363636 289.356347 
L 126.391304 307.8 
L 137.418972 307.8 
L 148.44664 307.8 
L 159.474308 307.8 
L 170.501976 307.8 
L 181.529644 307.8 
L 192.557312 280.833274 
L 203.58498 307.8 
L 214.612648 307.8 
L 225.640316 307.8 
L 236.667984 293.773162 
L 247.695652 297.103026 
L 258.72332 307.8 
L 269.750988 297.896673 
L 280.778656 307.8 
L 291.806324 307.8 
L 302.833992 307.8 
L 313.86166 271.395783 
L 324.889328 307.8 
L 335.916996 304.901465 
L 346.944664 149.277749 
L 357.972332 264.287471 
L 369 299.156155 
L 380.027668 286.923648 
L 391.055336 302.261728 
L 402.083004 276.416459 
L 413.110672 307.8 
L 424.13834 246.533945 
L 435.166008 302.158209 
L 446.193676 267.669095 
L 457.221344 263.079748 
L 468.249012 55.8 
L 479.27668 290.391538 
L 490.304348 297.154786 
L 501.332016 294.756593 
L 512.359684 265.236396 
L 523.387352 186.475613 
L 534.41502 256.834096 
L 545.442688 292.686211 
L 556.470356 307.8 
L 567.498024 307.8 
L 578.525692 307.8 
L 589.55336 307.8 
L 600.581028 307.8 
L 611.608696 307.8 
L 622.636364 307.8 
" style="fill:none;stroke:#ff7f0e;stroke-linecap:square;stroke-width:1.5;"/>
   </g>
   <g id="line2d_18">
    <path clip-path="url(#pbfc87eac41)" d="M 115.363636 307.8 
L 126.391304 307.8 
L 137.418972 307.8 
L 148.44664 307.8 
L 159.474308 307.592962 
L 170.501976 292.272135 
L 181.529644 306.350733 
L 192.557312 307.8 
L 203.58498 307.8 
L 214.612648 307.8 
L 225.640316 307.8 
L 236.667984 305.539833 
L 247.695652 307.8 
L 258.72332 307.8 
L 269.750988 307.8 
L 280.778656 307.8 
L 291.806324 307.8 
L 302.833992 306.764809 
L 313.86166 307.8 
L 324.889328 307.8 
L 335.916996 306.316226 
L 346.944664 307.8 
L 357.972332 307.8 
L 369 307.8 
L 380.027668 307.8 
L 391.055336 307.8 
L 402.083004 307.8 
L 413.110672 299.915295 
L 424.13834 307.213392 
L 435.166008 293.617883 
L 446.193676 307.8 
L 457.221344 307.8 
L 468.249012 288.200383 
L 479.27668 307.8 
L 490.304348 305.539833 
L 501.332016 302.399754 
L 512.359684 307.8 
L 523.387352 307.523949 
L 534.41502 307.8 
L 545.442688 307.8 
L 556.470356 306.091935 
L 567.498024 306.764809 
L 578.525692 307.8 
L 589.55336 307.8 
L 600.581028 307.8 
L 611.608696 307.213392 
L 622.636364 307.8 
" style="fill:none;stroke:#2ca02c;stroke-linecap:square;stroke-width:1.5;"/>
   </g>
   <g id="line2d_19">
    <path clip-path="url(#pbfc87eac41)" d="M 115.363636 307.8 
L 126.391304 302.244475 
L 137.418972 307.8 
L 148.44664 307.8 
L 159.474308 299.000876 
L 170.501976 307.8 
L 181.529644 307.8 
L 192.557312 248.172997 
L 203.58498 297.01676 
L 214.612648 307.8 
L 225.640316 283.455758 
L 236.667984 307.8 
L 247.695652 307.8 
L 258.72332 307.8 
L 269.750988 307.8 
L 280.778656 307.8 
L 291.806324 307.8 
L 302.833992 307.8 
L 313.86166 307.8 
L 324.889328 307.8 
L 335.916996 307.8 
L 346.944664 296.154101 
L 357.972332 307.8 
L 369 307.8 
L 380.027668 307.8 
L 391.055336 307.8 
L 402.083004 307.8 
L 413.110672 307.8 
L 424.13834 289.252828 
L 435.166008 277.054827 
L 446.193676 307.8 
L 457.221344 285.025798 
L 468.249012 221.982665 
L 479.27668 302.123703 
L 490.304348 307.8 
L 501.332016 307.8 
L 512.359684 307.8 
L 523.387352 235.802465 
L 534.41502 307.8 
L 545.442688 294.135479 
L 556.470356 284.818759 
L 567.498024 307.8 
L 578.525692 307.8 
L 589.55336 307.8 
L 600.581028 307.8 
L 611.608696 301.088512 
L 622.636364 296.274873 
" style="fill:none;stroke:#d62728;stroke-linecap:square;stroke-width:1.5;"/>
   </g>
   <g id="line2d_20">
    <path clip-path="url(#pbfc87eac41)" d="M 115.363636 307.8 
L 126.391304 307.8 
L 137.418972 307.8 
L 148.44664 307.8 
L 159.474308 279.159715 
L 170.501976 307.8 
L 181.529644 307.782747 
L 192.557312 307.8 
L 203.58498 307.782747 
L 214.612648 307.8 
L 225.640316 307.8 
L 236.667984 307.8 
L 247.695652 307.8 
L 258.72332 307.8 
L 269.750988 307.8 
L 280.778656 307.8 
L 291.806324 307.8 
L 302.833992 307.8 
L 313.86166 305.746871 
L 324.889328 307.8 
L 335.916996 307.8 
L 346.944664 307.8 
L 357.972332 307.8 
L 369 307.8 
L 380.027668 307.8 
L 391.055336 307.8 
L 402.083004 304.418376 
L 413.110672 307.8 
L 424.13834 307.8 
L 435.166008 307.8 
L 446.193676 307.8 
L 457.221344 307.8 
L 468.249012 307.8 
L 479.27668 307.8 
L 490.304348 307.8 
L 501.332016 307.8 
L 512.359684 307.8 
L 523.387352 266.047296 
L 534.41502 307.8 
L 545.442688 307.8 
L 556.470356 307.8 
L 567.498024 307.8 
L 578.525692 307.8 
L 589.55336 307.8 
L 600.581028 307.8 
L 611.608696 307.8 
L 622.636364 307.8 
" style="fill:none;stroke:#9467bd;stroke-linecap:square;stroke-width:1.5;"/>
   </g>
   <g id="line2d_21">
    <path clip-path="url(#pbfc87eac41)" d="M 115.363636 293.031275 
L 126.391304 287.165192 
L 137.418972 290.94364 
L 148.44664 295.947063 
L 159.474308 273.707709 
L 170.501976 299.77727 
L 181.529644 305.004984 
L 192.557312 282.351554 
L 203.58498 289.183815 
L 214.612648 281.023059 
L 225.640316 288.907764 
L 236.667984 254.74646 
L 247.695652 296.930494 
L 258.72332 307.8 
L 269.750988 301.640613 
L 280.778656 295.446721 
L 291.806324 286.71661 
L 302.833992 300.432891 
L 313.86166 301.761386 
L 324.889328 306.782062 
L 335.916996 305.160263 
L 346.944664 301.450828 
L 357.972332 301.830398 
L 369 301.157524 
L 380.027668 299.639244 
L 391.055336 302.261728 
L 402.083004 299.311434 
L 413.110672 305.988416 
L 424.13834 300.760701 
L 435.166008 306.005669 
L 446.193676 296.378392 
L 457.221344 301.381816 
L 468.249012 301.036752 
L 479.27668 300.036067 
L 490.304348 300.260359 
L 501.332016 305.125757 
L 512.359684 301.657867 
L 523.387352 271.067972 
L 534.41502 305.52258 
L 545.442688 307.316911 
L 556.470356 305.384554 
L 567.498024 306.143694 
L 578.525692 291.633767 
L 589.55336 294.722087 
L 600.581028 283.57653 
L 611.608696 290.615829 
L 622.636364 272.396467 
" style="fill:none;stroke:#8c564b;stroke-linecap:square;stroke-width:1.5;"/>
   </g>
   <g id="patch_3">
    <path d="M 90 320.4 
L 90 43.2 
" style="fill:none;stroke:#000000;stroke-linecap:square;stroke-linejoin:miter;stroke-width:0.8;"/>
   </g>
   <g id="patch_4">
    <path d="M 648 320.4 
L 648 43.2 
" style="fill:none;stroke:#000000;stroke-linecap:square;stroke-linejoin:miter;stroke-width:0.8;"/>
   </g>
   <g id="patch_5">
    <path d="M 90 320.4 
L 648 320.4 
" style="fill:none;stroke:#000000;stroke-linecap:square;stroke-linejoin:miter;stroke-width:0.8;"/>
   </g>
   <g id="patch_6">
    <path d="M 90 43.2 
L 648 43.2 
" style="fill:none;stroke:#000000;stroke-linecap:square;stroke-linejoin:miter;stroke-width:0.8;"/>
   </g>
   <g id="text_18">
    <!-- Favorite count for date for accounts connected to candidate Duda -->
    <defs>
     <path d="M 37.109375 75.984375 
L 37.109375 68.5 
L 28.515625 68.5 
Q 23.6875 68.5 21.796875 66.546875 
Q 19.921875 64.59375 19.921875 59.515625 
L 19.921875 54.6875 
L 34.71875 54.6875 
L 34.71875 47.703125 
L 19.921875 47.703125 
L 19.921875 0 
L 10.890625 0 
L 10.890625 47.703125 
L 2.296875 47.703125 
L 2.296875 54.6875 
L 10.890625 54.6875 
L 10.890625 58.5 
Q 10.890625 67.625 15.140625 71.796875 
Q 19.390625 75.984375 28.609375 75.984375 
z
" id="DejaVuSans-102"/>
     <path d="M 45.40625 46.390625 
L 45.40625 75.984375 
L 54.390625 75.984375 
L 54.390625 0 
L 45.40625 0 
L 45.40625 8.203125 
Q 42.578125 3.328125 38.25 0.953125 
Q 33.9375 -1.421875 27.875 -1.421875 
Q 17.96875 -1.421875 11.734375 6.484375 
Q 5.515625 14.40625 5.515625 27.296875 
Q 5.515625 40.1875 11.734375 48.09375 
Q 17.96875 56 27.875 56 
Q 33.9375 56 38.25 53.625 
Q 42.578125 51.265625 45.40625 46.390625 
z
M 14.796875 27.296875 
Q 14.796875 17.390625 18.875 11.75 
Q 22.953125 6.109375 30.078125 6.109375 
Q 37.203125 6.109375 41.296875 11.75 
Q 45.40625 17.390625 45.40625 27.296875 
Q 45.40625 37.203125 41.296875 42.84375 
Q 37.203125 48.484375 30.078125 48.484375 
Q 22.953125 48.484375 18.875 42.84375 
Q 14.796875 37.203125 14.796875 27.296875 
z
" id="DejaVuSans-100"/>
     <path d="M 44.28125 53.078125 
L 44.28125 44.578125 
Q 40.484375 46.53125 36.375 47.5 
Q 32.28125 48.484375 27.875 48.484375 
Q 21.1875 48.484375 17.84375 46.4375 
Q 14.5 44.390625 14.5 40.28125 
Q 14.5 37.15625 16.890625 35.375 
Q 19.28125 33.59375 26.515625 31.984375 
L 29.59375 31.296875 
Q 39.15625 29.25 43.1875 25.515625 
Q 47.21875 21.78125 47.21875 15.09375 
Q 47.21875 7.46875 41.1875 3.015625 
Q 35.15625 -1.421875 24.609375 -1.421875 
Q 20.21875 -1.421875 15.453125 -0.5625 
Q 10.6875 0.296875 5.421875 2 
L 5.421875 11.28125 
Q 10.40625 8.6875 15.234375 7.390625 
Q 20.0625 6.109375 24.8125 6.109375 
Q 31.15625 6.109375 34.5625 8.28125 
Q 37.984375 10.453125 37.984375 14.40625 
Q 37.984375 18.0625 35.515625 20.015625 
Q 33.0625 21.96875 24.703125 23.78125 
L 21.578125 24.515625 
Q 13.234375 26.265625 9.515625 29.90625 
Q 5.8125 33.546875 5.8125 39.890625 
Q 5.8125 47.609375 11.28125 51.796875 
Q 16.75 56 26.8125 56 
Q 31.78125 56 36.171875 55.265625 
Q 40.578125 54.546875 44.28125 53.078125 
z
" id="DejaVuSans-115"/>
    </defs>
    <g transform="translate(170.735625 37.2)scale(0.12 -0.12)">
     <use xlink:href="#DejaVuSans-70"/>
     <use x="48.394531" xlink:href="#DejaVuSans-97"/>
     <use x="109.673828" xlink:href="#DejaVuSans-118"/>
     <use x="168.853516" xlink:href="#DejaVuSans-111"/>
     <use x="230.035156" xlink:href="#DejaVuSans-114"/>
     <use x="271.148438" xlink:href="#DejaVuSans-105"/>
     <use x="298.931641" xlink:href="#DejaVuSans-116"/>
     <use x="338.140625" xlink:href="#DejaVuSans-101"/>
     <use x="399.664062" xlink:href="#DejaVuSans-32"/>
     <use x="431.451172" xlink:href="#DejaVuSans-99"/>
     <use x="486.431641" xlink:href="#DejaVuSans-111"/>
     <use x="547.613281" xlink:href="#DejaVuSans-117"/>
     <use x="610.992188" xlink:href="#DejaVuSans-110"/>
     <use x="674.371094" xlink:href="#DejaVuSans-116"/>
     <use x="713.580078" xlink:href="#DejaVuSans-32"/>
     <use x="745.367188" xlink:href="#DejaVuSans-102"/>
     <use x="780.572266" xlink:href="#DejaVuSans-111"/>
     <use x="841.753906" xlink:href="#DejaVuSans-114"/>
     <use x="882.867188" xlink:href="#DejaVuSans-32"/>
     <use x="914.654297" xlink:href="#DejaVuSans-100"/>
     <use x="978.130859" xlink:href="#DejaVuSans-97"/>
     <use x="1039.410156" xlink:href="#DejaVuSans-116"/>
     <use x="1078.619141" xlink:href="#DejaVuSans-101"/>
     <use x="1140.142578" xlink:href="#DejaVuSans-32"/>
     <use x="1171.929688" xlink:href="#DejaVuSans-102"/>
     <use x="1207.134766" xlink:href="#DejaVuSans-111"/>
     <use x="1268.316406" xlink:href="#DejaVuSans-114"/>
     <use x="1309.429688" xlink:href="#DejaVuSans-32"/>
     <use x="1341.216797" xlink:href="#DejaVuSans-97"/>
     <use x="1402.496094" xlink:href="#DejaVuSans-99"/>
     <use x="1457.476562" xlink:href="#DejaVuSans-99"/>
     <use x="1512.457031" xlink:href="#DejaVuSans-111"/>
     <use x="1573.638672" xlink:href="#DejaVuSans-117"/>
     <use x="1637.017578" xlink:href="#DejaVuSans-110"/>
     <use x="1700.396484" xlink:href="#DejaVuSans-116"/>
     <use x="1739.605469" xlink:href="#DejaVuSans-115"/>
     <use x="1791.705078" xlink:href="#DejaVuSans-32"/>
     <use x="1823.492188" xlink:href="#DejaVuSans-99"/>
     <use x="1878.472656" xlink:href="#DejaVuSans-111"/>
     <use x="1939.654297" xlink:href="#DejaVuSans-110"/>
     <use x="2003.033203" xlink:href="#DejaVuSans-110"/>
     <use x="2066.412109" xlink:href="#DejaVuSans-101"/>
     <use x="2127.935547" xlink:href="#DejaVuSans-99"/>
     <use x="2182.916016" xlink:href="#DejaVuSans-116"/>
     <use x="2222.125" xlink:href="#DejaVuSans-101"/>
     <use x="2283.648438" xlink:href="#DejaVuSans-100"/>
     <use x="2347.125" xlink:href="#DejaVuSans-32"/>
     <use x="2378.912109" xlink:href="#DejaVuSans-116"/>
     <use x="2418.121094" xlink:href="#DejaVuSans-111"/>
     <use x="2479.302734" xlink:href="#DejaVuSans-32"/>
     <use x="2511.089844" xlink:href="#DejaVuSans-99"/>
     <use x="2566.070312" xlink:href="#DejaVuSans-97"/>
     <use x="2627.349609" xlink:href="#DejaVuSans-110"/>
     <use x="2690.728516" xlink:href="#DejaVuSans-100"/>
     <use x="2754.205078" xlink:href="#DejaVuSans-105"/>
     <use x="2781.988281" xlink:href="#DejaVuSans-100"/>
     <use x="2845.464844" xlink:href="#DejaVuSans-97"/>
     <use x="2906.744141" xlink:href="#DejaVuSans-116"/>
     <use x="2945.953125" xlink:href="#DejaVuSans-101"/>
     <use x="3007.476562" xlink:href="#DejaVuSans-32"/>
     <use x="3039.263672" xlink:href="#DejaVuSans-68"/>
     <use x="3116.265625" xlink:href="#DejaVuSans-117"/>
     <use x="3179.644531" xlink:href="#DejaVuSans-100"/>
     <use x="3243.121094" xlink:href="#DejaVuSans-97"/>
    </g>
   </g>
   <g id="legend_1">
    <g id="patch_7">
     <path d="M 97 139.26875 
L 218.78125 139.26875 
Q 220.78125 139.26875 220.78125 137.26875 
L 220.78125 50.2 
Q 220.78125 48.2 218.78125 48.2 
L 97 48.2 
Q 95 48.2 95 50.2 
L 95 137.26875 
Q 95 139.26875 97 139.26875 
z
" style="fill:#ffffff;opacity:0.8;stroke:#cccccc;stroke-linejoin:miter;"/>
    </g>
    <g id="line2d_22">
     <path d="M 99 56.298437 
L 119 56.298437 
" style="fill:none;stroke:#1f77b4;stroke-linecap:square;stroke-width:1.5;"/>
    </g>
    <g id="line2d_23"/>
    <g id="text_19">
     <!-- AndrzejDuda -->
     <defs>
      <path d="M 34.1875 63.1875 
L 20.796875 26.90625 
L 47.609375 26.90625 
z
M 28.609375 72.90625 
L 39.796875 72.90625 
L 67.578125 0 
L 57.328125 0 
L 50.6875 18.703125 
L 17.828125 18.703125 
L 11.1875 0 
L 0.78125 0 
z
" id="DejaVuSans-65"/>
      <path d="M 5.515625 54.6875 
L 48.1875 54.6875 
L 48.1875 46.484375 
L 14.40625 7.171875 
L 48.1875 7.171875 
L 48.1875 0 
L 4.296875 0 
L 4.296875 8.203125 
L 38.09375 47.515625 
L 5.515625 47.515625 
z
" id="DejaVuSans-122"/>
      <path d="M 9.421875 54.6875 
L 18.40625 54.6875 
L 18.40625 -0.984375 
Q 18.40625 -11.421875 14.421875 -16.109375 
Q 10.453125 -20.796875 1.609375 -20.796875 
L -1.8125 -20.796875 
L -1.8125 -13.1875 
L 0.59375 -13.1875 
Q 5.71875 -13.1875 7.5625 -10.8125 
Q 9.421875 -8.453125 9.421875 -0.984375 
z
M 9.421875 75.984375 
L 18.40625 75.984375 
L 18.40625 64.59375 
L 9.421875 64.59375 
z
" id="DejaVuSans-106"/>
     </defs>
     <g transform="translate(127 59.798437)scale(0.1 -0.1)">
      <use xlink:href="#DejaVuSans-65"/>
      <use x="68.408203" xlink:href="#DejaVuSans-110"/>
      <use x="131.787109" xlink:href="#DejaVuSans-100"/>
      <use x="195.263672" xlink:href="#DejaVuSans-114"/>
      <use x="236.376953" xlink:href="#DejaVuSans-122"/>
      <use x="288.867188" xlink:href="#DejaVuSans-101"/>
      <use x="350.390625" xlink:href="#DejaVuSans-106"/>
      <use x="378.173828" xlink:href="#DejaVuSans-68"/>
      <use x="455.175781" xlink:href="#DejaVuSans-117"/>
      <use x="518.554688" xlink:href="#DejaVuSans-100"/>
      <use x="582.03125" xlink:href="#DejaVuSans-97"/>
     </g>
    </g>
    <g id="line2d_24">
     <path d="M 99 70.976562 
L 119 70.976562 
" style="fill:none;stroke:#ff7f0e;stroke-linecap:square;stroke-width:1.5;"/>
    </g>
    <g id="line2d_25"/>
    <g id="text_20">
     <!-- AndrzejDuda2020 -->
     <g transform="translate(127 74.476562)scale(0.1 -0.1)">
      <use xlink:href="#DejaVuSans-65"/>
      <use x="68.408203" xlink:href="#DejaVuSans-110"/>
      <use x="131.787109" xlink:href="#DejaVuSans-100"/>
      <use x="195.263672" xlink:href="#DejaVuSans-114"/>
      <use x="236.376953" xlink:href="#DejaVuSans-122"/>
      <use x="288.867188" xlink:href="#DejaVuSans-101"/>
      <use x="350.390625" xlink:href="#DejaVuSans-106"/>
      <use x="378.173828" xlink:href="#DejaVuSans-68"/>
      <use x="455.175781" xlink:href="#DejaVuSans-117"/>
      <use x="518.554688" xlink:href="#DejaVuSans-100"/>
      <use x="582.03125" xlink:href="#DejaVuSans-97"/>
      <use x="643.310547" xlink:href="#DejaVuSans-50"/>
      <use x="706.933594" xlink:href="#DejaVuSans-48"/>
      <use x="770.556641" xlink:href="#DejaVuSans-50"/>
      <use x="834.179688" xlink:href="#DejaVuSans-48"/>
     </g>
    </g>
    <g id="line2d_26">
     <path d="M 99 85.654687 
L 119 85.654687 
" style="fill:none;stroke:#2ca02c;stroke-linecap:square;stroke-width:1.5;"/>
    </g>
    <g id="line2d_27"/>
    <g id="text_21">
     <!-- mecenasJTK -->
     <defs>
      <path d="M 52 44.1875 
Q 55.375 50.25 60.0625 53.125 
Q 64.75 56 71.09375 56 
Q 79.640625 56 84.28125 50.015625 
Q 88.921875 44.046875 88.921875 33.015625 
L 88.921875 0 
L 79.890625 0 
L 79.890625 32.71875 
Q 79.890625 40.578125 77.09375 44.375 
Q 74.3125 48.1875 68.609375 48.1875 
Q 61.625 48.1875 57.5625 43.546875 
Q 53.515625 38.921875 53.515625 30.90625 
L 53.515625 0 
L 44.484375 0 
L 44.484375 32.71875 
Q 44.484375 40.625 41.703125 44.40625 
Q 38.921875 48.1875 33.109375 48.1875 
Q 26.21875 48.1875 22.15625 43.53125 
Q 18.109375 38.875 18.109375 30.90625 
L 18.109375 0 
L 9.078125 0 
L 9.078125 54.6875 
L 18.109375 54.6875 
L 18.109375 46.1875 
Q 21.1875 51.21875 25.484375 53.609375 
Q 29.78125 56 35.6875 56 
Q 41.65625 56 45.828125 52.96875 
Q 50 49.953125 52 44.1875 
z
" id="DejaVuSans-109"/>
      <path d="M 9.8125 72.90625 
L 19.671875 72.90625 
L 19.671875 5.078125 
Q 19.671875 -8.109375 14.671875 -14.0625 
Q 9.671875 -20.015625 -1.421875 -20.015625 
L -5.171875 -20.015625 
L -5.171875 -11.71875 
L -2.09375 -11.71875 
Q 4.4375 -11.71875 7.125 -8.046875 
Q 9.8125 -4.390625 9.8125 5.078125 
z
" id="DejaVuSans-74"/>
      <path d="M -0.296875 72.90625 
L 61.375 72.90625 
L 61.375 64.59375 
L 35.5 64.59375 
L 35.5 0 
L 25.59375 0 
L 25.59375 64.59375 
L -0.296875 64.59375 
z
" id="DejaVuSans-84"/>
      <path d="M 9.8125 72.90625 
L 19.671875 72.90625 
L 19.671875 42.09375 
L 52.390625 72.90625 
L 65.09375 72.90625 
L 28.90625 38.921875 
L 67.671875 0 
L 54.6875 0 
L 19.671875 35.109375 
L 19.671875 0 
L 9.8125 0 
z
" id="DejaVuSans-75"/>
     </defs>
     <g transform="translate(127 89.154687)scale(0.1 -0.1)">
      <use xlink:href="#DejaVuSans-109"/>
      <use x="97.412109" xlink:href="#DejaVuSans-101"/>
      <use x="158.935547" xlink:href="#DejaVuSans-99"/>
      <use x="213.916016" xlink:href="#DejaVuSans-101"/>
      <use x="275.439453" xlink:href="#DejaVuSans-110"/>
      <use x="338.818359" xlink:href="#DejaVuSans-97"/>
      <use x="400.097656" xlink:href="#DejaVuSans-115"/>
      <use x="452.197266" xlink:href="#DejaVuSans-74"/>
      <use x="481.689453" xlink:href="#DejaVuSans-84"/>
      <use x="542.773438" xlink:href="#DejaVuSans-75"/>
     </g>
    </g>
    <g id="line2d_28">
     <path d="M 99 100.332812 
L 119 100.332812 
" style="fill:none;stroke:#d62728;stroke-linecap:square;stroke-width:1.5;"/>
    </g>
    <g id="line2d_29"/>
    <g id="text_22">
     <!-- jbrudzinski -->
     <defs>
      <path d="M 48.6875 27.296875 
Q 48.6875 37.203125 44.609375 42.84375 
Q 40.53125 48.484375 33.40625 48.484375 
Q 26.265625 48.484375 22.1875 42.84375 
Q 18.109375 37.203125 18.109375 27.296875 
Q 18.109375 17.390625 22.1875 11.75 
Q 26.265625 6.109375 33.40625 6.109375 
Q 40.53125 6.109375 44.609375 11.75 
Q 48.6875 17.390625 48.6875 27.296875 
z
M 18.109375 46.390625 
Q 20.953125 51.265625 25.265625 53.625 
Q 29.59375 56 35.59375 56 
Q 45.5625 56 51.78125 48.09375 
Q 58.015625 40.1875 58.015625 27.296875 
Q 58.015625 14.40625 51.78125 6.484375 
Q 45.5625 -1.421875 35.59375 -1.421875 
Q 29.59375 -1.421875 25.265625 0.953125 
Q 20.953125 3.328125 18.109375 8.203125 
L 18.109375 0 
L 9.078125 0 
L 9.078125 75.984375 
L 18.109375 75.984375 
z
" id="DejaVuSans-98"/>
      <path d="M 9.078125 75.984375 
L 18.109375 75.984375 
L 18.109375 31.109375 
L 44.921875 54.6875 
L 56.390625 54.6875 
L 27.390625 29.109375 
L 57.625 0 
L 45.90625 0 
L 18.109375 26.703125 
L 18.109375 0 
L 9.078125 0 
z
" id="DejaVuSans-107"/>
     </defs>
     <g transform="translate(127 103.832812)scale(0.1 -0.1)">
      <use xlink:href="#DejaVuSans-106"/>
      <use x="27.783203" xlink:href="#DejaVuSans-98"/>
      <use x="91.259766" xlink:href="#DejaVuSans-114"/>
      <use x="132.373047" xlink:href="#DejaVuSans-117"/>
      <use x="195.751953" xlink:href="#DejaVuSans-100"/>
      <use x="259.228516" xlink:href="#DejaVuSans-122"/>
      <use x="311.71875" xlink:href="#DejaVuSans-105"/>
      <use x="339.501953" xlink:href="#DejaVuSans-110"/>
      <use x="402.880859" xlink:href="#DejaVuSans-115"/>
      <use x="454.980469" xlink:href="#DejaVuSans-107"/>
      <use x="512.890625" xlink:href="#DejaVuSans-105"/>
     </g>
    </g>
    <g id="line2d_30">
     <path d="M 99 115.010937 
L 119 115.010937 
" style="fill:none;stroke:#9467bd;stroke-linecap:square;stroke-width:1.5;"/>
    </g>
    <g id="line2d_31"/>
    <g id="text_23">
     <!-- AdamBielan -->
     <defs>
      <path d="M 19.671875 34.8125 
L 19.671875 8.109375 
L 35.5 8.109375 
Q 43.453125 8.109375 47.28125 11.40625 
Q 51.125 14.703125 51.125 21.484375 
Q 51.125 28.328125 47.28125 31.5625 
Q 43.453125 34.8125 35.5 34.8125 
z
M 19.671875 64.796875 
L 19.671875 42.828125 
L 34.28125 42.828125 
Q 41.5 42.828125 45.03125 45.53125 
Q 48.578125 48.25 48.578125 53.8125 
Q 48.578125 59.328125 45.03125 62.0625 
Q 41.5 64.796875 34.28125 64.796875 
z
M 9.8125 72.90625 
L 35.015625 72.90625 
Q 46.296875 72.90625 52.390625 68.21875 
Q 58.5 63.53125 58.5 54.890625 
Q 58.5 48.1875 55.375 44.234375 
Q 52.25 40.28125 46.1875 39.3125 
Q 53.46875 37.75 57.5 32.78125 
Q 61.53125 27.828125 61.53125 20.40625 
Q 61.53125 10.640625 54.890625 5.3125 
Q 48.25 0 35.984375 0 
L 9.8125 0 
z
" id="DejaVuSans-66"/>
      <path d="M 9.421875 75.984375 
L 18.40625 75.984375 
L 18.40625 0 
L 9.421875 0 
z
" id="DejaVuSans-108"/>
     </defs>
     <g transform="translate(127 118.510937)scale(0.1 -0.1)">
      <use xlink:href="#DejaVuSans-65"/>
      <use x="66.658203" xlink:href="#DejaVuSans-100"/>
      <use x="130.134766" xlink:href="#DejaVuSans-97"/>
      <use x="191.414062" xlink:href="#DejaVuSans-109"/>
      <use x="288.826172" xlink:href="#DejaVuSans-66"/>
      <use x="357.429688" xlink:href="#DejaVuSans-105"/>
      <use x="385.212891" xlink:href="#DejaVuSans-101"/>
      <use x="446.736328" xlink:href="#DejaVuSans-108"/>
      <use x="474.519531" xlink:href="#DejaVuSans-97"/>
      <use x="535.798828" xlink:href="#DejaVuSans-110"/>
     </g>
    </g>
    <g id="line2d_32">
     <path d="M 99 129.689062 
L 119 129.689062 
" style="fill:none;stroke:#8c564b;stroke-linecap:square;stroke-width:1.5;"/>
    </g>
    <g id="line2d_33"/>
    <g id="text_24">
     <!-- pisorgpl -->
     <defs>
      <path d="M 18.109375 8.203125 
L 18.109375 -20.796875 
L 9.078125 -20.796875 
L 9.078125 54.6875 
L 18.109375 54.6875 
L 18.109375 46.390625 
Q 20.953125 51.265625 25.265625 53.625 
Q 29.59375 56 35.59375 56 
Q 45.5625 56 51.78125 48.09375 
Q 58.015625 40.1875 58.015625 27.296875 
Q 58.015625 14.40625 51.78125 6.484375 
Q 45.5625 -1.421875 35.59375 -1.421875 
Q 29.59375 -1.421875 25.265625 0.953125 
Q 20.953125 3.328125 18.109375 8.203125 
z
M 48.6875 27.296875 
Q 48.6875 37.203125 44.609375 42.84375 
Q 40.53125 48.484375 33.40625 48.484375 
Q 26.265625 48.484375 22.1875 42.84375 
Q 18.109375 37.203125 18.109375 27.296875 
Q 18.109375 17.390625 22.1875 11.75 
Q 26.265625 6.109375 33.40625 6.109375 
Q 40.53125 6.109375 44.609375 11.75 
Q 48.6875 17.390625 48.6875 27.296875 
z
" id="DejaVuSans-112"/>
      <path d="M 45.40625 27.984375 
Q 45.40625 37.75 41.375 43.109375 
Q 37.359375 48.484375 30.078125 48.484375 
Q 22.859375 48.484375 18.828125 43.109375 
Q 14.796875 37.75 14.796875 27.984375 
Q 14.796875 18.265625 18.828125 12.890625 
Q 22.859375 7.515625 30.078125 7.515625 
Q 37.359375 7.515625 41.375 12.890625 
Q 45.40625 18.265625 45.40625 27.984375 
z
M 54.390625 6.78125 
Q 54.390625 -7.171875 48.1875 -13.984375 
Q 42 -20.796875 29.203125 -20.796875 
Q 24.46875 -20.796875 20.265625 -20.09375 
Q 16.0625 -19.390625 12.109375 -17.921875 
L 12.109375 -9.1875 
Q 16.0625 -11.328125 19.921875 -12.34375 
Q 23.78125 -13.375 27.78125 -13.375 
Q 36.625 -13.375 41.015625 -8.765625 
Q 45.40625 -4.15625 45.40625 5.171875 
L 45.40625 9.625 
Q 42.625 4.78125 38.28125 2.390625 
Q 33.9375 0 27.875 0 
Q 17.828125 0 11.671875 7.65625 
Q 5.515625 15.328125 5.515625 27.984375 
Q 5.515625 40.671875 11.671875 48.328125 
Q 17.828125 56 27.875 56 
Q 33.9375 56 38.28125 53.609375 
Q 42.625 51.21875 45.40625 46.390625 
L 45.40625 54.6875 
L 54.390625 54.6875 
z
" id="DejaVuSans-103"/>
     </defs>
     <g transform="translate(127 133.189062)scale(0.1 -0.1)">
      <use xlink:href="#DejaVuSans-112"/>
      <use x="63.476562" xlink:href="#DejaVuSans-105"/>
      <use x="91.259766" xlink:href="#DejaVuSans-115"/>
      <use x="143.359375" xlink:href="#DejaVuSans-111"/>
      <use x="204.541016" xlink:href="#DejaVuSans-114"/>
      <use x="243.904297" xlink:href="#DejaVuSans-103"/>
      <use x="307.380859" xlink:href="#DejaVuSans-112"/>
      <use x="370.857422" xlink:href="#DejaVuSans-108"/>
     </g>
    </g>
   </g>
  </g>
 </g>
 <defs>
  <clipPath id="pbfc87eac41">
   <rect height="277.2" width="558" x="90" y="43.2"/>
  </clipPath>
 </defs>
</svg>
