<?xml version="1.0" encoding="utf-8" standalone="no"?>
<!DOCTYPE svg PUBLIC "-//W3C//DTD SVG 1.1//EN"
  "http://www.w3.org/Graphics/SVG/1.1/DTD/svg11.dtd">
<!-- Created with matplotlib (https://matplotlib.org/) -->
<svg height="360pt" version="1.1" viewBox="0 0 720 360" width="720pt" xmlns="http://www.w3.org/2000/svg" xmlns:xlink="http://www.w3.org/1999/xlink">
 <defs>
  <style type="text/css">
*{stroke-linecap:butt;stroke-linejoin:round;}
  </style>
 </defs>
 <g id="figure_1">
  <g id="patch_1">
   <path d="M 0 360 
L 720 360 
L 720 0 
L 0 0 
z
" style="fill:#ffffff;"/>
  </g>
  <g id="axes_1">
   <g id="patch_2">
    <path d="M 90 320.4 
L 648 320.4 
L 648 43.2 
L 90 43.2 
z
" style="fill:#ffffff;"/>
   </g>
   <g id="PathCollection_1">
    <defs>
     <path d="M 0 1.118034 
C 0.296506 1.118034 0.580908 1.000231 0.790569 0.790569 
C 1.000231 0.580908 1.118034 0.296506 1.118034 0 
C 1.118034 -0.296506 1.000231 -0.580908 0.790569 -0.790569 
C 0.580908 -1.000231 0.296506 -1.118034 0 -1.118034 
C -0.296506 -1.118034 -0.580908 -1.000231 -0.790569 -0.790569 
C -1.000231 -0.580908 -1.118034 -0.296506 -1.118034 0 
C -1.118034 0.296506 -1.000231 0.580908 -0.790569 0.790569 
C -0.580908 1.000231 -0.296506 1.118034 0 1.118034 
z
" id="m74de200d29" style="stroke:#1f77b4;"/>
    </defs>
    <g clip-path="url(#p9d168a610b)">
     <use style="fill:#1f77b4;stroke:#1f77b4;" x="115.363636" xlink:href="#m74de200d29" y="307.8"/>
     <use style="fill:#1f77b4;stroke:#1f77b4;" x="126.391304" xlink:href="#m74de200d29" y="131.662661"/>
     <use style="fill:#1f77b4;stroke:#1f77b4;" x="137.418972" xlink:href="#m74de200d29" y="245.224893"/>
     <use style="fill:#1f77b4;stroke:#1f77b4;" x="148.44664" xlink:href="#m74de200d29" y="169.130472"/>
     <use style="fill:#1f77b4;stroke:#1f77b4;" x="159.474308" xlink:href="#m74de200d29" y="209.611159"/>
     <use style="fill:#1f77b4;stroke:#1f77b4;" x="170.501976" xlink:href="#m74de200d29" y="287.945923"/>
     <use style="fill:#1f77b4;stroke:#1f77b4;" x="181.529644" xlink:href="#m74de200d29" y="196.903004"/>
     <use style="fill:#1f77b4;stroke:#1f77b4;" x="192.557312" xlink:href="#m74de200d29" y="82.761373"/>
     <use style="fill:#1f77b4;stroke:#1f77b4;" x="203.58498" xlink:href="#m74de200d29" y="280.993133"/>
     <use style="fill:#1f77b4;stroke:#1f77b4;" x="214.612648" xlink:href="#m74de200d29" y="206.057511"/>
     <use style="fill:#1f77b4;stroke:#1f77b4;" x="225.640316" xlink:href="#m74de200d29" y="175.426609"/>
     <use style="fill:#1f77b4;stroke:#1f77b4;" x="236.667984" xlink:href="#m74de200d29" y="142.207725"/>
     <use style="fill:#1f77b4;stroke:#1f77b4;" x="247.695652" xlink:href="#m74de200d29" y="252.757082"/>
     <use style="fill:#1f77b4;stroke:#1f77b4;" x="258.72332" xlink:href="#m74de200d29" y="307.8"/>
     <use style="fill:#1f77b4;stroke:#1f77b4;" x="269.750988" xlink:href="#m74de200d29" y="281.186266"/>
     <use style="fill:#1f77b4;stroke:#1f77b4;" x="280.778656" xlink:href="#m74de200d29" y="192.96309"/>
     <use style="fill:#1f77b4;stroke:#1f77b4;" x="291.806324" xlink:href="#m74de200d29" y="232.941631"/>
     <use style="fill:#1f77b4;stroke:#1f77b4;" x="302.833992" xlink:href="#m74de200d29" y="257.933047"/>
     <use style="fill:#1f77b4;stroke:#1f77b4;" x="313.86166" xlink:href="#m74de200d29" y="168.164807"/>
     <use style="fill:#1f77b4;stroke:#1f77b4;" x="324.889328" xlink:href="#m74de200d29" y="216.293562"/>
     <use style="fill:#1f77b4;stroke:#1f77b4;" x="335.916996" xlink:href="#m74de200d29" y="259.246352"/>
     <use style="fill:#1f77b4;stroke:#1f77b4;" x="346.944664" xlink:href="#m74de200d29" y="274.233476"/>
     <use style="fill:#1f77b4;stroke:#1f77b4;" x="357.972332" xlink:href="#m74de200d29" y="253.56824"/>
     <use style="fill:#1f77b4;stroke:#1f77b4;" x="369" xlink:href="#m74de200d29" y="213.898712"/>
     <use style="fill:#1f77b4;stroke:#1f77b4;" x="380.027668" xlink:href="#m74de200d29" y="199.993133"/>
     <use style="fill:#1f77b4;stroke:#1f77b4;" x="391.055336" xlink:href="#m74de200d29" y="151.941631"/>
     <use style="fill:#1f77b4;stroke:#1f77b4;" x="402.083004" xlink:href="#m74de200d29" y="274.928755"/>
     <use style="fill:#1f77b4;stroke:#1f77b4;" x="413.110672" xlink:href="#m74de200d29" y="169.555365"/>
     <use style="fill:#1f77b4;stroke:#1f77b4;" x="424.13834" xlink:href="#m74de200d29" y="207.950215"/>
     <use style="fill:#1f77b4;stroke:#1f77b4;" x="435.166008" xlink:href="#m74de200d29" y="235.606867"/>
     <use style="fill:#1f77b4;stroke:#1f77b4;" x="446.193676" xlink:href="#m74de200d29" y="252.293562"/>
     <use style="fill:#1f77b4;stroke:#1f77b4;" x="457.221344" xlink:href="#m74de200d29" y="231.35794"/>
     <use style="fill:#1f77b4;stroke:#1f77b4;" x="468.249012" xlink:href="#m74de200d29" y="205.593991"/>
     <use style="fill:#1f77b4;stroke:#1f77b4;" x="479.27668" xlink:href="#m74de200d29" y="258.164807"/>
     <use style="fill:#1f77b4;stroke:#1f77b4;" x="490.304348" xlink:href="#m74de200d29" y="149.933047"/>
     <use style="fill:#1f77b4;stroke:#1f77b4;" x="501.332016" xlink:href="#m74de200d29" y="245.340773"/>
     <use style="fill:#1f77b4;stroke:#1f77b4;" x="512.359684" xlink:href="#m74de200d29" y="55.8"/>
     <use style="fill:#1f77b4;stroke:#1f77b4;" x="523.387352" xlink:href="#m74de200d29" y="307.8"/>
     <use style="fill:#1f77b4;stroke:#1f77b4;" x="534.41502" xlink:href="#m74de200d29" y="272.920172"/>
     <use style="fill:#1f77b4;stroke:#1f77b4;" x="545.442688" xlink:href="#m74de200d29" y="166.967382"/>
     <use style="fill:#1f77b4;stroke:#1f77b4;" x="556.470356" xlink:href="#m74de200d29" y="159.319313"/>
     <use style="fill:#1f77b4;stroke:#1f77b4;" x="567.498024" xlink:href="#m74de200d29" y="307.8"/>
     <use style="fill:#1f77b4;stroke:#1f77b4;" x="578.525692" xlink:href="#m74de200d29" y="197.327897"/>
     <use style="fill:#1f77b4;stroke:#1f77b4;" x="589.55336" xlink:href="#m74de200d29" y="203.585408"/>
     <use style="fill:#1f77b4;stroke:#1f77b4;" x="600.581028" xlink:href="#m74de200d29" y="146.920172"/>
     <use style="fill:#1f77b4;stroke:#1f77b4;" x="611.608696" xlink:href="#m74de200d29" y="307.8"/>
     <use style="fill:#1f77b4;stroke:#1f77b4;" x="622.636364" xlink:href="#m74de200d29" y="198.100429"/>
    </g>
   </g>
   <g id="PathCollection_2">
    <defs>
     <path d="M 0 1.118034 
C 0.296506 1.118034 0.580908 1.000231 0.790569 0.790569 
C 1.000231 0.580908 1.118034 0.296506 1.118034 0 
C 1.118034 -0.296506 1.000231 -0.580908 0.790569 -0.790569 
C 0.580908 -1.000231 0.296506 -1.118034 0 -1.118034 
C -0.296506 -1.118034 -0.580908 -1.000231 -0.790569 -0.790569 
C -1.000231 -0.580908 -1.118034 -0.296506 -1.118034 0 
C -1.118034 0.296506 -1.000231 0.580908 -0.790569 0.790569 
C -0.580908 1.000231 -0.296506 1.118034 0 1.118034 
z
" id="md96d0629ea" style="stroke:#ff7f0e;"/>
    </defs>
    <g clip-path="url(#p9d168a610b)">
     <use style="fill:#ff7f0e;stroke:#ff7f0e;" x="115.363636" xlink:href="#md96d0629ea" y="180.177682"/>
     <use style="fill:#ff7f0e;stroke:#ff7f0e;" x="126.391304" xlink:href="#md96d0629ea" y="271.297854"/>
     <use style="fill:#ff7f0e;stroke:#ff7f0e;" x="137.418972" xlink:href="#md96d0629ea" y="273.074678"/>
     <use style="fill:#ff7f0e;stroke:#ff7f0e;" x="148.44664" xlink:href="#md96d0629ea" y="237.460944"/>
     <use style="fill:#ff7f0e;stroke:#ff7f0e;" x="159.474308" xlink:href="#md96d0629ea" y="241.130472"/>
     <use style="fill:#ff7f0e;stroke:#ff7f0e;" x="170.501976" xlink:href="#md96d0629ea" y="272.03176"/>
     <use style="fill:#ff7f0e;stroke:#ff7f0e;" x="181.529644" xlink:href="#md96d0629ea" y="285.705579"/>
     <use style="fill:#ff7f0e;stroke:#ff7f0e;" x="192.557312" xlink:href="#md96d0629ea" y="81.139056"/>
     <use style="fill:#ff7f0e;stroke:#ff7f0e;" x="203.58498" xlink:href="#md96d0629ea" y="213.048927"/>
     <use style="fill:#ff7f0e;stroke:#ff7f0e;" x="214.612648" xlink:href="#md96d0629ea" y="287.86867"/>
     <use style="fill:#ff7f0e;stroke:#ff7f0e;" x="225.640316" xlink:href="#md96d0629ea" y="278.057511"/>
     <use style="fill:#ff7f0e;stroke:#ff7f0e;" x="236.667984" xlink:href="#md96d0629ea" y="91.259227"/>
     <use style="fill:#ff7f0e;stroke:#ff7f0e;" x="247.695652" xlink:href="#md96d0629ea" y="290.920172"/>
     <use style="fill:#ff7f0e;stroke:#ff7f0e;" x="258.72332" xlink:href="#md96d0629ea" y="307.8"/>
     <use style="fill:#ff7f0e;stroke:#ff7f0e;" x="269.750988" xlink:href="#md96d0629ea" y="229.542489"/>
     <use style="fill:#ff7f0e;stroke:#ff7f0e;" x="280.778656" xlink:href="#md96d0629ea" y="280.452361"/>
     <use style="fill:#ff7f0e;stroke:#ff7f0e;" x="291.806324" xlink:href="#md96d0629ea" y="215.945923"/>
     <use style="fill:#ff7f0e;stroke:#ff7f0e;" x="302.833992" xlink:href="#md96d0629ea" y="261.641202"/>
     <use style="fill:#ff7f0e;stroke:#ff7f0e;" x="313.86166" xlink:href="#md96d0629ea" y="277.516738"/>
     <use style="fill:#ff7f0e;stroke:#ff7f0e;" x="324.889328" xlink:href="#md96d0629ea" y="294.24206"/>
     <use style="fill:#ff7f0e;stroke:#ff7f0e;" x="335.916996" xlink:href="#md96d0629ea" y="305.945923"/>
     <use style="fill:#ff7f0e;stroke:#ff7f0e;" x="346.944664" xlink:href="#md96d0629ea" y="289.066094"/>
     <use style="fill:#ff7f0e;stroke:#ff7f0e;" x="357.972332" xlink:href="#md96d0629ea" y="298.645494"/>
     <use style="fill:#ff7f0e;stroke:#ff7f0e;" x="369" xlink:href="#md96d0629ea" y="187.516738"/>
     <use style="fill:#ff7f0e;stroke:#ff7f0e;" x="380.027668" xlink:href="#md96d0629ea" y="303.35794"/>
     <use style="fill:#ff7f0e;stroke:#ff7f0e;" x="391.055336" xlink:href="#md96d0629ea" y="295.593991"/>
     <use style="fill:#ff7f0e;stroke:#ff7f0e;" x="402.083004" xlink:href="#md96d0629ea" y="287.057511"/>
     <use style="fill:#ff7f0e;stroke:#ff7f0e;" x="413.110672" xlink:href="#md96d0629ea" y="307.8"/>
     <use style="fill:#ff7f0e;stroke:#ff7f0e;" x="424.13834" xlink:href="#md96d0629ea" y="246.113305"/>
     <use style="fill:#ff7f0e;stroke:#ff7f0e;" x="435.166008" xlink:href="#md96d0629ea" y="283.812876"/>
     <use style="fill:#ff7f0e;stroke:#ff7f0e;" x="446.193676" xlink:href="#md96d0629ea" y="295.864378"/>
     <use style="fill:#ff7f0e;stroke:#ff7f0e;" x="457.221344" xlink:href="#md96d0629ea" y="291.229185"/>
     <use style="fill:#ff7f0e;stroke:#ff7f0e;" x="468.249012" xlink:href="#md96d0629ea" y="260.366524"/>
     <use style="fill:#ff7f0e;stroke:#ff7f0e;" x="479.27668" xlink:href="#md96d0629ea" y="284.469528"/>
     <use style="fill:#ff7f0e;stroke:#ff7f0e;" x="490.304348" xlink:href="#md96d0629ea" y="268.864378"/>
     <use style="fill:#ff7f0e;stroke:#ff7f0e;" x="501.332016" xlink:href="#md96d0629ea" y="307.8"/>
     <use style="fill:#ff7f0e;stroke:#ff7f0e;" x="512.359684" xlink:href="#md96d0629ea" y="307.8"/>
     <use style="fill:#ff7f0e;stroke:#ff7f0e;" x="523.387352" xlink:href="#md96d0629ea" y="215.598283"/>
     <use style="fill:#ff7f0e;stroke:#ff7f0e;" x="534.41502" xlink:href="#md96d0629ea" y="307.8"/>
     <use style="fill:#ff7f0e;stroke:#ff7f0e;" x="545.442688" xlink:href="#md96d0629ea" y="279.950215"/>
     <use style="fill:#ff7f0e;stroke:#ff7f0e;" x="556.470356" xlink:href="#md96d0629ea" y="307.8"/>
     <use style="fill:#ff7f0e;stroke:#ff7f0e;" x="567.498024" xlink:href="#md96d0629ea" y="307.8"/>
     <use style="fill:#ff7f0e;stroke:#ff7f0e;" x="578.525692" xlink:href="#md96d0629ea" y="307.8"/>
     <use style="fill:#ff7f0e;stroke:#ff7f0e;" x="589.55336" xlink:href="#md96d0629ea" y="307.8"/>
     <use style="fill:#ff7f0e;stroke:#ff7f0e;" x="600.581028" xlink:href="#md96d0629ea" y="307.8"/>
     <use style="fill:#ff7f0e;stroke:#ff7f0e;" x="611.608696" xlink:href="#md96d0629ea" y="307.8"/>
     <use style="fill:#ff7f0e;stroke:#ff7f0e;" x="622.636364" xlink:href="#md96d0629ea" y="261.679828"/>
    </g>
   </g>
   <g id="PathCollection_3">
    <defs>
     <path d="M 0 1.118034 
C 0.296506 1.118034 0.580908 1.000231 0.790569 0.790569 
C 1.000231 0.580908 1.118034 0.296506 1.118034 0 
C 1.118034 -0.296506 1.000231 -0.580908 0.790569 -0.790569 
C 0.580908 -1.000231 0.296506 -1.118034 0 -1.118034 
C -0.296506 -1.118034 -0.580908 -1.000231 -0.790569 -0.790569 
C -1.000231 -0.580908 -1.118034 -0.296506 -1.118034 0 
C -1.118034 0.296506 -1.000231 0.580908 -0.790569 0.790569 
C -0.580908 1.000231 -0.296506 1.118034 0 1.118034 
z
" id="m557120ba8c" style="stroke:#2ca02c;"/>
    </defs>
    <g clip-path="url(#p9d168a610b)">
     <use style="fill:#2ca02c;stroke:#2ca02c;" x="115.363636" xlink:href="#m557120ba8c" y="218.186266"/>
     <use style="fill:#2ca02c;stroke:#2ca02c;" x="126.391304" xlink:href="#m557120ba8c" y="258.12618"/>
     <use style="fill:#2ca02c;stroke:#2ca02c;" x="137.418972" xlink:href="#m557120ba8c" y="307.8"/>
     <use style="fill:#2ca02c;stroke:#2ca02c;" x="148.44664" xlink:href="#m557120ba8c" y="98.86867"/>
     <use style="fill:#2ca02c;stroke:#2ca02c;" x="159.474308" xlink:href="#m557120ba8c" y="140.508155"/>
     <use style="fill:#2ca02c;stroke:#2ca02c;" x="170.501976" xlink:href="#m557120ba8c" y="239.971674"/>
     <use style="fill:#2ca02c;stroke:#2ca02c;" x="181.529644" xlink:href="#m557120ba8c" y="275.508155"/>
     <use style="fill:#2ca02c;stroke:#2ca02c;" x="192.557312" xlink:href="#m557120ba8c" y="247.31073"/>
     <use style="fill:#2ca02c;stroke:#2ca02c;" x="203.58498" xlink:href="#m557120ba8c" y="156.460944"/>
     <use style="fill:#2ca02c;stroke:#2ca02c;" x="214.612648" xlink:href="#m557120ba8c" y="307.8"/>
     <use style="fill:#2ca02c;stroke:#2ca02c;" x="225.640316" xlink:href="#m557120ba8c" y="283.503863"/>
     <use style="fill:#2ca02c;stroke:#2ca02c;" x="236.667984" xlink:href="#m557120ba8c" y="278.75279"/>
     <use style="fill:#2ca02c;stroke:#2ca02c;" x="247.695652" xlink:href="#m557120ba8c" y="283.696996"/>
     <use style="fill:#2ca02c;stroke:#2ca02c;" x="258.72332" xlink:href="#m557120ba8c" y="253.336481"/>
     <use style="fill:#2ca02c;stroke:#2ca02c;" x="269.750988" xlink:href="#m557120ba8c" y="307.8"/>
     <use style="fill:#2ca02c;stroke:#2ca02c;" x="280.778656" xlink:href="#m557120ba8c" y="285.280687"/>
     <use style="fill:#2ca02c;stroke:#2ca02c;" x="291.806324" xlink:href="#m557120ba8c" y="297.486695"/>
     <use style="fill:#2ca02c;stroke:#2ca02c;" x="302.833992" xlink:href="#m557120ba8c" y="277.053219"/>
     <use style="fill:#2ca02c;stroke:#2ca02c;" x="313.86166" xlink:href="#m557120ba8c" y="197.945923"/>
     <use style="fill:#2ca02c;stroke:#2ca02c;" x="324.889328" xlink:href="#m557120ba8c" y="240.24206"/>
     <use style="fill:#2ca02c;stroke:#2ca02c;" x="335.916996" xlink:href="#m557120ba8c" y="307.8"/>
     <use style="fill:#2ca02c;stroke:#2ca02c;" x="346.944664" xlink:href="#m557120ba8c" y="243.834335"/>
     <use style="fill:#2ca02c;stroke:#2ca02c;" x="357.972332" xlink:href="#m557120ba8c" y="191.340773"/>
     <use style="fill:#2ca02c;stroke:#2ca02c;" x="369" xlink:href="#m557120ba8c" y="232.593991"/>
     <use style="fill:#2ca02c;stroke:#2ca02c;" x="380.027668" xlink:href="#m557120ba8c" y="293.237768"/>
     <use style="fill:#2ca02c;stroke:#2ca02c;" x="391.055336" xlink:href="#m557120ba8c" y="260.482403"/>
     <use style="fill:#2ca02c;stroke:#2ca02c;" x="402.083004" xlink:href="#m557120ba8c" y="285.551073"/>
     <use style="fill:#2ca02c;stroke:#2ca02c;" x="413.110672" xlink:href="#m557120ba8c" y="224.173391"/>
     <use style="fill:#2ca02c;stroke:#2ca02c;" x="424.13834" xlink:href="#m557120ba8c" y="307.8"/>
     <use style="fill:#2ca02c;stroke:#2ca02c;" x="435.166008" xlink:href="#m557120ba8c" y="252.061803"/>
     <use style="fill:#2ca02c;stroke:#2ca02c;" x="446.193676" xlink:href="#m557120ba8c" y="293.392275"/>
     <use style="fill:#2ca02c;stroke:#2ca02c;" x="457.221344" xlink:href="#m557120ba8c" y="166.696996"/>
     <use style="fill:#2ca02c;stroke:#2ca02c;" x="468.249012" xlink:href="#m557120ba8c" y="254.804292"/>
     <use style="fill:#2ca02c;stroke:#2ca02c;" x="479.27668" xlink:href="#m557120ba8c" y="294.666953"/>
     <use style="fill:#2ca02c;stroke:#2ca02c;" x="490.304348" xlink:href="#m557120ba8c" y="300.615451"/>
     <use style="fill:#2ca02c;stroke:#2ca02c;" x="501.332016" xlink:href="#m557120ba8c" y="254.224893"/>
     <use style="fill:#2ca02c;stroke:#2ca02c;" x="512.359684" xlink:href="#m557120ba8c" y="195.860086"/>
     <use style="fill:#2ca02c;stroke:#2ca02c;" x="523.387352" xlink:href="#m557120ba8c" y="235.413734"/>
     <use style="fill:#2ca02c;stroke:#2ca02c;" x="534.41502" xlink:href="#m557120ba8c" y="265.156223"/>
     <use style="fill:#2ca02c;stroke:#2ca02c;" x="545.442688" xlink:href="#m557120ba8c" y="167.083262"/>
     <use style="fill:#2ca02c;stroke:#2ca02c;" x="556.470356" xlink:href="#m557120ba8c" y="307.8"/>
     <use style="fill:#2ca02c;stroke:#2ca02c;" x="567.498024" xlink:href="#m557120ba8c" y="278.945923"/>
     <use style="fill:#2ca02c;stroke:#2ca02c;" x="578.525692" xlink:href="#m557120ba8c" y="307.8"/>
     <use style="fill:#2ca02c;stroke:#2ca02c;" x="589.55336" xlink:href="#m557120ba8c" y="187.323605"/>
     <use style="fill:#2ca02c;stroke:#2ca02c;" x="600.581028" xlink:href="#m557120ba8c" y="241.787124"/>
     <use style="fill:#2ca02c;stroke:#2ca02c;" x="611.608696" xlink:href="#m557120ba8c" y="307.8"/>
     <use style="fill:#2ca02c;stroke:#2ca02c;" x="622.636364" xlink:href="#m557120ba8c" y="307.8"/>
    </g>
   </g>
   <g id="PathCollection_4">
    <defs>
     <path d="M 0 1.118034 
C 0.296506 1.118034 0.580908 1.000231 0.790569 0.790569 
C 1.000231 0.580908 1.118034 0.296506 1.118034 0 
C 1.118034 -0.296506 1.000231 -0.580908 0.790569 -0.790569 
C 0.580908 -1.000231 0.296506 -1.118034 0 -1.118034 
C -0.296506 -1.118034 -0.580908 -1.000231 -0.790569 -0.790569 
C -1.000231 -0.580908 -1.118034 -0.296506 -1.118034 0 
C -1.118034 0.296506 -1.000231 0.580908 -0.790569 0.790569 
C -0.580908 1.000231 -0.296506 1.118034 0 1.118034 
z
" id="mbefa31940d" style="stroke:#d62728;"/>
    </defs>
    <g clip-path="url(#p9d168a610b)">
     <use style="fill:#d62728;stroke:#d62728;" x="115.363636" xlink:href="#mbefa31940d" y="252.950215"/>
     <use style="fill:#d62728;stroke:#d62728;" x="126.391304" xlink:href="#mbefa31940d" y="207.679828"/>
     <use style="fill:#d62728;stroke:#d62728;" x="137.418972" xlink:href="#mbefa31940d" y="285.628326"/>
     <use style="fill:#d62728;stroke:#d62728;" x="148.44664" xlink:href="#mbefa31940d" y="258.782833"/>
     <use style="fill:#d62728;stroke:#d62728;" x="159.474308" xlink:href="#mbefa31940d" y="228.692704"/>
     <use style="fill:#d62728;stroke:#d62728;" x="170.501976" xlink:href="#mbefa31940d" y="306.100429"/>
     <use style="fill:#d62728;stroke:#d62728;" x="181.529644" xlink:href="#mbefa31940d" y="298.8"/>
     <use style="fill:#d62728;stroke:#d62728;" x="192.557312" xlink:href="#mbefa31940d" y="135.988841"/>
     <use style="fill:#d62728;stroke:#d62728;" x="203.58498" xlink:href="#mbefa31940d" y="281.920172"/>
     <use style="fill:#d62728;stroke:#d62728;" x="214.612648" xlink:href="#mbefa31940d" y="235.027468"/>
     <use style="fill:#d62728;stroke:#d62728;" x="225.640316" xlink:href="#mbefa31940d" y="293.585408"/>
     <use style="fill:#d62728;stroke:#d62728;" x="236.667984" xlink:href="#mbefa31940d" y="284.662661"/>
     <use style="fill:#d62728;stroke:#d62728;" x="247.695652" xlink:href="#mbefa31940d" y="292.31073"/>
     <use style="fill:#d62728;stroke:#d62728;" x="258.72332" xlink:href="#mbefa31940d" y="291.036052"/>
     <use style="fill:#d62728;stroke:#d62728;" x="269.750988" xlink:href="#mbefa31940d" y="302.817167"/>
     <use style="fill:#d62728;stroke:#d62728;" x="280.778656" xlink:href="#mbefa31940d" y="288.911588"/>
     <use style="fill:#d62728;stroke:#d62728;" x="291.806324" xlink:href="#mbefa31940d" y="235.877253"/>
     <use style="fill:#d62728;stroke:#d62728;" x="302.833992" xlink:href="#mbefa31940d" y="265.31073"/>
     <use style="fill:#d62728;stroke:#d62728;" x="313.86166" xlink:href="#mbefa31940d" y="286.903004"/>
     <use style="fill:#d62728;stroke:#d62728;" x="324.889328" xlink:href="#mbefa31940d" y="299.997425"/>
     <use style="fill:#d62728;stroke:#d62728;" x="335.916996" xlink:href="#mbefa31940d" y="290.263519"/>
     <use style="fill:#d62728;stroke:#d62728;" x="346.944664" xlink:href="#mbefa31940d" y="213.5897"/>
     <use style="fill:#d62728;stroke:#d62728;" x="357.972332" xlink:href="#mbefa31940d" y="253.336481"/>
     <use style="fill:#d62728;stroke:#d62728;" x="369" xlink:href="#mbefa31940d" y="261.563948"/>
     <use style="fill:#d62728;stroke:#d62728;" x="380.027668" xlink:href="#mbefa31940d" y="234.757082"/>
     <use style="fill:#d62728;stroke:#d62728;" x="391.055336" xlink:href="#mbefa31940d" y="164.070386"/>
     <use style="fill:#d62728;stroke:#d62728;" x="402.083004" xlink:href="#mbefa31940d" y="302.199142"/>
     <use style="fill:#d62728;stroke:#d62728;" x="413.110672" xlink:href="#mbefa31940d" y="275.392275"/>
     <use style="fill:#d62728;stroke:#d62728;" x="424.13834" xlink:href="#mbefa31940d" y="272.533906"/>
     <use style="fill:#d62728;stroke:#d62728;" x="435.166008" xlink:href="#mbefa31940d" y="256.117597"/>
     <use style="fill:#d62728;stroke:#d62728;" x="446.193676" xlink:href="#mbefa31940d" y="304.169099"/>
     <use style="fill:#d62728;stroke:#d62728;" x="457.221344" xlink:href="#mbefa31940d" y="277.323605"/>
     <use style="fill:#d62728;stroke:#d62728;" x="468.249012" xlink:href="#mbefa31940d" y="299.495279"/>
     <use style="fill:#d62728;stroke:#d62728;" x="479.27668" xlink:href="#mbefa31940d" y="302.237768"/>
     <use style="fill:#d62728;stroke:#d62728;" x="490.304348" xlink:href="#mbefa31940d" y="269.791416"/>
     <use style="fill:#d62728;stroke:#d62728;" x="501.332016" xlink:href="#mbefa31940d" y="270.679828"/>
     <use style="fill:#d62728;stroke:#d62728;" x="512.359684" xlink:href="#mbefa31940d" y="257.739914"/>
     <use style="fill:#d62728;stroke:#d62728;" x="523.387352" xlink:href="#mbefa31940d" y="292.967382"/>
     <use style="fill:#d62728;stroke:#d62728;" x="534.41502" xlink:href="#mbefa31940d" y="224.598283"/>
     <use style="fill:#d62728;stroke:#d62728;" x="545.442688" xlink:href="#mbefa31940d" y="223.400858"/>
     <use style="fill:#d62728;stroke:#d62728;" x="556.470356" xlink:href="#mbefa31940d" y="296.945923"/>
     <use style="fill:#d62728;stroke:#d62728;" x="567.498024" xlink:href="#mbefa31940d" y="258.319313"/>
     <use style="fill:#d62728;stroke:#d62728;" x="578.525692" xlink:href="#mbefa31940d" y="269.173391"/>
     <use style="fill:#d62728;stroke:#d62728;" x="589.55336" xlink:href="#mbefa31940d" y="239.778541"/>
     <use style="fill:#d62728;stroke:#d62728;" x="600.581028" xlink:href="#mbefa31940d" y="304.400858"/>
     <use style="fill:#d62728;stroke:#d62728;" x="611.608696" xlink:href="#mbefa31940d" y="261.872961"/>
     <use style="fill:#d62728;stroke:#d62728;" x="622.636364" xlink:href="#mbefa31940d" y="157.774249"/>
    </g>
   </g>
   <g id="matplotlib.axis_1">
    <g id="xtick_1">
     <g id="line2d_1">
      <defs>
       <path d="M 0 0 
L 0 3.5 
" id="m407d6fd596" style="stroke:#000000;stroke-width:0.8;"/>
      </defs>
      <g>
       <use style="stroke:#000000;stroke-width:0.8;" x="137.418972" xlink:href="#m407d6fd596" y="320.4"/>
      </g>
     </g>
     <g id="text_1">
      <!-- 2020-04-01 -->
      <defs>
       <path d="M 19.1875 8.296875 
L 53.609375 8.296875 
L 53.609375 0 
L 7.328125 0 
L 7.328125 8.296875 
Q 12.9375 14.109375 22.625 23.890625 
Q 32.328125 33.6875 34.8125 36.53125 
Q 39.546875 41.84375 41.421875 45.53125 
Q 43.3125 49.21875 43.3125 52.78125 
Q 43.3125 58.59375 39.234375 62.25 
Q 35.15625 65.921875 28.609375 65.921875 
Q 23.96875 65.921875 18.8125 64.3125 
Q 13.671875 62.703125 7.8125 59.421875 
L 7.8125 69.390625 
Q 13.765625 71.78125 18.9375 73 
Q 24.125 74.21875 28.421875 74.21875 
Q 39.75 74.21875 46.484375 68.546875 
Q 53.21875 62.890625 53.21875 53.421875 
Q 53.21875 48.921875 51.53125 44.890625 
Q 49.859375 40.875 45.40625 35.40625 
Q 44.1875 33.984375 37.640625 27.21875 
Q 31.109375 20.453125 19.1875 8.296875 
z
" id="DejaVuSans-50"/>
       <path d="M 31.78125 66.40625 
Q 24.171875 66.40625 20.328125 58.90625 
Q 16.5 51.421875 16.5 36.375 
Q 16.5 21.390625 20.328125 13.890625 
Q 24.171875 6.390625 31.78125 6.390625 
Q 39.453125 6.390625 43.28125 13.890625 
Q 47.125 21.390625 47.125 36.375 
Q 47.125 51.421875 43.28125 58.90625 
Q 39.453125 66.40625 31.78125 66.40625 
z
M 31.78125 74.21875 
Q 44.046875 74.21875 50.515625 64.515625 
Q 56.984375 54.828125 56.984375 36.375 
Q 56.984375 17.96875 50.515625 8.265625 
Q 44.046875 -1.421875 31.78125 -1.421875 
Q 19.53125 -1.421875 13.0625 8.265625 
Q 6.59375 17.96875 6.59375 36.375 
Q 6.59375 54.828125 13.0625 64.515625 
Q 19.53125 74.21875 31.78125 74.21875 
z
" id="DejaVuSans-48"/>
       <path d="M 4.890625 31.390625 
L 31.203125 31.390625 
L 31.203125 23.390625 
L 4.890625 23.390625 
z
" id="DejaVuSans-45"/>
       <path d="M 37.796875 64.3125 
L 12.890625 25.390625 
L 37.796875 25.390625 
z
M 35.203125 72.90625 
L 47.609375 72.90625 
L 47.609375 25.390625 
L 58.015625 25.390625 
L 58.015625 17.1875 
L 47.609375 17.1875 
L 47.609375 0 
L 37.796875 0 
L 37.796875 17.1875 
L 4.890625 17.1875 
L 4.890625 26.703125 
z
" id="DejaVuSans-52"/>
       <path d="M 12.40625 8.296875 
L 28.515625 8.296875 
L 28.515625 63.921875 
L 10.984375 60.40625 
L 10.984375 69.390625 
L 28.421875 72.90625 
L 38.28125 72.90625 
L 38.28125 8.296875 
L 54.390625 8.296875 
L 54.390625 0 
L 12.40625 0 
z
" id="DejaVuSans-49"/>
      </defs>
      <g transform="translate(108.36116 334.998438)scale(0.1 -0.1)">
       <use xlink:href="#DejaVuSans-50"/>
       <use x="63.623047" xlink:href="#DejaVuSans-48"/>
       <use x="127.246094" xlink:href="#DejaVuSans-50"/>
       <use x="190.869141" xlink:href="#DejaVuSans-48"/>
       <use x="254.492188" xlink:href="#DejaVuSans-45"/>
       <use x="290.576172" xlink:href="#DejaVuSans-48"/>
       <use x="354.199219" xlink:href="#DejaVuSans-52"/>
       <use x="417.822266" xlink:href="#DejaVuSans-45"/>
       <use x="453.90625" xlink:href="#DejaVuSans-48"/>
       <use x="517.529297" xlink:href="#DejaVuSans-49"/>
      </g>
     </g>
    </g>
    <g id="xtick_2">
     <g id="line2d_2">
      <g>
       <use style="stroke:#000000;stroke-width:0.8;" x="214.612648" xlink:href="#m407d6fd596" y="320.4"/>
      </g>
     </g>
     <g id="text_2">
      <!-- 2020-04-08 -->
      <defs>
       <path d="M 31.78125 34.625 
Q 24.75 34.625 20.71875 30.859375 
Q 16.703125 27.09375 16.703125 20.515625 
Q 16.703125 13.921875 20.71875 10.15625 
Q 24.75 6.390625 31.78125 6.390625 
Q 38.8125 6.390625 42.859375 10.171875 
Q 46.921875 13.96875 46.921875 20.515625 
Q 46.921875 27.09375 42.890625 30.859375 
Q 38.875 34.625 31.78125 34.625 
z
M 21.921875 38.8125 
Q 15.578125 40.375 12.03125 44.71875 
Q 8.5 49.078125 8.5 55.328125 
Q 8.5 64.0625 14.71875 69.140625 
Q 20.953125 74.21875 31.78125 74.21875 
Q 42.671875 74.21875 48.875 69.140625 
Q 55.078125 64.0625 55.078125 55.328125 
Q 55.078125 49.078125 51.53125 44.71875 
Q 48 40.375 41.703125 38.8125 
Q 48.828125 37.15625 52.796875 32.3125 
Q 56.78125 27.484375 56.78125 20.515625 
Q 56.78125 9.90625 50.3125 4.234375 
Q 43.84375 -1.421875 31.78125 -1.421875 
Q 19.734375 -1.421875 13.25 4.234375 
Q 6.78125 9.90625 6.78125 20.515625 
Q 6.78125 27.484375 10.78125 32.3125 
Q 14.796875 37.15625 21.921875 38.8125 
z
M 18.3125 54.390625 
Q 18.3125 48.734375 21.84375 45.5625 
Q 25.390625 42.390625 31.78125 42.390625 
Q 38.140625 42.390625 41.71875 45.5625 
Q 45.3125 48.734375 45.3125 54.390625 
Q 45.3125 60.0625 41.71875 63.234375 
Q 38.140625 66.40625 31.78125 66.40625 
Q 25.390625 66.40625 21.84375 63.234375 
Q 18.3125 60.0625 18.3125 54.390625 
z
" id="DejaVuSans-56"/>
      </defs>
      <g transform="translate(185.554836 334.998438)scale(0.1 -0.1)">
       <use xlink:href="#DejaVuSans-50"/>
       <use x="63.623047" xlink:href="#DejaVuSans-48"/>
       <use x="127.246094" xlink:href="#DejaVuSans-50"/>
       <use x="190.869141" xlink:href="#DejaVuSans-48"/>
       <use x="254.492188" xlink:href="#DejaVuSans-45"/>
       <use x="290.576172" xlink:href="#DejaVuSans-48"/>
       <use x="354.199219" xlink:href="#DejaVuSans-52"/>
       <use x="417.822266" xlink:href="#DejaVuSans-45"/>
       <use x="453.90625" xlink:href="#DejaVuSans-48"/>
       <use x="517.529297" xlink:href="#DejaVuSans-56"/>
      </g>
     </g>
    </g>
    <g id="xtick_3">
     <g id="line2d_3">
      <g>
       <use style="stroke:#000000;stroke-width:0.8;" x="291.806324" xlink:href="#m407d6fd596" y="320.4"/>
      </g>
     </g>
     <g id="text_3">
      <!-- 2020-04-15 -->
      <defs>
       <path d="M 10.796875 72.90625 
L 49.515625 72.90625 
L 49.515625 64.59375 
L 19.828125 64.59375 
L 19.828125 46.734375 
Q 21.96875 47.46875 24.109375 47.828125 
Q 26.265625 48.1875 28.421875 48.1875 
Q 40.625 48.1875 47.75 41.5 
Q 54.890625 34.8125 54.890625 23.390625 
Q 54.890625 11.625 47.5625 5.09375 
Q 40.234375 -1.421875 26.90625 -1.421875 
Q 22.3125 -1.421875 17.546875 -0.640625 
Q 12.796875 0.140625 7.71875 1.703125 
L 7.71875 11.625 
Q 12.109375 9.234375 16.796875 8.0625 
Q 21.484375 6.890625 26.703125 6.890625 
Q 35.15625 6.890625 40.078125 11.328125 
Q 45.015625 15.765625 45.015625 23.390625 
Q 45.015625 31 40.078125 35.4375 
Q 35.15625 39.890625 26.703125 39.890625 
Q 22.75 39.890625 18.8125 39.015625 
Q 14.890625 38.140625 10.796875 36.28125 
z
" id="DejaVuSans-53"/>
      </defs>
      <g transform="translate(262.748512 334.998438)scale(0.1 -0.1)">
       <use xlink:href="#DejaVuSans-50"/>
       <use x="63.623047" xlink:href="#DejaVuSans-48"/>
       <use x="127.246094" xlink:href="#DejaVuSans-50"/>
       <use x="190.869141" xlink:href="#DejaVuSans-48"/>
       <use x="254.492188" xlink:href="#DejaVuSans-45"/>
       <use x="290.576172" xlink:href="#DejaVuSans-48"/>
       <use x="354.199219" xlink:href="#DejaVuSans-52"/>
       <use x="417.822266" xlink:href="#DejaVuSans-45"/>
       <use x="453.90625" xlink:href="#DejaVuSans-49"/>
       <use x="517.529297" xlink:href="#DejaVuSans-53"/>
      </g>
     </g>
    </g>
    <g id="xtick_4">
     <g id="line2d_4">
      <g>
       <use style="stroke:#000000;stroke-width:0.8;" x="369" xlink:href="#m407d6fd596" y="320.4"/>
      </g>
     </g>
     <g id="text_4">
      <!-- 2020-04-22 -->
      <g transform="translate(339.942188 334.998438)scale(0.1 -0.1)">
       <use xlink:href="#DejaVuSans-50"/>
       <use x="63.623047" xlink:href="#DejaVuSans-48"/>
       <use x="127.246094" xlink:href="#DejaVuSans-50"/>
       <use x="190.869141" xlink:href="#DejaVuSans-48"/>
       <use x="254.492188" xlink:href="#DejaVuSans-45"/>
       <use x="290.576172" xlink:href="#DejaVuSans-48"/>
       <use x="354.199219" xlink:href="#DejaVuSans-52"/>
       <use x="417.822266" xlink:href="#DejaVuSans-45"/>
       <use x="453.90625" xlink:href="#DejaVuSans-50"/>
       <use x="517.529297" xlink:href="#DejaVuSans-50"/>
      </g>
     </g>
    </g>
    <g id="xtick_5">
     <g id="line2d_5">
      <g>
       <use style="stroke:#000000;stroke-width:0.8;" x="468.249012" xlink:href="#m407d6fd596" y="320.4"/>
      </g>
     </g>
     <g id="text_5">
      <!-- 2020-05-01 -->
      <g transform="translate(439.191199 334.998438)scale(0.1 -0.1)">
       <use xlink:href="#DejaVuSans-50"/>
       <use x="63.623047" xlink:href="#DejaVuSans-48"/>
       <use x="127.246094" xlink:href="#DejaVuSans-50"/>
       <use x="190.869141" xlink:href="#DejaVuSans-48"/>
       <use x="254.492188" xlink:href="#DejaVuSans-45"/>
       <use x="290.576172" xlink:href="#DejaVuSans-48"/>
       <use x="354.199219" xlink:href="#DejaVuSans-53"/>
       <use x="417.822266" xlink:href="#DejaVuSans-45"/>
       <use x="453.90625" xlink:href="#DejaVuSans-48"/>
       <use x="517.529297" xlink:href="#DejaVuSans-49"/>
      </g>
     </g>
    </g>
    <g id="xtick_6">
     <g id="line2d_6">
      <g>
       <use style="stroke:#000000;stroke-width:0.8;" x="545.442688" xlink:href="#m407d6fd596" y="320.4"/>
      </g>
     </g>
     <g id="text_6">
      <!-- 2020-05-08 -->
      <g transform="translate(516.384875 334.998438)scale(0.1 -0.1)">
       <use xlink:href="#DejaVuSans-50"/>
       <use x="63.623047" xlink:href="#DejaVuSans-48"/>
       <use x="127.246094" xlink:href="#DejaVuSans-50"/>
       <use x="190.869141" xlink:href="#DejaVuSans-48"/>
       <use x="254.492188" xlink:href="#DejaVuSans-45"/>
       <use x="290.576172" xlink:href="#DejaVuSans-48"/>
       <use x="354.199219" xlink:href="#DejaVuSans-53"/>
       <use x="417.822266" xlink:href="#DejaVuSans-45"/>
       <use x="453.90625" xlink:href="#DejaVuSans-48"/>
       <use x="517.529297" xlink:href="#DejaVuSans-56"/>
      </g>
     </g>
    </g>
    <g id="xtick_7">
     <g id="line2d_7">
      <g>
       <use style="stroke:#000000;stroke-width:0.8;" x="622.636364" xlink:href="#m407d6fd596" y="320.4"/>
      </g>
     </g>
     <g id="text_7">
      <!-- 2020-05-15 -->
      <g transform="translate(593.578551 334.998438)scale(0.1 -0.1)">
       <use xlink:href="#DejaVuSans-50"/>
       <use x="63.623047" xlink:href="#DejaVuSans-48"/>
       <use x="127.246094" xlink:href="#DejaVuSans-50"/>
       <use x="190.869141" xlink:href="#DejaVuSans-48"/>
       <use x="254.492188" xlink:href="#DejaVuSans-45"/>
       <use x="290.576172" xlink:href="#DejaVuSans-48"/>
       <use x="354.199219" xlink:href="#DejaVuSans-53"/>
       <use x="417.822266" xlink:href="#DejaVuSans-45"/>
       <use x="453.90625" xlink:href="#DejaVuSans-49"/>
       <use x="517.529297" xlink:href="#DejaVuSans-53"/>
      </g>
     </g>
    </g>
    <g id="text_8">
     <!-- Date -->
     <defs>
      <path d="M 19.671875 64.796875 
L 19.671875 8.109375 
L 31.59375 8.109375 
Q 46.6875 8.109375 53.6875 14.9375 
Q 60.6875 21.78125 60.6875 36.53125 
Q 60.6875 51.171875 53.6875 57.984375 
Q 46.6875 64.796875 31.59375 64.796875 
z
M 9.8125 72.90625 
L 30.078125 72.90625 
Q 51.265625 72.90625 61.171875 64.09375 
Q 71.09375 55.28125 71.09375 36.53125 
Q 71.09375 17.671875 61.125 8.828125 
Q 51.171875 0 30.078125 0 
L 9.8125 0 
z
" id="DejaVuSans-68"/>
      <path d="M 34.28125 27.484375 
Q 23.390625 27.484375 19.1875 25 
Q 14.984375 22.515625 14.984375 16.5 
Q 14.984375 11.71875 18.140625 8.90625 
Q 21.296875 6.109375 26.703125 6.109375 
Q 34.1875 6.109375 38.703125 11.40625 
Q 43.21875 16.703125 43.21875 25.484375 
L 43.21875 27.484375 
z
M 52.203125 31.203125 
L 52.203125 0 
L 43.21875 0 
L 43.21875 8.296875 
Q 40.140625 3.328125 35.546875 0.953125 
Q 30.953125 -1.421875 24.3125 -1.421875 
Q 15.921875 -1.421875 10.953125 3.296875 
Q 6 8.015625 6 15.921875 
Q 6 25.140625 12.171875 29.828125 
Q 18.359375 34.515625 30.609375 34.515625 
L 43.21875 34.515625 
L 43.21875 35.40625 
Q 43.21875 41.609375 39.140625 45 
Q 35.0625 48.390625 27.6875 48.390625 
Q 23 48.390625 18.546875 47.265625 
Q 14.109375 46.140625 10.015625 43.890625 
L 10.015625 52.203125 
Q 14.9375 54.109375 19.578125 55.046875 
Q 24.21875 56 28.609375 56 
Q 40.484375 56 46.34375 49.84375 
Q 52.203125 43.703125 52.203125 31.203125 
z
" id="DejaVuSans-97"/>
      <path d="M 18.3125 70.21875 
L 18.3125 54.6875 
L 36.8125 54.6875 
L 36.8125 47.703125 
L 18.3125 47.703125 
L 18.3125 18.015625 
Q 18.3125 11.328125 20.140625 9.421875 
Q 21.96875 7.515625 27.59375 7.515625 
L 36.8125 7.515625 
L 36.8125 0 
L 27.59375 0 
Q 17.1875 0 13.234375 3.875 
Q 9.28125 7.765625 9.28125 18.015625 
L 9.28125 47.703125 
L 2.6875 47.703125 
L 2.6875 54.6875 
L 9.28125 54.6875 
L 9.28125 70.21875 
z
" id="DejaVuSans-116"/>
      <path d="M 56.203125 29.59375 
L 56.203125 25.203125 
L 14.890625 25.203125 
Q 15.484375 15.921875 20.484375 11.0625 
Q 25.484375 6.203125 34.421875 6.203125 
Q 39.59375 6.203125 44.453125 7.46875 
Q 49.3125 8.734375 54.109375 11.28125 
L 54.109375 2.78125 
Q 49.265625 0.734375 44.1875 -0.34375 
Q 39.109375 -1.421875 33.890625 -1.421875 
Q 20.796875 -1.421875 13.15625 6.1875 
Q 5.515625 13.8125 5.515625 26.8125 
Q 5.515625 40.234375 12.765625 48.109375 
Q 20.015625 56 32.328125 56 
Q 43.359375 56 49.78125 48.890625 
Q 56.203125 41.796875 56.203125 29.59375 
z
M 47.21875 32.234375 
Q 47.125 39.59375 43.09375 43.984375 
Q 39.0625 48.390625 32.421875 48.390625 
Q 24.90625 48.390625 20.390625 44.140625 
Q 15.875 39.890625 15.1875 32.171875 
z
" id="DejaVuSans-101"/>
     </defs>
     <g transform="translate(357.049219 348.676562)scale(0.1 -0.1)">
      <use xlink:href="#DejaVuSans-68"/>
      <use x="77.001953" xlink:href="#DejaVuSans-97"/>
      <use x="138.28125" xlink:href="#DejaVuSans-116"/>
      <use x="177.490234" xlink:href="#DejaVuSans-101"/>
     </g>
    </g>
   </g>
   <g id="matplotlib.axis_2">
    <g id="ytick_1">
     <g id="line2d_8">
      <defs>
       <path d="M 0 0 
L -3.5 0 
" id="md1cf48bc06" style="stroke:#000000;stroke-width:0.8;"/>
      </defs>
      <g>
       <use style="stroke:#000000;stroke-width:0.8;" x="90" xlink:href="#md1cf48bc06" y="307.8"/>
      </g>
     </g>
     <g id="text_9">
      <!-- 0 -->
      <g transform="translate(76.6375 311.599219)scale(0.1 -0.1)">
       <use xlink:href="#DejaVuSans-48"/>
      </g>
     </g>
    </g>
    <g id="ytick_2">
     <g id="line2d_9">
      <g>
       <use style="stroke:#000000;stroke-width:0.8;" x="90" xlink:href="#md1cf48bc06" y="269.173391"/>
      </g>
     </g>
     <g id="text_10">
      <!-- 1000 -->
      <g transform="translate(57.55 272.972609)scale(0.1 -0.1)">
       <use xlink:href="#DejaVuSans-49"/>
       <use x="63.623047" xlink:href="#DejaVuSans-48"/>
       <use x="127.246094" xlink:href="#DejaVuSans-48"/>
       <use x="190.869141" xlink:href="#DejaVuSans-48"/>
      </g>
     </g>
    </g>
    <g id="ytick_3">
     <g id="line2d_10">
      <g>
       <use style="stroke:#000000;stroke-width:0.8;" x="90" xlink:href="#md1cf48bc06" y="230.546781"/>
      </g>
     </g>
     <g id="text_11">
      <!-- 2000 -->
      <g transform="translate(57.55 234.346)scale(0.1 -0.1)">
       <use xlink:href="#DejaVuSans-50"/>
       <use x="63.623047" xlink:href="#DejaVuSans-48"/>
       <use x="127.246094" xlink:href="#DejaVuSans-48"/>
       <use x="190.869141" xlink:href="#DejaVuSans-48"/>
      </g>
     </g>
    </g>
    <g id="ytick_4">
     <g id="line2d_11">
      <g>
       <use style="stroke:#000000;stroke-width:0.8;" x="90" xlink:href="#md1cf48bc06" y="191.920172"/>
      </g>
     </g>
     <g id="text_12">
      <!-- 3000 -->
      <defs>
       <path d="M 40.578125 39.3125 
Q 47.65625 37.796875 51.625 33 
Q 55.609375 28.21875 55.609375 21.1875 
Q 55.609375 10.40625 48.1875 4.484375 
Q 40.765625 -1.421875 27.09375 -1.421875 
Q 22.515625 -1.421875 17.65625 -0.515625 
Q 12.796875 0.390625 7.625 2.203125 
L 7.625 11.71875 
Q 11.71875 9.328125 16.59375 8.109375 
Q 21.484375 6.890625 26.8125 6.890625 
Q 36.078125 6.890625 40.9375 10.546875 
Q 45.796875 14.203125 45.796875 21.1875 
Q 45.796875 27.640625 41.28125 31.265625 
Q 36.765625 34.90625 28.71875 34.90625 
L 20.21875 34.90625 
L 20.21875 43.015625 
L 29.109375 43.015625 
Q 36.375 43.015625 40.234375 45.921875 
Q 44.09375 48.828125 44.09375 54.296875 
Q 44.09375 59.90625 40.109375 62.90625 
Q 36.140625 65.921875 28.71875 65.921875 
Q 24.65625 65.921875 20.015625 65.03125 
Q 15.375 64.15625 9.8125 62.3125 
L 9.8125 71.09375 
Q 15.4375 72.65625 20.34375 73.4375 
Q 25.25 74.21875 29.59375 74.21875 
Q 40.828125 74.21875 47.359375 69.109375 
Q 53.90625 64.015625 53.90625 55.328125 
Q 53.90625 49.265625 50.4375 45.09375 
Q 46.96875 40.921875 40.578125 39.3125 
z
" id="DejaVuSans-51"/>
      </defs>
      <g transform="translate(57.55 195.71939)scale(0.1 -0.1)">
       <use xlink:href="#DejaVuSans-51"/>
       <use x="63.623047" xlink:href="#DejaVuSans-48"/>
       <use x="127.246094" xlink:href="#DejaVuSans-48"/>
       <use x="190.869141" xlink:href="#DejaVuSans-48"/>
      </g>
     </g>
    </g>
    <g id="ytick_5">
     <g id="line2d_12">
      <g>
       <use style="stroke:#000000;stroke-width:0.8;" x="90" xlink:href="#md1cf48bc06" y="153.293562"/>
      </g>
     </g>
     <g id="text_13">
      <!-- 4000 -->
      <g transform="translate(57.55 157.092781)scale(0.1 -0.1)">
       <use xlink:href="#DejaVuSans-52"/>
       <use x="63.623047" xlink:href="#DejaVuSans-48"/>
       <use x="127.246094" xlink:href="#DejaVuSans-48"/>
       <use x="190.869141" xlink:href="#DejaVuSans-48"/>
      </g>
     </g>
    </g>
    <g id="ytick_6">
     <g id="line2d_13">
      <g>
       <use style="stroke:#000000;stroke-width:0.8;" x="90" xlink:href="#md1cf48bc06" y="114.666953"/>
      </g>
     </g>
     <g id="text_14">
      <!-- 5000 -->
      <g transform="translate(57.55 118.466172)scale(0.1 -0.1)">
       <use xlink:href="#DejaVuSans-53"/>
       <use x="63.623047" xlink:href="#DejaVuSans-48"/>
       <use x="127.246094" xlink:href="#DejaVuSans-48"/>
       <use x="190.869141" xlink:href="#DejaVuSans-48"/>
      </g>
     </g>
    </g>
    <g id="ytick_7">
     <g id="line2d_14">
      <g>
       <use style="stroke:#000000;stroke-width:0.8;" x="90" xlink:href="#md1cf48bc06" y="76.040343"/>
      </g>
     </g>
     <g id="text_15">
      <!-- 6000 -->
      <defs>
       <path d="M 33.015625 40.375 
Q 26.375 40.375 22.484375 35.828125 
Q 18.609375 31.296875 18.609375 23.390625 
Q 18.609375 15.53125 22.484375 10.953125 
Q 26.375 6.390625 33.015625 6.390625 
Q 39.65625 6.390625 43.53125 10.953125 
Q 47.40625 15.53125 47.40625 23.390625 
Q 47.40625 31.296875 43.53125 35.828125 
Q 39.65625 40.375 33.015625 40.375 
z
M 52.59375 71.296875 
L 52.59375 62.3125 
Q 48.875 64.0625 45.09375 64.984375 
Q 41.3125 65.921875 37.59375 65.921875 
Q 27.828125 65.921875 22.671875 59.328125 
Q 17.53125 52.734375 16.796875 39.40625 
Q 19.671875 43.65625 24.015625 45.921875 
Q 28.375 48.1875 33.59375 48.1875 
Q 44.578125 48.1875 50.953125 41.515625 
Q 57.328125 34.859375 57.328125 23.390625 
Q 57.328125 12.15625 50.6875 5.359375 
Q 44.046875 -1.421875 33.015625 -1.421875 
Q 20.359375 -1.421875 13.671875 8.265625 
Q 6.984375 17.96875 6.984375 36.375 
Q 6.984375 53.65625 15.1875 63.9375 
Q 23.390625 74.21875 37.203125 74.21875 
Q 40.921875 74.21875 44.703125 73.484375 
Q 48.484375 72.75 52.59375 71.296875 
z
" id="DejaVuSans-54"/>
      </defs>
      <g transform="translate(57.55 79.839562)scale(0.1 -0.1)">
       <use xlink:href="#DejaVuSans-54"/>
       <use x="63.623047" xlink:href="#DejaVuSans-48"/>
       <use x="127.246094" xlink:href="#DejaVuSans-48"/>
       <use x="190.869141" xlink:href="#DejaVuSans-48"/>
      </g>
     </g>
    </g>
    <g id="text_16">
     <!-- Favorite count -->
     <defs>
      <path d="M 9.8125 72.90625 
L 51.703125 72.90625 
L 51.703125 64.59375 
L 19.671875 64.59375 
L 19.671875 43.109375 
L 48.578125 43.109375 
L 48.578125 34.8125 
L 19.671875 34.8125 
L 19.671875 0 
L 9.8125 0 
z
" id="DejaVuSans-70"/>
      <path d="M 2.984375 54.6875 
L 12.5 54.6875 
L 29.59375 8.796875 
L 46.6875 54.6875 
L 56.203125 54.6875 
L 35.6875 0 
L 23.484375 0 
z
" id="DejaVuSans-118"/>
      <path d="M 30.609375 48.390625 
Q 23.390625 48.390625 19.1875 42.75 
Q 14.984375 37.109375 14.984375 27.296875 
Q 14.984375 17.484375 19.15625 11.84375 
Q 23.34375 6.203125 30.609375 6.203125 
Q 37.796875 6.203125 41.984375 11.859375 
Q 46.1875 17.53125 46.1875 27.296875 
Q 46.1875 37.015625 41.984375 42.703125 
Q 37.796875 48.390625 30.609375 48.390625 
z
M 30.609375 56 
Q 42.328125 56 49.015625 48.375 
Q 55.71875 40.765625 55.71875 27.296875 
Q 55.71875 13.875 49.015625 6.21875 
Q 42.328125 -1.421875 30.609375 -1.421875 
Q 18.84375 -1.421875 12.171875 6.21875 
Q 5.515625 13.875 5.515625 27.296875 
Q 5.515625 40.765625 12.171875 48.375 
Q 18.84375 56 30.609375 56 
z
" id="DejaVuSans-111"/>
      <path d="M 41.109375 46.296875 
Q 39.59375 47.171875 37.8125 47.578125 
Q 36.03125 48 33.890625 48 
Q 26.265625 48 22.1875 43.046875 
Q 18.109375 38.09375 18.109375 28.8125 
L 18.109375 0 
L 9.078125 0 
L 9.078125 54.6875 
L 18.109375 54.6875 
L 18.109375 46.1875 
Q 20.953125 51.171875 25.484375 53.578125 
Q 30.03125 56 36.53125 56 
Q 37.453125 56 38.578125 55.875 
Q 39.703125 55.765625 41.0625 55.515625 
z
" id="DejaVuSans-114"/>
      <path d="M 9.421875 54.6875 
L 18.40625 54.6875 
L 18.40625 0 
L 9.421875 0 
z
M 9.421875 75.984375 
L 18.40625 75.984375 
L 18.40625 64.59375 
L 9.421875 64.59375 
z
" id="DejaVuSans-105"/>
      <path id="DejaVuSans-32"/>
      <path d="M 48.78125 52.59375 
L 48.78125 44.1875 
Q 44.96875 46.296875 41.140625 47.34375 
Q 37.3125 48.390625 33.40625 48.390625 
Q 24.65625 48.390625 19.8125 42.84375 
Q 14.984375 37.3125 14.984375 27.296875 
Q 14.984375 17.28125 19.8125 11.734375 
Q 24.65625 6.203125 33.40625 6.203125 
Q 37.3125 6.203125 41.140625 7.25 
Q 44.96875 8.296875 48.78125 10.40625 
L 48.78125 2.09375 
Q 45.015625 0.34375 40.984375 -0.53125 
Q 36.96875 -1.421875 32.421875 -1.421875 
Q 20.0625 -1.421875 12.78125 6.34375 
Q 5.515625 14.109375 5.515625 27.296875 
Q 5.515625 40.671875 12.859375 48.328125 
Q 20.21875 56 33.015625 56 
Q 37.15625 56 41.109375 55.140625 
Q 45.0625 54.296875 48.78125 52.59375 
z
" id="DejaVuSans-99"/>
      <path d="M 8.5 21.578125 
L 8.5 54.6875 
L 17.484375 54.6875 
L 17.484375 21.921875 
Q 17.484375 14.15625 20.5 10.265625 
Q 23.53125 6.390625 29.59375 6.390625 
Q 36.859375 6.390625 41.078125 11.03125 
Q 45.3125 15.671875 45.3125 23.6875 
L 45.3125 54.6875 
L 54.296875 54.6875 
L 54.296875 0 
L 45.3125 0 
L 45.3125 8.40625 
Q 42.046875 3.421875 37.71875 1 
Q 33.40625 -1.421875 27.6875 -1.421875 
Q 18.265625 -1.421875 13.375 4.4375 
Q 8.5 10.296875 8.5 21.578125 
z
M 31.109375 56 
z
" id="DejaVuSans-117"/>
      <path d="M 54.890625 33.015625 
L 54.890625 0 
L 45.90625 0 
L 45.90625 32.71875 
Q 45.90625 40.484375 42.875 44.328125 
Q 39.84375 48.1875 33.796875 48.1875 
Q 26.515625 48.1875 22.3125 43.546875 
Q 18.109375 38.921875 18.109375 30.90625 
L 18.109375 0 
L 9.078125 0 
L 9.078125 54.6875 
L 18.109375 54.6875 
L 18.109375 46.1875 
Q 21.34375 51.125 25.703125 53.5625 
Q 30.078125 56 35.796875 56 
Q 45.21875 56 50.046875 50.171875 
Q 54.890625 44.34375 54.890625 33.015625 
z
" id="DejaVuSans-110"/>
     </defs>
     <g transform="translate(51.470312 217.478906)rotate(-90)scale(0.1 -0.1)">
      <use xlink:href="#DejaVuSans-70"/>
      <use x="48.394531" xlink:href="#DejaVuSans-97"/>
      <use x="109.673828" xlink:href="#DejaVuSans-118"/>
      <use x="168.853516" xlink:href="#DejaVuSans-111"/>
      <use x="230.035156" xlink:href="#DejaVuSans-114"/>
      <use x="271.148438" xlink:href="#DejaVuSans-105"/>
      <use x="298.931641" xlink:href="#DejaVuSans-116"/>
      <use x="338.140625" xlink:href="#DejaVuSans-101"/>
      <use x="399.664062" xlink:href="#DejaVuSans-32"/>
      <use x="431.451172" xlink:href="#DejaVuSans-99"/>
      <use x="486.431641" xlink:href="#DejaVuSans-111"/>
      <use x="547.613281" xlink:href="#DejaVuSans-117"/>
      <use x="610.992188" xlink:href="#DejaVuSans-110"/>
      <use x="674.371094" xlink:href="#DejaVuSans-116"/>
     </g>
    </g>
   </g>
   <g id="line2d_15">
    <path clip-path="url(#p9d168a610b)" d="M 115.363636 307.8 
L 126.391304 131.662661 
L 137.418972 245.224893 
L 148.44664 169.130472 
L 159.474308 209.611159 
L 170.501976 287.945923 
L 181.529644 196.903004 
L 192.557312 82.761373 
L 203.58498 280.993133 
L 214.612648 206.057511 
L 225.640316 175.426609 
L 236.667984 142.207725 
L 247.695652 252.757082 
L 258.72332 307.8 
L 269.750988 281.186266 
L 280.778656 192.96309 
L 291.806324 232.941631 
L 302.833992 257.933047 
L 313.86166 168.164807 
L 324.889328 216.293562 
L 335.916996 259.246352 
L 346.944664 274.233476 
L 357.972332 253.56824 
L 369 213.898712 
L 380.027668 199.993133 
L 391.055336 151.941631 
L 402.083004 274.928755 
L 413.110672 169.555365 
L 424.13834 207.950215 
L 435.166008 235.606867 
L 446.193676 252.293562 
L 457.221344 231.35794 
L 468.249012 205.593991 
L 479.27668 258.164807 
L 490.304348 149.933047 
L 501.332016 245.340773 
L 512.359684 55.8 
L 523.387352 307.8 
L 534.41502 272.920172 
L 545.442688 166.967382 
L 556.470356 159.319313 
L 567.498024 307.8 
L 578.525692 197.327897 
L 589.55336 203.585408 
L 600.581028 146.920172 
L 611.608696 307.8 
L 622.636364 198.100429 
" style="fill:none;stroke:#1f77b4;stroke-linecap:square;stroke-width:1.5;"/>
   </g>
   <g id="line2d_16">
    <path clip-path="url(#p9d168a610b)" d="M 115.363636 180.177682 
L 126.391304 271.297854 
L 137.418972 273.074678 
L 148.44664 237.460944 
L 159.474308 241.130472 
L 170.501976 272.03176 
L 181.529644 285.705579 
L 192.557312 81.139056 
L 203.58498 213.048927 
L 214.612648 287.86867 
L 225.640316 278.057511 
L 236.667984 91.259227 
L 247.695652 290.920172 
L 258.72332 307.8 
L 269.750988 229.542489 
L 280.778656 280.452361 
L 291.806324 215.945923 
L 302.833992 261.641202 
L 313.86166 277.516738 
L 324.889328 294.24206 
L 335.916996 305.945923 
L 346.944664 289.066094 
L 357.972332 298.645494 
L 369 187.516738 
L 380.027668 303.35794 
L 391.055336 295.593991 
L 402.083004 287.057511 
L 413.110672 307.8 
L 424.13834 246.113305 
L 435.166008 283.812876 
L 446.193676 295.864378 
L 457.221344 291.229185 
L 468.249012 260.366524 
L 479.27668 284.469528 
L 490.304348 268.864378 
L 501.332016 307.8 
L 512.359684 307.8 
L 523.387352 215.598283 
L 534.41502 307.8 
L 545.442688 279.950215 
L 556.470356 307.8 
L 567.498024 307.8 
L 578.525692 307.8 
L 589.55336 307.8 
L 600.581028 307.8 
L 611.608696 307.8 
L 622.636364 261.679828 
" style="fill:none;stroke:#ff7f0e;stroke-linecap:square;stroke-width:1.5;"/>
   </g>
   <g id="line2d_17">
    <path clip-path="url(#p9d168a610b)" d="M 115.363636 218.186266 
L 126.391304 258.12618 
L 137.418972 307.8 
L 148.44664 98.86867 
L 159.474308 140.508155 
L 170.501976 239.971674 
L 181.529644 275.508155 
L 192.557312 247.31073 
L 203.58498 156.460944 
L 214.612648 307.8 
L 225.640316 283.503863 
L 236.667984 278.75279 
L 247.695652 283.696996 
L 258.72332 253.336481 
L 269.750988 307.8 
L 280.778656 285.280687 
L 291.806324 297.486695 
L 302.833992 277.053219 
L 313.86166 197.945923 
L 324.889328 240.24206 
L 335.916996 307.8 
L 346.944664 243.834335 
L 357.972332 191.340773 
L 369 232.593991 
L 380.027668 293.237768 
L 391.055336 260.482403 
L 402.083004 285.551073 
L 413.110672 224.173391 
L 424.13834 307.8 
L 435.166008 252.061803 
L 446.193676 293.392275 
L 457.221344 166.696996 
L 468.249012 254.804292 
L 479.27668 294.666953 
L 490.304348 300.615451 
L 501.332016 254.224893 
L 512.359684 195.860086 
L 523.387352 235.413734 
L 534.41502 265.156223 
L 545.442688 167.083262 
L 556.470356 307.8 
L 567.498024 278.945923 
L 578.525692 307.8 
L 589.55336 187.323605 
L 600.581028 241.787124 
L 611.608696 307.8 
L 622.636364 307.8 
" style="fill:none;stroke:#2ca02c;stroke-linecap:square;stroke-width:1.5;"/>
   </g>
   <g id="line2d_18">
    <path clip-path="url(#p9d168a610b)" d="M 115.363636 252.950215 
L 126.391304 207.679828 
L 137.418972 285.628326 
L 148.44664 258.782833 
L 159.474308 228.692704 
L 170.501976 306.100429 
L 181.529644 298.8 
L 192.557312 135.988841 
L 203.58498 281.920172 
L 214.612648 235.027468 
L 225.640316 293.585408 
L 236.667984 284.662661 
L 247.695652 292.31073 
L 258.72332 291.036052 
L 269.750988 302.817167 
L 280.778656 288.911588 
L 291.806324 235.877253 
L 302.833992 265.31073 
L 313.86166 286.903004 
L 324.889328 299.997425 
L 335.916996 290.263519 
L 346.944664 213.5897 
L 357.972332 253.336481 
L 369 261.563948 
L 380.027668 234.757082 
L 391.055336 164.070386 
L 402.083004 302.199142 
L 413.110672 275.392275 
L 424.13834 272.533906 
L 435.166008 256.117597 
L 446.193676 304.169099 
L 457.221344 277.323605 
L 468.249012 299.495279 
L 479.27668 302.237768 
L 490.304348 269.791416 
L 501.332016 270.679828 
L 512.359684 257.739914 
L 523.387352 292.967382 
L 534.41502 224.598283 
L 545.442688 223.400858 
L 556.470356 296.945923 
L 567.498024 258.319313 
L 578.525692 269.173391 
L 589.55336 239.778541 
L 600.581028 304.400858 
L 611.608696 261.872961 
L 622.636364 157.774249 
" style="fill:none;stroke:#d62728;stroke-linecap:square;stroke-width:1.5;"/>
   </g>
   <g id="patch_3">
    <path d="M 90 320.4 
L 90 43.2 
" style="fill:none;stroke:#000000;stroke-linecap:square;stroke-linejoin:miter;stroke-width:0.8;"/>
   </g>
   <g id="patch_4">
    <path d="M 648 320.4 
L 648 43.2 
" style="fill:none;stroke:#000000;stroke-linecap:square;stroke-linejoin:miter;stroke-width:0.8;"/>
   </g>
   <g id="patch_5">
    <path d="M 90 320.4 
L 648 320.4 
" style="fill:none;stroke:#000000;stroke-linecap:square;stroke-linejoin:miter;stroke-width:0.8;"/>
   </g>
   <g id="patch_6">
    <path d="M 90 43.2 
L 648 43.2 
" style="fill:none;stroke:#000000;stroke-linecap:square;stroke-linejoin:miter;stroke-width:0.8;"/>
   </g>
   <g id="text_17">
    <!-- Favorite count for date for accounts connected to candidate Kidawa -->
    <defs>
     <path d="M 37.109375 75.984375 
L 37.109375 68.5 
L 28.515625 68.5 
Q 23.6875 68.5 21.796875 66.546875 
Q 19.921875 64.59375 19.921875 59.515625 
L 19.921875 54.6875 
L 34.71875 54.6875 
L 34.71875 47.703125 
L 19.921875 47.703125 
L 19.921875 0 
L 10.890625 0 
L 10.890625 47.703125 
L 2.296875 47.703125 
L 2.296875 54.6875 
L 10.890625 54.6875 
L 10.890625 58.5 
Q 10.890625 67.625 15.140625 71.796875 
Q 19.390625 75.984375 28.609375 75.984375 
z
" id="DejaVuSans-102"/>
     <path d="M 45.40625 46.390625 
L 45.40625 75.984375 
L 54.390625 75.984375 
L 54.390625 0 
L 45.40625 0 
L 45.40625 8.203125 
Q 42.578125 3.328125 38.25 0.953125 
Q 33.9375 -1.421875 27.875 -1.421875 
Q 17.96875 -1.421875 11.734375 6.484375 
Q 5.515625 14.40625 5.515625 27.296875 
Q 5.515625 40.1875 11.734375 48.09375 
Q 17.96875 56 27.875 56 
Q 33.9375 56 38.25 53.625 
Q 42.578125 51.265625 45.40625 46.390625 
z
M 14.796875 27.296875 
Q 14.796875 17.390625 18.875 11.75 
Q 22.953125 6.109375 30.078125 6.109375 
Q 37.203125 6.109375 41.296875 11.75 
Q 45.40625 17.390625 45.40625 27.296875 
Q 45.40625 37.203125 41.296875 42.84375 
Q 37.203125 48.484375 30.078125 48.484375 
Q 22.953125 48.484375 18.875 42.84375 
Q 14.796875 37.203125 14.796875 27.296875 
z
" id="DejaVuSans-100"/>
     <path d="M 44.28125 53.078125 
L 44.28125 44.578125 
Q 40.484375 46.53125 36.375 47.5 
Q 32.28125 48.484375 27.875 48.484375 
Q 21.1875 48.484375 17.84375 46.4375 
Q 14.5 44.390625 14.5 40.28125 
Q 14.5 37.15625 16.890625 35.375 
Q 19.28125 33.59375 26.515625 31.984375 
L 29.59375 31.296875 
Q 39.15625 29.25 43.1875 25.515625 
Q 47.21875 21.78125 47.21875 15.09375 
Q 47.21875 7.46875 41.1875 3.015625 
Q 35.15625 -1.421875 24.609375 -1.421875 
Q 20.21875 -1.421875 15.453125 -0.5625 
Q 10.6875 0.296875 5.421875 2 
L 5.421875 11.28125 
Q 10.40625 8.6875 15.234375 7.390625 
Q 20.0625 6.109375 24.8125 6.109375 
Q 31.15625 6.109375 34.5625 8.28125 
Q 37.984375 10.453125 37.984375 14.40625 
Q 37.984375 18.0625 35.515625 20.015625 
Q 33.0625 21.96875 24.703125 23.78125 
L 21.578125 24.515625 
Q 13.234375 26.265625 9.515625 29.90625 
Q 5.8125 33.546875 5.8125 39.890625 
Q 5.8125 47.609375 11.28125 51.796875 
Q 16.75 56 26.8125 56 
Q 31.78125 56 36.171875 55.265625 
Q 40.578125 54.546875 44.28125 53.078125 
z
" id="DejaVuSans-115"/>
     <path d="M 9.8125 72.90625 
L 19.671875 72.90625 
L 19.671875 42.09375 
L 52.390625 72.90625 
L 65.09375 72.90625 
L 28.90625 38.921875 
L 67.671875 0 
L 54.6875 0 
L 19.671875 35.109375 
L 19.671875 0 
L 9.8125 0 
z
" id="DejaVuSans-75"/>
     <path d="M 4.203125 54.6875 
L 13.1875 54.6875 
L 24.421875 12.015625 
L 35.59375 54.6875 
L 46.1875 54.6875 
L 57.421875 12.015625 
L 68.609375 54.6875 
L 77.59375 54.6875 
L 63.28125 0 
L 52.6875 0 
L 40.921875 44.828125 
L 29.109375 0 
L 18.5 0 
z
" id="DejaVuSans-119"/>
    </defs>
    <g transform="translate(164.972813 37.2)scale(0.12 -0.12)">
     <use xlink:href="#DejaVuSans-70"/>
     <use x="48.394531" xlink:href="#DejaVuSans-97"/>
     <use x="109.673828" xlink:href="#DejaVuSans-118"/>
     <use x="168.853516" xlink:href="#DejaVuSans-111"/>
     <use x="230.035156" xlink:href="#DejaVuSans-114"/>
     <use x="271.148438" xlink:href="#DejaVuSans-105"/>
     <use x="298.931641" xlink:href="#DejaVuSans-116"/>
     <use x="338.140625" xlink:href="#DejaVuSans-101"/>
     <use x="399.664062" xlink:href="#DejaVuSans-32"/>
     <use x="431.451172" xlink:href="#DejaVuSans-99"/>
     <use x="486.431641" xlink:href="#DejaVuSans-111"/>
     <use x="547.613281" xlink:href="#DejaVuSans-117"/>
     <use x="610.992188" xlink:href="#DejaVuSans-110"/>
     <use x="674.371094" xlink:href="#DejaVuSans-116"/>
     <use x="713.580078" xlink:href="#DejaVuSans-32"/>
     <use x="745.367188" xlink:href="#DejaVuSans-102"/>
     <use x="780.572266" xlink:href="#DejaVuSans-111"/>
     <use x="841.753906" xlink:href="#DejaVuSans-114"/>
     <use x="882.867188" xlink:href="#DejaVuSans-32"/>
     <use x="914.654297" xlink:href="#DejaVuSans-100"/>
     <use x="978.130859" xlink:href="#DejaVuSans-97"/>
     <use x="1039.410156" xlink:href="#DejaVuSans-116"/>
     <use x="1078.619141" xlink:href="#DejaVuSans-101"/>
     <use x="1140.142578" xlink:href="#DejaVuSans-32"/>
     <use x="1171.929688" xlink:href="#DejaVuSans-102"/>
     <use x="1207.134766" xlink:href="#DejaVuSans-111"/>
     <use x="1268.316406" xlink:href="#DejaVuSans-114"/>
     <use x="1309.429688" xlink:href="#DejaVuSans-32"/>
     <use x="1341.216797" xlink:href="#DejaVuSans-97"/>
     <use x="1402.496094" xlink:href="#DejaVuSans-99"/>
     <use x="1457.476562" xlink:href="#DejaVuSans-99"/>
     <use x="1512.457031" xlink:href="#DejaVuSans-111"/>
     <use x="1573.638672" xlink:href="#DejaVuSans-117"/>
     <use x="1637.017578" xlink:href="#DejaVuSans-110"/>
     <use x="1700.396484" xlink:href="#DejaVuSans-116"/>
     <use x="1739.605469" xlink:href="#DejaVuSans-115"/>
     <use x="1791.705078" xlink:href="#DejaVuSans-32"/>
     <use x="1823.492188" xlink:href="#DejaVuSans-99"/>
     <use x="1878.472656" xlink:href="#DejaVuSans-111"/>
     <use x="1939.654297" xlink:href="#DejaVuSans-110"/>
     <use x="2003.033203" xlink:href="#DejaVuSans-110"/>
     <use x="2066.412109" xlink:href="#DejaVuSans-101"/>
     <use x="2127.935547" xlink:href="#DejaVuSans-99"/>
     <use x="2182.916016" xlink:href="#DejaVuSans-116"/>
     <use x="2222.125" xlink:href="#DejaVuSans-101"/>
     <use x="2283.648438" xlink:href="#DejaVuSans-100"/>
     <use x="2347.125" xlink:href="#DejaVuSans-32"/>
     <use x="2378.912109" xlink:href="#DejaVuSans-116"/>
     <use x="2418.121094" xlink:href="#DejaVuSans-111"/>
     <use x="2479.302734" xlink:href="#DejaVuSans-32"/>
     <use x="2511.089844" xlink:href="#DejaVuSans-99"/>
     <use x="2566.070312" xlink:href="#DejaVuSans-97"/>
     <use x="2627.349609" xlink:href="#DejaVuSans-110"/>
     <use x="2690.728516" xlink:href="#DejaVuSans-100"/>
     <use x="2754.205078" xlink:href="#DejaVuSans-105"/>
     <use x="2781.988281" xlink:href="#DejaVuSans-100"/>
     <use x="2845.464844" xlink:href="#DejaVuSans-97"/>
     <use x="2906.744141" xlink:href="#DejaVuSans-116"/>
     <use x="2945.953125" xlink:href="#DejaVuSans-101"/>
     <use x="3007.476562" xlink:href="#DejaVuSans-32"/>
     <use x="3039.263672" xlink:href="#DejaVuSans-75"/>
     <use x="3104.839844" xlink:href="#DejaVuSans-105"/>
     <use x="3132.623047" xlink:href="#DejaVuSans-100"/>
     <use x="3196.099609" xlink:href="#DejaVuSans-97"/>
     <use x="3257.378906" xlink:href="#DejaVuSans-119"/>
     <use x="3339.166016" xlink:href="#DejaVuSans-97"/>
    </g>
   </g>
   <g id="legend_1">
    <g id="patch_7">
     <path d="M 97 110.46875 
L 198.703125 110.46875 
Q 200.703125 110.46875 200.703125 108.46875 
L 200.703125 50.2 
Q 200.703125 48.2 198.703125 48.2 
L 97 48.2 
Q 95 48.2 95 50.2 
L 95 108.46875 
Q 95 110.46875 97 110.46875 
z
" style="fill:#ffffff;opacity:0.8;stroke:#cccccc;stroke-linejoin:miter;"/>
    </g>
    <g id="line2d_19">
     <path d="M 99 56.298437 
L 119 56.298437 
" style="fill:none;stroke:#1f77b4;stroke-linecap:square;stroke-width:1.5;"/>
    </g>
    <g id="line2d_20"/>
    <g id="text_18">
     <!-- M_K_Blonska -->
     <defs>
      <path d="M 9.8125 72.90625 
L 24.515625 72.90625 
L 43.109375 23.296875 
L 61.8125 72.90625 
L 76.515625 72.90625 
L 76.515625 0 
L 66.890625 0 
L 66.890625 64.015625 
L 48.09375 14.015625 
L 38.1875 14.015625 
L 19.390625 64.015625 
L 19.390625 0 
L 9.8125 0 
z
" id="DejaVuSans-77"/>
      <path d="M 50.984375 -16.609375 
L 50.984375 -23.578125 
L -0.984375 -23.578125 
L -0.984375 -16.609375 
z
" id="DejaVuSans-95"/>
      <path d="M 19.671875 34.8125 
L 19.671875 8.109375 
L 35.5 8.109375 
Q 43.453125 8.109375 47.28125 11.40625 
Q 51.125 14.703125 51.125 21.484375 
Q 51.125 28.328125 47.28125 31.5625 
Q 43.453125 34.8125 35.5 34.8125 
z
M 19.671875 64.796875 
L 19.671875 42.828125 
L 34.28125 42.828125 
Q 41.5 42.828125 45.03125 45.53125 
Q 48.578125 48.25 48.578125 53.8125 
Q 48.578125 59.328125 45.03125 62.0625 
Q 41.5 64.796875 34.28125 64.796875 
z
M 9.8125 72.90625 
L 35.015625 72.90625 
Q 46.296875 72.90625 52.390625 68.21875 
Q 58.5 63.53125 58.5 54.890625 
Q 58.5 48.1875 55.375 44.234375 
Q 52.25 40.28125 46.1875 39.3125 
Q 53.46875 37.75 57.5 32.78125 
Q 61.53125 27.828125 61.53125 20.40625 
Q 61.53125 10.640625 54.890625 5.3125 
Q 48.25 0 35.984375 0 
L 9.8125 0 
z
" id="DejaVuSans-66"/>
      <path d="M 9.421875 75.984375 
L 18.40625 75.984375 
L 18.40625 0 
L 9.421875 0 
z
" id="DejaVuSans-108"/>
      <path d="M 9.078125 75.984375 
L 18.109375 75.984375 
L 18.109375 31.109375 
L 44.921875 54.6875 
L 56.390625 54.6875 
L 27.390625 29.109375 
L 57.625 0 
L 45.90625 0 
L 18.109375 26.703125 
L 18.109375 0 
L 9.078125 0 
z
" id="DejaVuSans-107"/>
     </defs>
     <g transform="translate(127 59.798437)scale(0.1 -0.1)">
      <use xlink:href="#DejaVuSans-77"/>
      <use x="86.279297" xlink:href="#DejaVuSans-95"/>
      <use x="136.279297" xlink:href="#DejaVuSans-75"/>
      <use x="201.855469" xlink:href="#DejaVuSans-95"/>
      <use x="251.855469" xlink:href="#DejaVuSans-66"/>
      <use x="320.458984" xlink:href="#DejaVuSans-108"/>
      <use x="348.242188" xlink:href="#DejaVuSans-111"/>
      <use x="409.423828" xlink:href="#DejaVuSans-110"/>
      <use x="472.802734" xlink:href="#DejaVuSans-115"/>
      <use x="524.902344" xlink:href="#DejaVuSans-107"/>
      <use x="581.0625" xlink:href="#DejaVuSans-97"/>
     </g>
    </g>
    <g id="line2d_21">
     <path d="M 99 71.254687 
L 119 71.254687 
" style="fill:none;stroke:#ff7f0e;stroke-linecap:square;stroke-width:1.5;"/>
    </g>
    <g id="line2d_22"/>
    <g id="text_19">
     <!-- adamSzlapka -->
     <defs>
      <path d="M 52 44.1875 
Q 55.375 50.25 60.0625 53.125 
Q 64.75 56 71.09375 56 
Q 79.640625 56 84.28125 50.015625 
Q 88.921875 44.046875 88.921875 33.015625 
L 88.921875 0 
L 79.890625 0 
L 79.890625 32.71875 
Q 79.890625 40.578125 77.09375 44.375 
Q 74.3125 48.1875 68.609375 48.1875 
Q 61.625 48.1875 57.5625 43.546875 
Q 53.515625 38.921875 53.515625 30.90625 
L 53.515625 0 
L 44.484375 0 
L 44.484375 32.71875 
Q 44.484375 40.625 41.703125 44.40625 
Q 38.921875 48.1875 33.109375 48.1875 
Q 26.21875 48.1875 22.15625 43.53125 
Q 18.109375 38.875 18.109375 30.90625 
L 18.109375 0 
L 9.078125 0 
L 9.078125 54.6875 
L 18.109375 54.6875 
L 18.109375 46.1875 
Q 21.1875 51.21875 25.484375 53.609375 
Q 29.78125 56 35.6875 56 
Q 41.65625 56 45.828125 52.96875 
Q 50 49.953125 52 44.1875 
z
" id="DejaVuSans-109"/>
      <path d="M 53.515625 70.515625 
L 53.515625 60.890625 
Q 47.90625 63.578125 42.921875 64.890625 
Q 37.9375 66.21875 33.296875 66.21875 
Q 25.25 66.21875 20.875 63.09375 
Q 16.5 59.96875 16.5 54.203125 
Q 16.5 49.359375 19.40625 46.890625 
Q 22.3125 44.4375 30.421875 42.921875 
L 36.375 41.703125 
Q 47.40625 39.59375 52.65625 34.296875 
Q 57.90625 29 57.90625 20.125 
Q 57.90625 9.515625 50.796875 4.046875 
Q 43.703125 -1.421875 29.984375 -1.421875 
Q 24.8125 -1.421875 18.96875 -0.25 
Q 13.140625 0.921875 6.890625 3.21875 
L 6.890625 13.375 
Q 12.890625 10.015625 18.65625 8.296875 
Q 24.421875 6.59375 29.984375 6.59375 
Q 38.421875 6.59375 43.015625 9.90625 
Q 47.609375 13.234375 47.609375 19.390625 
Q 47.609375 24.75 44.3125 27.78125 
Q 41.015625 30.8125 33.5 32.328125 
L 27.484375 33.5 
Q 16.453125 35.6875 11.515625 40.375 
Q 6.59375 45.0625 6.59375 53.421875 
Q 6.59375 63.09375 13.40625 68.65625 
Q 20.21875 74.21875 32.171875 74.21875 
Q 37.3125 74.21875 42.625 73.28125 
Q 47.953125 72.359375 53.515625 70.515625 
z
" id="DejaVuSans-83"/>
      <path d="M 5.515625 54.6875 
L 48.1875 54.6875 
L 48.1875 46.484375 
L 14.40625 7.171875 
L 48.1875 7.171875 
L 48.1875 0 
L 4.296875 0 
L 4.296875 8.203125 
L 38.09375 47.515625 
L 5.515625 47.515625 
z
" id="DejaVuSans-122"/>
      <path d="M 18.109375 8.203125 
L 18.109375 -20.796875 
L 9.078125 -20.796875 
L 9.078125 54.6875 
L 18.109375 54.6875 
L 18.109375 46.390625 
Q 20.953125 51.265625 25.265625 53.625 
Q 29.59375 56 35.59375 56 
Q 45.5625 56 51.78125 48.09375 
Q 58.015625 40.1875 58.015625 27.296875 
Q 58.015625 14.40625 51.78125 6.484375 
Q 45.5625 -1.421875 35.59375 -1.421875 
Q 29.59375 -1.421875 25.265625 0.953125 
Q 20.953125 3.328125 18.109375 8.203125 
z
M 48.6875 27.296875 
Q 48.6875 37.203125 44.609375 42.84375 
Q 40.53125 48.484375 33.40625 48.484375 
Q 26.265625 48.484375 22.1875 42.84375 
Q 18.109375 37.203125 18.109375 27.296875 
Q 18.109375 17.390625 22.1875 11.75 
Q 26.265625 6.109375 33.40625 6.109375 
Q 40.53125 6.109375 44.609375 11.75 
Q 48.6875 17.390625 48.6875 27.296875 
z
" id="DejaVuSans-112"/>
     </defs>
     <g transform="translate(127 74.754687)scale(0.1 -0.1)">
      <use xlink:href="#DejaVuSans-97"/>
      <use x="61.279297" xlink:href="#DejaVuSans-100"/>
      <use x="124.755859" xlink:href="#DejaVuSans-97"/>
      <use x="186.035156" xlink:href="#DejaVuSans-109"/>
      <use x="283.447266" xlink:href="#DejaVuSans-83"/>
      <use x="346.923828" xlink:href="#DejaVuSans-122"/>
      <use x="399.414062" xlink:href="#DejaVuSans-108"/>
      <use x="427.197266" xlink:href="#DejaVuSans-97"/>
      <use x="488.476562" xlink:href="#DejaVuSans-112"/>
      <use x="551.953125" xlink:href="#DejaVuSans-107"/>
      <use x="608.113281" xlink:href="#DejaVuSans-97"/>
     </g>
    </g>
    <g id="line2d_23">
     <path d="M 99 85.932812 
L 119 85.932812 
" style="fill:none;stroke:#2ca02c;stroke-linecap:square;stroke-width:1.5;"/>
    </g>
    <g id="line2d_24"/>
    <g id="text_20">
     <!-- Arlukowicz -->
     <defs>
      <path d="M 34.1875 63.1875 
L 20.796875 26.90625 
L 47.609375 26.90625 
z
M 28.609375 72.90625 
L 39.796875 72.90625 
L 67.578125 0 
L 57.328125 0 
L 50.6875 18.703125 
L 17.828125 18.703125 
L 11.1875 0 
L 0.78125 0 
z
" id="DejaVuSans-65"/>
     </defs>
     <g transform="translate(127 89.432812)scale(0.1 -0.1)">
      <use xlink:href="#DejaVuSans-65"/>
      <use x="68.408203" xlink:href="#DejaVuSans-114"/>
      <use x="109.521484" xlink:href="#DejaVuSans-108"/>
      <use x="137.304688" xlink:href="#DejaVuSans-117"/>
      <use x="200.683594" xlink:href="#DejaVuSans-107"/>
      <use x="254.96875" xlink:href="#DejaVuSans-111"/>
      <use x="316.150391" xlink:href="#DejaVuSans-119"/>
      <use x="397.9375" xlink:href="#DejaVuSans-105"/>
      <use x="425.720703" xlink:href="#DejaVuSans-99"/>
      <use x="480.701172" xlink:href="#DejaVuSans-122"/>
     </g>
    </g>
    <g id="line2d_25">
     <path d="M 99 100.610937 
L 119 100.610937 
" style="fill:none;stroke:#d62728;stroke-linecap:square;stroke-width:1.5;"/>
    </g>
    <g id="line2d_26"/>
    <g id="text_21">
     <!-- Platforma_org -->
     <defs>
      <path d="M 19.671875 64.796875 
L 19.671875 37.40625 
L 32.078125 37.40625 
Q 38.96875 37.40625 42.71875 40.96875 
Q 46.484375 44.53125 46.484375 51.125 
Q 46.484375 57.671875 42.71875 61.234375 
Q 38.96875 64.796875 32.078125 64.796875 
z
M 9.8125 72.90625 
L 32.078125 72.90625 
Q 44.34375 72.90625 50.609375 67.359375 
Q 56.890625 61.8125 56.890625 51.125 
Q 56.890625 40.328125 50.609375 34.8125 
Q 44.34375 29.296875 32.078125 29.296875 
L 19.671875 29.296875 
L 19.671875 0 
L 9.8125 0 
z
" id="DejaVuSans-80"/>
      <path d="M 45.40625 27.984375 
Q 45.40625 37.75 41.375 43.109375 
Q 37.359375 48.484375 30.078125 48.484375 
Q 22.859375 48.484375 18.828125 43.109375 
Q 14.796875 37.75 14.796875 27.984375 
Q 14.796875 18.265625 18.828125 12.890625 
Q 22.859375 7.515625 30.078125 7.515625 
Q 37.359375 7.515625 41.375 12.890625 
Q 45.40625 18.265625 45.40625 27.984375 
z
M 54.390625 6.78125 
Q 54.390625 -7.171875 48.1875 -13.984375 
Q 42 -20.796875 29.203125 -20.796875 
Q 24.46875 -20.796875 20.265625 -20.09375 
Q 16.0625 -19.390625 12.109375 -17.921875 
L 12.109375 -9.1875 
Q 16.0625 -11.328125 19.921875 -12.34375 
Q 23.78125 -13.375 27.78125 -13.375 
Q 36.625 -13.375 41.015625 -8.765625 
Q 45.40625 -4.15625 45.40625 5.171875 
L 45.40625 9.625 
Q 42.625 4.78125 38.28125 2.390625 
Q 33.9375 0 27.875 0 
Q 17.828125 0 11.671875 7.65625 
Q 5.515625 15.328125 5.515625 27.984375 
Q 5.515625 40.671875 11.671875 48.328125 
Q 17.828125 56 27.875 56 
Q 33.9375 56 38.28125 53.609375 
Q 42.625 51.21875 45.40625 46.390625 
L 45.40625 54.6875 
L 54.390625 54.6875 
z
" id="DejaVuSans-103"/>
     </defs>
     <g transform="translate(127 104.110937)scale(0.1 -0.1)">
      <use xlink:href="#DejaVuSans-80"/>
      <use x="60.302734" xlink:href="#DejaVuSans-108"/>
      <use x="88.085938" xlink:href="#DejaVuSans-97"/>
      <use x="149.365234" xlink:href="#DejaVuSans-116"/>
      <use x="188.574219" xlink:href="#DejaVuSans-102"/>
      <use x="223.779297" xlink:href="#DejaVuSans-111"/>
      <use x="284.960938" xlink:href="#DejaVuSans-114"/>
      <use x="324.324219" xlink:href="#DejaVuSans-109"/>
      <use x="421.736328" xlink:href="#DejaVuSans-97"/>
      <use x="483.015625" xlink:href="#DejaVuSans-95"/>
      <use x="533.015625" xlink:href="#DejaVuSans-111"/>
      <use x="594.197266" xlink:href="#DejaVuSans-114"/>
      <use x="633.560547" xlink:href="#DejaVuSans-103"/>
     </g>
    </g>
   </g>
  </g>
 </g>
 <defs>
  <clipPath id="p9d168a610b">
   <rect height="277.2" width="558" x="90" y="43.2"/>
  </clipPath>
 </defs>
</svg>
