<?xml version="1.0" encoding="utf-8" standalone="no"?>
<!DOCTYPE svg PUBLIC "-//W3C//DTD SVG 1.1//EN"
  "http://www.w3.org/Graphics/SVG/1.1/DTD/svg11.dtd">
<!-- Created with matplotlib (https://matplotlib.org/) -->
<svg height="360pt" version="1.1" viewBox="0 0 720 360" width="720pt" xmlns="http://www.w3.org/2000/svg" xmlns:xlink="http://www.w3.org/1999/xlink">
 <defs>
  <style type="text/css">
*{stroke-linecap:butt;stroke-linejoin:round;}
  </style>
 </defs>
 <g id="figure_1">
  <g id="patch_1">
   <path d="M 0 360 
L 720 360 
L 720 0 
L 0 0 
z
" style="fill:#ffffff;"/>
  </g>
  <g id="axes_1">
   <g id="patch_2">
    <path d="M 90 320.4 
L 648 320.4 
L 648 43.2 
L 90 43.2 
z
" style="fill:#ffffff;"/>
   </g>
   <g id="PathCollection_1">
    <defs>
     <path d="M 0 1.118034 
C 0.296506 1.118034 0.580908 1.000231 0.790569 0.790569 
C 1.000231 0.580908 1.118034 0.296506 1.118034 0 
C 1.118034 -0.296506 1.000231 -0.580908 0.790569 -0.790569 
C 0.580908 -1.000231 0.296506 -1.118034 0 -1.118034 
C -0.296506 -1.118034 -0.580908 -1.000231 -0.790569 -0.790569 
C -1.000231 -0.580908 -1.118034 -0.296506 -1.118034 0 
C -1.118034 0.296506 -1.000231 0.580908 -0.790569 0.790569 
C -0.580908 1.000231 -0.296506 1.118034 0 1.118034 
z
" id="m6b15809f5b" style="stroke:#1f77b4;"/>
    </defs>
    <g clip-path="url(#p0275da759c)">
     <use style="fill:#1f77b4;stroke:#1f77b4;" x="115.363636" xlink:href="#m6b15809f5b" y="209.514286"/>
     <use style="fill:#1f77b4;stroke:#1f77b4;" x="126.391304" xlink:href="#m6b15809f5b" y="291.8"/>
     <use style="fill:#1f77b4;stroke:#1f77b4;" x="137.418972" xlink:href="#m6b15809f5b" y="297.524868"/>
     <use style="fill:#1f77b4;stroke:#1f77b4;" x="148.44664" xlink:href="#m6b15809f5b" y="230.06455"/>
     <use style="fill:#1f77b4;stroke:#1f77b4;" x="159.474308" xlink:href="#m6b15809f5b" y="263.863492"/>
     <use style="fill:#1f77b4;stroke:#1f77b4;" x="170.501976" xlink:href="#m6b15809f5b" y="293.419048"/>
     <use style="fill:#1f77b4;stroke:#1f77b4;" x="181.529644" xlink:href="#m6b15809f5b" y="305.249735"/>
     <use style="fill:#1f77b4;stroke:#1f77b4;" x="192.557312" xlink:href="#m6b15809f5b" y="144.561905"/>
     <use style="fill:#1f77b4;stroke:#1f77b4;" x="203.58498" xlink:href="#m6b15809f5b" y="252.297354"/>
     <use style="fill:#1f77b4;stroke:#1f77b4;" x="214.612648" xlink:href="#m6b15809f5b" y="291.440212"/>
     <use style="fill:#1f77b4;stroke:#1f77b4;" x="225.640316" xlink:href="#m6b15809f5b" y="281.344974"/>
     <use style="fill:#1f77b4;stroke:#1f77b4;" x="236.667984" xlink:href="#m6b15809f5b" y="193.64127"/>
     <use style="fill:#1f77b4;stroke:#1f77b4;" x="247.695652" xlink:href="#m6b15809f5b" y="270.837037"/>
     <use style="fill:#1f77b4;stroke:#1f77b4;" x="258.72332" xlink:href="#m6b15809f5b" y="230.466667"/>
     <use style="fill:#1f77b4;stroke:#1f77b4;" x="269.750988" xlink:href="#m6b15809f5b" y="275.196825"/>
     <use style="fill:#1f77b4;stroke:#1f77b4;" x="280.778656" xlink:href="#m6b15809f5b" y="300.286772"/>
     <use style="fill:#1f77b4;stroke:#1f77b4;" x="291.806324" xlink:href="#m6b15809f5b" y="294.932275"/>
     <use style="fill:#1f77b4;stroke:#1f77b4;" x="302.833992" xlink:href="#m6b15809f5b" y="302.710053"/>
     <use style="fill:#1f77b4;stroke:#1f77b4;" x="313.86166" xlink:href="#m6b15809f5b" y="280.572487"/>
     <use style="fill:#1f77b4;stroke:#1f77b4;" x="324.889328" xlink:href="#m6b15809f5b" y="285.524868"/>
     <use style="fill:#1f77b4;stroke:#1f77b4;" x="335.916996" xlink:href="#m6b15809f5b" y="292.900529"/>
     <use style="fill:#1f77b4;stroke:#1f77b4;" x="346.944664" xlink:href="#m6b15809f5b" y="162.487831"/>
     <use style="fill:#1f77b4;stroke:#1f77b4;" x="357.972332" xlink:href="#m6b15809f5b" y="259.895238"/>
     <use style="fill:#1f77b4;stroke:#1f77b4;" x="369" xlink:href="#m6b15809f5b" y="298.487831"/>
     <use style="fill:#1f77b4;stroke:#1f77b4;" x="380.027668" xlink:href="#m6b15809f5b" y="290.053968"/>
     <use style="fill:#1f77b4;stroke:#1f77b4;" x="391.055336" xlink:href="#m6b15809f5b" y="301.069841"/>
     <use style="fill:#1f77b4;stroke:#1f77b4;" x="402.083004" xlink:href="#m6b15809f5b" y="281.334392"/>
     <use style="fill:#1f77b4;stroke:#1f77b4;" x="413.110672" xlink:href="#m6b15809f5b" y="301.916402"/>
     <use style="fill:#1f77b4;stroke:#1f77b4;" x="424.13834" xlink:href="#m6b15809f5b" y="254.233862"/>
     <use style="fill:#1f77b4;stroke:#1f77b4;" x="435.166008" xlink:href="#m6b15809f5b" y="275.74709"/>
     <use style="fill:#1f77b4;stroke:#1f77b4;" x="446.193676" xlink:href="#m6b15809f5b" y="276.244444"/>
     <use style="fill:#1f77b4;stroke:#1f77b4;" x="457.221344" xlink:href="#m6b15809f5b" y="262.530159"/>
     <use style="fill:#1f77b4;stroke:#1f77b4;" x="468.249012" xlink:href="#m6b15809f5b" y="84.498413"/>
     <use style="fill:#1f77b4;stroke:#1f77b4;" x="479.27668" xlink:href="#m6b15809f5b" y="288.942857"/>
     <use style="fill:#1f77b4;stroke:#1f77b4;" x="490.304348" xlink:href="#m6b15809f5b" y="295.32381"/>
     <use style="fill:#1f77b4;stroke:#1f77b4;" x="501.332016" xlink:href="#m6b15809f5b" y="190.297354"/>
     <use style="fill:#1f77b4;stroke:#1f77b4;" x="512.359684" xlink:href="#m6b15809f5b" y="277.990476"/>
     <use style="fill:#1f77b4;stroke:#1f77b4;" x="523.387352" xlink:href="#m6b15809f5b" y="140.985185"/>
     <use style="fill:#1f77b4;stroke:#1f77b4;" x="534.41502" xlink:href="#m6b15809f5b" y="275.207407"/>
     <use style="fill:#1f77b4;stroke:#1f77b4;" x="545.442688" xlink:href="#m6b15809f5b" y="289.916402"/>
     <use style="fill:#1f77b4;stroke:#1f77b4;" x="556.470356" xlink:href="#m6b15809f5b" y="291.239153"/>
     <use style="fill:#1f77b4;stroke:#1f77b4;" x="567.498024" xlink:href="#m6b15809f5b" y="306.212698"/>
     <use style="fill:#1f77b4;stroke:#1f77b4;" x="578.525692" xlink:href="#m6b15809f5b" y="219.715344"/>
     <use style="fill:#1f77b4;stroke:#1f77b4;" x="589.55336" xlink:href="#m6b15809f5b" y="278.350265"/>
     <use style="fill:#1f77b4;stroke:#1f77b4;" x="600.581028" xlink:href="#m6b15809f5b" y="265.778836"/>
     <use style="fill:#1f77b4;stroke:#1f77b4;" x="611.608696" xlink:href="#m6b15809f5b" y="259.979894"/>
     <use style="fill:#1f77b4;stroke:#1f77b4;" x="622.636364" xlink:href="#m6b15809f5b" y="204.466667"/>
    </g>
   </g>
   <g id="PathCollection_2">
    <defs>
     <path d="M 0 1.118034 
C 0.296506 1.118034 0.580908 1.000231 0.790569 0.790569 
C 1.000231 0.580908 1.118034 0.296506 1.118034 0 
C 1.118034 -0.296506 1.000231 -0.580908 0.790569 -0.790569 
C 0.580908 -1.000231 0.296506 -1.118034 0 -1.118034 
C -0.296506 -1.118034 -0.580908 -1.000231 -0.790569 -0.790569 
C -1.000231 -0.580908 -1.118034 -0.296506 -1.118034 0 
C -1.118034 0.296506 -1.000231 0.580908 -0.790569 0.790569 
C -0.580908 1.000231 -0.296506 1.118034 0 1.118034 
z
" id="md8bfb1c53a" style="stroke:#ff7f0e;"/>
    </defs>
    <g clip-path="url(#p0275da759c)">
     <use style="fill:#ff7f0e;stroke:#ff7f0e;" x="115.363636" xlink:href="#md8bfb1c53a" y="276.635979"/>
     <use style="fill:#ff7f0e;stroke:#ff7f0e;" x="126.391304" xlink:href="#md8bfb1c53a" y="273.609524"/>
     <use style="fill:#ff7f0e;stroke:#ff7f0e;" x="137.418972" xlink:href="#md8bfb1c53a" y="274.953439"/>
     <use style="fill:#ff7f0e;stroke:#ff7f0e;" x="148.44664" xlink:href="#md8bfb1c53a" y="277.493122"/>
     <use style="fill:#ff7f0e;stroke:#ff7f0e;" x="159.474308" xlink:href="#md8bfb1c53a" y="274.847619"/>
     <use style="fill:#ff7f0e;stroke:#ff7f0e;" x="170.501976" xlink:href="#md8bfb1c53a" y="293.281481"/>
     <use style="fill:#ff7f0e;stroke:#ff7f0e;" x="181.529644" xlink:href="#md8bfb1c53a" y="293.355556"/>
     <use style="fill:#ff7f0e;stroke:#ff7f0e;" x="192.557312" xlink:href="#md8bfb1c53a" y="176.403175"/>
     <use style="fill:#ff7f0e;stroke:#ff7f0e;" x="203.58498" xlink:href="#md8bfb1c53a" y="270.128042"/>
     <use style="fill:#ff7f0e;stroke:#ff7f0e;" x="214.612648" xlink:href="#md8bfb1c53a" y="258.244444"/>
     <use style="fill:#ff7f0e;stroke:#ff7f0e;" x="225.640316" xlink:href="#md8bfb1c53a" y="249.313228"/>
     <use style="fill:#ff7f0e;stroke:#ff7f0e;" x="236.667984" xlink:href="#md8bfb1c53a" y="227.979894"/>
     <use style="fill:#ff7f0e;stroke:#ff7f0e;" x="247.695652" xlink:href="#md8bfb1c53a" y="301.895238"/>
     <use style="fill:#ff7f0e;stroke:#ff7f0e;" x="258.72332" xlink:href="#md8bfb1c53a" y="288.212698"/>
     <use style="fill:#ff7f0e;stroke:#ff7f0e;" x="269.750988" xlink:href="#md8bfb1c53a" y="238.244444"/>
     <use style="fill:#ff7f0e;stroke:#ff7f0e;" x="280.778656" xlink:href="#md8bfb1c53a" y="242.445503"/>
     <use style="fill:#ff7f0e;stroke:#ff7f0e;" x="291.806324" xlink:href="#md8bfb1c53a" y="75.74709"/>
     <use style="fill:#ff7f0e;stroke:#ff7f0e;" x="302.833992" xlink:href="#md8bfb1c53a" y="224.17037"/>
     <use style="fill:#ff7f0e;stroke:#ff7f0e;" x="313.86166" xlink:href="#md8bfb1c53a" y="252.678307"/>
     <use style="fill:#ff7f0e;stroke:#ff7f0e;" x="324.889328" xlink:href="#md8bfb1c53a" y="289.546032"/>
     <use style="fill:#ff7f0e;stroke:#ff7f0e;" x="335.916996" xlink:href="#md8bfb1c53a" y="280.149206"/>
     <use style="fill:#ff7f0e;stroke:#ff7f0e;" x="346.944664" xlink:href="#md8bfb1c53a" y="277.175661"/>
     <use style="fill:#ff7f0e;stroke:#ff7f0e;" x="357.972332" xlink:href="#md8bfb1c53a" y="216.27619"/>
     <use style="fill:#ff7f0e;stroke:#ff7f0e;" x="369" xlink:href="#md8bfb1c53a" y="246.995767"/>
     <use style="fill:#ff7f0e;stroke:#ff7f0e;" x="380.027668" xlink:href="#md8bfb1c53a" y="266.265608"/>
     <use style="fill:#ff7f0e;stroke:#ff7f0e;" x="391.055336" xlink:href="#md8bfb1c53a" y="252.360847"/>
     <use style="fill:#ff7f0e;stroke:#ff7f0e;" x="402.083004" xlink:href="#md8bfb1c53a" y="284.508995"/>
     <use style="fill:#ff7f0e;stroke:#ff7f0e;" x="413.110672" xlink:href="#md8bfb1c53a" y="279.038095"/>
     <use style="fill:#ff7f0e;stroke:#ff7f0e;" x="424.13834" xlink:href="#md8bfb1c53a" y="275.196825"/>
     <use style="fill:#ff7f0e;stroke:#ff7f0e;" x="435.166008" xlink:href="#md8bfb1c53a" y="279.948148"/>
     <use style="fill:#ff7f0e;stroke:#ff7f0e;" x="446.193676" xlink:href="#md8bfb1c53a" y="252.889947"/>
     <use style="fill:#ff7f0e;stroke:#ff7f0e;" x="457.221344" xlink:href="#md8bfb1c53a" y="275.387302"/>
     <use style="fill:#ff7f0e;stroke:#ff7f0e;" x="468.249012" xlink:href="#md8bfb1c53a" y="238.604233"/>
     <use style="fill:#ff7f0e;stroke:#ff7f0e;" x="479.27668" xlink:href="#md8bfb1c53a" y="274.297354"/>
     <use style="fill:#ff7f0e;stroke:#ff7f0e;" x="490.304348" xlink:href="#md8bfb1c53a" y="290.985185"/>
     <use style="fill:#ff7f0e;stroke:#ff7f0e;" x="501.332016" xlink:href="#md8bfb1c53a" y="266.413757"/>
     <use style="fill:#ff7f0e;stroke:#ff7f0e;" x="512.359684" xlink:href="#md8bfb1c53a" y="245.175661"/>
     <use style="fill:#ff7f0e;stroke:#ff7f0e;" x="523.387352" xlink:href="#md8bfb1c53a" y="218.784127"/>
     <use style="fill:#ff7f0e;stroke:#ff7f0e;" x="534.41502" xlink:href="#md8bfb1c53a" y="187.397884"/>
     <use style="fill:#ff7f0e;stroke:#ff7f0e;" x="545.442688" xlink:href="#md8bfb1c53a" y="280.974603"/>
     <use style="fill:#ff7f0e;stroke:#ff7f0e;" x="556.470356" xlink:href="#md8bfb1c53a" y="281.768254"/>
     <use style="fill:#ff7f0e;stroke:#ff7f0e;" x="567.498024" xlink:href="#md8bfb1c53a" y="280.678307"/>
     <use style="fill:#ff7f0e;stroke:#ff7f0e;" x="578.525692" xlink:href="#md8bfb1c53a" y="88.106878"/>
     <use style="fill:#ff7f0e;stroke:#ff7f0e;" x="589.55336" xlink:href="#md8bfb1c53a" y="195.715344"/>
     <use style="fill:#ff7f0e;stroke:#ff7f0e;" x="600.581028" xlink:href="#md8bfb1c53a" y="282.731217"/>
     <use style="fill:#ff7f0e;stroke:#ff7f0e;" x="611.608696" xlink:href="#md8bfb1c53a" y="202.11746"/>
     <use style="fill:#ff7f0e;stroke:#ff7f0e;" x="622.636364" xlink:href="#md8bfb1c53a" y="267.715344"/>
    </g>
   </g>
   <g id="PathCollection_3">
    <defs>
     <path d="M 0 1.118034 
C 0.296506 1.118034 0.580908 1.000231 0.790569 0.790569 
C 1.000231 0.580908 1.118034 0.296506 1.118034 0 
C 1.118034 -0.296506 1.000231 -0.580908 0.790569 -0.790569 
C 0.580908 -1.000231 0.296506 -1.118034 0 -1.118034 
C -0.296506 -1.118034 -0.580908 -1.000231 -0.790569 -0.790569 
C -1.000231 -0.580908 -1.118034 -0.296506 -1.118034 0 
C -1.118034 0.296506 -1.000231 0.580908 -0.790569 0.790569 
C -0.580908 1.000231 -0.296506 1.118034 0 1.118034 
z
" id="ma27fae374e" style="stroke:#2ca02c;"/>
    </defs>
    <g clip-path="url(#p0275da759c)">
     <use style="fill:#2ca02c;stroke:#2ca02c;" x="115.363636" xlink:href="#ma27fae374e" y="218.519577"/>
     <use style="fill:#2ca02c;stroke:#2ca02c;" x="126.391304" xlink:href="#ma27fae374e" y="214.900529"/>
     <use style="fill:#2ca02c;stroke:#2ca02c;" x="137.418972" xlink:href="#ma27fae374e" y="211.85291"/>
     <use style="fill:#2ca02c;stroke:#2ca02c;" x="148.44664" xlink:href="#ma27fae374e" y="241.58836"/>
     <use style="fill:#2ca02c;stroke:#2ca02c;" x="159.474308" xlink:href="#ma27fae374e" y="210.138624"/>
     <use style="fill:#2ca02c;stroke:#2ca02c;" x="170.501976" xlink:href="#ma27fae374e" y="227.313228"/>
     <use style="fill:#2ca02c;stroke:#2ca02c;" x="181.529644" xlink:href="#ma27fae374e" y="267.74709"/>
     <use style="fill:#2ca02c;stroke:#2ca02c;" x="192.557312" xlink:href="#ma27fae374e" y="139.948148"/>
     <use style="fill:#2ca02c;stroke:#2ca02c;" x="203.58498" xlink:href="#ma27fae374e" y="172.075132"/>
     <use style="fill:#2ca02c;stroke:#2ca02c;" x="214.612648" xlink:href="#ma27fae374e" y="222.688889"/>
     <use style="fill:#2ca02c;stroke:#2ca02c;" x="225.640316" xlink:href="#ma27fae374e" y="247.874074"/>
     <use style="fill:#2ca02c;stroke:#2ca02c;" x="236.667984" xlink:href="#ma27fae374e" y="265.577778"/>
     <use style="fill:#2ca02c;stroke:#2ca02c;" x="247.695652" xlink:href="#ma27fae374e" y="261.926984"/>
     <use style="fill:#2ca02c;stroke:#2ca02c;" x="258.72332" xlink:href="#ma27fae374e" y="272.159788"/>
     <use style="fill:#2ca02c;stroke:#2ca02c;" x="269.750988" xlink:href="#ma27fae374e" y="307.8"/>
     <use style="fill:#2ca02c;stroke:#2ca02c;" x="280.778656" xlink:href="#ma27fae374e" y="256.731217"/>
     <use style="fill:#2ca02c;stroke:#2ca02c;" x="291.806324" xlink:href="#ma27fae374e" y="176.646561"/>
     <use style="fill:#2ca02c;stroke:#2ca02c;" x="302.833992" xlink:href="#ma27fae374e" y="169.302646"/>
     <use style="fill:#2ca02c;stroke:#2ca02c;" x="313.86166" xlink:href="#ma27fae374e" y="238.720635"/>
     <use style="fill:#2ca02c;stroke:#2ca02c;" x="324.889328" xlink:href="#ma27fae374e" y="282.593651"/>
     <use style="fill:#2ca02c;stroke:#2ca02c;" x="335.916996" xlink:href="#ma27fae374e" y="258.329101"/>
     <use style="fill:#2ca02c;stroke:#2ca02c;" x="346.944664" xlink:href="#ma27fae374e" y="222.477249"/>
     <use style="fill:#2ca02c;stroke:#2ca02c;" x="357.972332" xlink:href="#ma27fae374e" y="246.392593"/>
     <use style="fill:#2ca02c;stroke:#2ca02c;" x="369" xlink:href="#ma27fae374e" y="230.540741"/>
     <use style="fill:#2ca02c;stroke:#2ca02c;" x="380.027668" xlink:href="#ma27fae374e" y="233.673016"/>
     <use style="fill:#2ca02c;stroke:#2ca02c;" x="391.055336" xlink:href="#ma27fae374e" y="240.858201"/>
     <use style="fill:#2ca02c;stroke:#2ca02c;" x="402.083004" xlink:href="#ma27fae374e" y="269.048677"/>
     <use style="fill:#2ca02c;stroke:#2ca02c;" x="413.110672" xlink:href="#ma27fae374e" y="216.498413"/>
     <use style="fill:#2ca02c;stroke:#2ca02c;" x="424.13834" xlink:href="#ma27fae374e" y="240.138624"/>
     <use style="fill:#2ca02c;stroke:#2ca02c;" x="435.166008" xlink:href="#ma27fae374e" y="248.773545"/>
     <use style="fill:#2ca02c;stroke:#2ca02c;" x="446.193676" xlink:href="#ma27fae374e" y="190.773545"/>
     <use style="fill:#2ca02c;stroke:#2ca02c;" x="457.221344" xlink:href="#ma27fae374e" y="242.202116"/>
     <use style="fill:#2ca02c;stroke:#2ca02c;" x="468.249012" xlink:href="#ma27fae374e" y="176.572487"/>
     <use style="fill:#2ca02c;stroke:#2ca02c;" x="479.27668" xlink:href="#ma27fae374e" y="242.646561"/>
     <use style="fill:#2ca02c;stroke:#2ca02c;" x="490.304348" xlink:href="#ma27fae374e" y="237.503704"/>
     <use style="fill:#2ca02c;stroke:#2ca02c;" x="501.332016" xlink:href="#ma27fae374e" y="192.604233"/>
     <use style="fill:#2ca02c;stroke:#2ca02c;" x="512.359684" xlink:href="#ma27fae374e" y="218.318519"/>
     <use style="fill:#2ca02c;stroke:#2ca02c;" x="523.387352" xlink:href="#ma27fae374e" y="55.8"/>
     <use style="fill:#2ca02c;stroke:#2ca02c;" x="534.41502" xlink:href="#ma27fae374e" y="180.879365"/>
     <use style="fill:#2ca02c;stroke:#2ca02c;" x="545.442688" xlink:href="#ma27fae374e" y="239.789418"/>
     <use style="fill:#2ca02c;stroke:#2ca02c;" x="556.470356" xlink:href="#ma27fae374e" y="288.053968"/>
     <use style="fill:#2ca02c;stroke:#2ca02c;" x="567.498024" xlink:href="#ma27fae374e" y="281.842328"/>
     <use style="fill:#2ca02c;stroke:#2ca02c;" x="578.525692" xlink:href="#ma27fae374e" y="234.149206"/>
     <use style="fill:#2ca02c;stroke:#2ca02c;" x="589.55336" xlink:href="#ma27fae374e" y="184.339683"/>
     <use style="fill:#2ca02c;stroke:#2ca02c;" x="600.581028" xlink:href="#ma27fae374e" y="256.17037"/>
     <use style="fill:#2ca02c;stroke:#2ca02c;" x="611.608696" xlink:href="#ma27fae374e" y="244.001058"/>
     <use style="fill:#2ca02c;stroke:#2ca02c;" x="622.636364" xlink:href="#ma27fae374e" y="276.191534"/>
    </g>
   </g>
   <g id="PathCollection_4">
    <defs>
     <path d="M 0 1.118034 
C 0.296506 1.118034 0.580908 1.000231 0.790569 0.790569 
C 1.000231 0.580908 1.118034 0.296506 1.118034 0 
C 1.118034 -0.296506 1.000231 -0.580908 0.790569 -0.790569 
C 0.580908 -1.000231 0.296506 -1.118034 0 -1.118034 
C -0.296506 -1.118034 -0.580908 -1.000231 -0.790569 -0.790569 
C -1.000231 -0.580908 -1.118034 -0.296506 -1.118034 0 
C -1.118034 0.296506 -1.000231 0.580908 -0.790569 0.790569 
C -0.580908 1.000231 -0.296506 1.118034 0 1.118034 
z
" id="mae73ba576d" style="stroke:#d62728;"/>
    </defs>
    <g clip-path="url(#p0275da759c)">
     <use style="fill:#d62728;stroke:#d62728;" x="115.363636" xlink:href="#mae73ba576d" y="256.710053"/>
     <use style="fill:#d62728;stroke:#d62728;" x="126.391304" xlink:href="#mae73ba576d" y="242.710053"/>
     <use style="fill:#d62728;stroke:#d62728;" x="137.418972" xlink:href="#mae73ba576d" y="257.704762"/>
     <use style="fill:#d62728;stroke:#d62728;" x="148.44664" xlink:href="#mae73ba576d" y="288.868783"/>
     <use style="fill:#d62728;stroke:#d62728;" x="159.474308" xlink:href="#mae73ba576d" y="268.413757"/>
     <use style="fill:#d62728;stroke:#d62728;" x="170.501976" xlink:href="#mae73ba576d" y="227.42963"/>
     <use style="fill:#d62728;stroke:#d62728;" x="181.529644" xlink:href="#mae73ba576d" y="292.487831"/>
     <use style="fill:#d62728;stroke:#d62728;" x="192.557312" xlink:href="#mae73ba576d" y="249.757672"/>
     <use style="fill:#d62728;stroke:#d62728;" x="203.58498" xlink:href="#mae73ba576d" y="243.270899"/>
     <use style="fill:#d62728;stroke:#d62728;" x="214.612648" xlink:href="#mae73ba576d" y="264.371429"/>
     <use style="fill:#d62728;stroke:#d62728;" x="225.640316" xlink:href="#mae73ba576d" y="282.731217"/>
     <use style="fill:#d62728;stroke:#d62728;" x="236.667984" xlink:href="#mae73ba576d" y="301.091005"/>
     <use style="fill:#d62728;stroke:#d62728;" x="247.695652" xlink:href="#mae73ba576d" y="301.334392"/>
     <use style="fill:#d62728;stroke:#d62728;" x="258.72332" xlink:href="#mae73ba576d" y="302.858201"/>
     <use style="fill:#d62728;stroke:#d62728;" x="269.750988" xlink:href="#mae73ba576d" y="294.138624"/>
     <use style="fill:#d62728;stroke:#d62728;" x="280.778656" xlink:href="#mae73ba576d" y="287.990476"/>
     <use style="fill:#d62728;stroke:#d62728;" x="291.806324" xlink:href="#mae73ba576d" y="270.085714"/>
     <use style="fill:#d62728;stroke:#d62728;" x="302.833992" xlink:href="#mae73ba576d" y="271.503704"/>
     <use style="fill:#d62728;stroke:#d62728;" x="313.86166" xlink:href="#mae73ba576d" y="280.27619"/>
     <use style="fill:#d62728;stroke:#d62728;" x="324.889328" xlink:href="#mae73ba576d" y="277.080423"/>
     <use style="fill:#d62728;stroke:#d62728;" x="335.916996" xlink:href="#mae73ba576d" y="289.926984"/>
     <use style="fill:#d62728;stroke:#d62728;" x="346.944664" xlink:href="#mae73ba576d" y="281.503704"/>
     <use style="fill:#d62728;stroke:#d62728;" x="357.972332" xlink:href="#mae73ba576d" y="237.95873"/>
     <use style="fill:#d62728;stroke:#d62728;" x="369" xlink:href="#mae73ba576d" y="263.344974"/>
     <use style="fill:#d62728;stroke:#d62728;" x="380.027668" xlink:href="#mae73ba576d" y="232.985185"/>
     <use style="fill:#d62728;stroke:#d62728;" x="391.055336" xlink:href="#mae73ba576d" y="253.969312"/>
     <use style="fill:#d62728;stroke:#d62728;" x="402.083004" xlink:href="#mae73ba576d" y="284.995767"/>
     <use style="fill:#d62728;stroke:#d62728;" x="413.110672" xlink:href="#mae73ba576d" y="268.233862"/>
     <use style="fill:#d62728;stroke:#d62728;" x="424.13834" xlink:href="#mae73ba576d" y="244.382011"/>
     <use style="fill:#d62728;stroke:#d62728;" x="435.166008" xlink:href="#mae73ba576d" y="282.625397"/>
     <use style="fill:#d62728;stroke:#d62728;" x="446.193676" xlink:href="#mae73ba576d" y="282.879365"/>
     <use style="fill:#d62728;stroke:#d62728;" x="457.221344" xlink:href="#mae73ba576d" y="286.678307"/>
     <use style="fill:#d62728;stroke:#d62728;" x="468.249012" xlink:href="#mae73ba576d" y="132.128042"/>
     <use style="fill:#d62728;stroke:#d62728;" x="479.27668" xlink:href="#mae73ba576d" y="271.916402"/>
     <use style="fill:#d62728;stroke:#d62728;" x="490.304348" xlink:href="#mae73ba576d" y="283.821164"/>
     <use style="fill:#d62728;stroke:#d62728;" x="501.332016" xlink:href="#mae73ba576d" y="265.080423"/>
     <use style="fill:#d62728;stroke:#d62728;" x="512.359684" xlink:href="#mae73ba576d" y="258.255026"/>
     <use style="fill:#d62728;stroke:#d62728;" x="523.387352" xlink:href="#mae73ba576d" y="215.556614"/>
     <use style="fill:#d62728;stroke:#d62728;" x="534.41502" xlink:href="#mae73ba576d" y="271.90582"/>
     <use style="fill:#d62728;stroke:#d62728;" x="545.442688" xlink:href="#mae73ba576d" y="280.212698"/>
     <use style="fill:#d62728;stroke:#d62728;" x="556.470356" xlink:href="#mae73ba576d" y="269.016931"/>
     <use style="fill:#d62728;stroke:#d62728;" x="567.498024" xlink:href="#mae73ba576d" y="252.191534"/>
     <use style="fill:#d62728;stroke:#d62728;" x="578.525692" xlink:href="#mae73ba576d" y="291.715344"/>
     <use style="fill:#d62728;stroke:#d62728;" x="589.55336" xlink:href="#mae73ba576d" y="290.477249"/>
     <use style="fill:#d62728;stroke:#d62728;" x="600.581028" xlink:href="#mae73ba576d" y="300.032804"/>
     <use style="fill:#d62728;stroke:#d62728;" x="611.608696" xlink:href="#mae73ba576d" y="293.662434"/>
     <use style="fill:#d62728;stroke:#d62728;" x="622.636364" xlink:href="#mae73ba576d" y="289.313228"/>
    </g>
   </g>
   <g id="PathCollection_5">
    <defs>
     <path d="M 0 1.118034 
C 0.296506 1.118034 0.580908 1.000231 0.790569 0.790569 
C 1.000231 0.580908 1.118034 0.296506 1.118034 0 
C 1.118034 -0.296506 1.000231 -0.580908 0.790569 -0.790569 
C 0.580908 -1.000231 0.296506 -1.118034 0 -1.118034 
C -0.296506 -1.118034 -0.580908 -1.000231 -0.790569 -0.790569 
C -1.000231 -0.580908 -1.118034 -0.296506 -1.118034 0 
C -1.118034 0.296506 -1.000231 0.580908 -0.790569 0.790569 
C -0.580908 1.000231 -0.296506 1.118034 0 1.118034 
z
" id="meb13b0195c" style="stroke:#9467bd;"/>
    </defs>
    <g clip-path="url(#p0275da759c)">
     <use style="fill:#9467bd;stroke:#9467bd;" x="115.363636" xlink:href="#meb13b0195c" y="233.32381"/>
     <use style="fill:#9467bd;stroke:#9467bd;" x="126.391304" xlink:href="#meb13b0195c" y="208.572487"/>
     <use style="fill:#9467bd;stroke:#9467bd;" x="137.418972" xlink:href="#meb13b0195c" y="275.133333"/>
     <use style="fill:#9467bd;stroke:#9467bd;" x="148.44664" xlink:href="#meb13b0195c" y="179.937566"/>
     <use style="fill:#9467bd;stroke:#9467bd;" x="159.474308" xlink:href="#meb13b0195c" y="195.196825"/>
     <use style="fill:#9467bd;stroke:#9467bd;" x="170.501976" xlink:href="#meb13b0195c" y="273.577778"/>
     <use style="fill:#9467bd;stroke:#9467bd;" x="181.529644" xlink:href="#meb13b0195c" y="260.11746"/>
     <use style="fill:#9467bd;stroke:#9467bd;" x="192.557312" xlink:href="#meb13b0195c" y="120.477249"/>
     <use style="fill:#9467bd;stroke:#9467bd;" x="203.58498" xlink:href="#meb13b0195c" y="226.01164"/>
     <use style="fill:#9467bd;stroke:#9467bd;" x="214.612648" xlink:href="#meb13b0195c" y="254.593651"/>
     <use style="fill:#9467bd;stroke:#9467bd;" x="225.640316" xlink:href="#meb13b0195c" y="252.900529"/>
     <use style="fill:#9467bd;stroke:#9467bd;" x="236.667984" xlink:href="#meb13b0195c" y="188.879365"/>
     <use style="fill:#9467bd;stroke:#9467bd;" x="247.695652" xlink:href="#meb13b0195c" y="277.313228"/>
     <use style="fill:#9467bd;stroke:#9467bd;" x="258.72332" xlink:href="#meb13b0195c" y="288.350265"/>
     <use style="fill:#9467bd;stroke:#9467bd;" x="269.750988" xlink:href="#meb13b0195c" y="277.768254"/>
     <use style="fill:#9467bd;stroke:#9467bd;" x="280.778656" xlink:href="#meb13b0195c" y="257.567196"/>
     <use style="fill:#9467bd;stroke:#9467bd;" x="291.806324" xlink:href="#meb13b0195c" y="239.662434"/>
     <use style="fill:#9467bd;stroke:#9467bd;" x="302.833992" xlink:href="#meb13b0195c" y="261.493122"/>
     <use style="fill:#9467bd;stroke:#9467bd;" x="313.86166" xlink:href="#meb13b0195c" y="225.493122"/>
     <use style="fill:#9467bd;stroke:#9467bd;" x="324.889328" xlink:href="#meb13b0195c" y="258.434921"/>
     <use style="fill:#9467bd;stroke:#9467bd;" x="335.916996" xlink:href="#meb13b0195c" y="289.249735"/>
     <use style="fill:#9467bd;stroke:#9467bd;" x="346.944664" xlink:href="#meb13b0195c" y="250.202116"/>
     <use style="fill:#9467bd;stroke:#9467bd;" x="357.972332" xlink:href="#meb13b0195c" y="243.673016"/>
     <use style="fill:#9467bd;stroke:#9467bd;" x="369" xlink:href="#meb13b0195c" y="215.916402"/>
     <use style="fill:#9467bd;stroke:#9467bd;" x="380.027668" xlink:href="#meb13b0195c" y="253.112169"/>
     <use style="fill:#9467bd;stroke:#9467bd;" x="391.055336" xlink:href="#meb13b0195c" y="209.48254"/>
     <use style="fill:#9467bd;stroke:#9467bd;" x="402.083004" xlink:href="#meb13b0195c" y="285.546032"/>
     <use style="fill:#9467bd;stroke:#9467bd;" x="413.110672" xlink:href="#meb13b0195c" y="238.202116"/>
     <use style="fill:#9467bd;stroke:#9467bd;" x="424.13834" xlink:href="#meb13b0195c" y="253.948148"/>
     <use style="fill:#9467bd;stroke:#9467bd;" x="435.166008" xlink:href="#meb13b0195c" y="252.085714"/>
     <use style="fill:#9467bd;stroke:#9467bd;" x="446.193676" xlink:href="#meb13b0195c" y="284.445503"/>
     <use style="fill:#9467bd;stroke:#9467bd;" x="457.221344" xlink:href="#meb13b0195c" y="235.37672"/>
     <use style="fill:#9467bd;stroke:#9467bd;" x="468.249012" xlink:href="#meb13b0195c" y="250.075132"/>
     <use style="fill:#9467bd;stroke:#9467bd;" x="479.27668" xlink:href="#meb13b0195c" y="282.752381"/>
     <use style="fill:#9467bd;stroke:#9467bd;" x="490.304348" xlink:href="#meb13b0195c" y="241.567196"/>
     <use style="fill:#9467bd;stroke:#9467bd;" x="501.332016" xlink:href="#meb13b0195c" y="265.90582"/>
     <use style="fill:#9467bd;stroke:#9467bd;" x="512.359684" xlink:href="#meb13b0195c" y="194.445503"/>
     <use style="fill:#9467bd;stroke:#9467bd;" x="523.387352" xlink:href="#meb13b0195c" y="258.710053"/>
     <use style="fill:#9467bd;stroke:#9467bd;" x="534.41502" xlink:href="#meb13b0195c" y="263.831746"/>
     <use style="fill:#9467bd;stroke:#9467bd;" x="545.442688" xlink:href="#meb13b0195c" y="199.979894"/>
     <use style="fill:#9467bd;stroke:#9467bd;" x="556.470356" xlink:href="#meb13b0195c" y="264.212698"/>
     <use style="fill:#9467bd;stroke:#9467bd;" x="567.498024" xlink:href="#meb13b0195c" y="286.403175"/>
     <use style="fill:#9467bd;stroke:#9467bd;" x="578.525692" xlink:href="#meb13b0195c" y="267.016931"/>
     <use style="fill:#9467bd;stroke:#9467bd;" x="589.55336" xlink:href="#meb13b0195c" y="227.673016"/>
     <use style="fill:#9467bd;stroke:#9467bd;" x="600.581028" xlink:href="#meb13b0195c" y="244.773545"/>
     <use style="fill:#9467bd;stroke:#9467bd;" x="611.608696" xlink:href="#meb13b0195c" y="295.281481"/>
     <use style="fill:#9467bd;stroke:#9467bd;" x="622.636364" xlink:href="#meb13b0195c" y="224.075132"/>
    </g>
   </g>
   <g id="PathCollection_6">
    <defs>
     <path d="M 0 1.118034 
C 0.296506 1.118034 0.580908 1.000231 0.790569 0.790569 
C 1.000231 0.580908 1.118034 0.296506 1.118034 0 
C 1.118034 -0.296506 1.000231 -0.580908 0.790569 -0.790569 
C 0.580908 -1.000231 0.296506 -1.118034 0 -1.118034 
C -0.296506 -1.118034 -0.580908 -1.000231 -0.790569 -0.790569 
C -1.000231 -0.580908 -1.118034 -0.296506 -1.118034 0 
C -1.118034 0.296506 -1.000231 0.580908 -0.790569 0.790569 
C -0.580908 1.000231 -0.296506 1.118034 0 1.118034 
z
" id="mb2cd6a1c1a" style="stroke:#8c564b;"/>
    </defs>
    <g clip-path="url(#p0275da759c)">
     <use style="fill:#8c564b;stroke:#8c564b;" x="115.363636" xlink:href="#mb2cd6a1c1a" y="301.53545"/>
     <use style="fill:#8c564b;stroke:#8c564b;" x="126.391304" xlink:href="#mb2cd6a1c1a" y="281.514286"/>
     <use style="fill:#8c564b;stroke:#8c564b;" x="137.418972" xlink:href="#mb2cd6a1c1a" y="295.863492"/>
     <use style="fill:#8c564b;stroke:#8c564b;" x="148.44664" xlink:href="#mb2cd6a1c1a" y="301.143915"/>
     <use style="fill:#8c564b;stroke:#8c564b;" x="159.474308" xlink:href="#mb2cd6a1c1a" y="297.979894"/>
     <use style="fill:#8c564b;stroke:#8c564b;" x="170.501976" xlink:href="#mb2cd6a1c1a" y="299.016931"/>
     <use style="fill:#8c564b;stroke:#8c564b;" x="181.529644" xlink:href="#mb2cd6a1c1a" y="307.789418"/>
     <use style="fill:#8c564b;stroke:#8c564b;" x="192.557312" xlink:href="#mb2cd6a1c1a" y="291.016931"/>
     <use style="fill:#8c564b;stroke:#8c564b;" x="203.58498" xlink:href="#mb2cd6a1c1a" y="294.646561"/>
     <use style="fill:#8c564b;stroke:#8c564b;" x="214.612648" xlink:href="#mb2cd6a1c1a" y="297.884656"/>
     <use style="fill:#8c564b;stroke:#8c564b;" x="225.640316" xlink:href="#mb2cd6a1c1a" y="306.667725"/>
     <use style="fill:#8c564b;stroke:#8c564b;" x="236.667984" xlink:href="#mb2cd6a1c1a" y="304.360847"/>
     <use style="fill:#8c564b;stroke:#8c564b;" x="247.695652" xlink:href="#mb2cd6a1c1a" y="305.016931"/>
     <use style="fill:#8c564b;stroke:#8c564b;" x="258.72332" xlink:href="#mb2cd6a1c1a" y="294.498413"/>
     <use style="fill:#8c564b;stroke:#8c564b;" x="269.750988" xlink:href="#mb2cd6a1c1a" y="307.768254"/>
     <use style="fill:#8c564b;stroke:#8c564b;" x="280.778656" xlink:href="#mb2cd6a1c1a" y="297.239153"/>
     <use style="fill:#8c564b;stroke:#8c564b;" x="291.806324" xlink:href="#mb2cd6a1c1a" y="301.292063"/>
     <use style="fill:#8c564b;stroke:#8c564b;" x="302.833992" xlink:href="#mb2cd6a1c1a" y="301.419048"/>
     <use style="fill:#8c564b;stroke:#8c564b;" x="313.86166" xlink:href="#mb2cd6a1c1a" y="298.106878"/>
     <use style="fill:#8c564b;stroke:#8c564b;" x="324.889328" xlink:href="#mb2cd6a1c1a" y="305.006349"/>
     <use style="fill:#8c564b;stroke:#8c564b;" x="335.916996" xlink:href="#mb2cd6a1c1a" y="305.609524"/>
     <use style="fill:#8c564b;stroke:#8c564b;" x="346.944664" xlink:href="#mb2cd6a1c1a" y="298.868783"/>
     <use style="fill:#8c564b;stroke:#8c564b;" x="357.972332" xlink:href="#mb2cd6a1c1a" y="291.196825"/>
     <use style="fill:#8c564b;stroke:#8c564b;" x="369" xlink:href="#mb2cd6a1c1a" y="296.371429"/>
     <use style="fill:#8c564b;stroke:#8c564b;" x="380.027668" xlink:href="#mb2cd6a1c1a" y="298.710053"/>
     <use style="fill:#8c564b;stroke:#8c564b;" x="391.055336" xlink:href="#mb2cd6a1c1a" y="302.159788"/>
     <use style="fill:#8c564b;stroke:#8c564b;" x="402.083004" xlink:href="#mb2cd6a1c1a" y="305.239153"/>
     <use style="fill:#8c564b;stroke:#8c564b;" x="413.110672" xlink:href="#mb2cd6a1c1a" y="296.794709"/>
     <use style="fill:#8c564b;stroke:#8c564b;" x="424.13834" xlink:href="#mb2cd6a1c1a" y="302.329101"/>
     <use style="fill:#8c564b;stroke:#8c564b;" x="435.166008" xlink:href="#mb2cd6a1c1a" y="297.461376"/>
     <use style="fill:#8c564b;stroke:#8c564b;" x="446.193676" xlink:href="#mb2cd6a1c1a" y="285.016931"/>
     <use style="fill:#8c564b;stroke:#8c564b;" x="457.221344" xlink:href="#mb2cd6a1c1a" y="296.318519"/>
     <use style="fill:#8c564b;stroke:#8c564b;" x="468.249012" xlink:href="#mb2cd6a1c1a" y="288.27619"/>
     <use style="fill:#8c564b;stroke:#8c564b;" x="479.27668" xlink:href="#mb2cd6a1c1a" y="300.900529"/>
     <use style="fill:#8c564b;stroke:#8c564b;" x="490.304348" xlink:href="#mb2cd6a1c1a" y="298.202116"/>
     <use style="fill:#8c564b;stroke:#8c564b;" x="501.332016" xlink:href="#mb2cd6a1c1a" y="275.154497"/>
     <use style="fill:#8c564b;stroke:#8c564b;" x="512.359684" xlink:href="#mb2cd6a1c1a" y="292.953439"/>
     <use style="fill:#8c564b;stroke:#8c564b;" x="523.387352" xlink:href="#mb2cd6a1c1a" y="278.01164"/>
     <use style="fill:#8c564b;stroke:#8c564b;" x="534.41502" xlink:href="#mb2cd6a1c1a" y="299.514286"/>
     <use style="fill:#8c564b;stroke:#8c564b;" x="545.442688" xlink:href="#mb2cd6a1c1a" y="305.598942"/>
     <use style="fill:#8c564b;stroke:#8c564b;" x="556.470356" xlink:href="#mb2cd6a1c1a" y="304.985185"/>
     <use style="fill:#8c564b;stroke:#8c564b;" x="567.498024" xlink:href="#mb2cd6a1c1a" y="307.101587"/>
     <use style="fill:#8c564b;stroke:#8c564b;" x="578.525692" xlink:href="#mb2cd6a1c1a" y="300.794709"/>
     <use style="fill:#8c564b;stroke:#8c564b;" x="589.55336" xlink:href="#mb2cd6a1c1a" y="296.27619"/>
     <use style="fill:#8c564b;stroke:#8c564b;" x="600.581028" xlink:href="#mb2cd6a1c1a" y="299.736508"/>
     <use style="fill:#8c564b;stroke:#8c564b;" x="611.608696" xlink:href="#mb2cd6a1c1a" y="288.953439"/>
     <use style="fill:#8c564b;stroke:#8c564b;" x="622.636364" xlink:href="#mb2cd6a1c1a" y="293.651852"/>
    </g>
   </g>
   <g id="matplotlib.axis_1">
    <g id="xtick_1">
     <g id="line2d_1">
      <defs>
       <path d="M 0 0 
L 0 3.5 
" id="me9a44daa70" style="stroke:#000000;stroke-width:0.8;"/>
      </defs>
      <g>
       <use style="stroke:#000000;stroke-width:0.8;" x="137.418972" xlink:href="#me9a44daa70" y="320.4"/>
      </g>
     </g>
     <g id="text_1">
      <!-- 2020-04-01 -->
      <defs>
       <path d="M 19.1875 8.296875 
L 53.609375 8.296875 
L 53.609375 0 
L 7.328125 0 
L 7.328125 8.296875 
Q 12.9375 14.109375 22.625 23.890625 
Q 32.328125 33.6875 34.8125 36.53125 
Q 39.546875 41.84375 41.421875 45.53125 
Q 43.3125 49.21875 43.3125 52.78125 
Q 43.3125 58.59375 39.234375 62.25 
Q 35.15625 65.921875 28.609375 65.921875 
Q 23.96875 65.921875 18.8125 64.3125 
Q 13.671875 62.703125 7.8125 59.421875 
L 7.8125 69.390625 
Q 13.765625 71.78125 18.9375 73 
Q 24.125 74.21875 28.421875 74.21875 
Q 39.75 74.21875 46.484375 68.546875 
Q 53.21875 62.890625 53.21875 53.421875 
Q 53.21875 48.921875 51.53125 44.890625 
Q 49.859375 40.875 45.40625 35.40625 
Q 44.1875 33.984375 37.640625 27.21875 
Q 31.109375 20.453125 19.1875 8.296875 
z
" id="DejaVuSans-50"/>
       <path d="M 31.78125 66.40625 
Q 24.171875 66.40625 20.328125 58.90625 
Q 16.5 51.421875 16.5 36.375 
Q 16.5 21.390625 20.328125 13.890625 
Q 24.171875 6.390625 31.78125 6.390625 
Q 39.453125 6.390625 43.28125 13.890625 
Q 47.125 21.390625 47.125 36.375 
Q 47.125 51.421875 43.28125 58.90625 
Q 39.453125 66.40625 31.78125 66.40625 
z
M 31.78125 74.21875 
Q 44.046875 74.21875 50.515625 64.515625 
Q 56.984375 54.828125 56.984375 36.375 
Q 56.984375 17.96875 50.515625 8.265625 
Q 44.046875 -1.421875 31.78125 -1.421875 
Q 19.53125 -1.421875 13.0625 8.265625 
Q 6.59375 17.96875 6.59375 36.375 
Q 6.59375 54.828125 13.0625 64.515625 
Q 19.53125 74.21875 31.78125 74.21875 
z
" id="DejaVuSans-48"/>
       <path d="M 4.890625 31.390625 
L 31.203125 31.390625 
L 31.203125 23.390625 
L 4.890625 23.390625 
z
" id="DejaVuSans-45"/>
       <path d="M 37.796875 64.3125 
L 12.890625 25.390625 
L 37.796875 25.390625 
z
M 35.203125 72.90625 
L 47.609375 72.90625 
L 47.609375 25.390625 
L 58.015625 25.390625 
L 58.015625 17.1875 
L 47.609375 17.1875 
L 47.609375 0 
L 37.796875 0 
L 37.796875 17.1875 
L 4.890625 17.1875 
L 4.890625 26.703125 
z
" id="DejaVuSans-52"/>
       <path d="M 12.40625 8.296875 
L 28.515625 8.296875 
L 28.515625 63.921875 
L 10.984375 60.40625 
L 10.984375 69.390625 
L 28.421875 72.90625 
L 38.28125 72.90625 
L 38.28125 8.296875 
L 54.390625 8.296875 
L 54.390625 0 
L 12.40625 0 
z
" id="DejaVuSans-49"/>
      </defs>
      <g transform="translate(108.36116 334.998438)scale(0.1 -0.1)">
       <use xlink:href="#DejaVuSans-50"/>
       <use x="63.623047" xlink:href="#DejaVuSans-48"/>
       <use x="127.246094" xlink:href="#DejaVuSans-50"/>
       <use x="190.869141" xlink:href="#DejaVuSans-48"/>
       <use x="254.492188" xlink:href="#DejaVuSans-45"/>
       <use x="290.576172" xlink:href="#DejaVuSans-48"/>
       <use x="354.199219" xlink:href="#DejaVuSans-52"/>
       <use x="417.822266" xlink:href="#DejaVuSans-45"/>
       <use x="453.90625" xlink:href="#DejaVuSans-48"/>
       <use x="517.529297" xlink:href="#DejaVuSans-49"/>
      </g>
     </g>
    </g>
    <g id="xtick_2">
     <g id="line2d_2">
      <g>
       <use style="stroke:#000000;stroke-width:0.8;" x="214.612648" xlink:href="#me9a44daa70" y="320.4"/>
      </g>
     </g>
     <g id="text_2">
      <!-- 2020-04-08 -->
      <defs>
       <path d="M 31.78125 34.625 
Q 24.75 34.625 20.71875 30.859375 
Q 16.703125 27.09375 16.703125 20.515625 
Q 16.703125 13.921875 20.71875 10.15625 
Q 24.75 6.390625 31.78125 6.390625 
Q 38.8125 6.390625 42.859375 10.171875 
Q 46.921875 13.96875 46.921875 20.515625 
Q 46.921875 27.09375 42.890625 30.859375 
Q 38.875 34.625 31.78125 34.625 
z
M 21.921875 38.8125 
Q 15.578125 40.375 12.03125 44.71875 
Q 8.5 49.078125 8.5 55.328125 
Q 8.5 64.0625 14.71875 69.140625 
Q 20.953125 74.21875 31.78125 74.21875 
Q 42.671875 74.21875 48.875 69.140625 
Q 55.078125 64.0625 55.078125 55.328125 
Q 55.078125 49.078125 51.53125 44.71875 
Q 48 40.375 41.703125 38.8125 
Q 48.828125 37.15625 52.796875 32.3125 
Q 56.78125 27.484375 56.78125 20.515625 
Q 56.78125 9.90625 50.3125 4.234375 
Q 43.84375 -1.421875 31.78125 -1.421875 
Q 19.734375 -1.421875 13.25 4.234375 
Q 6.78125 9.90625 6.78125 20.515625 
Q 6.78125 27.484375 10.78125 32.3125 
Q 14.796875 37.15625 21.921875 38.8125 
z
M 18.3125 54.390625 
Q 18.3125 48.734375 21.84375 45.5625 
Q 25.390625 42.390625 31.78125 42.390625 
Q 38.140625 42.390625 41.71875 45.5625 
Q 45.3125 48.734375 45.3125 54.390625 
Q 45.3125 60.0625 41.71875 63.234375 
Q 38.140625 66.40625 31.78125 66.40625 
Q 25.390625 66.40625 21.84375 63.234375 
Q 18.3125 60.0625 18.3125 54.390625 
z
" id="DejaVuSans-56"/>
      </defs>
      <g transform="translate(185.554836 334.998438)scale(0.1 -0.1)">
       <use xlink:href="#DejaVuSans-50"/>
       <use x="63.623047" xlink:href="#DejaVuSans-48"/>
       <use x="127.246094" xlink:href="#DejaVuSans-50"/>
       <use x="190.869141" xlink:href="#DejaVuSans-48"/>
       <use x="254.492188" xlink:href="#DejaVuSans-45"/>
       <use x="290.576172" xlink:href="#DejaVuSans-48"/>
       <use x="354.199219" xlink:href="#DejaVuSans-52"/>
       <use x="417.822266" xlink:href="#DejaVuSans-45"/>
       <use x="453.90625" xlink:href="#DejaVuSans-48"/>
       <use x="517.529297" xlink:href="#DejaVuSans-56"/>
      </g>
     </g>
    </g>
    <g id="xtick_3">
     <g id="line2d_3">
      <g>
       <use style="stroke:#000000;stroke-width:0.8;" x="291.806324" xlink:href="#me9a44daa70" y="320.4"/>
      </g>
     </g>
     <g id="text_3">
      <!-- 2020-04-15 -->
      <defs>
       <path d="M 10.796875 72.90625 
L 49.515625 72.90625 
L 49.515625 64.59375 
L 19.828125 64.59375 
L 19.828125 46.734375 
Q 21.96875 47.46875 24.109375 47.828125 
Q 26.265625 48.1875 28.421875 48.1875 
Q 40.625 48.1875 47.75 41.5 
Q 54.890625 34.8125 54.890625 23.390625 
Q 54.890625 11.625 47.5625 5.09375 
Q 40.234375 -1.421875 26.90625 -1.421875 
Q 22.3125 -1.421875 17.546875 -0.640625 
Q 12.796875 0.140625 7.71875 1.703125 
L 7.71875 11.625 
Q 12.109375 9.234375 16.796875 8.0625 
Q 21.484375 6.890625 26.703125 6.890625 
Q 35.15625 6.890625 40.078125 11.328125 
Q 45.015625 15.765625 45.015625 23.390625 
Q 45.015625 31 40.078125 35.4375 
Q 35.15625 39.890625 26.703125 39.890625 
Q 22.75 39.890625 18.8125 39.015625 
Q 14.890625 38.140625 10.796875 36.28125 
z
" id="DejaVuSans-53"/>
      </defs>
      <g transform="translate(262.748512 334.998438)scale(0.1 -0.1)">
       <use xlink:href="#DejaVuSans-50"/>
       <use x="63.623047" xlink:href="#DejaVuSans-48"/>
       <use x="127.246094" xlink:href="#DejaVuSans-50"/>
       <use x="190.869141" xlink:href="#DejaVuSans-48"/>
       <use x="254.492188" xlink:href="#DejaVuSans-45"/>
       <use x="290.576172" xlink:href="#DejaVuSans-48"/>
       <use x="354.199219" xlink:href="#DejaVuSans-52"/>
       <use x="417.822266" xlink:href="#DejaVuSans-45"/>
       <use x="453.90625" xlink:href="#DejaVuSans-49"/>
       <use x="517.529297" xlink:href="#DejaVuSans-53"/>
      </g>
     </g>
    </g>
    <g id="xtick_4">
     <g id="line2d_4">
      <g>
       <use style="stroke:#000000;stroke-width:0.8;" x="369" xlink:href="#me9a44daa70" y="320.4"/>
      </g>
     </g>
     <g id="text_4">
      <!-- 2020-04-22 -->
      <g transform="translate(339.942188 334.998438)scale(0.1 -0.1)">
       <use xlink:href="#DejaVuSans-50"/>
       <use x="63.623047" xlink:href="#DejaVuSans-48"/>
       <use x="127.246094" xlink:href="#DejaVuSans-50"/>
       <use x="190.869141" xlink:href="#DejaVuSans-48"/>
       <use x="254.492188" xlink:href="#DejaVuSans-45"/>
       <use x="290.576172" xlink:href="#DejaVuSans-48"/>
       <use x="354.199219" xlink:href="#DejaVuSans-52"/>
       <use x="417.822266" xlink:href="#DejaVuSans-45"/>
       <use x="453.90625" xlink:href="#DejaVuSans-50"/>
       <use x="517.529297" xlink:href="#DejaVuSans-50"/>
      </g>
     </g>
    </g>
    <g id="xtick_5">
     <g id="line2d_5">
      <g>
       <use style="stroke:#000000;stroke-width:0.8;" x="468.249012" xlink:href="#me9a44daa70" y="320.4"/>
      </g>
     </g>
     <g id="text_5">
      <!-- 2020-05-01 -->
      <g transform="translate(439.191199 334.998438)scale(0.1 -0.1)">
       <use xlink:href="#DejaVuSans-50"/>
       <use x="63.623047" xlink:href="#DejaVuSans-48"/>
       <use x="127.246094" xlink:href="#DejaVuSans-50"/>
       <use x="190.869141" xlink:href="#DejaVuSans-48"/>
       <use x="254.492188" xlink:href="#DejaVuSans-45"/>
       <use x="290.576172" xlink:href="#DejaVuSans-48"/>
       <use x="354.199219" xlink:href="#DejaVuSans-53"/>
       <use x="417.822266" xlink:href="#DejaVuSans-45"/>
       <use x="453.90625" xlink:href="#DejaVuSans-48"/>
       <use x="517.529297" xlink:href="#DejaVuSans-49"/>
      </g>
     </g>
    </g>
    <g id="xtick_6">
     <g id="line2d_6">
      <g>
       <use style="stroke:#000000;stroke-width:0.8;" x="545.442688" xlink:href="#me9a44daa70" y="320.4"/>
      </g>
     </g>
     <g id="text_6">
      <!-- 2020-05-08 -->
      <g transform="translate(516.384875 334.998438)scale(0.1 -0.1)">
       <use xlink:href="#DejaVuSans-50"/>
       <use x="63.623047" xlink:href="#DejaVuSans-48"/>
       <use x="127.246094" xlink:href="#DejaVuSans-50"/>
       <use x="190.869141" xlink:href="#DejaVuSans-48"/>
       <use x="254.492188" xlink:href="#DejaVuSans-45"/>
       <use x="290.576172" xlink:href="#DejaVuSans-48"/>
       <use x="354.199219" xlink:href="#DejaVuSans-53"/>
       <use x="417.822266" xlink:href="#DejaVuSans-45"/>
       <use x="453.90625" xlink:href="#DejaVuSans-48"/>
       <use x="517.529297" xlink:href="#DejaVuSans-56"/>
      </g>
     </g>
    </g>
    <g id="xtick_7">
     <g id="line2d_7">
      <g>
       <use style="stroke:#000000;stroke-width:0.8;" x="622.636364" xlink:href="#me9a44daa70" y="320.4"/>
      </g>
     </g>
     <g id="text_7">
      <!-- 2020-05-15 -->
      <g transform="translate(593.578551 334.998438)scale(0.1 -0.1)">
       <use xlink:href="#DejaVuSans-50"/>
       <use x="63.623047" xlink:href="#DejaVuSans-48"/>
       <use x="127.246094" xlink:href="#DejaVuSans-50"/>
       <use x="190.869141" xlink:href="#DejaVuSans-48"/>
       <use x="254.492188" xlink:href="#DejaVuSans-45"/>
       <use x="290.576172" xlink:href="#DejaVuSans-48"/>
       <use x="354.199219" xlink:href="#DejaVuSans-53"/>
       <use x="417.822266" xlink:href="#DejaVuSans-45"/>
       <use x="453.90625" xlink:href="#DejaVuSans-49"/>
       <use x="517.529297" xlink:href="#DejaVuSans-53"/>
      </g>
     </g>
    </g>
    <g id="text_8">
     <!-- Date -->
     <defs>
      <path d="M 19.671875 64.796875 
L 19.671875 8.109375 
L 31.59375 8.109375 
Q 46.6875 8.109375 53.6875 14.9375 
Q 60.6875 21.78125 60.6875 36.53125 
Q 60.6875 51.171875 53.6875 57.984375 
Q 46.6875 64.796875 31.59375 64.796875 
z
M 9.8125 72.90625 
L 30.078125 72.90625 
Q 51.265625 72.90625 61.171875 64.09375 
Q 71.09375 55.28125 71.09375 36.53125 
Q 71.09375 17.671875 61.125 8.828125 
Q 51.171875 0 30.078125 0 
L 9.8125 0 
z
" id="DejaVuSans-68"/>
      <path d="M 34.28125 27.484375 
Q 23.390625 27.484375 19.1875 25 
Q 14.984375 22.515625 14.984375 16.5 
Q 14.984375 11.71875 18.140625 8.90625 
Q 21.296875 6.109375 26.703125 6.109375 
Q 34.1875 6.109375 38.703125 11.40625 
Q 43.21875 16.703125 43.21875 25.484375 
L 43.21875 27.484375 
z
M 52.203125 31.203125 
L 52.203125 0 
L 43.21875 0 
L 43.21875 8.296875 
Q 40.140625 3.328125 35.546875 0.953125 
Q 30.953125 -1.421875 24.3125 -1.421875 
Q 15.921875 -1.421875 10.953125 3.296875 
Q 6 8.015625 6 15.921875 
Q 6 25.140625 12.171875 29.828125 
Q 18.359375 34.515625 30.609375 34.515625 
L 43.21875 34.515625 
L 43.21875 35.40625 
Q 43.21875 41.609375 39.140625 45 
Q 35.0625 48.390625 27.6875 48.390625 
Q 23 48.390625 18.546875 47.265625 
Q 14.109375 46.140625 10.015625 43.890625 
L 10.015625 52.203125 
Q 14.9375 54.109375 19.578125 55.046875 
Q 24.21875 56 28.609375 56 
Q 40.484375 56 46.34375 49.84375 
Q 52.203125 43.703125 52.203125 31.203125 
z
" id="DejaVuSans-97"/>
      <path d="M 18.3125 70.21875 
L 18.3125 54.6875 
L 36.8125 54.6875 
L 36.8125 47.703125 
L 18.3125 47.703125 
L 18.3125 18.015625 
Q 18.3125 11.328125 20.140625 9.421875 
Q 21.96875 7.515625 27.59375 7.515625 
L 36.8125 7.515625 
L 36.8125 0 
L 27.59375 0 
Q 17.1875 0 13.234375 3.875 
Q 9.28125 7.765625 9.28125 18.015625 
L 9.28125 47.703125 
L 2.6875 47.703125 
L 2.6875 54.6875 
L 9.28125 54.6875 
L 9.28125 70.21875 
z
" id="DejaVuSans-116"/>
      <path d="M 56.203125 29.59375 
L 56.203125 25.203125 
L 14.890625 25.203125 
Q 15.484375 15.921875 20.484375 11.0625 
Q 25.484375 6.203125 34.421875 6.203125 
Q 39.59375 6.203125 44.453125 7.46875 
Q 49.3125 8.734375 54.109375 11.28125 
L 54.109375 2.78125 
Q 49.265625 0.734375 44.1875 -0.34375 
Q 39.109375 -1.421875 33.890625 -1.421875 
Q 20.796875 -1.421875 13.15625 6.1875 
Q 5.515625 13.8125 5.515625 26.8125 
Q 5.515625 40.234375 12.765625 48.109375 
Q 20.015625 56 32.328125 56 
Q 43.359375 56 49.78125 48.890625 
Q 56.203125 41.796875 56.203125 29.59375 
z
M 47.21875 32.234375 
Q 47.125 39.59375 43.09375 43.984375 
Q 39.0625 48.390625 32.421875 48.390625 
Q 24.90625 48.390625 20.390625 44.140625 
Q 15.875 39.890625 15.1875 32.171875 
z
" id="DejaVuSans-101"/>
     </defs>
     <g transform="translate(357.049219 348.676562)scale(0.1 -0.1)">
      <use xlink:href="#DejaVuSans-68"/>
      <use x="77.001953" xlink:href="#DejaVuSans-97"/>
      <use x="138.28125" xlink:href="#DejaVuSans-116"/>
      <use x="177.490234" xlink:href="#DejaVuSans-101"/>
     </g>
    </g>
   </g>
   <g id="matplotlib.axis_2">
    <g id="ytick_1">
     <g id="line2d_8">
      <defs>
       <path d="M 0 0 
L -3.5 0 
" id="mc36e2df552" style="stroke:#000000;stroke-width:0.8;"/>
      </defs>
      <g>
       <use style="stroke:#000000;stroke-width:0.8;" x="90" xlink:href="#mc36e2df552" y="307.863492"/>
      </g>
     </g>
     <g id="text_9">
      <!-- 0 -->
      <g transform="translate(76.6375 311.662711)scale(0.1 -0.1)">
       <use xlink:href="#DejaVuSans-48"/>
      </g>
     </g>
    </g>
    <g id="ytick_2">
     <g id="line2d_9">
      <g>
       <use style="stroke:#000000;stroke-width:0.8;" x="90" xlink:href="#mc36e2df552" y="254.953439"/>
      </g>
     </g>
     <g id="text_10">
      <!-- 5000 -->
      <g transform="translate(57.55 258.752658)scale(0.1 -0.1)">
       <use xlink:href="#DejaVuSans-53"/>
       <use x="63.623047" xlink:href="#DejaVuSans-48"/>
       <use x="127.246094" xlink:href="#DejaVuSans-48"/>
       <use x="190.869141" xlink:href="#DejaVuSans-48"/>
      </g>
     </g>
    </g>
    <g id="ytick_3">
     <g id="line2d_10">
      <g>
       <use style="stroke:#000000;stroke-width:0.8;" x="90" xlink:href="#mc36e2df552" y="202.043386"/>
      </g>
     </g>
     <g id="text_11">
      <!-- 10000 -->
      <g transform="translate(51.1875 205.842605)scale(0.1 -0.1)">
       <use xlink:href="#DejaVuSans-49"/>
       <use x="63.623047" xlink:href="#DejaVuSans-48"/>
       <use x="127.246094" xlink:href="#DejaVuSans-48"/>
       <use x="190.869141" xlink:href="#DejaVuSans-48"/>
       <use x="254.492188" xlink:href="#DejaVuSans-48"/>
      </g>
     </g>
    </g>
    <g id="ytick_4">
     <g id="line2d_11">
      <g>
       <use style="stroke:#000000;stroke-width:0.8;" x="90" xlink:href="#mc36e2df552" y="149.133333"/>
      </g>
     </g>
     <g id="text_12">
      <!-- 15000 -->
      <g transform="translate(51.1875 152.932552)scale(0.1 -0.1)">
       <use xlink:href="#DejaVuSans-49"/>
       <use x="63.623047" xlink:href="#DejaVuSans-53"/>
       <use x="127.246094" xlink:href="#DejaVuSans-48"/>
       <use x="190.869141" xlink:href="#DejaVuSans-48"/>
       <use x="254.492188" xlink:href="#DejaVuSans-48"/>
      </g>
     </g>
    </g>
    <g id="ytick_5">
     <g id="line2d_12">
      <g>
       <use style="stroke:#000000;stroke-width:0.8;" x="90" xlink:href="#mc36e2df552" y="96.22328"/>
      </g>
     </g>
     <g id="text_13">
      <!-- 20000 -->
      <g transform="translate(51.1875 100.022499)scale(0.1 -0.1)">
       <use xlink:href="#DejaVuSans-50"/>
       <use x="63.623047" xlink:href="#DejaVuSans-48"/>
       <use x="127.246094" xlink:href="#DejaVuSans-48"/>
       <use x="190.869141" xlink:href="#DejaVuSans-48"/>
       <use x="254.492188" xlink:href="#DejaVuSans-48"/>
      </g>
     </g>
    </g>
    <g id="ytick_6">
     <g id="line2d_13">
      <g>
       <use style="stroke:#000000;stroke-width:0.8;" x="90" xlink:href="#mc36e2df552" y="43.313228"/>
      </g>
     </g>
     <g id="text_14">
      <!-- 25000 -->
      <g transform="translate(51.1875 47.112446)scale(0.1 -0.1)">
       <use xlink:href="#DejaVuSans-50"/>
       <use x="63.623047" xlink:href="#DejaVuSans-53"/>
       <use x="127.246094" xlink:href="#DejaVuSans-48"/>
       <use x="190.869141" xlink:href="#DejaVuSans-48"/>
       <use x="254.492188" xlink:href="#DejaVuSans-48"/>
      </g>
     </g>
    </g>
    <g id="text_15">
     <!-- Favorite count -->
     <defs>
      <path d="M 9.8125 72.90625 
L 51.703125 72.90625 
L 51.703125 64.59375 
L 19.671875 64.59375 
L 19.671875 43.109375 
L 48.578125 43.109375 
L 48.578125 34.8125 
L 19.671875 34.8125 
L 19.671875 0 
L 9.8125 0 
z
" id="DejaVuSans-70"/>
      <path d="M 2.984375 54.6875 
L 12.5 54.6875 
L 29.59375 8.796875 
L 46.6875 54.6875 
L 56.203125 54.6875 
L 35.6875 0 
L 23.484375 0 
z
" id="DejaVuSans-118"/>
      <path d="M 30.609375 48.390625 
Q 23.390625 48.390625 19.1875 42.75 
Q 14.984375 37.109375 14.984375 27.296875 
Q 14.984375 17.484375 19.15625 11.84375 
Q 23.34375 6.203125 30.609375 6.203125 
Q 37.796875 6.203125 41.984375 11.859375 
Q 46.1875 17.53125 46.1875 27.296875 
Q 46.1875 37.015625 41.984375 42.703125 
Q 37.796875 48.390625 30.609375 48.390625 
z
M 30.609375 56 
Q 42.328125 56 49.015625 48.375 
Q 55.71875 40.765625 55.71875 27.296875 
Q 55.71875 13.875 49.015625 6.21875 
Q 42.328125 -1.421875 30.609375 -1.421875 
Q 18.84375 -1.421875 12.171875 6.21875 
Q 5.515625 13.875 5.515625 27.296875 
Q 5.515625 40.765625 12.171875 48.375 
Q 18.84375 56 30.609375 56 
z
" id="DejaVuSans-111"/>
      <path d="M 41.109375 46.296875 
Q 39.59375 47.171875 37.8125 47.578125 
Q 36.03125 48 33.890625 48 
Q 26.265625 48 22.1875 43.046875 
Q 18.109375 38.09375 18.109375 28.8125 
L 18.109375 0 
L 9.078125 0 
L 9.078125 54.6875 
L 18.109375 54.6875 
L 18.109375 46.1875 
Q 20.953125 51.171875 25.484375 53.578125 
Q 30.03125 56 36.53125 56 
Q 37.453125 56 38.578125 55.875 
Q 39.703125 55.765625 41.0625 55.515625 
z
" id="DejaVuSans-114"/>
      <path d="M 9.421875 54.6875 
L 18.40625 54.6875 
L 18.40625 0 
L 9.421875 0 
z
M 9.421875 75.984375 
L 18.40625 75.984375 
L 18.40625 64.59375 
L 9.421875 64.59375 
z
" id="DejaVuSans-105"/>
      <path id="DejaVuSans-32"/>
      <path d="M 48.78125 52.59375 
L 48.78125 44.1875 
Q 44.96875 46.296875 41.140625 47.34375 
Q 37.3125 48.390625 33.40625 48.390625 
Q 24.65625 48.390625 19.8125 42.84375 
Q 14.984375 37.3125 14.984375 27.296875 
Q 14.984375 17.28125 19.8125 11.734375 
Q 24.65625 6.203125 33.40625 6.203125 
Q 37.3125 6.203125 41.140625 7.25 
Q 44.96875 8.296875 48.78125 10.40625 
L 48.78125 2.09375 
Q 45.015625 0.34375 40.984375 -0.53125 
Q 36.96875 -1.421875 32.421875 -1.421875 
Q 20.0625 -1.421875 12.78125 6.34375 
Q 5.515625 14.109375 5.515625 27.296875 
Q 5.515625 40.671875 12.859375 48.328125 
Q 20.21875 56 33.015625 56 
Q 37.15625 56 41.109375 55.140625 
Q 45.0625 54.296875 48.78125 52.59375 
z
" id="DejaVuSans-99"/>
      <path d="M 8.5 21.578125 
L 8.5 54.6875 
L 17.484375 54.6875 
L 17.484375 21.921875 
Q 17.484375 14.15625 20.5 10.265625 
Q 23.53125 6.390625 29.59375 6.390625 
Q 36.859375 6.390625 41.078125 11.03125 
Q 45.3125 15.671875 45.3125 23.6875 
L 45.3125 54.6875 
L 54.296875 54.6875 
L 54.296875 0 
L 45.3125 0 
L 45.3125 8.40625 
Q 42.046875 3.421875 37.71875 1 
Q 33.40625 -1.421875 27.6875 -1.421875 
Q 18.265625 -1.421875 13.375 4.4375 
Q 8.5 10.296875 8.5 21.578125 
z
M 31.109375 56 
z
" id="DejaVuSans-117"/>
      <path d="M 54.890625 33.015625 
L 54.890625 0 
L 45.90625 0 
L 45.90625 32.71875 
Q 45.90625 40.484375 42.875 44.328125 
Q 39.84375 48.1875 33.796875 48.1875 
Q 26.515625 48.1875 22.3125 43.546875 
Q 18.109375 38.921875 18.109375 30.90625 
L 18.109375 0 
L 9.078125 0 
L 9.078125 54.6875 
L 18.109375 54.6875 
L 18.109375 46.1875 
Q 21.34375 51.125 25.703125 53.5625 
Q 30.078125 56 35.796875 56 
Q 45.21875 56 50.046875 50.171875 
Q 54.890625 44.34375 54.890625 33.015625 
z
" id="DejaVuSans-110"/>
     </defs>
     <g transform="translate(45.107812 217.478906)rotate(-90)scale(0.1 -0.1)">
      <use xlink:href="#DejaVuSans-70"/>
      <use x="48.394531" xlink:href="#DejaVuSans-97"/>
      <use x="109.673828" xlink:href="#DejaVuSans-118"/>
      <use x="168.853516" xlink:href="#DejaVuSans-111"/>
      <use x="230.035156" xlink:href="#DejaVuSans-114"/>
      <use x="271.148438" xlink:href="#DejaVuSans-105"/>
      <use x="298.931641" xlink:href="#DejaVuSans-116"/>
      <use x="338.140625" xlink:href="#DejaVuSans-101"/>
      <use x="399.664062" xlink:href="#DejaVuSans-32"/>
      <use x="431.451172" xlink:href="#DejaVuSans-99"/>
      <use x="486.431641" xlink:href="#DejaVuSans-111"/>
      <use x="547.613281" xlink:href="#DejaVuSans-117"/>
      <use x="610.992188" xlink:href="#DejaVuSans-110"/>
      <use x="674.371094" xlink:href="#DejaVuSans-116"/>
     </g>
    </g>
   </g>
   <g id="line2d_14">
    <path clip-path="url(#p0275da759c)" d="M 115.363636 209.514286 
L 126.391304 291.8 
L 137.418972 297.524868 
L 148.44664 230.06455 
L 159.474308 263.863492 
L 170.501976 293.419048 
L 181.529644 305.249735 
L 192.557312 144.561905 
L 203.58498 252.297354 
L 214.612648 291.440212 
L 225.640316 281.344974 
L 236.667984 193.64127 
L 247.695652 270.837037 
L 258.72332 230.466667 
L 269.750988 275.196825 
L 280.778656 300.286772 
L 291.806324 294.932275 
L 302.833992 302.710053 
L 313.86166 280.572487 
L 324.889328 285.524868 
L 335.916996 292.900529 
L 346.944664 162.487831 
L 357.972332 259.895238 
L 369 298.487831 
L 380.027668 290.053968 
L 391.055336 301.069841 
L 402.083004 281.334392 
L 413.110672 301.916402 
L 424.13834 254.233862 
L 435.166008 275.74709 
L 446.193676 276.244444 
L 457.221344 262.530159 
L 468.249012 84.498413 
L 479.27668 288.942857 
L 490.304348 295.32381 
L 501.332016 190.297354 
L 512.359684 277.990476 
L 523.387352 140.985185 
L 534.41502 275.207407 
L 545.442688 289.916402 
L 556.470356 291.239153 
L 567.498024 306.212698 
L 578.525692 219.715344 
L 589.55336 278.350265 
L 600.581028 265.778836 
L 611.608696 259.979894 
L 622.636364 204.466667 
" style="fill:none;stroke:#1f77b4;stroke-linecap:square;stroke-width:1.5;"/>
   </g>
   <g id="line2d_15">
    <path clip-path="url(#p0275da759c)" d="M 115.363636 276.635979 
L 126.391304 273.609524 
L 137.418972 274.953439 
L 148.44664 277.493122 
L 159.474308 274.847619 
L 170.501976 293.281481 
L 181.529644 293.355556 
L 192.557312 176.403175 
L 203.58498 270.128042 
L 214.612648 258.244444 
L 225.640316 249.313228 
L 236.667984 227.979894 
L 247.695652 301.895238 
L 258.72332 288.212698 
L 269.750988 238.244444 
L 280.778656 242.445503 
L 291.806324 75.74709 
L 302.833992 224.17037 
L 313.86166 252.678307 
L 324.889328 289.546032 
L 335.916996 280.149206 
L 346.944664 277.175661 
L 357.972332 216.27619 
L 369 246.995767 
L 380.027668 266.265608 
L 391.055336 252.360847 
L 402.083004 284.508995 
L 413.110672 279.038095 
L 424.13834 275.196825 
L 435.166008 279.948148 
L 446.193676 252.889947 
L 457.221344 275.387302 
L 468.249012 238.604233 
L 479.27668 274.297354 
L 490.304348 290.985185 
L 501.332016 266.413757 
L 512.359684 245.175661 
L 523.387352 218.784127 
L 534.41502 187.397884 
L 545.442688 280.974603 
L 556.470356 281.768254 
L 567.498024 280.678307 
L 578.525692 88.106878 
L 589.55336 195.715344 
L 600.581028 282.731217 
L 611.608696 202.11746 
L 622.636364 267.715344 
" style="fill:none;stroke:#ff7f0e;stroke-linecap:square;stroke-width:1.5;"/>
   </g>
   <g id="line2d_16">
    <path clip-path="url(#p0275da759c)" d="M 115.363636 218.519577 
L 126.391304 214.900529 
L 137.418972 211.85291 
L 148.44664 241.58836 
L 159.474308 210.138624 
L 170.501976 227.313228 
L 181.529644 267.74709 
L 192.557312 139.948148 
L 203.58498 172.075132 
L 214.612648 222.688889 
L 225.640316 247.874074 
L 236.667984 265.577778 
L 247.695652 261.926984 
L 258.72332 272.159788 
L 269.750988 307.8 
L 280.778656 256.731217 
L 291.806324 176.646561 
L 302.833992 169.302646 
L 313.86166 238.720635 
L 324.889328 282.593651 
L 335.916996 258.329101 
L 346.944664 222.477249 
L 357.972332 246.392593 
L 369 230.540741 
L 380.027668 233.673016 
L 391.055336 240.858201 
L 402.083004 269.048677 
L 413.110672 216.498413 
L 424.13834 240.138624 
L 435.166008 248.773545 
L 446.193676 190.773545 
L 457.221344 242.202116 
L 468.249012 176.572487 
L 479.27668 242.646561 
L 490.304348 237.503704 
L 501.332016 192.604233 
L 512.359684 218.318519 
L 523.387352 55.8 
L 534.41502 180.879365 
L 545.442688 239.789418 
L 556.470356 288.053968 
L 567.498024 281.842328 
L 578.525692 234.149206 
L 589.55336 184.339683 
L 600.581028 256.17037 
L 611.608696 244.001058 
L 622.636364 276.191534 
" style="fill:none;stroke:#2ca02c;stroke-linecap:square;stroke-width:1.5;"/>
   </g>
   <g id="line2d_17">
    <path clip-path="url(#p0275da759c)" d="M 115.363636 256.710053 
L 126.391304 242.710053 
L 137.418972 257.704762 
L 148.44664 288.868783 
L 159.474308 268.413757 
L 170.501976 227.42963 
L 181.529644 292.487831 
L 192.557312 249.757672 
L 203.58498 243.270899 
L 214.612648 264.371429 
L 225.640316 282.731217 
L 236.667984 301.091005 
L 247.695652 301.334392 
L 258.72332 302.858201 
L 269.750988 294.138624 
L 280.778656 287.990476 
L 291.806324 270.085714 
L 302.833992 271.503704 
L 313.86166 280.27619 
L 324.889328 277.080423 
L 335.916996 289.926984 
L 346.944664 281.503704 
L 357.972332 237.95873 
L 369 263.344974 
L 380.027668 232.985185 
L 391.055336 253.969312 
L 402.083004 284.995767 
L 413.110672 268.233862 
L 424.13834 244.382011 
L 435.166008 282.625397 
L 446.193676 282.879365 
L 457.221344 286.678307 
L 468.249012 132.128042 
L 479.27668 271.916402 
L 490.304348 283.821164 
L 501.332016 265.080423 
L 512.359684 258.255026 
L 523.387352 215.556614 
L 534.41502 271.90582 
L 545.442688 280.212698 
L 556.470356 269.016931 
L 567.498024 252.191534 
L 578.525692 291.715344 
L 589.55336 290.477249 
L 600.581028 300.032804 
L 611.608696 293.662434 
L 622.636364 289.313228 
" style="fill:none;stroke:#d62728;stroke-linecap:square;stroke-width:1.5;"/>
   </g>
   <g id="line2d_18">
    <path clip-path="url(#p0275da759c)" d="M 115.363636 233.32381 
L 126.391304 208.572487 
L 137.418972 275.133333 
L 148.44664 179.937566 
L 159.474308 195.196825 
L 170.501976 273.577778 
L 181.529644 260.11746 
L 192.557312 120.477249 
L 203.58498 226.01164 
L 214.612648 254.593651 
L 225.640316 252.900529 
L 236.667984 188.879365 
L 247.695652 277.313228 
L 258.72332 288.350265 
L 269.750988 277.768254 
L 280.778656 257.567196 
L 291.806324 239.662434 
L 302.833992 261.493122 
L 313.86166 225.493122 
L 324.889328 258.434921 
L 335.916996 289.249735 
L 346.944664 250.202116 
L 357.972332 243.673016 
L 369 215.916402 
L 380.027668 253.112169 
L 391.055336 209.48254 
L 402.083004 285.546032 
L 413.110672 238.202116 
L 424.13834 253.948148 
L 435.166008 252.085714 
L 446.193676 284.445503 
L 457.221344 235.37672 
L 468.249012 250.075132 
L 479.27668 282.752381 
L 490.304348 241.567196 
L 501.332016 265.90582 
L 512.359684 194.445503 
L 523.387352 258.710053 
L 534.41502 263.831746 
L 545.442688 199.979894 
L 556.470356 264.212698 
L 567.498024 286.403175 
L 578.525692 267.016931 
L 589.55336 227.673016 
L 600.581028 244.773545 
L 611.608696 295.281481 
L 622.636364 224.075132 
" style="fill:none;stroke:#9467bd;stroke-linecap:square;stroke-width:1.5;"/>
   </g>
   <g id="line2d_19">
    <path clip-path="url(#p0275da759c)" d="M 115.363636 301.53545 
L 126.391304 281.514286 
L 137.418972 295.863492 
L 148.44664 301.143915 
L 159.474308 297.979894 
L 170.501976 299.016931 
L 181.529644 307.789418 
L 192.557312 291.016931 
L 203.58498 294.646561 
L 214.612648 297.884656 
L 225.640316 306.667725 
L 236.667984 304.360847 
L 247.695652 305.016931 
L 258.72332 294.498413 
L 269.750988 307.768254 
L 280.778656 297.239153 
L 291.806324 301.292063 
L 302.833992 301.419048 
L 313.86166 298.106878 
L 324.889328 305.006349 
L 335.916996 305.609524 
L 346.944664 298.868783 
L 357.972332 291.196825 
L 369 296.371429 
L 380.027668 298.710053 
L 391.055336 302.159788 
L 402.083004 305.239153 
L 413.110672 296.794709 
L 424.13834 302.329101 
L 435.166008 297.461376 
L 446.193676 285.016931 
L 457.221344 296.318519 
L 468.249012 288.27619 
L 479.27668 300.900529 
L 490.304348 298.202116 
L 501.332016 275.154497 
L 512.359684 292.953439 
L 523.387352 278.01164 
L 534.41502 299.514286 
L 545.442688 305.598942 
L 556.470356 304.985185 
L 567.498024 307.101587 
L 578.525692 300.794709 
L 589.55336 296.27619 
L 600.581028 299.736508 
L 611.608696 288.953439 
L 622.636364 293.651852 
" style="fill:none;stroke:#8c564b;stroke-linecap:square;stroke-width:1.5;"/>
   </g>
   <g id="patch_3">
    <path d="M 90 320.4 
L 90 43.2 
" style="fill:none;stroke:#000000;stroke-linecap:square;stroke-linejoin:miter;stroke-width:0.8;"/>
   </g>
   <g id="patch_4">
    <path d="M 648 320.4 
L 648 43.2 
" style="fill:none;stroke:#000000;stroke-linecap:square;stroke-linejoin:miter;stroke-width:0.8;"/>
   </g>
   <g id="patch_5">
    <path d="M 90 320.4 
L 648 320.4 
" style="fill:none;stroke:#000000;stroke-linecap:square;stroke-linejoin:miter;stroke-width:0.8;"/>
   </g>
   <g id="patch_6">
    <path d="M 90 43.2 
L 648 43.2 
" style="fill:none;stroke:#000000;stroke-linecap:square;stroke-linejoin:miter;stroke-width:0.8;"/>
   </g>
   <g id="text_16">
    <!-- Favorite count for date for accounts connected to each candidate  -->
    <defs>
     <path d="M 37.109375 75.984375 
L 37.109375 68.5 
L 28.515625 68.5 
Q 23.6875 68.5 21.796875 66.546875 
Q 19.921875 64.59375 19.921875 59.515625 
L 19.921875 54.6875 
L 34.71875 54.6875 
L 34.71875 47.703125 
L 19.921875 47.703125 
L 19.921875 0 
L 10.890625 0 
L 10.890625 47.703125 
L 2.296875 47.703125 
L 2.296875 54.6875 
L 10.890625 54.6875 
L 10.890625 58.5 
Q 10.890625 67.625 15.140625 71.796875 
Q 19.390625 75.984375 28.609375 75.984375 
z
" id="DejaVuSans-102"/>
     <path d="M 45.40625 46.390625 
L 45.40625 75.984375 
L 54.390625 75.984375 
L 54.390625 0 
L 45.40625 0 
L 45.40625 8.203125 
Q 42.578125 3.328125 38.25 0.953125 
Q 33.9375 -1.421875 27.875 -1.421875 
Q 17.96875 -1.421875 11.734375 6.484375 
Q 5.515625 14.40625 5.515625 27.296875 
Q 5.515625 40.1875 11.734375 48.09375 
Q 17.96875 56 27.875 56 
Q 33.9375 56 38.25 53.625 
Q 42.578125 51.265625 45.40625 46.390625 
z
M 14.796875 27.296875 
Q 14.796875 17.390625 18.875 11.75 
Q 22.953125 6.109375 30.078125 6.109375 
Q 37.203125 6.109375 41.296875 11.75 
Q 45.40625 17.390625 45.40625 27.296875 
Q 45.40625 37.203125 41.296875 42.84375 
Q 37.203125 48.484375 30.078125 48.484375 
Q 22.953125 48.484375 18.875 42.84375 
Q 14.796875 37.203125 14.796875 27.296875 
z
" id="DejaVuSans-100"/>
     <path d="M 44.28125 53.078125 
L 44.28125 44.578125 
Q 40.484375 46.53125 36.375 47.5 
Q 32.28125 48.484375 27.875 48.484375 
Q 21.1875 48.484375 17.84375 46.4375 
Q 14.5 44.390625 14.5 40.28125 
Q 14.5 37.15625 16.890625 35.375 
Q 19.28125 33.59375 26.515625 31.984375 
L 29.59375 31.296875 
Q 39.15625 29.25 43.1875 25.515625 
Q 47.21875 21.78125 47.21875 15.09375 
Q 47.21875 7.46875 41.1875 3.015625 
Q 35.15625 -1.421875 24.609375 -1.421875 
Q 20.21875 -1.421875 15.453125 -0.5625 
Q 10.6875 0.296875 5.421875 2 
L 5.421875 11.28125 
Q 10.40625 8.6875 15.234375 7.390625 
Q 20.0625 6.109375 24.8125 6.109375 
Q 31.15625 6.109375 34.5625 8.28125 
Q 37.984375 10.453125 37.984375 14.40625 
Q 37.984375 18.0625 35.515625 20.015625 
Q 33.0625 21.96875 24.703125 23.78125 
L 21.578125 24.515625 
Q 13.234375 26.265625 9.515625 29.90625 
Q 5.8125 33.546875 5.8125 39.890625 
Q 5.8125 47.609375 11.28125 51.796875 
Q 16.75 56 26.8125 56 
Q 31.78125 56 36.171875 55.265625 
Q 40.578125 54.546875 44.28125 53.078125 
z
" id="DejaVuSans-115"/>
     <path d="M 54.890625 33.015625 
L 54.890625 0 
L 45.90625 0 
L 45.90625 32.71875 
Q 45.90625 40.484375 42.875 44.328125 
Q 39.84375 48.1875 33.796875 48.1875 
Q 26.515625 48.1875 22.3125 43.546875 
Q 18.109375 38.921875 18.109375 30.90625 
L 18.109375 0 
L 9.078125 0 
L 9.078125 75.984375 
L 18.109375 75.984375 
L 18.109375 46.1875 
Q 21.34375 51.125 25.703125 53.5625 
Q 30.078125 56 35.796875 56 
Q 45.21875 56 50.046875 50.171875 
Q 54.890625 44.34375 54.890625 33.015625 
z
" id="DejaVuSans-104"/>
    </defs>
    <g transform="translate(170.266875 37.2)scale(0.12 -0.12)">
     <use xlink:href="#DejaVuSans-70"/>
     <use x="48.394531" xlink:href="#DejaVuSans-97"/>
     <use x="109.673828" xlink:href="#DejaVuSans-118"/>
     <use x="168.853516" xlink:href="#DejaVuSans-111"/>
     <use x="230.035156" xlink:href="#DejaVuSans-114"/>
     <use x="271.148438" xlink:href="#DejaVuSans-105"/>
     <use x="298.931641" xlink:href="#DejaVuSans-116"/>
     <use x="338.140625" xlink:href="#DejaVuSans-101"/>
     <use x="399.664062" xlink:href="#DejaVuSans-32"/>
     <use x="431.451172" xlink:href="#DejaVuSans-99"/>
     <use x="486.431641" xlink:href="#DejaVuSans-111"/>
     <use x="547.613281" xlink:href="#DejaVuSans-117"/>
     <use x="610.992188" xlink:href="#DejaVuSans-110"/>
     <use x="674.371094" xlink:href="#DejaVuSans-116"/>
     <use x="713.580078" xlink:href="#DejaVuSans-32"/>
     <use x="745.367188" xlink:href="#DejaVuSans-102"/>
     <use x="780.572266" xlink:href="#DejaVuSans-111"/>
     <use x="841.753906" xlink:href="#DejaVuSans-114"/>
     <use x="882.867188" xlink:href="#DejaVuSans-32"/>
     <use x="914.654297" xlink:href="#DejaVuSans-100"/>
     <use x="978.130859" xlink:href="#DejaVuSans-97"/>
     <use x="1039.410156" xlink:href="#DejaVuSans-116"/>
     <use x="1078.619141" xlink:href="#DejaVuSans-101"/>
     <use x="1140.142578" xlink:href="#DejaVuSans-32"/>
     <use x="1171.929688" xlink:href="#DejaVuSans-102"/>
     <use x="1207.134766" xlink:href="#DejaVuSans-111"/>
     <use x="1268.316406" xlink:href="#DejaVuSans-114"/>
     <use x="1309.429688" xlink:href="#DejaVuSans-32"/>
     <use x="1341.216797" xlink:href="#DejaVuSans-97"/>
     <use x="1402.496094" xlink:href="#DejaVuSans-99"/>
     <use x="1457.476562" xlink:href="#DejaVuSans-99"/>
     <use x="1512.457031" xlink:href="#DejaVuSans-111"/>
     <use x="1573.638672" xlink:href="#DejaVuSans-117"/>
     <use x="1637.017578" xlink:href="#DejaVuSans-110"/>
     <use x="1700.396484" xlink:href="#DejaVuSans-116"/>
     <use x="1739.605469" xlink:href="#DejaVuSans-115"/>
     <use x="1791.705078" xlink:href="#DejaVuSans-32"/>
     <use x="1823.492188" xlink:href="#DejaVuSans-99"/>
     <use x="1878.472656" xlink:href="#DejaVuSans-111"/>
     <use x="1939.654297" xlink:href="#DejaVuSans-110"/>
     <use x="2003.033203" xlink:href="#DejaVuSans-110"/>
     <use x="2066.412109" xlink:href="#DejaVuSans-101"/>
     <use x="2127.935547" xlink:href="#DejaVuSans-99"/>
     <use x="2182.916016" xlink:href="#DejaVuSans-116"/>
     <use x="2222.125" xlink:href="#DejaVuSans-101"/>
     <use x="2283.648438" xlink:href="#DejaVuSans-100"/>
     <use x="2347.125" xlink:href="#DejaVuSans-32"/>
     <use x="2378.912109" xlink:href="#DejaVuSans-116"/>
     <use x="2418.121094" xlink:href="#DejaVuSans-111"/>
     <use x="2479.302734" xlink:href="#DejaVuSans-32"/>
     <use x="2511.089844" xlink:href="#DejaVuSans-101"/>
     <use x="2572.613281" xlink:href="#DejaVuSans-97"/>
     <use x="2633.892578" xlink:href="#DejaVuSans-99"/>
     <use x="2688.873047" xlink:href="#DejaVuSans-104"/>
     <use x="2752.251953" xlink:href="#DejaVuSans-32"/>
     <use x="2784.039062" xlink:href="#DejaVuSans-99"/>
     <use x="2839.019531" xlink:href="#DejaVuSans-97"/>
     <use x="2900.298828" xlink:href="#DejaVuSans-110"/>
     <use x="2963.677734" xlink:href="#DejaVuSans-100"/>
     <use x="3027.154297" xlink:href="#DejaVuSans-105"/>
     <use x="3054.9375" xlink:href="#DejaVuSans-100"/>
     <use x="3118.414062" xlink:href="#DejaVuSans-97"/>
     <use x="3179.693359" xlink:href="#DejaVuSans-116"/>
     <use x="3218.902344" xlink:href="#DejaVuSans-101"/>
     <use x="3280.425781" xlink:href="#DejaVuSans-32"/>
    </g>
   </g>
   <g id="legend_1">
    <g id="patch_7">
     <path d="M 97 139.26875 
L 174.957812 139.26875 
Q 176.957812 139.26875 176.957812 137.26875 
L 176.957812 50.2 
Q 176.957812 48.2 174.957812 48.2 
L 97 48.2 
Q 95 48.2 95 50.2 
L 95 137.26875 
Q 95 139.26875 97 139.26875 
z
" style="fill:#ffffff;opacity:0.8;stroke:#cccccc;stroke-linejoin:miter;"/>
    </g>
    <g id="line2d_20">
     <path d="M 99 56.298437 
L 119 56.298437 
" style="fill:none;stroke:#1f77b4;stroke-linecap:square;stroke-width:1.5;"/>
    </g>
    <g id="line2d_21"/>
    <g id="text_17">
     <!-- Duda -->
     <g transform="translate(127 59.798437)scale(0.1 -0.1)">
      <use xlink:href="#DejaVuSans-68"/>
      <use x="77.001953" xlink:href="#DejaVuSans-117"/>
      <use x="140.380859" xlink:href="#DejaVuSans-100"/>
      <use x="203.857422" xlink:href="#DejaVuSans-97"/>
     </g>
    </g>
    <g id="line2d_22">
     <path d="M 99 70.976562 
L 119 70.976562 
" style="fill:none;stroke:#ff7f0e;stroke-linecap:square;stroke-width:1.5;"/>
    </g>
    <g id="line2d_23"/>
    <g id="text_18">
     <!-- Biedron -->
     <defs>
      <path d="M 19.671875 34.8125 
L 19.671875 8.109375 
L 35.5 8.109375 
Q 43.453125 8.109375 47.28125 11.40625 
Q 51.125 14.703125 51.125 21.484375 
Q 51.125 28.328125 47.28125 31.5625 
Q 43.453125 34.8125 35.5 34.8125 
z
M 19.671875 64.796875 
L 19.671875 42.828125 
L 34.28125 42.828125 
Q 41.5 42.828125 45.03125 45.53125 
Q 48.578125 48.25 48.578125 53.8125 
Q 48.578125 59.328125 45.03125 62.0625 
Q 41.5 64.796875 34.28125 64.796875 
z
M 9.8125 72.90625 
L 35.015625 72.90625 
Q 46.296875 72.90625 52.390625 68.21875 
Q 58.5 63.53125 58.5 54.890625 
Q 58.5 48.1875 55.375 44.234375 
Q 52.25 40.28125 46.1875 39.3125 
Q 53.46875 37.75 57.5 32.78125 
Q 61.53125 27.828125 61.53125 20.40625 
Q 61.53125 10.640625 54.890625 5.3125 
Q 48.25 0 35.984375 0 
L 9.8125 0 
z
" id="DejaVuSans-66"/>
     </defs>
     <g transform="translate(127 74.476562)scale(0.1 -0.1)">
      <use xlink:href="#DejaVuSans-66"/>
      <use x="68.603516" xlink:href="#DejaVuSans-105"/>
      <use x="96.386719" xlink:href="#DejaVuSans-101"/>
      <use x="157.910156" xlink:href="#DejaVuSans-100"/>
      <use x="221.386719" xlink:href="#DejaVuSans-114"/>
      <use x="260.25" xlink:href="#DejaVuSans-111"/>
      <use x="321.431641" xlink:href="#DejaVuSans-110"/>
     </g>
    </g>
    <g id="line2d_24">
     <path d="M 99 85.654687 
L 119 85.654687 
" style="fill:none;stroke:#2ca02c;stroke-linecap:square;stroke-width:1.5;"/>
    </g>
    <g id="line2d_25"/>
    <g id="text_19">
     <!-- Bosak -->
     <defs>
      <path d="M 9.078125 75.984375 
L 18.109375 75.984375 
L 18.109375 31.109375 
L 44.921875 54.6875 
L 56.390625 54.6875 
L 27.390625 29.109375 
L 57.625 0 
L 45.90625 0 
L 18.109375 26.703125 
L 18.109375 0 
L 9.078125 0 
z
" id="DejaVuSans-107"/>
     </defs>
     <g transform="translate(127 89.154687)scale(0.1 -0.1)">
      <use xlink:href="#DejaVuSans-66"/>
      <use x="68.603516" xlink:href="#DejaVuSans-111"/>
      <use x="129.785156" xlink:href="#DejaVuSans-115"/>
      <use x="181.884766" xlink:href="#DejaVuSans-97"/>
      <use x="243.164062" xlink:href="#DejaVuSans-107"/>
     </g>
    </g>
    <g id="line2d_26">
     <path d="M 99 100.332812 
L 119 100.332812 
" style="fill:none;stroke:#d62728;stroke-linecap:square;stroke-width:1.5;"/>
    </g>
    <g id="line2d_27"/>
    <g id="text_20">
     <!-- Holownia -->
     <defs>
      <path d="M 9.8125 72.90625 
L 19.671875 72.90625 
L 19.671875 43.015625 
L 55.515625 43.015625 
L 55.515625 72.90625 
L 65.375 72.90625 
L 65.375 0 
L 55.515625 0 
L 55.515625 34.71875 
L 19.671875 34.71875 
L 19.671875 0 
L 9.8125 0 
z
" id="DejaVuSans-72"/>
      <path d="M 9.421875 75.984375 
L 18.40625 75.984375 
L 18.40625 0 
L 9.421875 0 
z
" id="DejaVuSans-108"/>
      <path d="M 4.203125 54.6875 
L 13.1875 54.6875 
L 24.421875 12.015625 
L 35.59375 54.6875 
L 46.1875 54.6875 
L 57.421875 12.015625 
L 68.609375 54.6875 
L 77.59375 54.6875 
L 63.28125 0 
L 52.6875 0 
L 40.921875 44.828125 
L 29.109375 0 
L 18.5 0 
z
" id="DejaVuSans-119"/>
     </defs>
     <g transform="translate(127 103.832812)scale(0.1 -0.1)">
      <use xlink:href="#DejaVuSans-72"/>
      <use x="75.195312" xlink:href="#DejaVuSans-111"/>
      <use x="136.376953" xlink:href="#DejaVuSans-108"/>
      <use x="164.160156" xlink:href="#DejaVuSans-111"/>
      <use x="225.341797" xlink:href="#DejaVuSans-119"/>
      <use x="307.128906" xlink:href="#DejaVuSans-110"/>
      <use x="370.507812" xlink:href="#DejaVuSans-105"/>
      <use x="398.291016" xlink:href="#DejaVuSans-97"/>
     </g>
    </g>
    <g id="line2d_28">
     <path d="M 99 115.010937 
L 119 115.010937 
" style="fill:none;stroke:#9467bd;stroke-linecap:square;stroke-width:1.5;"/>
    </g>
    <g id="line2d_29"/>
    <g id="text_21">
     <!-- Kidawa -->
     <defs>
      <path d="M 9.8125 72.90625 
L 19.671875 72.90625 
L 19.671875 42.09375 
L 52.390625 72.90625 
L 65.09375 72.90625 
L 28.90625 38.921875 
L 67.671875 0 
L 54.6875 0 
L 19.671875 35.109375 
L 19.671875 0 
L 9.8125 0 
z
" id="DejaVuSans-75"/>
     </defs>
     <g transform="translate(127 118.510937)scale(0.1 -0.1)">
      <use xlink:href="#DejaVuSans-75"/>
      <use x="65.576172" xlink:href="#DejaVuSans-105"/>
      <use x="93.359375" xlink:href="#DejaVuSans-100"/>
      <use x="156.835938" xlink:href="#DejaVuSans-97"/>
      <use x="218.115234" xlink:href="#DejaVuSans-119"/>
      <use x="299.902344" xlink:href="#DejaVuSans-97"/>
     </g>
    </g>
    <g id="line2d_30">
     <path d="M 99 129.689062 
L 119 129.689062 
" style="fill:none;stroke:#8c564b;stroke-linecap:square;stroke-width:1.5;"/>
    </g>
    <g id="line2d_31"/>
    <g id="text_22">
     <!-- Kosiniak -->
     <g transform="translate(127 133.189062)scale(0.1 -0.1)">
      <use xlink:href="#DejaVuSans-75"/>
      <use x="60.576172" xlink:href="#DejaVuSans-111"/>
      <use x="121.757812" xlink:href="#DejaVuSans-115"/>
      <use x="173.857422" xlink:href="#DejaVuSans-105"/>
      <use x="201.640625" xlink:href="#DejaVuSans-110"/>
      <use x="265.019531" xlink:href="#DejaVuSans-105"/>
      <use x="292.802734" xlink:href="#DejaVuSans-97"/>
      <use x="354.082031" xlink:href="#DejaVuSans-107"/>
     </g>
    </g>
   </g>
  </g>
 </g>
 <defs>
  <clipPath id="p0275da759c">
   <rect height="277.2" width="558" x="90" y="43.2"/>
  </clipPath>
 </defs>
</svg>
