<?xml version="1.0" encoding="utf-8" standalone="no"?>
<!DOCTYPE svg PUBLIC "-//W3C//DTD SVG 1.1//EN"
  "http://www.w3.org/Graphics/SVG/1.1/DTD/svg11.dtd">
<!-- Created with matplotlib (https://matplotlib.org/) -->
<svg height="360pt" version="1.1" viewBox="0 0 720 360" width="720pt" xmlns="http://www.w3.org/2000/svg" xmlns:xlink="http://www.w3.org/1999/xlink">
 <defs>
  <style type="text/css">
*{stroke-linecap:butt;stroke-linejoin:round;}
  </style>
 </defs>
 <g id="figure_1">
  <g id="patch_1">
   <path d="M 0 360 
L 720 360 
L 720 0 
L 0 0 
z
" style="fill:#ffffff;"/>
  </g>
  <g id="axes_1">
   <g id="patch_2">
    <path d="M 90 320.4 
L 648 320.4 
L 648 43.2 
L 90 43.2 
z
" style="fill:#ffffff;"/>
   </g>
   <g id="PathCollection_1">
    <defs>
     <path d="M 0 1.118034 
C 0.296506 1.118034 0.580908 1.000231 0.790569 0.790569 
C 1.000231 0.580908 1.118034 0.296506 1.118034 0 
C 1.118034 -0.296506 1.000231 -0.580908 0.790569 -0.790569 
C 0.580908 -1.000231 0.296506 -1.118034 0 -1.118034 
C -0.296506 -1.118034 -0.580908 -1.000231 -0.790569 -0.790569 
C -1.000231 -0.580908 -1.118034 -0.296506 -1.118034 0 
C -1.118034 0.296506 -1.000231 0.580908 -0.790569 0.790569 
C -0.580908 1.000231 -0.296506 1.118034 0 1.118034 
z
" id="mbc921d29f9" style="stroke:#1f77b4;"/>
    </defs>
    <g clip-path="url(#pb6ce5d6fcc)">
     <use style="fill:#1f77b4;stroke:#1f77b4;" x="115.363636" xlink:href="#mbc921d29f9" y="245.191304"/>
     <use style="fill:#1f77b4;stroke:#1f77b4;" x="126.391304" xlink:href="#mbc921d29f9" y="197.096443"/>
     <use style="fill:#1f77b4;stroke:#1f77b4;" x="137.418972" xlink:href="#mbc921d29f9" y="247.041107"/>
     <use style="fill:#1f77b4;stroke:#1f77b4;" x="148.44664" xlink:href="#mbc921d29f9" y="257.143874"/>
     <use style="fill:#1f77b4;stroke:#1f77b4;" x="159.474308" xlink:href="#mbc921d29f9" y="221.143874"/>
     <use style="fill:#1f77b4;stroke:#1f77b4;" x="170.501976" xlink:href="#mbc921d29f9" y="201.365217"/>
     <use style="fill:#1f77b4;stroke:#1f77b4;" x="181.529644" xlink:href="#mbc921d29f9" y="289.301976"/>
     <use style="fill:#1f77b4;stroke:#1f77b4;" x="192.557312" xlink:href="#mbc921d29f9" y="175.752569"/>
     <use style="fill:#1f77b4;stroke:#1f77b4;" x="203.58498" xlink:href="#mbc921d29f9" y="145.586561"/>
     <use style="fill:#1f77b4;stroke:#1f77b4;" x="214.612648" xlink:href="#mbc921d29f9" y="205.064822"/>
     <use style="fill:#1f77b4;stroke:#1f77b4;" x="225.640316" xlink:href="#mbc921d29f9" y="267.104348"/>
     <use style="fill:#1f77b4;stroke:#1f77b4;" x="236.667984" xlink:href="#mbc921d29f9" y="285.602372"/>
     <use style="fill:#1f77b4;stroke:#1f77b4;" x="247.695652" xlink:href="#mbc921d29f9" y="224.701186"/>
     <use style="fill:#1f77b4;stroke:#1f77b4;" x="258.72332" xlink:href="#mbc921d29f9" y="258.139921"/>
     <use style="fill:#1f77b4;stroke:#1f77b4;" x="269.750988" xlink:href="#mbc921d29f9" y="307.8"/>
     <use style="fill:#1f77b4;stroke:#1f77b4;" x="280.778656" xlink:href="#mbc921d29f9" y="278.63004"/>
     <use style="fill:#1f77b4;stroke:#1f77b4;" x="291.806324" xlink:href="#mbc921d29f9" y="216.163636"/>
     <use style="fill:#1f77b4;stroke:#1f77b4;" x="302.833992" xlink:href="#mbc921d29f9" y="102.614229"/>
     <use style="fill:#1f77b4;stroke:#1f77b4;" x="313.86166" xlink:href="#mbc921d29f9" y="271.088538"/>
     <use style="fill:#1f77b4;stroke:#1f77b4;" x="324.889328" xlink:href="#mbc921d29f9" y="266.535178"/>
     <use style="fill:#1f77b4;stroke:#1f77b4;" x="335.916996" xlink:href="#mbc921d29f9" y="265.112253"/>
     <use style="fill:#1f77b4;stroke:#1f77b4;" x="346.944664" xlink:href="#mbc921d29f9" y="208.337549"/>
     <use style="fill:#1f77b4;stroke:#1f77b4;" x="357.972332" xlink:href="#mbc921d29f9" y="282.187352"/>
     <use style="fill:#1f77b4;stroke:#1f77b4;" x="369" xlink:href="#mbc921d29f9" y="270.09249"/>
     <use style="fill:#1f77b4;stroke:#1f77b4;" x="380.027668" xlink:href="#mbc921d29f9" y="230.535178"/>
     <use style="fill:#1f77b4;stroke:#1f77b4;" x="391.055336" xlink:href="#mbc921d29f9" y="257.143874"/>
     <use style="fill:#1f77b4;stroke:#1f77b4;" x="402.083004" xlink:href="#mbc921d29f9" y="294.282213"/>
     <use style="fill:#1f77b4;stroke:#1f77b4;" x="413.110672" xlink:href="#mbc921d29f9" y="214.313834"/>
     <use style="fill:#1f77b4;stroke:#1f77b4;" x="424.13834" xlink:href="#mbc921d29f9" y="267.531225"/>
     <use style="fill:#1f77b4;stroke:#1f77b4;" x="435.166008" xlink:href="#mbc921d29f9" y="262.266403"/>
     <use style="fill:#1f77b4;stroke:#1f77b4;" x="446.193676" xlink:href="#mbc921d29f9" y="180.305929"/>
     <use style="fill:#1f77b4;stroke:#1f77b4;" x="457.221344" xlink:href="#mbc921d29f9" y="279.341502"/>
     <use style="fill:#1f77b4;stroke:#1f77b4;" x="468.249012" xlink:href="#mbc921d29f9" y="221.286166"/>
     <use style="fill:#1f77b4;stroke:#1f77b4;" x="479.27668" xlink:href="#mbc921d29f9" y="228.400791"/>
     <use style="fill:#1f77b4;stroke:#1f77b4;" x="490.304348" xlink:href="#mbc921d29f9" y="161.665613"/>
     <use style="fill:#1f77b4;stroke:#1f77b4;" x="501.332016" xlink:href="#mbc921d29f9" y="222.709091"/>
     <use style="fill:#1f77b4;stroke:#1f77b4;" x="512.359684" xlink:href="#mbc921d29f9" y="215.452174"/>
     <use style="fill:#1f77b4;stroke:#1f77b4;" x="523.387352" xlink:href="#mbc921d29f9" y="160.811858"/>
     <use style="fill:#1f77b4;stroke:#1f77b4;" x="534.41502" xlink:href="#mbc921d29f9" y="211.183399"/>
     <use style="fill:#1f77b4;stroke:#1f77b4;" x="545.442688" xlink:href="#mbc921d29f9" y="266.67747"/>
     <use style="fill:#1f77b4;stroke:#1f77b4;" x="556.470356" xlink:href="#mbc921d29f9" y="307.8"/>
     <use style="fill:#1f77b4;stroke:#1f77b4;" x="567.498024" xlink:href="#mbc921d29f9" y="291.578656"/>
     <use style="fill:#1f77b4;stroke:#1f77b4;" x="578.525692" xlink:href="#mbc921d29f9" y="262.124111"/>
     <use style="fill:#1f77b4;stroke:#1f77b4;" x="589.55336" xlink:href="#mbc921d29f9" y="208.906719"/>
     <use style="fill:#1f77b4;stroke:#1f77b4;" x="600.581028" xlink:href="#mbc921d29f9" y="289.586561"/>
     <use style="fill:#1f77b4;stroke:#1f77b4;" x="611.608696" xlink:href="#mbc921d29f9" y="255.578656"/>
     <use style="fill:#1f77b4;stroke:#1f77b4;" x="622.636364" xlink:href="#mbc921d29f9" y="299.831621"/>
    </g>
   </g>
   <g id="PathCollection_2">
    <defs>
     <path d="M 0 1.118034 
C 0.296506 1.118034 0.580908 1.000231 0.790569 0.790569 
C 1.000231 0.580908 1.118034 0.296506 1.118034 0 
C 1.118034 -0.296506 1.000231 -0.580908 0.790569 -0.790569 
C 0.580908 -1.000231 0.296506 -1.118034 0 -1.118034 
C -0.296506 -1.118034 -0.580908 -1.000231 -0.790569 -0.790569 
C -1.000231 -0.580908 -1.118034 -0.296506 -1.118034 0 
C -1.118034 0.296506 -1.000231 0.580908 -0.790569 0.790569 
C -0.580908 1.000231 -0.296506 1.118034 0 1.118034 
z
" id="m5b7fba5b58" style="stroke:#ff7f0e;"/>
    </defs>
    <g clip-path="url(#pb6ce5d6fcc)">
     <use style="fill:#ff7f0e;stroke:#ff7f0e;" x="115.363636" xlink:href="#m5b7fba5b58" y="264.685375"/>
     <use style="fill:#ff7f0e;stroke:#ff7f0e;" x="126.391304" xlink:href="#m5b7fba5b58" y="273.50751"/>
     <use style="fill:#ff7f0e;stroke:#ff7f0e;" x="137.418972" xlink:href="#m5b7fba5b58" y="278.914625"/>
     <use style="fill:#ff7f0e;stroke:#ff7f0e;" x="148.44664" xlink:href="#m5b7fba5b58" y="278.772332"/>
     <use style="fill:#ff7f0e;stroke:#ff7f0e;" x="159.474308" xlink:href="#m5b7fba5b58" y="259.705138"/>
     <use style="fill:#ff7f0e;stroke:#ff7f0e;" x="170.501976" xlink:href="#m5b7fba5b58" y="278.203162"/>
     <use style="fill:#ff7f0e;stroke:#ff7f0e;" x="181.529644" xlink:href="#m5b7fba5b58" y="276.211067"/>
     <use style="fill:#ff7f0e;stroke:#ff7f0e;" x="192.557312" xlink:href="#m5b7fba5b58" y="275.357312"/>
     <use style="fill:#ff7f0e;stroke:#ff7f0e;" x="203.58498" xlink:href="#m5b7fba5b58" y="259.847431"/>
     <use style="fill:#ff7f0e;stroke:#ff7f0e;" x="214.612648" xlink:href="#m5b7fba5b58" y="284.748617"/>
     <use style="fill:#ff7f0e;stroke:#ff7f0e;" x="225.640316" xlink:href="#m5b7fba5b58" y="277.4917"/>
     <use style="fill:#ff7f0e;stroke:#ff7f0e;" x="236.667984" xlink:href="#m5b7fba5b58" y="273.222925"/>
     <use style="fill:#ff7f0e;stroke:#ff7f0e;" x="247.695652" xlink:href="#m5b7fba5b58" y="296.416601"/>
     <use style="fill:#ff7f0e;stroke:#ff7f0e;" x="258.72332" xlink:href="#m5b7fba5b58" y="305.665613"/>
     <use style="fill:#ff7f0e;stroke:#ff7f0e;" x="269.750988" xlink:href="#m5b7fba5b58" y="307.8"/>
     <use style="fill:#ff7f0e;stroke:#ff7f0e;" x="280.778656" xlink:href="#m5b7fba5b58" y="274.930435"/>
     <use style="fill:#ff7f0e;stroke:#ff7f0e;" x="291.806324" xlink:href="#m5b7fba5b58" y="275.072727"/>
     <use style="fill:#ff7f0e;stroke:#ff7f0e;" x="302.833992" xlink:href="#m5b7fba5b58" y="286.029249"/>
     <use style="fill:#ff7f0e;stroke:#ff7f0e;" x="313.86166" xlink:href="#m5b7fba5b58" y="272.084585"/>
     <use style="fill:#ff7f0e;stroke:#ff7f0e;" x="324.889328" xlink:href="#m5b7fba5b58" y="295.278261"/>
     <use style="fill:#ff7f0e;stroke:#ff7f0e;" x="335.916996" xlink:href="#m5b7fba5b58" y="290.298024"/>
     <use style="fill:#ff7f0e;stroke:#ff7f0e;" x="346.944664" xlink:href="#m5b7fba5b58" y="281.475889"/>
     <use style="fill:#ff7f0e;stroke:#ff7f0e;" x="357.972332" xlink:href="#m5b7fba5b58" y="267.24664"/>
     <use style="fill:#ff7f0e;stroke:#ff7f0e;" x="369" xlink:href="#m5b7fba5b58" y="260.416601"/>
     <use style="fill:#ff7f0e;stroke:#ff7f0e;" x="380.027668" xlink:href="#m5b7fba5b58" y="266.250593"/>
     <use style="fill:#ff7f0e;stroke:#ff7f0e;" x="391.055336" xlink:href="#m5b7fba5b58" y="265.396838"/>
     <use style="fill:#ff7f0e;stroke:#ff7f0e;" x="402.083004" xlink:href="#m5b7fba5b58" y="284.037154"/>
     <use style="fill:#ff7f0e;stroke:#ff7f0e;" x="413.110672" xlink:href="#m5b7fba5b58" y="289.728854"/>
     <use style="fill:#ff7f0e;stroke:#ff7f0e;" x="424.13834" xlink:href="#m5b7fba5b58" y="269.52332"/>
     <use style="fill:#ff7f0e;stroke:#ff7f0e;" x="435.166008" xlink:href="#m5b7fba5b58" y="263.547036"/>
     <use style="fill:#ff7f0e;stroke:#ff7f0e;" x="446.193676" xlink:href="#m5b7fba5b58" y="250.883004"/>
     <use style="fill:#ff7f0e;stroke:#ff7f0e;" x="457.221344" xlink:href="#m5b7fba5b58" y="249.175494"/>
     <use style="fill:#ff7f0e;stroke:#ff7f0e;" x="468.249012" xlink:href="#m5b7fba5b58" y="178.313834"/>
     <use style="fill:#ff7f0e;stroke:#ff7f0e;" x="479.27668" xlink:href="#m5b7fba5b58" y="266.250593"/>
     <use style="fill:#ff7f0e;stroke:#ff7f0e;" x="490.304348" xlink:href="#m5b7fba5b58" y="258.993676"/>
     <use style="fill:#ff7f0e;stroke:#ff7f0e;" x="501.332016" xlink:href="#m5b7fba5b58" y="243.910672"/>
     <use style="fill:#ff7f0e;stroke:#ff7f0e;" x="512.359684" xlink:href="#m5b7fba5b58" y="277.349407"/>
     <use style="fill:#ff7f0e;stroke:#ff7f0e;" x="523.387352" xlink:href="#m5b7fba5b58" y="176.890909"/>
     <use style="fill:#ff7f0e;stroke:#ff7f0e;" x="534.41502" xlink:href="#m5b7fba5b58" y="246.329644"/>
     <use style="fill:#ff7f0e;stroke:#ff7f0e;" x="545.442688" xlink:href="#m5b7fba5b58" y="280.479842"/>
     <use style="fill:#ff7f0e;stroke:#ff7f0e;" x="556.470356" xlink:href="#m5b7fba5b58" y="290.724901"/>
     <use style="fill:#ff7f0e;stroke:#ff7f0e;" x="567.498024" xlink:href="#m5b7fba5b58" y="307.8"/>
     <use style="fill:#ff7f0e;stroke:#ff7f0e;" x="578.525692" xlink:href="#m5b7fba5b58" y="273.365217"/>
     <use style="fill:#ff7f0e;stroke:#ff7f0e;" x="589.55336" xlink:href="#m5b7fba5b58" y="287.736759"/>
     <use style="fill:#ff7f0e;stroke:#ff7f0e;" x="600.581028" xlink:href="#m5b7fba5b58" y="270.519368"/>
     <use style="fill:#ff7f0e;stroke:#ff7f0e;" x="611.608696" xlink:href="#m5b7fba5b58" y="275.641897"/>
     <use style="fill:#ff7f0e;stroke:#ff7f0e;" x="622.636364" xlink:href="#m5b7fba5b58" y="278.914625"/>
    </g>
   </g>
   <g id="PathCollection_3">
    <defs>
     <path d="M 0 1.118034 
C 0.296506 1.118034 0.580908 1.000231 0.790569 0.790569 
C 1.000231 0.580908 1.118034 0.296506 1.118034 0 
C 1.118034 -0.296506 1.000231 -0.580908 0.790569 -0.790569 
C 0.580908 -1.000231 0.296506 -1.118034 0 -1.118034 
C -0.296506 -1.118034 -0.580908 -1.000231 -0.790569 -0.790569 
C -1.000231 -0.580908 -1.118034 -0.296506 -1.118034 0 
C -1.118034 0.296506 -1.000231 0.580908 -0.790569 0.790569 
C -0.580908 1.000231 -0.296506 1.118034 0 1.118034 
z
" id="m7875215d69" style="stroke:#2ca02c;"/>
    </defs>
    <g clip-path="url(#pb6ce5d6fcc)">
     <use style="fill:#2ca02c;stroke:#2ca02c;" x="115.363636" xlink:href="#m7875215d69" y="307.8"/>
     <use style="fill:#2ca02c;stroke:#2ca02c;" x="126.391304" xlink:href="#m7875215d69" y="307.8"/>
     <use style="fill:#2ca02c;stroke:#2ca02c;" x="137.418972" xlink:href="#m7875215d69" y="307.8"/>
     <use style="fill:#2ca02c;stroke:#2ca02c;" x="148.44664" xlink:href="#m7875215d69" y="307.8"/>
     <use style="fill:#2ca02c;stroke:#2ca02c;" x="159.474308" xlink:href="#m7875215d69" y="307.8"/>
     <use style="fill:#2ca02c;stroke:#2ca02c;" x="170.501976" xlink:href="#m7875215d69" y="307.8"/>
     <use style="fill:#2ca02c;stroke:#2ca02c;" x="181.529644" xlink:href="#m7875215d69" y="307.8"/>
     <use style="fill:#2ca02c;stroke:#2ca02c;" x="192.557312" xlink:href="#m7875215d69" y="307.8"/>
     <use style="fill:#2ca02c;stroke:#2ca02c;" x="203.58498" xlink:href="#m7875215d69" y="307.8"/>
     <use style="fill:#2ca02c;stroke:#2ca02c;" x="214.612648" xlink:href="#m7875215d69" y="307.8"/>
     <use style="fill:#2ca02c;stroke:#2ca02c;" x="225.640316" xlink:href="#m7875215d69" y="307.8"/>
     <use style="fill:#2ca02c;stroke:#2ca02c;" x="236.667984" xlink:href="#m7875215d69" y="307.8"/>
     <use style="fill:#2ca02c;stroke:#2ca02c;" x="247.695652" xlink:href="#m7875215d69" y="307.8"/>
     <use style="fill:#2ca02c;stroke:#2ca02c;" x="258.72332" xlink:href="#m7875215d69" y="307.8"/>
     <use style="fill:#2ca02c;stroke:#2ca02c;" x="269.750988" xlink:href="#m7875215d69" y="307.8"/>
     <use style="fill:#2ca02c;stroke:#2ca02c;" x="280.778656" xlink:href="#m7875215d69" y="307.8"/>
     <use style="fill:#2ca02c;stroke:#2ca02c;" x="291.806324" xlink:href="#m7875215d69" y="307.8"/>
     <use style="fill:#2ca02c;stroke:#2ca02c;" x="302.833992" xlink:href="#m7875215d69" y="307.8"/>
     <use style="fill:#2ca02c;stroke:#2ca02c;" x="313.86166" xlink:href="#m7875215d69" y="307.8"/>
     <use style="fill:#2ca02c;stroke:#2ca02c;" x="324.889328" xlink:href="#m7875215d69" y="307.8"/>
     <use style="fill:#2ca02c;stroke:#2ca02c;" x="335.916996" xlink:href="#m7875215d69" y="307.8"/>
     <use style="fill:#2ca02c;stroke:#2ca02c;" x="346.944664" xlink:href="#m7875215d69" y="307.8"/>
     <use style="fill:#2ca02c;stroke:#2ca02c;" x="357.972332" xlink:href="#m7875215d69" y="307.8"/>
     <use style="fill:#2ca02c;stroke:#2ca02c;" x="369" xlink:href="#m7875215d69" y="307.8"/>
     <use style="fill:#2ca02c;stroke:#2ca02c;" x="380.027668" xlink:href="#m7875215d69" y="307.8"/>
     <use style="fill:#2ca02c;stroke:#2ca02c;" x="391.055336" xlink:href="#m7875215d69" y="307.8"/>
     <use style="fill:#2ca02c;stroke:#2ca02c;" x="402.083004" xlink:href="#m7875215d69" y="307.8"/>
     <use style="fill:#2ca02c;stroke:#2ca02c;" x="413.110672" xlink:href="#m7875215d69" y="307.8"/>
     <use style="fill:#2ca02c;stroke:#2ca02c;" x="424.13834" xlink:href="#m7875215d69" y="307.8"/>
     <use style="fill:#2ca02c;stroke:#2ca02c;" x="435.166008" xlink:href="#m7875215d69" y="307.8"/>
     <use style="fill:#2ca02c;stroke:#2ca02c;" x="446.193676" xlink:href="#m7875215d69" y="301.53913"/>
     <use style="fill:#2ca02c;stroke:#2ca02c;" x="457.221344" xlink:href="#m7875215d69" y="307.8"/>
     <use style="fill:#2ca02c;stroke:#2ca02c;" x="468.249012" xlink:href="#m7875215d69" y="307.23083"/>
     <use style="fill:#2ca02c;stroke:#2ca02c;" x="479.27668" xlink:href="#m7875215d69" y="307.8"/>
     <use style="fill:#2ca02c;stroke:#2ca02c;" x="490.304348" xlink:href="#m7875215d69" y="307.8"/>
     <use style="fill:#2ca02c;stroke:#2ca02c;" x="501.332016" xlink:href="#m7875215d69" y="307.8"/>
     <use style="fill:#2ca02c;stroke:#2ca02c;" x="512.359684" xlink:href="#m7875215d69" y="307.8"/>
     <use style="fill:#2ca02c;stroke:#2ca02c;" x="523.387352" xlink:href="#m7875215d69" y="307.8"/>
     <use style="fill:#2ca02c;stroke:#2ca02c;" x="534.41502" xlink:href="#m7875215d69" y="307.8"/>
     <use style="fill:#2ca02c;stroke:#2ca02c;" x="545.442688" xlink:href="#m7875215d69" y="307.8"/>
     <use style="fill:#2ca02c;stroke:#2ca02c;" x="556.470356" xlink:href="#m7875215d69" y="307.8"/>
     <use style="fill:#2ca02c;stroke:#2ca02c;" x="567.498024" xlink:href="#m7875215d69" y="307.8"/>
     <use style="fill:#2ca02c;stroke:#2ca02c;" x="578.525692" xlink:href="#m7875215d69" y="307.8"/>
     <use style="fill:#2ca02c;stroke:#2ca02c;" x="589.55336" xlink:href="#m7875215d69" y="307.8"/>
     <use style="fill:#2ca02c;stroke:#2ca02c;" x="600.581028" xlink:href="#m7875215d69" y="307.8"/>
     <use style="fill:#2ca02c;stroke:#2ca02c;" x="611.608696" xlink:href="#m7875215d69" y="307.8"/>
     <use style="fill:#2ca02c;stroke:#2ca02c;" x="622.636364" xlink:href="#m7875215d69" y="307.657708"/>
    </g>
   </g>
   <g id="PathCollection_4">
    <defs>
     <path d="M 0 1.118034 
C 0.296506 1.118034 0.580908 1.000231 0.790569 0.790569 
C 1.000231 0.580908 1.118034 0.296506 1.118034 0 
C 1.118034 -0.296506 1.000231 -0.580908 0.790569 -0.790569 
C 0.580908 -1.000231 0.296506 -1.118034 0 -1.118034 
C -0.296506 -1.118034 -0.580908 -1.000231 -0.790569 -0.790569 
C -1.000231 -0.580908 -1.118034 -0.296506 -1.118034 0 
C -1.118034 0.296506 -1.000231 0.580908 -0.790569 0.790569 
C -0.580908 1.000231 -0.296506 1.118034 0 1.118034 
z
" id="m62be0600d6" style="stroke:#d62728;"/>
    </defs>
    <g clip-path="url(#pb6ce5d6fcc)">
     <use style="fill:#d62728;stroke:#d62728;" x="115.363636" xlink:href="#m62be0600d6" y="307.8"/>
     <use style="fill:#d62728;stroke:#d62728;" x="126.391304" xlink:href="#m62be0600d6" y="307.8"/>
     <use style="fill:#d62728;stroke:#d62728;" x="137.418972" xlink:href="#m62be0600d6" y="307.8"/>
     <use style="fill:#d62728;stroke:#d62728;" x="148.44664" xlink:href="#m62be0600d6" y="307.8"/>
     <use style="fill:#d62728;stroke:#d62728;" x="159.474308" xlink:href="#m62be0600d6" y="307.8"/>
     <use style="fill:#d62728;stroke:#d62728;" x="170.501976" xlink:href="#m62be0600d6" y="307.8"/>
     <use style="fill:#d62728;stroke:#d62728;" x="181.529644" xlink:href="#m62be0600d6" y="307.8"/>
     <use style="fill:#d62728;stroke:#d62728;" x="192.557312" xlink:href="#m62be0600d6" y="307.8"/>
     <use style="fill:#d62728;stroke:#d62728;" x="203.58498" xlink:href="#m62be0600d6" y="307.8"/>
     <use style="fill:#d62728;stroke:#d62728;" x="214.612648" xlink:href="#m62be0600d6" y="303.958103"/>
     <use style="fill:#d62728;stroke:#d62728;" x="225.640316" xlink:href="#m62be0600d6" y="307.8"/>
     <use style="fill:#d62728;stroke:#d62728;" x="236.667984" xlink:href="#m62be0600d6" y="307.8"/>
     <use style="fill:#d62728;stroke:#d62728;" x="247.695652" xlink:href="#m62be0600d6" y="307.8"/>
     <use style="fill:#d62728;stroke:#d62728;" x="258.72332" xlink:href="#m62be0600d6" y="307.8"/>
     <use style="fill:#d62728;stroke:#d62728;" x="269.750988" xlink:href="#m62be0600d6" y="307.8"/>
     <use style="fill:#d62728;stroke:#d62728;" x="280.778656" xlink:href="#m62be0600d6" y="307.8"/>
     <use style="fill:#d62728;stroke:#d62728;" x="291.806324" xlink:href="#m62be0600d6" y="307.8"/>
     <use style="fill:#d62728;stroke:#d62728;" x="302.833992" xlink:href="#m62be0600d6" y="307.8"/>
     <use style="fill:#d62728;stroke:#d62728;" x="313.86166" xlink:href="#m62be0600d6" y="307.8"/>
     <use style="fill:#d62728;stroke:#d62728;" x="324.889328" xlink:href="#m62be0600d6" y="307.8"/>
     <use style="fill:#d62728;stroke:#d62728;" x="335.916996" xlink:href="#m62be0600d6" y="307.8"/>
     <use style="fill:#d62728;stroke:#d62728;" x="346.944664" xlink:href="#m62be0600d6" y="301.966008"/>
     <use style="fill:#d62728;stroke:#d62728;" x="357.972332" xlink:href="#m62be0600d6" y="306.234783"/>
     <use style="fill:#d62728;stroke:#d62728;" x="369" xlink:href="#m62be0600d6" y="295.135968"/>
     <use style="fill:#d62728;stroke:#d62728;" x="380.027668" xlink:href="#m62be0600d6" y="307.8"/>
     <use style="fill:#d62728;stroke:#d62728;" x="391.055336" xlink:href="#m62be0600d6" y="304.811858"/>
     <use style="fill:#d62728;stroke:#d62728;" x="402.083004" xlink:href="#m62be0600d6" y="307.8"/>
     <use style="fill:#d62728;stroke:#d62728;" x="413.110672" xlink:href="#m62be0600d6" y="307.8"/>
     <use style="fill:#d62728;stroke:#d62728;" x="424.13834" xlink:href="#m62be0600d6" y="307.8"/>
     <use style="fill:#d62728;stroke:#d62728;" x="435.166008" xlink:href="#m62be0600d6" y="307.8"/>
     <use style="fill:#d62728;stroke:#d62728;" x="446.193676" xlink:href="#m62be0600d6" y="307.8"/>
     <use style="fill:#d62728;stroke:#d62728;" x="457.221344" xlink:href="#m62be0600d6" y="307.8"/>
     <use style="fill:#d62728;stroke:#d62728;" x="468.249012" xlink:href="#m62be0600d6" y="303.531225"/>
     <use style="fill:#d62728;stroke:#d62728;" x="479.27668" xlink:href="#m62be0600d6" y="307.8"/>
     <use style="fill:#d62728;stroke:#d62728;" x="490.304348" xlink:href="#m62be0600d6" y="307.8"/>
     <use style="fill:#d62728;stroke:#d62728;" x="501.332016" xlink:href="#m62be0600d6" y="307.8"/>
     <use style="fill:#d62728;stroke:#d62728;" x="512.359684" xlink:href="#m62be0600d6" y="307.8"/>
     <use style="fill:#d62728;stroke:#d62728;" x="523.387352" xlink:href="#m62be0600d6" y="307.8"/>
     <use style="fill:#d62728;stroke:#d62728;" x="534.41502" xlink:href="#m62be0600d6" y="307.8"/>
     <use style="fill:#d62728;stroke:#d62728;" x="545.442688" xlink:href="#m62be0600d6" y="307.8"/>
     <use style="fill:#d62728;stroke:#d62728;" x="556.470356" xlink:href="#m62be0600d6" y="307.8"/>
     <use style="fill:#d62728;stroke:#d62728;" x="567.498024" xlink:href="#m62be0600d6" y="307.8"/>
     <use style="fill:#d62728;stroke:#d62728;" x="578.525692" xlink:href="#m62be0600d6" y="307.8"/>
     <use style="fill:#d62728;stroke:#d62728;" x="589.55336" xlink:href="#m62be0600d6" y="307.8"/>
     <use style="fill:#d62728;stroke:#d62728;" x="600.581028" xlink:href="#m62be0600d6" y="307.8"/>
     <use style="fill:#d62728;stroke:#d62728;" x="611.608696" xlink:href="#m62be0600d6" y="307.8"/>
     <use style="fill:#d62728;stroke:#d62728;" x="622.636364" xlink:href="#m62be0600d6" y="307.8"/>
    </g>
   </g>
   <g id="PathCollection_5">
    <defs>
     <path d="M 0 1.118034 
C 0.296506 1.118034 0.580908 1.000231 0.790569 0.790569 
C 1.000231 0.580908 1.118034 0.296506 1.118034 0 
C 1.118034 -0.296506 1.000231 -0.580908 0.790569 -0.790569 
C 0.580908 -1.000231 0.296506 -1.118034 0 -1.118034 
C -0.296506 -1.118034 -0.580908 -1.000231 -0.790569 -0.790569 
C -1.000231 -0.580908 -1.118034 -0.296506 -1.118034 0 
C -1.118034 0.296506 -1.000231 0.580908 -0.790569 0.790569 
C -0.580908 1.000231 -0.296506 1.118034 0 1.118034 
z
" id="mbe882c6028" style="stroke:#9467bd;"/>
    </defs>
    <g clip-path="url(#pb6ce5d6fcc)">
     <use style="fill:#9467bd;stroke:#9467bd;" x="115.363636" xlink:href="#mbe882c6028" y="193.966008"/>
     <use style="fill:#9467bd;stroke:#9467bd;" x="126.391304" xlink:href="#mbe882c6028" y="208.764427"/>
     <use style="fill:#9467bd;stroke:#9467bd;" x="137.418972" xlink:href="#mbe882c6028" y="198.09249"/>
     <use style="fill:#9467bd;stroke:#9467bd;" x="148.44664" xlink:href="#mbe882c6028" y="197.238735"/>
     <use style="fill:#9467bd;stroke:#9467bd;" x="159.474308" xlink:href="#mbe882c6028" y="158.392885"/>
     <use style="fill:#9467bd;stroke:#9467bd;" x="170.501976" xlink:href="#mbe882c6028" y="219.863241"/>
     <use style="fill:#9467bd;stroke:#9467bd;" x="181.529644" xlink:href="#mbe882c6028" y="252.732806"/>
     <use style="fill:#9467bd;stroke:#9467bd;" x="192.557312" xlink:href="#mbe882c6028" y="55.8"/>
     <use style="fill:#9467bd;stroke:#9467bd;" x="203.58498" xlink:href="#mbe882c6028" y="169.207115"/>
     <use style="fill:#9467bd;stroke:#9467bd;" x="214.612648" xlink:href="#mbe882c6028" y="209.333597"/>
     <use style="fill:#9467bd;stroke:#9467bd;" x="225.640316" xlink:href="#mbe882c6028" y="238.503557"/>
     <use style="fill:#9467bd;stroke:#9467bd;" x="236.667984" xlink:href="#mbe882c6028" y="279.768379"/>
     <use style="fill:#9467bd;stroke:#9467bd;" x="247.695652" xlink:href="#mbe882c6028" y="307.8"/>
     <use style="fill:#9467bd;stroke:#9467bd;" x="258.72332" xlink:href="#mbe882c6028" y="307.8"/>
     <use style="fill:#9467bd;stroke:#9467bd;" x="269.750988" xlink:href="#mbe882c6028" y="307.8"/>
     <use style="fill:#9467bd;stroke:#9467bd;" x="280.778656" xlink:href="#mbe882c6028" y="232.38498"/>
     <use style="fill:#9467bd;stroke:#9467bd;" x="291.806324" xlink:href="#mbe882c6028" y="76.716996"/>
     <use style="fill:#9467bd;stroke:#9467bd;" x="302.833992" xlink:href="#mbe882c6028" y="203.499605"/>
     <use style="fill:#9467bd;stroke:#9467bd;" x="313.86166" xlink:href="#mbe882c6028" y="239.21502"/>
     <use style="fill:#9467bd;stroke:#9467bd;" x="324.889328" xlink:href="#mbe882c6028" y="278.06087"/>
     <use style="fill:#9467bd;stroke:#9467bd;" x="335.916996" xlink:href="#mbe882c6028" y="256.432411"/>
     <use style="fill:#9467bd;stroke:#9467bd;" x="346.944664" xlink:href="#mbe882c6028" y="232.242688"/>
     <use style="fill:#9467bd;stroke:#9467bd;" x="357.972332" xlink:href="#mbe882c6028" y="193.254545"/>
     <use style="fill:#9467bd;stroke:#9467bd;" x="369" xlink:href="#mbe882c6028" y="221.143874"/>
     <use style="fill:#9467bd;stroke:#9467bd;" x="380.027668" xlink:href="#mbe882c6028" y="248.037154"/>
     <use style="fill:#9467bd;stroke:#9467bd;" x="391.055336" xlink:href="#mbe882c6028" y="192.400791"/>
     <use style="fill:#9467bd;stroke:#9467bd;" x="402.083004" xlink:href="#mbe882c6028" y="241.064822"/>
     <use style="fill:#9467bd;stroke:#9467bd;" x="413.110672" xlink:href="#mbe882c6028" y="246.329644"/>
     <use style="fill:#9467bd;stroke:#9467bd;" x="424.13834" xlink:href="#mbe882c6028" y="222.424506"/>
     <use style="fill:#9467bd;stroke:#9467bd;" x="435.166008" xlink:href="#mbe882c6028" y="216.732806"/>
     <use style="fill:#9467bd;stroke:#9467bd;" x="446.193676" xlink:href="#mbe882c6028" y="167.926482"/>
     <use style="fill:#9467bd;stroke:#9467bd;" x="457.221344" xlink:href="#mbe882c6028" y="212.037154"/>
     <use style="fill:#9467bd;stroke:#9467bd;" x="468.249012" xlink:href="#mbe882c6028" y="214.740711"/>
     <use style="fill:#9467bd;stroke:#9467bd;" x="479.27668" xlink:href="#mbe882c6028" y="276.780237"/>
     <use style="fill:#9467bd;stroke:#9467bd;" x="490.304348" xlink:href="#mbe882c6028" y="258.851383"/>
     <use style="fill:#9467bd;stroke:#9467bd;" x="501.332016" xlink:href="#mbe882c6028" y="200.084585"/>
     <use style="fill:#9467bd;stroke:#9467bd;" x="512.359684" xlink:href="#mbe882c6028" y="211.041107"/>
     <use style="fill:#9467bd;stroke:#9467bd;" x="523.387352" xlink:href="#mbe882c6028" y="132.35336"/>
     <use style="fill:#9467bd;stroke:#9467bd;" x="534.41502" xlink:href="#mbe882c6028" y="212.464032"/>
     <use style="fill:#9467bd;stroke:#9467bd;" x="545.442688" xlink:href="#mbe882c6028" y="202.930435"/>
     <use style="fill:#9467bd;stroke:#9467bd;" x="556.470356" xlink:href="#mbe882c6028" y="271.8"/>
     <use style="fill:#9467bd;stroke:#9467bd;" x="567.498024" xlink:href="#mbe882c6028" y="269.950198"/>
     <use style="fill:#9467bd;stroke:#9467bd;" x="578.525692" xlink:href="#mbe882c6028" y="236.93834"/>
     <use style="fill:#9467bd;stroke:#9467bd;" x="589.55336" xlink:href="#mbe882c6028" y="189.128063"/>
     <use style="fill:#9467bd;stroke:#9467bd;" x="600.581028" xlink:href="#mbe882c6028" y="234.377075"/>
     <use style="fill:#9467bd;stroke:#9467bd;" x="611.608696" xlink:href="#mbe882c6028" y="242.914625"/>
     <use style="fill:#9467bd;stroke:#9467bd;" x="622.636364" xlink:href="#mbe882c6028" y="253.444269"/>
    </g>
   </g>
   <g id="matplotlib.axis_1">
    <g id="xtick_1">
     <g id="line2d_1">
      <defs>
       <path d="M 0 0 
L 0 3.5 
" id="mc74af7028b" style="stroke:#000000;stroke-width:0.8;"/>
      </defs>
      <g>
       <use style="stroke:#000000;stroke-width:0.8;" x="137.418972" xlink:href="#mc74af7028b" y="320.4"/>
      </g>
     </g>
     <g id="text_1">
      <!-- 2020-04-01 -->
      <defs>
       <path d="M 19.1875 8.296875 
L 53.609375 8.296875 
L 53.609375 0 
L 7.328125 0 
L 7.328125 8.296875 
Q 12.9375 14.109375 22.625 23.890625 
Q 32.328125 33.6875 34.8125 36.53125 
Q 39.546875 41.84375 41.421875 45.53125 
Q 43.3125 49.21875 43.3125 52.78125 
Q 43.3125 58.59375 39.234375 62.25 
Q 35.15625 65.921875 28.609375 65.921875 
Q 23.96875 65.921875 18.8125 64.3125 
Q 13.671875 62.703125 7.8125 59.421875 
L 7.8125 69.390625 
Q 13.765625 71.78125 18.9375 73 
Q 24.125 74.21875 28.421875 74.21875 
Q 39.75 74.21875 46.484375 68.546875 
Q 53.21875 62.890625 53.21875 53.421875 
Q 53.21875 48.921875 51.53125 44.890625 
Q 49.859375 40.875 45.40625 35.40625 
Q 44.1875 33.984375 37.640625 27.21875 
Q 31.109375 20.453125 19.1875 8.296875 
z
" id="DejaVuSans-50"/>
       <path d="M 31.78125 66.40625 
Q 24.171875 66.40625 20.328125 58.90625 
Q 16.5 51.421875 16.5 36.375 
Q 16.5 21.390625 20.328125 13.890625 
Q 24.171875 6.390625 31.78125 6.390625 
Q 39.453125 6.390625 43.28125 13.890625 
Q 47.125 21.390625 47.125 36.375 
Q 47.125 51.421875 43.28125 58.90625 
Q 39.453125 66.40625 31.78125 66.40625 
z
M 31.78125 74.21875 
Q 44.046875 74.21875 50.515625 64.515625 
Q 56.984375 54.828125 56.984375 36.375 
Q 56.984375 17.96875 50.515625 8.265625 
Q 44.046875 -1.421875 31.78125 -1.421875 
Q 19.53125 -1.421875 13.0625 8.265625 
Q 6.59375 17.96875 6.59375 36.375 
Q 6.59375 54.828125 13.0625 64.515625 
Q 19.53125 74.21875 31.78125 74.21875 
z
" id="DejaVuSans-48"/>
       <path d="M 4.890625 31.390625 
L 31.203125 31.390625 
L 31.203125 23.390625 
L 4.890625 23.390625 
z
" id="DejaVuSans-45"/>
       <path d="M 37.796875 64.3125 
L 12.890625 25.390625 
L 37.796875 25.390625 
z
M 35.203125 72.90625 
L 47.609375 72.90625 
L 47.609375 25.390625 
L 58.015625 25.390625 
L 58.015625 17.1875 
L 47.609375 17.1875 
L 47.609375 0 
L 37.796875 0 
L 37.796875 17.1875 
L 4.890625 17.1875 
L 4.890625 26.703125 
z
" id="DejaVuSans-52"/>
       <path d="M 12.40625 8.296875 
L 28.515625 8.296875 
L 28.515625 63.921875 
L 10.984375 60.40625 
L 10.984375 69.390625 
L 28.421875 72.90625 
L 38.28125 72.90625 
L 38.28125 8.296875 
L 54.390625 8.296875 
L 54.390625 0 
L 12.40625 0 
z
" id="DejaVuSans-49"/>
      </defs>
      <g transform="translate(108.36116 334.998438)scale(0.1 -0.1)">
       <use xlink:href="#DejaVuSans-50"/>
       <use x="63.623047" xlink:href="#DejaVuSans-48"/>
       <use x="127.246094" xlink:href="#DejaVuSans-50"/>
       <use x="190.869141" xlink:href="#DejaVuSans-48"/>
       <use x="254.492188" xlink:href="#DejaVuSans-45"/>
       <use x="290.576172" xlink:href="#DejaVuSans-48"/>
       <use x="354.199219" xlink:href="#DejaVuSans-52"/>
       <use x="417.822266" xlink:href="#DejaVuSans-45"/>
       <use x="453.90625" xlink:href="#DejaVuSans-48"/>
       <use x="517.529297" xlink:href="#DejaVuSans-49"/>
      </g>
     </g>
    </g>
    <g id="xtick_2">
     <g id="line2d_2">
      <g>
       <use style="stroke:#000000;stroke-width:0.8;" x="214.612648" xlink:href="#mc74af7028b" y="320.4"/>
      </g>
     </g>
     <g id="text_2">
      <!-- 2020-04-08 -->
      <defs>
       <path d="M 31.78125 34.625 
Q 24.75 34.625 20.71875 30.859375 
Q 16.703125 27.09375 16.703125 20.515625 
Q 16.703125 13.921875 20.71875 10.15625 
Q 24.75 6.390625 31.78125 6.390625 
Q 38.8125 6.390625 42.859375 10.171875 
Q 46.921875 13.96875 46.921875 20.515625 
Q 46.921875 27.09375 42.890625 30.859375 
Q 38.875 34.625 31.78125 34.625 
z
M 21.921875 38.8125 
Q 15.578125 40.375 12.03125 44.71875 
Q 8.5 49.078125 8.5 55.328125 
Q 8.5 64.0625 14.71875 69.140625 
Q 20.953125 74.21875 31.78125 74.21875 
Q 42.671875 74.21875 48.875 69.140625 
Q 55.078125 64.0625 55.078125 55.328125 
Q 55.078125 49.078125 51.53125 44.71875 
Q 48 40.375 41.703125 38.8125 
Q 48.828125 37.15625 52.796875 32.3125 
Q 56.78125 27.484375 56.78125 20.515625 
Q 56.78125 9.90625 50.3125 4.234375 
Q 43.84375 -1.421875 31.78125 -1.421875 
Q 19.734375 -1.421875 13.25 4.234375 
Q 6.78125 9.90625 6.78125 20.515625 
Q 6.78125 27.484375 10.78125 32.3125 
Q 14.796875 37.15625 21.921875 38.8125 
z
M 18.3125 54.390625 
Q 18.3125 48.734375 21.84375 45.5625 
Q 25.390625 42.390625 31.78125 42.390625 
Q 38.140625 42.390625 41.71875 45.5625 
Q 45.3125 48.734375 45.3125 54.390625 
Q 45.3125 60.0625 41.71875 63.234375 
Q 38.140625 66.40625 31.78125 66.40625 
Q 25.390625 66.40625 21.84375 63.234375 
Q 18.3125 60.0625 18.3125 54.390625 
z
" id="DejaVuSans-56"/>
      </defs>
      <g transform="translate(185.554836 334.998438)scale(0.1 -0.1)">
       <use xlink:href="#DejaVuSans-50"/>
       <use x="63.623047" xlink:href="#DejaVuSans-48"/>
       <use x="127.246094" xlink:href="#DejaVuSans-50"/>
       <use x="190.869141" xlink:href="#DejaVuSans-48"/>
       <use x="254.492188" xlink:href="#DejaVuSans-45"/>
       <use x="290.576172" xlink:href="#DejaVuSans-48"/>
       <use x="354.199219" xlink:href="#DejaVuSans-52"/>
       <use x="417.822266" xlink:href="#DejaVuSans-45"/>
       <use x="453.90625" xlink:href="#DejaVuSans-48"/>
       <use x="517.529297" xlink:href="#DejaVuSans-56"/>
      </g>
     </g>
    </g>
    <g id="xtick_3">
     <g id="line2d_3">
      <g>
       <use style="stroke:#000000;stroke-width:0.8;" x="291.806324" xlink:href="#mc74af7028b" y="320.4"/>
      </g>
     </g>
     <g id="text_3">
      <!-- 2020-04-15 -->
      <defs>
       <path d="M 10.796875 72.90625 
L 49.515625 72.90625 
L 49.515625 64.59375 
L 19.828125 64.59375 
L 19.828125 46.734375 
Q 21.96875 47.46875 24.109375 47.828125 
Q 26.265625 48.1875 28.421875 48.1875 
Q 40.625 48.1875 47.75 41.5 
Q 54.890625 34.8125 54.890625 23.390625 
Q 54.890625 11.625 47.5625 5.09375 
Q 40.234375 -1.421875 26.90625 -1.421875 
Q 22.3125 -1.421875 17.546875 -0.640625 
Q 12.796875 0.140625 7.71875 1.703125 
L 7.71875 11.625 
Q 12.109375 9.234375 16.796875 8.0625 
Q 21.484375 6.890625 26.703125 6.890625 
Q 35.15625 6.890625 40.078125 11.328125 
Q 45.015625 15.765625 45.015625 23.390625 
Q 45.015625 31 40.078125 35.4375 
Q 35.15625 39.890625 26.703125 39.890625 
Q 22.75 39.890625 18.8125 39.015625 
Q 14.890625 38.140625 10.796875 36.28125 
z
" id="DejaVuSans-53"/>
      </defs>
      <g transform="translate(262.748512 334.998438)scale(0.1 -0.1)">
       <use xlink:href="#DejaVuSans-50"/>
       <use x="63.623047" xlink:href="#DejaVuSans-48"/>
       <use x="127.246094" xlink:href="#DejaVuSans-50"/>
       <use x="190.869141" xlink:href="#DejaVuSans-48"/>
       <use x="254.492188" xlink:href="#DejaVuSans-45"/>
       <use x="290.576172" xlink:href="#DejaVuSans-48"/>
       <use x="354.199219" xlink:href="#DejaVuSans-52"/>
       <use x="417.822266" xlink:href="#DejaVuSans-45"/>
       <use x="453.90625" xlink:href="#DejaVuSans-49"/>
       <use x="517.529297" xlink:href="#DejaVuSans-53"/>
      </g>
     </g>
    </g>
    <g id="xtick_4">
     <g id="line2d_4">
      <g>
       <use style="stroke:#000000;stroke-width:0.8;" x="369" xlink:href="#mc74af7028b" y="320.4"/>
      </g>
     </g>
     <g id="text_4">
      <!-- 2020-04-22 -->
      <g transform="translate(339.942188 334.998438)scale(0.1 -0.1)">
       <use xlink:href="#DejaVuSans-50"/>
       <use x="63.623047" xlink:href="#DejaVuSans-48"/>
       <use x="127.246094" xlink:href="#DejaVuSans-50"/>
       <use x="190.869141" xlink:href="#DejaVuSans-48"/>
       <use x="254.492188" xlink:href="#DejaVuSans-45"/>
       <use x="290.576172" xlink:href="#DejaVuSans-48"/>
       <use x="354.199219" xlink:href="#DejaVuSans-52"/>
       <use x="417.822266" xlink:href="#DejaVuSans-45"/>
       <use x="453.90625" xlink:href="#DejaVuSans-50"/>
       <use x="517.529297" xlink:href="#DejaVuSans-50"/>
      </g>
     </g>
    </g>
    <g id="xtick_5">
     <g id="line2d_5">
      <g>
       <use style="stroke:#000000;stroke-width:0.8;" x="468.249012" xlink:href="#mc74af7028b" y="320.4"/>
      </g>
     </g>
     <g id="text_5">
      <!-- 2020-05-01 -->
      <g transform="translate(439.191199 334.998438)scale(0.1 -0.1)">
       <use xlink:href="#DejaVuSans-50"/>
       <use x="63.623047" xlink:href="#DejaVuSans-48"/>
       <use x="127.246094" xlink:href="#DejaVuSans-50"/>
       <use x="190.869141" xlink:href="#DejaVuSans-48"/>
       <use x="254.492188" xlink:href="#DejaVuSans-45"/>
       <use x="290.576172" xlink:href="#DejaVuSans-48"/>
       <use x="354.199219" xlink:href="#DejaVuSans-53"/>
       <use x="417.822266" xlink:href="#DejaVuSans-45"/>
       <use x="453.90625" xlink:href="#DejaVuSans-48"/>
       <use x="517.529297" xlink:href="#DejaVuSans-49"/>
      </g>
     </g>
    </g>
    <g id="xtick_6">
     <g id="line2d_6">
      <g>
       <use style="stroke:#000000;stroke-width:0.8;" x="545.442688" xlink:href="#mc74af7028b" y="320.4"/>
      </g>
     </g>
     <g id="text_6">
      <!-- 2020-05-08 -->
      <g transform="translate(516.384875 334.998438)scale(0.1 -0.1)">
       <use xlink:href="#DejaVuSans-50"/>
       <use x="63.623047" xlink:href="#DejaVuSans-48"/>
       <use x="127.246094" xlink:href="#DejaVuSans-50"/>
       <use x="190.869141" xlink:href="#DejaVuSans-48"/>
       <use x="254.492188" xlink:href="#DejaVuSans-45"/>
       <use x="290.576172" xlink:href="#DejaVuSans-48"/>
       <use x="354.199219" xlink:href="#DejaVuSans-53"/>
       <use x="417.822266" xlink:href="#DejaVuSans-45"/>
       <use x="453.90625" xlink:href="#DejaVuSans-48"/>
       <use x="517.529297" xlink:href="#DejaVuSans-56"/>
      </g>
     </g>
    </g>
    <g id="xtick_7">
     <g id="line2d_7">
      <g>
       <use style="stroke:#000000;stroke-width:0.8;" x="622.636364" xlink:href="#mc74af7028b" y="320.4"/>
      </g>
     </g>
     <g id="text_7">
      <!-- 2020-05-15 -->
      <g transform="translate(593.578551 334.998438)scale(0.1 -0.1)">
       <use xlink:href="#DejaVuSans-50"/>
       <use x="63.623047" xlink:href="#DejaVuSans-48"/>
       <use x="127.246094" xlink:href="#DejaVuSans-50"/>
       <use x="190.869141" xlink:href="#DejaVuSans-48"/>
       <use x="254.492188" xlink:href="#DejaVuSans-45"/>
       <use x="290.576172" xlink:href="#DejaVuSans-48"/>
       <use x="354.199219" xlink:href="#DejaVuSans-53"/>
       <use x="417.822266" xlink:href="#DejaVuSans-45"/>
       <use x="453.90625" xlink:href="#DejaVuSans-49"/>
       <use x="517.529297" xlink:href="#DejaVuSans-53"/>
      </g>
     </g>
    </g>
    <g id="text_8">
     <!-- Date -->
     <defs>
      <path d="M 19.671875 64.796875 
L 19.671875 8.109375 
L 31.59375 8.109375 
Q 46.6875 8.109375 53.6875 14.9375 
Q 60.6875 21.78125 60.6875 36.53125 
Q 60.6875 51.171875 53.6875 57.984375 
Q 46.6875 64.796875 31.59375 64.796875 
z
M 9.8125 72.90625 
L 30.078125 72.90625 
Q 51.265625 72.90625 61.171875 64.09375 
Q 71.09375 55.28125 71.09375 36.53125 
Q 71.09375 17.671875 61.125 8.828125 
Q 51.171875 0 30.078125 0 
L 9.8125 0 
z
" id="DejaVuSans-68"/>
      <path d="M 34.28125 27.484375 
Q 23.390625 27.484375 19.1875 25 
Q 14.984375 22.515625 14.984375 16.5 
Q 14.984375 11.71875 18.140625 8.90625 
Q 21.296875 6.109375 26.703125 6.109375 
Q 34.1875 6.109375 38.703125 11.40625 
Q 43.21875 16.703125 43.21875 25.484375 
L 43.21875 27.484375 
z
M 52.203125 31.203125 
L 52.203125 0 
L 43.21875 0 
L 43.21875 8.296875 
Q 40.140625 3.328125 35.546875 0.953125 
Q 30.953125 -1.421875 24.3125 -1.421875 
Q 15.921875 -1.421875 10.953125 3.296875 
Q 6 8.015625 6 15.921875 
Q 6 25.140625 12.171875 29.828125 
Q 18.359375 34.515625 30.609375 34.515625 
L 43.21875 34.515625 
L 43.21875 35.40625 
Q 43.21875 41.609375 39.140625 45 
Q 35.0625 48.390625 27.6875 48.390625 
Q 23 48.390625 18.546875 47.265625 
Q 14.109375 46.140625 10.015625 43.890625 
L 10.015625 52.203125 
Q 14.9375 54.109375 19.578125 55.046875 
Q 24.21875 56 28.609375 56 
Q 40.484375 56 46.34375 49.84375 
Q 52.203125 43.703125 52.203125 31.203125 
z
" id="DejaVuSans-97"/>
      <path d="M 18.3125 70.21875 
L 18.3125 54.6875 
L 36.8125 54.6875 
L 36.8125 47.703125 
L 18.3125 47.703125 
L 18.3125 18.015625 
Q 18.3125 11.328125 20.140625 9.421875 
Q 21.96875 7.515625 27.59375 7.515625 
L 36.8125 7.515625 
L 36.8125 0 
L 27.59375 0 
Q 17.1875 0 13.234375 3.875 
Q 9.28125 7.765625 9.28125 18.015625 
L 9.28125 47.703125 
L 2.6875 47.703125 
L 2.6875 54.6875 
L 9.28125 54.6875 
L 9.28125 70.21875 
z
" id="DejaVuSans-116"/>
      <path d="M 56.203125 29.59375 
L 56.203125 25.203125 
L 14.890625 25.203125 
Q 15.484375 15.921875 20.484375 11.0625 
Q 25.484375 6.203125 34.421875 6.203125 
Q 39.59375 6.203125 44.453125 7.46875 
Q 49.3125 8.734375 54.109375 11.28125 
L 54.109375 2.78125 
Q 49.265625 0.734375 44.1875 -0.34375 
Q 39.109375 -1.421875 33.890625 -1.421875 
Q 20.796875 -1.421875 13.15625 6.1875 
Q 5.515625 13.8125 5.515625 26.8125 
Q 5.515625 40.234375 12.765625 48.109375 
Q 20.015625 56 32.328125 56 
Q 43.359375 56 49.78125 48.890625 
Q 56.203125 41.796875 56.203125 29.59375 
z
M 47.21875 32.234375 
Q 47.125 39.59375 43.09375 43.984375 
Q 39.0625 48.390625 32.421875 48.390625 
Q 24.90625 48.390625 20.390625 44.140625 
Q 15.875 39.890625 15.1875 32.171875 
z
" id="DejaVuSans-101"/>
     </defs>
     <g transform="translate(357.049219 348.676562)scale(0.1 -0.1)">
      <use xlink:href="#DejaVuSans-68"/>
      <use x="77.001953" xlink:href="#DejaVuSans-97"/>
      <use x="138.28125" xlink:href="#DejaVuSans-116"/>
      <use x="177.490234" xlink:href="#DejaVuSans-101"/>
     </g>
    </g>
   </g>
   <g id="matplotlib.axis_2">
    <g id="ytick_1">
     <g id="line2d_8">
      <defs>
       <path d="M 0 0 
L -3.5 0 
" id="mf020aa1219" style="stroke:#000000;stroke-width:0.8;"/>
      </defs>
      <g>
       <use style="stroke:#000000;stroke-width:0.8;" x="90" xlink:href="#mf020aa1219" y="307.8"/>
      </g>
     </g>
     <g id="text_9">
      <!-- 0 -->
      <g transform="translate(76.6375 311.599219)scale(0.1 -0.1)">
       <use xlink:href="#DejaVuSans-48"/>
      </g>
     </g>
    </g>
    <g id="ytick_2">
     <g id="line2d_9">
      <g>
       <use style="stroke:#000000;stroke-width:0.8;" x="90" xlink:href="#mf020aa1219" y="272.226877"/>
      </g>
     </g>
     <g id="text_10">
      <!-- 250 -->
      <g transform="translate(63.9125 276.026096)scale(0.1 -0.1)">
       <use xlink:href="#DejaVuSans-50"/>
       <use x="63.623047" xlink:href="#DejaVuSans-53"/>
       <use x="127.246094" xlink:href="#DejaVuSans-48"/>
      </g>
     </g>
    </g>
    <g id="ytick_3">
     <g id="line2d_10">
      <g>
       <use style="stroke:#000000;stroke-width:0.8;" x="90" xlink:href="#mf020aa1219" y="236.653755"/>
      </g>
     </g>
     <g id="text_11">
      <!-- 500 -->
      <g transform="translate(63.9125 240.452974)scale(0.1 -0.1)">
       <use xlink:href="#DejaVuSans-53"/>
       <use x="63.623047" xlink:href="#DejaVuSans-48"/>
       <use x="127.246094" xlink:href="#DejaVuSans-48"/>
      </g>
     </g>
    </g>
    <g id="ytick_4">
     <g id="line2d_11">
      <g>
       <use style="stroke:#000000;stroke-width:0.8;" x="90" xlink:href="#mf020aa1219" y="201.080632"/>
      </g>
     </g>
     <g id="text_12">
      <!-- 750 -->
      <defs>
       <path d="M 8.203125 72.90625 
L 55.078125 72.90625 
L 55.078125 68.703125 
L 28.609375 0 
L 18.3125 0 
L 43.21875 64.59375 
L 8.203125 64.59375 
z
" id="DejaVuSans-55"/>
      </defs>
      <g transform="translate(63.9125 204.879851)scale(0.1 -0.1)">
       <use xlink:href="#DejaVuSans-55"/>
       <use x="63.623047" xlink:href="#DejaVuSans-53"/>
       <use x="127.246094" xlink:href="#DejaVuSans-48"/>
      </g>
     </g>
    </g>
    <g id="ytick_5">
     <g id="line2d_12">
      <g>
       <use style="stroke:#000000;stroke-width:0.8;" x="90" xlink:href="#mf020aa1219" y="165.50751"/>
      </g>
     </g>
     <g id="text_13">
      <!-- 1000 -->
      <g transform="translate(57.55 169.306729)scale(0.1 -0.1)">
       <use xlink:href="#DejaVuSans-49"/>
       <use x="63.623047" xlink:href="#DejaVuSans-48"/>
       <use x="127.246094" xlink:href="#DejaVuSans-48"/>
       <use x="190.869141" xlink:href="#DejaVuSans-48"/>
      </g>
     </g>
    </g>
    <g id="ytick_6">
     <g id="line2d_13">
      <g>
       <use style="stroke:#000000;stroke-width:0.8;" x="90" xlink:href="#mf020aa1219" y="129.934387"/>
      </g>
     </g>
     <g id="text_14">
      <!-- 1250 -->
      <g transform="translate(57.55 133.733606)scale(0.1 -0.1)">
       <use xlink:href="#DejaVuSans-49"/>
       <use x="63.623047" xlink:href="#DejaVuSans-50"/>
       <use x="127.246094" xlink:href="#DejaVuSans-53"/>
       <use x="190.869141" xlink:href="#DejaVuSans-48"/>
      </g>
     </g>
    </g>
    <g id="ytick_7">
     <g id="line2d_14">
      <g>
       <use style="stroke:#000000;stroke-width:0.8;" x="90" xlink:href="#mf020aa1219" y="94.361265"/>
      </g>
     </g>
     <g id="text_15">
      <!-- 1500 -->
      <g transform="translate(57.55 98.160484)scale(0.1 -0.1)">
       <use xlink:href="#DejaVuSans-49"/>
       <use x="63.623047" xlink:href="#DejaVuSans-53"/>
       <use x="127.246094" xlink:href="#DejaVuSans-48"/>
       <use x="190.869141" xlink:href="#DejaVuSans-48"/>
      </g>
     </g>
    </g>
    <g id="ytick_8">
     <g id="line2d_15">
      <g>
       <use style="stroke:#000000;stroke-width:0.8;" x="90" xlink:href="#mf020aa1219" y="58.788142"/>
      </g>
     </g>
     <g id="text_16">
      <!-- 1750 -->
      <g transform="translate(57.55 62.587361)scale(0.1 -0.1)">
       <use xlink:href="#DejaVuSans-49"/>
       <use x="63.623047" xlink:href="#DejaVuSans-55"/>
       <use x="127.246094" xlink:href="#DejaVuSans-53"/>
       <use x="190.869141" xlink:href="#DejaVuSans-48"/>
      </g>
     </g>
    </g>
    <g id="text_17">
     <!-- Retweets count -->
     <defs>
      <path d="M 44.390625 34.1875 
Q 47.5625 33.109375 50.5625 29.59375 
Q 53.5625 26.078125 56.59375 19.921875 
L 66.609375 0 
L 56 0 
L 46.6875 18.703125 
Q 43.0625 26.03125 39.671875 28.421875 
Q 36.28125 30.8125 30.421875 30.8125 
L 19.671875 30.8125 
L 19.671875 0 
L 9.8125 0 
L 9.8125 72.90625 
L 32.078125 72.90625 
Q 44.578125 72.90625 50.734375 67.671875 
Q 56.890625 62.453125 56.890625 51.90625 
Q 56.890625 45.015625 53.6875 40.46875 
Q 50.484375 35.9375 44.390625 34.1875 
z
M 19.671875 64.796875 
L 19.671875 38.921875 
L 32.078125 38.921875 
Q 39.203125 38.921875 42.84375 42.21875 
Q 46.484375 45.515625 46.484375 51.90625 
Q 46.484375 58.296875 42.84375 61.546875 
Q 39.203125 64.796875 32.078125 64.796875 
z
" id="DejaVuSans-82"/>
      <path d="M 4.203125 54.6875 
L 13.1875 54.6875 
L 24.421875 12.015625 
L 35.59375 54.6875 
L 46.1875 54.6875 
L 57.421875 12.015625 
L 68.609375 54.6875 
L 77.59375 54.6875 
L 63.28125 0 
L 52.6875 0 
L 40.921875 44.828125 
L 29.109375 0 
L 18.5 0 
z
" id="DejaVuSans-119"/>
      <path d="M 44.28125 53.078125 
L 44.28125 44.578125 
Q 40.484375 46.53125 36.375 47.5 
Q 32.28125 48.484375 27.875 48.484375 
Q 21.1875 48.484375 17.84375 46.4375 
Q 14.5 44.390625 14.5 40.28125 
Q 14.5 37.15625 16.890625 35.375 
Q 19.28125 33.59375 26.515625 31.984375 
L 29.59375 31.296875 
Q 39.15625 29.25 43.1875 25.515625 
Q 47.21875 21.78125 47.21875 15.09375 
Q 47.21875 7.46875 41.1875 3.015625 
Q 35.15625 -1.421875 24.609375 -1.421875 
Q 20.21875 -1.421875 15.453125 -0.5625 
Q 10.6875 0.296875 5.421875 2 
L 5.421875 11.28125 
Q 10.40625 8.6875 15.234375 7.390625 
Q 20.0625 6.109375 24.8125 6.109375 
Q 31.15625 6.109375 34.5625 8.28125 
Q 37.984375 10.453125 37.984375 14.40625 
Q 37.984375 18.0625 35.515625 20.015625 
Q 33.0625 21.96875 24.703125 23.78125 
L 21.578125 24.515625 
Q 13.234375 26.265625 9.515625 29.90625 
Q 5.8125 33.546875 5.8125 39.890625 
Q 5.8125 47.609375 11.28125 51.796875 
Q 16.75 56 26.8125 56 
Q 31.78125 56 36.171875 55.265625 
Q 40.578125 54.546875 44.28125 53.078125 
z
" id="DejaVuSans-115"/>
      <path id="DejaVuSans-32"/>
      <path d="M 48.78125 52.59375 
L 48.78125 44.1875 
Q 44.96875 46.296875 41.140625 47.34375 
Q 37.3125 48.390625 33.40625 48.390625 
Q 24.65625 48.390625 19.8125 42.84375 
Q 14.984375 37.3125 14.984375 27.296875 
Q 14.984375 17.28125 19.8125 11.734375 
Q 24.65625 6.203125 33.40625 6.203125 
Q 37.3125 6.203125 41.140625 7.25 
Q 44.96875 8.296875 48.78125 10.40625 
L 48.78125 2.09375 
Q 45.015625 0.34375 40.984375 -0.53125 
Q 36.96875 -1.421875 32.421875 -1.421875 
Q 20.0625 -1.421875 12.78125 6.34375 
Q 5.515625 14.109375 5.515625 27.296875 
Q 5.515625 40.671875 12.859375 48.328125 
Q 20.21875 56 33.015625 56 
Q 37.15625 56 41.109375 55.140625 
Q 45.0625 54.296875 48.78125 52.59375 
z
" id="DejaVuSans-99"/>
      <path d="M 30.609375 48.390625 
Q 23.390625 48.390625 19.1875 42.75 
Q 14.984375 37.109375 14.984375 27.296875 
Q 14.984375 17.484375 19.15625 11.84375 
Q 23.34375 6.203125 30.609375 6.203125 
Q 37.796875 6.203125 41.984375 11.859375 
Q 46.1875 17.53125 46.1875 27.296875 
Q 46.1875 37.015625 41.984375 42.703125 
Q 37.796875 48.390625 30.609375 48.390625 
z
M 30.609375 56 
Q 42.328125 56 49.015625 48.375 
Q 55.71875 40.765625 55.71875 27.296875 
Q 55.71875 13.875 49.015625 6.21875 
Q 42.328125 -1.421875 30.609375 -1.421875 
Q 18.84375 -1.421875 12.171875 6.21875 
Q 5.515625 13.875 5.515625 27.296875 
Q 5.515625 40.765625 12.171875 48.375 
Q 18.84375 56 30.609375 56 
z
" id="DejaVuSans-111"/>
      <path d="M 8.5 21.578125 
L 8.5 54.6875 
L 17.484375 54.6875 
L 17.484375 21.921875 
Q 17.484375 14.15625 20.5 10.265625 
Q 23.53125 6.390625 29.59375 6.390625 
Q 36.859375 6.390625 41.078125 11.03125 
Q 45.3125 15.671875 45.3125 23.6875 
L 45.3125 54.6875 
L 54.296875 54.6875 
L 54.296875 0 
L 45.3125 0 
L 45.3125 8.40625 
Q 42.046875 3.421875 37.71875 1 
Q 33.40625 -1.421875 27.6875 -1.421875 
Q 18.265625 -1.421875 13.375 4.4375 
Q 8.5 10.296875 8.5 21.578125 
z
M 31.109375 56 
z
" id="DejaVuSans-117"/>
      <path d="M 54.890625 33.015625 
L 54.890625 0 
L 45.90625 0 
L 45.90625 32.71875 
Q 45.90625 40.484375 42.875 44.328125 
Q 39.84375 48.1875 33.796875 48.1875 
Q 26.515625 48.1875 22.3125 43.546875 
Q 18.109375 38.921875 18.109375 30.90625 
L 18.109375 0 
L 9.078125 0 
L 9.078125 54.6875 
L 18.109375 54.6875 
L 18.109375 46.1875 
Q 21.34375 51.125 25.703125 53.5625 
Q 30.078125 56 35.796875 56 
Q 45.21875 56 50.046875 50.171875 
Q 54.890625 44.34375 54.890625 33.015625 
z
" id="DejaVuSans-110"/>
     </defs>
     <g transform="translate(51.470312 220.588281)rotate(-90)scale(0.1 -0.1)">
      <use xlink:href="#DejaVuSans-82"/>
      <use x="64.982422" xlink:href="#DejaVuSans-101"/>
      <use x="126.505859" xlink:href="#DejaVuSans-116"/>
      <use x="165.714844" xlink:href="#DejaVuSans-119"/>
      <use x="247.501953" xlink:href="#DejaVuSans-101"/>
      <use x="309.025391" xlink:href="#DejaVuSans-101"/>
      <use x="370.548828" xlink:href="#DejaVuSans-116"/>
      <use x="409.757812" xlink:href="#DejaVuSans-115"/>
      <use x="461.857422" xlink:href="#DejaVuSans-32"/>
      <use x="493.644531" xlink:href="#DejaVuSans-99"/>
      <use x="548.625" xlink:href="#DejaVuSans-111"/>
      <use x="609.806641" xlink:href="#DejaVuSans-117"/>
      <use x="673.185547" xlink:href="#DejaVuSans-110"/>
      <use x="736.564453" xlink:href="#DejaVuSans-116"/>
     </g>
    </g>
   </g>
   <g id="line2d_16">
    <path clip-path="url(#pb6ce5d6fcc)" d="M 115.363636 245.191304 
L 126.391304 197.096443 
L 137.418972 247.041107 
L 148.44664 257.143874 
L 159.474308 221.143874 
L 170.501976 201.365217 
L 181.529644 289.301976 
L 192.557312 175.752569 
L 203.58498 145.586561 
L 214.612648 205.064822 
L 225.640316 267.104348 
L 236.667984 285.602372 
L 247.695652 224.701186 
L 258.72332 258.139921 
L 269.750988 307.8 
L 280.778656 278.63004 
L 291.806324 216.163636 
L 302.833992 102.614229 
L 313.86166 271.088538 
L 324.889328 266.535178 
L 335.916996 265.112253 
L 346.944664 208.337549 
L 357.972332 282.187352 
L 369 270.09249 
L 380.027668 230.535178 
L 391.055336 257.143874 
L 402.083004 294.282213 
L 413.110672 214.313834 
L 424.13834 267.531225 
L 435.166008 262.266403 
L 446.193676 180.305929 
L 457.221344 279.341502 
L 468.249012 221.286166 
L 479.27668 228.400791 
L 490.304348 161.665613 
L 501.332016 222.709091 
L 512.359684 215.452174 
L 523.387352 160.811858 
L 534.41502 211.183399 
L 545.442688 266.67747 
L 556.470356 307.8 
L 567.498024 291.578656 
L 578.525692 262.124111 
L 589.55336 208.906719 
L 600.581028 289.586561 
L 611.608696 255.578656 
L 622.636364 299.831621 
" style="fill:none;stroke:#1f77b4;stroke-linecap:square;stroke-width:1.5;"/>
   </g>
   <g id="line2d_17">
    <path clip-path="url(#pb6ce5d6fcc)" d="M 115.363636 264.685375 
L 126.391304 273.50751 
L 137.418972 278.914625 
L 148.44664 278.772332 
L 159.474308 259.705138 
L 170.501976 278.203162 
L 181.529644 276.211067 
L 192.557312 275.357312 
L 203.58498 259.847431 
L 214.612648 284.748617 
L 225.640316 277.4917 
L 236.667984 273.222925 
L 247.695652 296.416601 
L 258.72332 305.665613 
L 269.750988 307.8 
L 280.778656 274.930435 
L 291.806324 275.072727 
L 302.833992 286.029249 
L 313.86166 272.084585 
L 324.889328 295.278261 
L 335.916996 290.298024 
L 346.944664 281.475889 
L 357.972332 267.24664 
L 369 260.416601 
L 380.027668 266.250593 
L 391.055336 265.396838 
L 402.083004 284.037154 
L 413.110672 289.728854 
L 424.13834 269.52332 
L 435.166008 263.547036 
L 446.193676 250.883004 
L 457.221344 249.175494 
L 468.249012 178.313834 
L 479.27668 266.250593 
L 490.304348 258.993676 
L 501.332016 243.910672 
L 512.359684 277.349407 
L 523.387352 176.890909 
L 534.41502 246.329644 
L 545.442688 280.479842 
L 556.470356 290.724901 
L 567.498024 307.8 
L 578.525692 273.365217 
L 589.55336 287.736759 
L 600.581028 270.519368 
L 611.608696 275.641897 
L 622.636364 278.914625 
" style="fill:none;stroke:#ff7f0e;stroke-linecap:square;stroke-width:1.5;"/>
   </g>
   <g id="line2d_18">
    <path clip-path="url(#pb6ce5d6fcc)" d="M 115.363636 307.8 
L 126.391304 307.8 
L 137.418972 307.8 
L 148.44664 307.8 
L 159.474308 307.8 
L 170.501976 307.8 
L 181.529644 307.8 
L 192.557312 307.8 
L 203.58498 307.8 
L 214.612648 307.8 
L 225.640316 307.8 
L 236.667984 307.8 
L 247.695652 307.8 
L 258.72332 307.8 
L 269.750988 307.8 
L 280.778656 307.8 
L 291.806324 307.8 
L 302.833992 307.8 
L 313.86166 307.8 
L 324.889328 307.8 
L 335.916996 307.8 
L 346.944664 307.8 
L 357.972332 307.8 
L 369 307.8 
L 380.027668 307.8 
L 391.055336 307.8 
L 402.083004 307.8 
L 413.110672 307.8 
L 424.13834 307.8 
L 435.166008 307.8 
L 446.193676 301.53913 
L 457.221344 307.8 
L 468.249012 307.23083 
L 479.27668 307.8 
L 490.304348 307.8 
L 501.332016 307.8 
L 512.359684 307.8 
L 523.387352 307.8 
L 534.41502 307.8 
L 545.442688 307.8 
L 556.470356 307.8 
L 567.498024 307.8 
L 578.525692 307.8 
L 589.55336 307.8 
L 600.581028 307.8 
L 611.608696 307.8 
L 622.636364 307.657708 
" style="fill:none;stroke:#2ca02c;stroke-linecap:square;stroke-width:1.5;"/>
   </g>
   <g id="line2d_19">
    <path clip-path="url(#pb6ce5d6fcc)" d="M 115.363636 307.8 
L 126.391304 307.8 
L 137.418972 307.8 
L 148.44664 307.8 
L 159.474308 307.8 
L 170.501976 307.8 
L 181.529644 307.8 
L 192.557312 307.8 
L 203.58498 307.8 
L 214.612648 303.958103 
L 225.640316 307.8 
L 236.667984 307.8 
L 247.695652 307.8 
L 258.72332 307.8 
L 269.750988 307.8 
L 280.778656 307.8 
L 291.806324 307.8 
L 302.833992 307.8 
L 313.86166 307.8 
L 324.889328 307.8 
L 335.916996 307.8 
L 346.944664 301.966008 
L 357.972332 306.234783 
L 369 295.135968 
L 380.027668 307.8 
L 391.055336 304.811858 
L 402.083004 307.8 
L 413.110672 307.8 
L 424.13834 307.8 
L 435.166008 307.8 
L 446.193676 307.8 
L 457.221344 307.8 
L 468.249012 303.531225 
L 479.27668 307.8 
L 490.304348 307.8 
L 501.332016 307.8 
L 512.359684 307.8 
L 523.387352 307.8 
L 534.41502 307.8 
L 545.442688 307.8 
L 556.470356 307.8 
L 567.498024 307.8 
L 578.525692 307.8 
L 589.55336 307.8 
L 600.581028 307.8 
L 611.608696 307.8 
L 622.636364 307.8 
" style="fill:none;stroke:#d62728;stroke-linecap:square;stroke-width:1.5;"/>
   </g>
   <g id="line2d_20">
    <path clip-path="url(#pb6ce5d6fcc)" d="M 115.363636 193.966008 
L 126.391304 208.764427 
L 137.418972 198.09249 
L 148.44664 197.238735 
L 159.474308 158.392885 
L 170.501976 219.863241 
L 181.529644 252.732806 
L 192.557312 55.8 
L 203.58498 169.207115 
L 214.612648 209.333597 
L 225.640316 238.503557 
L 236.667984 279.768379 
L 247.695652 307.8 
L 258.72332 307.8 
L 269.750988 307.8 
L 280.778656 232.38498 
L 291.806324 76.716996 
L 302.833992 203.499605 
L 313.86166 239.21502 
L 324.889328 278.06087 
L 335.916996 256.432411 
L 346.944664 232.242688 
L 357.972332 193.254545 
L 369 221.143874 
L 380.027668 248.037154 
L 391.055336 192.400791 
L 402.083004 241.064822 
L 413.110672 246.329644 
L 424.13834 222.424506 
L 435.166008 216.732806 
L 446.193676 167.926482 
L 457.221344 212.037154 
L 468.249012 214.740711 
L 479.27668 276.780237 
L 490.304348 258.851383 
L 501.332016 200.084585 
L 512.359684 211.041107 
L 523.387352 132.35336 
L 534.41502 212.464032 
L 545.442688 202.930435 
L 556.470356 271.8 
L 567.498024 269.950198 
L 578.525692 236.93834 
L 589.55336 189.128063 
L 600.581028 234.377075 
L 611.608696 242.914625 
L 622.636364 253.444269 
" style="fill:none;stroke:#9467bd;stroke-linecap:square;stroke-width:1.5;"/>
   </g>
   <g id="patch_3">
    <path d="M 90 320.4 
L 90 43.2 
" style="fill:none;stroke:#000000;stroke-linecap:square;stroke-linejoin:miter;stroke-width:0.8;"/>
   </g>
   <g id="patch_4">
    <path d="M 648 320.4 
L 648 43.2 
" style="fill:none;stroke:#000000;stroke-linecap:square;stroke-linejoin:miter;stroke-width:0.8;"/>
   </g>
   <g id="patch_5">
    <path d="M 90 320.4 
L 648 320.4 
" style="fill:none;stroke:#000000;stroke-linecap:square;stroke-linejoin:miter;stroke-width:0.8;"/>
   </g>
   <g id="patch_6">
    <path d="M 90 43.2 
L 648 43.2 
" style="fill:none;stroke:#000000;stroke-linecap:square;stroke-linejoin:miter;stroke-width:0.8;"/>
   </g>
   <g id="text_18">
    <!-- Retweets count for date for accounts connected to candidate Bosak -->
    <defs>
     <path d="M 37.109375 75.984375 
L 37.109375 68.5 
L 28.515625 68.5 
Q 23.6875 68.5 21.796875 66.546875 
Q 19.921875 64.59375 19.921875 59.515625 
L 19.921875 54.6875 
L 34.71875 54.6875 
L 34.71875 47.703125 
L 19.921875 47.703125 
L 19.921875 0 
L 10.890625 0 
L 10.890625 47.703125 
L 2.296875 47.703125 
L 2.296875 54.6875 
L 10.890625 54.6875 
L 10.890625 58.5 
Q 10.890625 67.625 15.140625 71.796875 
Q 19.390625 75.984375 28.609375 75.984375 
z
" id="DejaVuSans-102"/>
     <path d="M 41.109375 46.296875 
Q 39.59375 47.171875 37.8125 47.578125 
Q 36.03125 48 33.890625 48 
Q 26.265625 48 22.1875 43.046875 
Q 18.109375 38.09375 18.109375 28.8125 
L 18.109375 0 
L 9.078125 0 
L 9.078125 54.6875 
L 18.109375 54.6875 
L 18.109375 46.1875 
Q 20.953125 51.171875 25.484375 53.578125 
Q 30.03125 56 36.53125 56 
Q 37.453125 56 38.578125 55.875 
Q 39.703125 55.765625 41.0625 55.515625 
z
" id="DejaVuSans-114"/>
     <path d="M 45.40625 46.390625 
L 45.40625 75.984375 
L 54.390625 75.984375 
L 54.390625 0 
L 45.40625 0 
L 45.40625 8.203125 
Q 42.578125 3.328125 38.25 0.953125 
Q 33.9375 -1.421875 27.875 -1.421875 
Q 17.96875 -1.421875 11.734375 6.484375 
Q 5.515625 14.40625 5.515625 27.296875 
Q 5.515625 40.1875 11.734375 48.09375 
Q 17.96875 56 27.875 56 
Q 33.9375 56 38.25 53.625 
Q 42.578125 51.265625 45.40625 46.390625 
z
M 14.796875 27.296875 
Q 14.796875 17.390625 18.875 11.75 
Q 22.953125 6.109375 30.078125 6.109375 
Q 37.203125 6.109375 41.296875 11.75 
Q 45.40625 17.390625 45.40625 27.296875 
Q 45.40625 37.203125 41.296875 42.84375 
Q 37.203125 48.484375 30.078125 48.484375 
Q 22.953125 48.484375 18.875 42.84375 
Q 14.796875 37.203125 14.796875 27.296875 
z
" id="DejaVuSans-100"/>
     <path d="M 9.421875 54.6875 
L 18.40625 54.6875 
L 18.40625 0 
L 9.421875 0 
z
M 9.421875 75.984375 
L 18.40625 75.984375 
L 18.40625 64.59375 
L 9.421875 64.59375 
z
" id="DejaVuSans-105"/>
     <path d="M 19.671875 34.8125 
L 19.671875 8.109375 
L 35.5 8.109375 
Q 43.453125 8.109375 47.28125 11.40625 
Q 51.125 14.703125 51.125 21.484375 
Q 51.125 28.328125 47.28125 31.5625 
Q 43.453125 34.8125 35.5 34.8125 
z
M 19.671875 64.796875 
L 19.671875 42.828125 
L 34.28125 42.828125 
Q 41.5 42.828125 45.03125 45.53125 
Q 48.578125 48.25 48.578125 53.8125 
Q 48.578125 59.328125 45.03125 62.0625 
Q 41.5 64.796875 34.28125 64.796875 
z
M 9.8125 72.90625 
L 35.015625 72.90625 
Q 46.296875 72.90625 52.390625 68.21875 
Q 58.5 63.53125 58.5 54.890625 
Q 58.5 48.1875 55.375 44.234375 
Q 52.25 40.28125 46.1875 39.3125 
Q 53.46875 37.75 57.5 32.78125 
Q 61.53125 27.828125 61.53125 20.40625 
Q 61.53125 10.640625 54.890625 5.3125 
Q 48.25 0 35.984375 0 
L 9.8125 0 
z
" id="DejaVuSans-66"/>
     <path d="M 9.078125 75.984375 
L 18.109375 75.984375 
L 18.109375 31.109375 
L 44.921875 54.6875 
L 56.390625 54.6875 
L 27.390625 29.109375 
L 57.625 0 
L 45.90625 0 
L 18.109375 26.703125 
L 18.109375 0 
L 9.078125 0 
z
" id="DejaVuSans-107"/>
    </defs>
    <g transform="translate(164.848125 37.2)scale(0.12 -0.12)">
     <use xlink:href="#DejaVuSans-82"/>
     <use x="64.982422" xlink:href="#DejaVuSans-101"/>
     <use x="126.505859" xlink:href="#DejaVuSans-116"/>
     <use x="165.714844" xlink:href="#DejaVuSans-119"/>
     <use x="247.501953" xlink:href="#DejaVuSans-101"/>
     <use x="309.025391" xlink:href="#DejaVuSans-101"/>
     <use x="370.548828" xlink:href="#DejaVuSans-116"/>
     <use x="409.757812" xlink:href="#DejaVuSans-115"/>
     <use x="461.857422" xlink:href="#DejaVuSans-32"/>
     <use x="493.644531" xlink:href="#DejaVuSans-99"/>
     <use x="548.625" xlink:href="#DejaVuSans-111"/>
     <use x="609.806641" xlink:href="#DejaVuSans-117"/>
     <use x="673.185547" xlink:href="#DejaVuSans-110"/>
     <use x="736.564453" xlink:href="#DejaVuSans-116"/>
     <use x="775.773438" xlink:href="#DejaVuSans-32"/>
     <use x="807.560547" xlink:href="#DejaVuSans-102"/>
     <use x="842.765625" xlink:href="#DejaVuSans-111"/>
     <use x="903.947266" xlink:href="#DejaVuSans-114"/>
     <use x="945.060547" xlink:href="#DejaVuSans-32"/>
     <use x="976.847656" xlink:href="#DejaVuSans-100"/>
     <use x="1040.324219" xlink:href="#DejaVuSans-97"/>
     <use x="1101.603516" xlink:href="#DejaVuSans-116"/>
     <use x="1140.8125" xlink:href="#DejaVuSans-101"/>
     <use x="1202.335938" xlink:href="#DejaVuSans-32"/>
     <use x="1234.123047" xlink:href="#DejaVuSans-102"/>
     <use x="1269.328125" xlink:href="#DejaVuSans-111"/>
     <use x="1330.509766" xlink:href="#DejaVuSans-114"/>
     <use x="1371.623047" xlink:href="#DejaVuSans-32"/>
     <use x="1403.410156" xlink:href="#DejaVuSans-97"/>
     <use x="1464.689453" xlink:href="#DejaVuSans-99"/>
     <use x="1519.669922" xlink:href="#DejaVuSans-99"/>
     <use x="1574.650391" xlink:href="#DejaVuSans-111"/>
     <use x="1635.832031" xlink:href="#DejaVuSans-117"/>
     <use x="1699.210938" xlink:href="#DejaVuSans-110"/>
     <use x="1762.589844" xlink:href="#DejaVuSans-116"/>
     <use x="1801.798828" xlink:href="#DejaVuSans-115"/>
     <use x="1853.898438" xlink:href="#DejaVuSans-32"/>
     <use x="1885.685547" xlink:href="#DejaVuSans-99"/>
     <use x="1940.666016" xlink:href="#DejaVuSans-111"/>
     <use x="2001.847656" xlink:href="#DejaVuSans-110"/>
     <use x="2065.226562" xlink:href="#DejaVuSans-110"/>
     <use x="2128.605469" xlink:href="#DejaVuSans-101"/>
     <use x="2190.128906" xlink:href="#DejaVuSans-99"/>
     <use x="2245.109375" xlink:href="#DejaVuSans-116"/>
     <use x="2284.318359" xlink:href="#DejaVuSans-101"/>
     <use x="2345.841797" xlink:href="#DejaVuSans-100"/>
     <use x="2409.318359" xlink:href="#DejaVuSans-32"/>
     <use x="2441.105469" xlink:href="#DejaVuSans-116"/>
     <use x="2480.314453" xlink:href="#DejaVuSans-111"/>
     <use x="2541.496094" xlink:href="#DejaVuSans-32"/>
     <use x="2573.283203" xlink:href="#DejaVuSans-99"/>
     <use x="2628.263672" xlink:href="#DejaVuSans-97"/>
     <use x="2689.542969" xlink:href="#DejaVuSans-110"/>
     <use x="2752.921875" xlink:href="#DejaVuSans-100"/>
     <use x="2816.398438" xlink:href="#DejaVuSans-105"/>
     <use x="2844.181641" xlink:href="#DejaVuSans-100"/>
     <use x="2907.658203" xlink:href="#DejaVuSans-97"/>
     <use x="2968.9375" xlink:href="#DejaVuSans-116"/>
     <use x="3008.146484" xlink:href="#DejaVuSans-101"/>
     <use x="3069.669922" xlink:href="#DejaVuSans-32"/>
     <use x="3101.457031" xlink:href="#DejaVuSans-66"/>
     <use x="3170.060547" xlink:href="#DejaVuSans-111"/>
     <use x="3231.242188" xlink:href="#DejaVuSans-115"/>
     <use x="3283.341797" xlink:href="#DejaVuSans-97"/>
     <use x="3344.621094" xlink:href="#DejaVuSans-107"/>
    </g>
   </g>
   <g id="legend_1">
    <g id="patch_7">
     <path d="M 97 124.86875 
L 211.2625 124.86875 
Q 213.2625 124.86875 213.2625 122.86875 
L 213.2625 50.2 
Q 213.2625 48.2 211.2625 48.2 
L 97 48.2 
Q 95 48.2 95 50.2 
L 95 122.86875 
Q 95 124.86875 97 124.86875 
z
" style="fill:#ffffff;opacity:0.8;stroke:#cccccc;stroke-linejoin:miter;"/>
    </g>
    <g id="line2d_21">
     <path d="M 99 56.298437 
L 119 56.298437 
" style="fill:none;stroke:#1f77b4;stroke-linecap:square;stroke-width:1.5;"/>
    </g>
    <g id="line2d_22"/>
    <g id="text_19">
     <!-- krzysztofbosak -->
     <defs>
      <path d="M 5.515625 54.6875 
L 48.1875 54.6875 
L 48.1875 46.484375 
L 14.40625 7.171875 
L 48.1875 7.171875 
L 48.1875 0 
L 4.296875 0 
L 4.296875 8.203125 
L 38.09375 47.515625 
L 5.515625 47.515625 
z
" id="DejaVuSans-122"/>
      <path d="M 32.171875 -5.078125 
Q 28.375 -14.84375 24.75 -17.8125 
Q 21.140625 -20.796875 15.09375 -20.796875 
L 7.90625 -20.796875 
L 7.90625 -13.28125 
L 13.1875 -13.28125 
Q 16.890625 -13.28125 18.9375 -11.515625 
Q 21 -9.765625 23.484375 -3.21875 
L 25.09375 0.875 
L 2.984375 54.6875 
L 12.5 54.6875 
L 29.59375 11.921875 
L 46.6875 54.6875 
L 56.203125 54.6875 
z
" id="DejaVuSans-121"/>
      <path d="M 48.6875 27.296875 
Q 48.6875 37.203125 44.609375 42.84375 
Q 40.53125 48.484375 33.40625 48.484375 
Q 26.265625 48.484375 22.1875 42.84375 
Q 18.109375 37.203125 18.109375 27.296875 
Q 18.109375 17.390625 22.1875 11.75 
Q 26.265625 6.109375 33.40625 6.109375 
Q 40.53125 6.109375 44.609375 11.75 
Q 48.6875 17.390625 48.6875 27.296875 
z
M 18.109375 46.390625 
Q 20.953125 51.265625 25.265625 53.625 
Q 29.59375 56 35.59375 56 
Q 45.5625 56 51.78125 48.09375 
Q 58.015625 40.1875 58.015625 27.296875 
Q 58.015625 14.40625 51.78125 6.484375 
Q 45.5625 -1.421875 35.59375 -1.421875 
Q 29.59375 -1.421875 25.265625 0.953125 
Q 20.953125 3.328125 18.109375 8.203125 
L 18.109375 0 
L 9.078125 0 
L 9.078125 75.984375 
L 18.109375 75.984375 
z
" id="DejaVuSans-98"/>
     </defs>
     <g transform="translate(127 59.798437)scale(0.1 -0.1)">
      <use xlink:href="#DejaVuSans-107"/>
      <use x="57.910156" xlink:href="#DejaVuSans-114"/>
      <use x="99.023438" xlink:href="#DejaVuSans-122"/>
      <use x="151.513672" xlink:href="#DejaVuSans-121"/>
      <use x="210.693359" xlink:href="#DejaVuSans-115"/>
      <use x="262.792969" xlink:href="#DejaVuSans-122"/>
      <use x="315.283203" xlink:href="#DejaVuSans-116"/>
      <use x="354.492188" xlink:href="#DejaVuSans-111"/>
      <use x="415.673828" xlink:href="#DejaVuSans-102"/>
      <use x="450.878906" xlink:href="#DejaVuSans-98"/>
      <use x="514.355469" xlink:href="#DejaVuSans-111"/>
      <use x="575.537109" xlink:href="#DejaVuSans-115"/>
      <use x="627.636719" xlink:href="#DejaVuSans-97"/>
      <use x="688.916016" xlink:href="#DejaVuSans-107"/>
     </g>
    </g>
    <g id="line2d_23">
     <path d="M 99 70.976562 
L 119 70.976562 
" style="fill:none;stroke:#ff7f0e;stroke-linecap:square;stroke-width:1.5;"/>
    </g>
    <g id="line2d_24"/>
    <g id="text_20">
     <!-- bosak2020 -->
     <g transform="translate(127 74.476562)scale(0.1 -0.1)">
      <use xlink:href="#DejaVuSans-98"/>
      <use x="63.476562" xlink:href="#DejaVuSans-111"/>
      <use x="124.658203" xlink:href="#DejaVuSans-115"/>
      <use x="176.757812" xlink:href="#DejaVuSans-97"/>
      <use x="238.037109" xlink:href="#DejaVuSans-107"/>
      <use x="295.947266" xlink:href="#DejaVuSans-50"/>
      <use x="359.570312" xlink:href="#DejaVuSans-48"/>
      <use x="423.193359" xlink:href="#DejaVuSans-50"/>
      <use x="486.816406" xlink:href="#DejaVuSans-48"/>
     </g>
    </g>
    <g id="line2d_25">
     <path d="M 99 85.654687 
L 119 85.654687 
" style="fill:none;stroke:#2ca02c;stroke-linecap:square;stroke-width:1.5;"/>
    </g>
    <g id="line2d_26"/>
    <g id="text_21">
     <!-- PUsiadek -->
     <defs>
      <path d="M 19.671875 64.796875 
L 19.671875 37.40625 
L 32.078125 37.40625 
Q 38.96875 37.40625 42.71875 40.96875 
Q 46.484375 44.53125 46.484375 51.125 
Q 46.484375 57.671875 42.71875 61.234375 
Q 38.96875 64.796875 32.078125 64.796875 
z
M 9.8125 72.90625 
L 32.078125 72.90625 
Q 44.34375 72.90625 50.609375 67.359375 
Q 56.890625 61.8125 56.890625 51.125 
Q 56.890625 40.328125 50.609375 34.8125 
Q 44.34375 29.296875 32.078125 29.296875 
L 19.671875 29.296875 
L 19.671875 0 
L 9.8125 0 
z
" id="DejaVuSans-80"/>
      <path d="M 8.6875 72.90625 
L 18.609375 72.90625 
L 18.609375 28.609375 
Q 18.609375 16.890625 22.84375 11.734375 
Q 27.09375 6.59375 36.625 6.59375 
Q 46.09375 6.59375 50.34375 11.734375 
Q 54.59375 16.890625 54.59375 28.609375 
L 54.59375 72.90625 
L 64.5 72.90625 
L 64.5 27.390625 
Q 64.5 13.140625 57.4375 5.859375 
Q 50.390625 -1.421875 36.625 -1.421875 
Q 22.796875 -1.421875 15.734375 5.859375 
Q 8.6875 13.140625 8.6875 27.390625 
z
" id="DejaVuSans-85"/>
     </defs>
     <g transform="translate(127 89.154687)scale(0.1 -0.1)">
      <use xlink:href="#DejaVuSans-80"/>
      <use x="60.302734" xlink:href="#DejaVuSans-85"/>
      <use x="133.496094" xlink:href="#DejaVuSans-115"/>
      <use x="185.595703" xlink:href="#DejaVuSans-105"/>
      <use x="213.378906" xlink:href="#DejaVuSans-97"/>
      <use x="274.658203" xlink:href="#DejaVuSans-100"/>
      <use x="338.134766" xlink:href="#DejaVuSans-101"/>
      <use x="399.658203" xlink:href="#DejaVuSans-107"/>
     </g>
    </g>
    <g id="line2d_27">
     <path d="M 99 100.332812 
L 119 100.332812 
" style="fill:none;stroke:#d62728;stroke-linecap:square;stroke-width:1.5;"/>
    </g>
    <g id="line2d_28"/>
    <g id="text_22">
     <!-- annabrylka -->
     <defs>
      <path d="M 9.421875 75.984375 
L 18.40625 75.984375 
L 18.40625 0 
L 9.421875 0 
z
" id="DejaVuSans-108"/>
     </defs>
     <g transform="translate(127 103.832812)scale(0.1 -0.1)">
      <use xlink:href="#DejaVuSans-97"/>
      <use x="61.279297" xlink:href="#DejaVuSans-110"/>
      <use x="124.658203" xlink:href="#DejaVuSans-110"/>
      <use x="188.037109" xlink:href="#DejaVuSans-97"/>
      <use x="249.316406" xlink:href="#DejaVuSans-98"/>
      <use x="312.792969" xlink:href="#DejaVuSans-114"/>
      <use x="353.90625" xlink:href="#DejaVuSans-121"/>
      <use x="413.085938" xlink:href="#DejaVuSans-108"/>
      <use x="440.869141" xlink:href="#DejaVuSans-107"/>
      <use x="497.029297" xlink:href="#DejaVuSans-97"/>
     </g>
    </g>
    <g id="line2d_29">
     <path d="M 99 115.010937 
L 119 115.010937 
" style="fill:none;stroke:#9467bd;stroke-linecap:square;stroke-width:1.5;"/>
    </g>
    <g id="line2d_30"/>
    <g id="text_23">
     <!-- KONFEDERACJA_ -->
     <defs>
      <path d="M 9.8125 72.90625 
L 19.671875 72.90625 
L 19.671875 42.09375 
L 52.390625 72.90625 
L 65.09375 72.90625 
L 28.90625 38.921875 
L 67.671875 0 
L 54.6875 0 
L 19.671875 35.109375 
L 19.671875 0 
L 9.8125 0 
z
" id="DejaVuSans-75"/>
      <path d="M 39.40625 66.21875 
Q 28.65625 66.21875 22.328125 58.203125 
Q 16.015625 50.203125 16.015625 36.375 
Q 16.015625 22.609375 22.328125 14.59375 
Q 28.65625 6.59375 39.40625 6.59375 
Q 50.140625 6.59375 56.421875 14.59375 
Q 62.703125 22.609375 62.703125 36.375 
Q 62.703125 50.203125 56.421875 58.203125 
Q 50.140625 66.21875 39.40625 66.21875 
z
M 39.40625 74.21875 
Q 54.734375 74.21875 63.90625 63.9375 
Q 73.09375 53.65625 73.09375 36.375 
Q 73.09375 19.140625 63.90625 8.859375 
Q 54.734375 -1.421875 39.40625 -1.421875 
Q 24.03125 -1.421875 14.8125 8.828125 
Q 5.609375 19.09375 5.609375 36.375 
Q 5.609375 53.65625 14.8125 63.9375 
Q 24.03125 74.21875 39.40625 74.21875 
z
" id="DejaVuSans-79"/>
      <path d="M 9.8125 72.90625 
L 23.09375 72.90625 
L 55.421875 11.921875 
L 55.421875 72.90625 
L 64.984375 72.90625 
L 64.984375 0 
L 51.703125 0 
L 19.390625 60.984375 
L 19.390625 0 
L 9.8125 0 
z
" id="DejaVuSans-78"/>
      <path d="M 9.8125 72.90625 
L 51.703125 72.90625 
L 51.703125 64.59375 
L 19.671875 64.59375 
L 19.671875 43.109375 
L 48.578125 43.109375 
L 48.578125 34.8125 
L 19.671875 34.8125 
L 19.671875 0 
L 9.8125 0 
z
" id="DejaVuSans-70"/>
      <path d="M 9.8125 72.90625 
L 55.90625 72.90625 
L 55.90625 64.59375 
L 19.671875 64.59375 
L 19.671875 43.015625 
L 54.390625 43.015625 
L 54.390625 34.71875 
L 19.671875 34.71875 
L 19.671875 8.296875 
L 56.78125 8.296875 
L 56.78125 0 
L 9.8125 0 
z
" id="DejaVuSans-69"/>
      <path d="M 34.1875 63.1875 
L 20.796875 26.90625 
L 47.609375 26.90625 
z
M 28.609375 72.90625 
L 39.796875 72.90625 
L 67.578125 0 
L 57.328125 0 
L 50.6875 18.703125 
L 17.828125 18.703125 
L 11.1875 0 
L 0.78125 0 
z
" id="DejaVuSans-65"/>
      <path d="M 64.40625 67.28125 
L 64.40625 56.890625 
Q 59.421875 61.53125 53.78125 63.8125 
Q 48.140625 66.109375 41.796875 66.109375 
Q 29.296875 66.109375 22.65625 58.46875 
Q 16.015625 50.828125 16.015625 36.375 
Q 16.015625 21.96875 22.65625 14.328125 
Q 29.296875 6.6875 41.796875 6.6875 
Q 48.140625 6.6875 53.78125 8.984375 
Q 59.421875 11.28125 64.40625 15.921875 
L 64.40625 5.609375 
Q 59.234375 2.09375 53.4375 0.328125 
Q 47.65625 -1.421875 41.21875 -1.421875 
Q 24.65625 -1.421875 15.125 8.703125 
Q 5.609375 18.84375 5.609375 36.375 
Q 5.609375 53.953125 15.125 64.078125 
Q 24.65625 74.21875 41.21875 74.21875 
Q 47.75 74.21875 53.53125 72.484375 
Q 59.328125 70.75 64.40625 67.28125 
z
" id="DejaVuSans-67"/>
      <path d="M 9.8125 72.90625 
L 19.671875 72.90625 
L 19.671875 5.078125 
Q 19.671875 -8.109375 14.671875 -14.0625 
Q 9.671875 -20.015625 -1.421875 -20.015625 
L -5.171875 -20.015625 
L -5.171875 -11.71875 
L -2.09375 -11.71875 
Q 4.4375 -11.71875 7.125 -8.046875 
Q 9.8125 -4.390625 9.8125 5.078125 
z
" id="DejaVuSans-74"/>
      <path d="M 50.984375 -16.609375 
L 50.984375 -23.578125 
L -0.984375 -23.578125 
L -0.984375 -16.609375 
z
" id="DejaVuSans-95"/>
     </defs>
     <g transform="translate(127 118.510937)scale(0.1 -0.1)">
      <use xlink:href="#DejaVuSans-75"/>
      <use x="60.076172" xlink:href="#DejaVuSans-79"/>
      <use x="138.787109" xlink:href="#DejaVuSans-78"/>
      <use x="213.591797" xlink:href="#DejaVuSans-70"/>
      <use x="271.111328" xlink:href="#DejaVuSans-69"/>
      <use x="334.294922" xlink:href="#DejaVuSans-68"/>
      <use x="411.296875" xlink:href="#DejaVuSans-69"/>
      <use x="474.480469" xlink:href="#DejaVuSans-82"/>
      <use x="539.962891" xlink:href="#DejaVuSans-65"/>
      <use x="606.621094" xlink:href="#DejaVuSans-67"/>
      <use x="676.445312" xlink:href="#DejaVuSans-74"/>
      <use x="704.1875" xlink:href="#DejaVuSans-65"/>
      <use x="772.595703" xlink:href="#DejaVuSans-95"/>
     </g>
    </g>
   </g>
  </g>
 </g>
 <defs>
  <clipPath id="pb6ce5d6fcc">
   <rect height="277.2" width="558" x="90" y="43.2"/>
  </clipPath>
 </defs>
</svg>
