<?xml version="1.0" encoding="utf-8" standalone="no"?>
<!DOCTYPE svg PUBLIC "-//W3C//DTD SVG 1.1//EN"
  "http://www.w3.org/Graphics/SVG/1.1/DTD/svg11.dtd">
<!-- Created with matplotlib (https://matplotlib.org/) -->
<svg height="360pt" version="1.1" viewBox="0 0 720 360" width="720pt" xmlns="http://www.w3.org/2000/svg" xmlns:xlink="http://www.w3.org/1999/xlink">
 <defs>
  <style type="text/css">
*{stroke-linecap:butt;stroke-linejoin:round;}
  </style>
 </defs>
 <g id="figure_1">
  <g id="patch_1">
   <path d="M 0 360 
L 720 360 
L 720 0 
L 0 0 
z
" style="fill:#ffffff;"/>
  </g>
  <g id="axes_1">
   <g id="patch_2">
    <path d="M 90 320.4 
L 648 320.4 
L 648 43.2 
L 90 43.2 
z
" style="fill:#ffffff;"/>
   </g>
   <g id="PathCollection_1">
    <defs>
     <path d="M 0 1.118034 
C 0.296506 1.118034 0.580908 1.000231 0.790569 0.790569 
C 1.000231 0.580908 1.118034 0.296506 1.118034 0 
C 1.118034 -0.296506 1.000231 -0.580908 0.790569 -0.790569 
C 0.580908 -1.000231 0.296506 -1.118034 0 -1.118034 
C -0.296506 -1.118034 -0.580908 -1.000231 -0.790569 -0.790569 
C -1.000231 -0.580908 -1.118034 -0.296506 -1.118034 0 
C -1.118034 0.296506 -1.000231 0.580908 -0.790569 0.790569 
C -0.580908 1.000231 -0.296506 1.118034 0 1.118034 
z
" id="maccedb209f" style="stroke:#1f77b4;"/>
    </defs>
    <g clip-path="url(#p58a9371570)">
     <use style="fill:#1f77b4;stroke:#1f77b4;" x="115.363636" xlink:href="#maccedb209f" y="243.558761"/>
     <use style="fill:#1f77b4;stroke:#1f77b4;" x="126.391304" xlink:href="#maccedb209f" y="289.304587"/>
     <use style="fill:#1f77b4;stroke:#1f77b4;" x="137.418972" xlink:href="#maccedb209f" y="298.324891"/>
     <use style="fill:#1f77b4;stroke:#1f77b4;" x="148.44664" xlink:href="#maccedb209f" y="269.406858"/>
     <use style="fill:#1f77b4;stroke:#1f77b4;" x="159.474308" xlink:href="#maccedb209f" y="271.756685"/>
     <use style="fill:#1f77b4;stroke:#1f77b4;" x="170.501976" xlink:href="#maccedb209f" y="299.234501"/>
     <use style="fill:#1f77b4;stroke:#1f77b4;" x="181.529644" xlink:href="#maccedb209f" y="305.298571"/>
     <use style="fill:#1f77b4;stroke:#1f77b4;" x="192.557312" xlink:href="#maccedb209f" y="194.705099"/>
     <use style="fill:#1f77b4;stroke:#1f77b4;" x="203.58498" xlink:href="#maccedb209f" y="270.505971"/>
     <use style="fill:#1f77b4;stroke:#1f77b4;" x="214.612648" xlink:href="#maccedb209f" y="291.161709"/>
     <use style="fill:#1f77b4;stroke:#1f77b4;" x="225.640316" xlink:href="#maccedb209f" y="282.141405"/>
     <use style="fill:#1f77b4;stroke:#1f77b4;" x="236.667984" xlink:href="#maccedb209f" y="230.558911"/>
     <use style="fill:#1f77b4;stroke:#1f77b4;" x="247.695652" xlink:href="#maccedb209f" y="290.176297"/>
     <use style="fill:#1f77b4;stroke:#1f77b4;" x="258.72332" xlink:href="#maccedb209f" y="279.677876"/>
     <use style="fill:#1f77b4;stroke:#1f77b4;" x="269.750988" xlink:href="#maccedb209f" y="280.928591"/>
     <use style="fill:#1f77b4;stroke:#1f77b4;" x="280.778656" xlink:href="#maccedb209f" y="299.499804"/>
     <use style="fill:#1f77b4;stroke:#1f77b4;" x="291.806324" xlink:href="#maccedb209f" y="293.852639"/>
     <use style="fill:#1f77b4;stroke:#1f77b4;" x="302.833992" xlink:href="#maccedb209f" y="301.243225"/>
     <use style="fill:#1f77b4;stroke:#1f77b4;" x="313.86166" xlink:href="#maccedb209f" y="281.686599"/>
     <use style="fill:#1f77b4;stroke:#1f77b4;" x="324.889328" xlink:href="#maccedb209f" y="292.450323"/>
     <use style="fill:#1f77b4;stroke:#1f77b4;" x="335.916996" xlink:href="#maccedb209f" y="298.817597"/>
     <use style="fill:#1f77b4;stroke:#1f77b4;" x="346.944664" xlink:href="#maccedb209f" y="153.355723"/>
     <use style="fill:#1f77b4;stroke:#1f77b4;" x="357.972332" xlink:href="#maccedb209f" y="264.934607"/>
     <use style="fill:#1f77b4;stroke:#1f77b4;" x="369" xlink:href="#maccedb209f" y="297.642683"/>
     <use style="fill:#1f77b4;stroke:#1f77b4;" x="380.027668" xlink:href="#maccedb209f" y="289.797293"/>
     <use style="fill:#1f77b4;stroke:#1f77b4;" x="391.055336" xlink:href="#maccedb209f" y="299.95461"/>
     <use style="fill:#1f77b4;stroke:#1f77b4;" x="402.083004" xlink:href="#maccedb209f" y="272.21149"/>
     <use style="fill:#1f77b4;stroke:#1f77b4;" x="413.110672" xlink:href="#maccedb209f" y="303.593052"/>
     <use style="fill:#1f77b4;stroke:#1f77b4;" x="424.13834" xlink:href="#maccedb209f" y="253.109671"/>
     <use style="fill:#1f77b4;stroke:#1f77b4;" x="435.166008" xlink:href="#maccedb209f" y="283.278418"/>
     <use style="fill:#1f77b4;stroke:#1f77b4;" x="446.193676" xlink:href="#maccedb209f" y="272.590495"/>
     <use style="fill:#1f77b4;stroke:#1f77b4;" x="457.221344" xlink:href="#maccedb209f" y="263.645992"/>
     <use style="fill:#1f77b4;stroke:#1f77b4;" x="468.249012" xlink:href="#maccedb209f" y="55.8"/>
     <use style="fill:#1f77b4;stroke:#1f77b4;" x="479.27668" xlink:href="#maccedb209f" y="292.033419"/>
     <use style="fill:#1f77b4;stroke:#1f77b4;" x="490.304348" xlink:href="#maccedb209f" y="296.088765"/>
     <use style="fill:#1f77b4;stroke:#1f77b4;" x="501.332016" xlink:href="#maccedb209f" y="232.112829"/>
     <use style="fill:#1f77b4;stroke:#1f77b4;" x="512.359684" xlink:href="#maccedb209f" y="277.290149"/>
     <use style="fill:#1f77b4;stroke:#1f77b4;" x="523.387352" xlink:href="#maccedb209f" y="175.71698"/>
     <use style="fill:#1f77b4;stroke:#1f77b4;" x="534.41502" xlink:href="#maccedb209f" y="272.17359"/>
     <use style="fill:#1f77b4;stroke:#1f77b4;" x="545.442688" xlink:href="#maccedb209f" y="289.039284"/>
     <use style="fill:#1f77b4;stroke:#1f77b4;" x="556.470356" xlink:href="#maccedb209f" y="297.37738"/>
     <use style="fill:#1f77b4;stroke:#1f77b4;" x="567.498024" xlink:href="#maccedb209f" y="306.397684"/>
     <use style="fill:#1f77b4;stroke:#1f77b4;" x="578.525692" xlink:href="#maccedb209f" y="260.424455"/>
     <use style="fill:#1f77b4;stroke:#1f77b4;" x="589.55336" xlink:href="#maccedb209f" y="284.188028"/>
     <use style="fill:#1f77b4;stroke:#1f77b4;" x="600.581028" xlink:href="#maccedb209f" y="279.185171"/>
     <use style="fill:#1f77b4;stroke:#1f77b4;" x="611.608696" xlink:href="#maccedb209f" y="271.832486"/>
     <use style="fill:#1f77b4;stroke:#1f77b4;" x="622.636364" xlink:href="#maccedb209f" y="242.118544"/>
    </g>
   </g>
   <g id="PathCollection_2">
    <defs>
     <path d="M 0 1.118034 
C 0.296506 1.118034 0.580908 1.000231 0.790569 0.790569 
C 1.000231 0.580908 1.118034 0.296506 1.118034 0 
C 1.118034 -0.296506 1.000231 -0.580908 0.790569 -0.790569 
C 0.580908 -1.000231 0.296506 -1.118034 0 -1.118034 
C -0.296506 -1.118034 -0.580908 -1.000231 -0.790569 -0.790569 
C -1.000231 -0.580908 -1.118034 -0.296506 -1.118034 0 
C -1.118034 0.296506 -1.000231 0.580908 -0.790569 0.790569 
C -0.580908 1.000231 -0.296506 1.118034 0 1.118034 
z
" id="m903bd23816" style="stroke:#ff7f0e;"/>
    </defs>
    <g clip-path="url(#p58a9371570)">
     <use style="fill:#ff7f0e;stroke:#ff7f0e;" x="115.363636" xlink:href="#m903bd23816" y="286.234652"/>
     <use style="fill:#ff7f0e;stroke:#ff7f0e;" x="126.391304" xlink:href="#m903bd23816" y="281.610799"/>
     <use style="fill:#ff7f0e;stroke:#ff7f0e;" x="137.418972" xlink:href="#m903bd23816" y="288.319176"/>
     <use style="fill:#ff7f0e;stroke:#ff7f0e;" x="148.44664" xlink:href="#m903bd23816" y="288.69818"/>
     <use style="fill:#ff7f0e;stroke:#ff7f0e;" x="159.474308" xlink:href="#m903bd23816" y="284.415431"/>
     <use style="fill:#ff7f0e;stroke:#ff7f0e;" x="170.501976" xlink:href="#m903bd23816" y="299.95461"/>
     <use style="fill:#ff7f0e;stroke:#ff7f0e;" x="181.529644" xlink:href="#m903bd23816" y="298.059588"/>
     <use style="fill:#ff7f0e;stroke:#ff7f0e;" x="192.557312" xlink:href="#m903bd23816" y="220.287893"/>
     <use style="fill:#ff7f0e;stroke:#ff7f0e;" x="203.58498" xlink:href="#m903bd23816" y="284.188028"/>
     <use style="fill:#ff7f0e;stroke:#ff7f0e;" x="214.612648" xlink:href="#m903bd23816" y="274.258114"/>
     <use style="fill:#ff7f0e;stroke:#ff7f0e;" x="225.640316" xlink:href="#m903bd23816" y="279.260972"/>
     <use style="fill:#ff7f0e;stroke:#ff7f0e;" x="236.667984" xlink:href="#m903bd23816" y="256.52071"/>
     <use style="fill:#ff7f0e;stroke:#ff7f0e;" x="247.695652" xlink:href="#m903bd23816" y="305.525974"/>
     <use style="fill:#ff7f0e;stroke:#ff7f0e;" x="258.72332" xlink:href="#m903bd23816" y="301.69803"/>
     <use style="fill:#ff7f0e;stroke:#ff7f0e;" x="269.750988" xlink:href="#m903bd23816" y="249.963934"/>
     <use style="fill:#ff7f0e;stroke:#ff7f0e;" x="280.778656" xlink:href="#m903bd23816" y="270.202767"/>
     <use style="fill:#ff7f0e;stroke:#ff7f0e;" x="291.806324" xlink:href="#m903bd23816" y="157.790074"/>
     <use style="fill:#ff7f0e;stroke:#ff7f0e;" x="302.833992" xlink:href="#m903bd23816" y="258.112528"/>
     <use style="fill:#ff7f0e;stroke:#ff7f0e;" x="313.86166" xlink:href="#m903bd23816" y="274.561317"/>
     <use style="fill:#ff7f0e;stroke:#ff7f0e;" x="324.889328" xlink:href="#m903bd23816" y="298.021687"/>
     <use style="fill:#ff7f0e;stroke:#ff7f0e;" x="335.916996" xlink:href="#m903bd23816" y="295.444458"/>
     <use style="fill:#ff7f0e;stroke:#ff7f0e;" x="346.944664" xlink:href="#m903bd23816" y="289.910994"/>
     <use style="fill:#ff7f0e;stroke:#ff7f0e;" x="357.972332" xlink:href="#m903bd23816" y="240.488825"/>
     <use style="fill:#ff7f0e;stroke:#ff7f0e;" x="369" xlink:href="#m903bd23816" y="259.893849"/>
     <use style="fill:#ff7f0e;stroke:#ff7f0e;" x="380.027668" xlink:href="#m903bd23816" y="278.313461"/>
     <use style="fill:#ff7f0e;stroke:#ff7f0e;" x="391.055336" xlink:href="#m903bd23816" y="274.220214"/>
     <use style="fill:#ff7f0e;stroke:#ff7f0e;" x="402.083004" xlink:href="#m903bd23816" y="290.972206"/>
     <use style="fill:#ff7f0e;stroke:#ff7f0e;" x="413.110672" xlink:href="#m903bd23816" y="289.797293"/>
     <use style="fill:#ff7f0e;stroke:#ff7f0e;" x="424.13834" xlink:href="#m903bd23816" y="288.053873"/>
     <use style="fill:#ff7f0e;stroke:#ff7f0e;" x="435.166008" xlink:href="#m903bd23816" y="290.138397"/>
     <use style="fill:#ff7f0e;stroke:#ff7f0e;" x="446.193676" xlink:href="#m903bd23816" y="267.473936"/>
     <use style="fill:#ff7f0e;stroke:#ff7f0e;" x="457.221344" xlink:href="#m903bd23816" y="284.832336"/>
     <use style="fill:#ff7f0e;stroke:#ff7f0e;" x="468.249012" xlink:href="#m903bd23816" y="269.217356"/>
     <use style="fill:#ff7f0e;stroke:#ff7f0e;" x="479.27668" xlink:href="#m903bd23816" y="292.943029"/>
     <use style="fill:#ff7f0e;stroke:#ff7f0e;" x="490.304348" xlink:href="#m903bd23816" y="297.983787"/>
     <use style="fill:#ff7f0e;stroke:#ff7f0e;" x="501.332016" xlink:href="#m903bd23816" y="289.190886"/>
     <use style="fill:#ff7f0e;stroke:#ff7f0e;" x="512.359684" xlink:href="#m903bd23816" y="276.570041"/>
     <use style="fill:#ff7f0e;stroke:#ff7f0e;" x="523.387352" xlink:href="#m903bd23816" y="247.273003"/>
     <use style="fill:#ff7f0e;stroke:#ff7f0e;" x="534.41502" xlink:href="#m903bd23816" y="241.208934"/>
     <use style="fill:#ff7f0e;stroke:#ff7f0e;" x="545.442688" xlink:href="#m903bd23816" y="293.246233"/>
     <use style="fill:#ff7f0e;stroke:#ff7f0e;" x="556.470356" xlink:href="#m903bd23816" y="293.284133"/>
     <use style="fill:#ff7f0e;stroke:#ff7f0e;" x="567.498024" xlink:href="#m903bd23816" y="291.578613"/>
     <use style="fill:#ff7f0e;stroke:#ff7f0e;" x="578.525692" xlink:href="#m903bd23816" y="93.624635"/>
     <use style="fill:#ff7f0e;stroke:#ff7f0e;" x="589.55336" xlink:href="#m903bd23816" y="243.066055"/>
     <use style="fill:#ff7f0e;stroke:#ff7f0e;" x="600.581028" xlink:href="#m903bd23816" y="292.564025"/>
     <use style="fill:#ff7f0e;stroke:#ff7f0e;" x="611.608696" xlink:href="#m903bd23816" y="241.322635"/>
     <use style="fill:#ff7f0e;stroke:#ff7f0e;" x="622.636364" xlink:href="#m903bd23816" y="293.663137"/>
    </g>
   </g>
   <g id="PathCollection_3">
    <defs>
     <path d="M 0 1.118034 
C 0.296506 1.118034 0.580908 1.000231 0.790569 0.790569 
C 1.000231 0.580908 1.118034 0.296506 1.118034 0 
C 1.118034 -0.296506 1.000231 -0.580908 0.790569 -0.790569 
C 0.580908 -1.000231 0.296506 -1.118034 0 -1.118034 
C -0.296506 -1.118034 -0.580908 -1.000231 -0.790569 -0.790569 
C -1.000231 -0.580908 -1.118034 -0.296506 -1.118034 0 
C -1.118034 0.296506 -1.000231 0.580908 -0.790569 0.790569 
C -0.580908 1.000231 -0.296506 1.118034 0 1.118034 
z
" id="m291928c65d" style="stroke:#2ca02c;"/>
    </defs>
    <g clip-path="url(#p58a9371570)">
     <use style="fill:#2ca02c;stroke:#2ca02c;" x="115.363636" xlink:href="#m291928c65d" y="249.319627"/>
     <use style="fill:#2ca02c;stroke:#2ca02c;" x="126.391304" xlink:href="#m291928c65d" y="242.800752"/>
     <use style="fill:#2ca02c;stroke:#2ca02c;" x="137.418972" xlink:href="#m291928c65d" y="254.701489"/>
     <use style="fill:#2ca02c;stroke:#2ca02c;" x="148.44664" xlink:href="#m291928c65d" y="257.127117"/>
     <use style="fill:#2ca02c;stroke:#2ca02c;" x="159.474308" xlink:href="#m291928c65d" y="232.112829"/>
     <use style="fill:#2ca02c;stroke:#2ca02c;" x="170.501976" xlink:href="#m291928c65d" y="248.144713"/>
     <use style="fill:#2ca02c;stroke:#2ca02c;" x="181.529644" xlink:href="#m291928c65d" y="279.791578"/>
     <use style="fill:#2ca02c;stroke:#2ca02c;" x="192.557312" xlink:href="#m291928c65d" y="196.865423"/>
     <use style="fill:#2ca02c;stroke:#2ca02c;" x="203.58498" xlink:href="#m291928c65d" y="214.906031"/>
     <use style="fill:#2ca02c;stroke:#2ca02c;" x="214.612648" xlink:href="#m291928c65d" y="247.045601"/>
     <use style="fill:#2ca02c;stroke:#2ca02c;" x="225.640316" xlink:href="#m291928c65d" y="270.43017"/>
     <use style="fill:#2ca02c;stroke:#2ca02c;" x="236.667984" xlink:href="#m291928c65d" y="285.21134"/>
     <use style="fill:#2ca02c;stroke:#2ca02c;" x="247.695652" xlink:href="#m291928c65d" y="282.63411"/>
     <use style="fill:#2ca02c;stroke:#2ca02c;" x="258.72332" xlink:href="#m291928c65d" y="294.004241"/>
     <use style="fill:#2ca02c;stroke:#2ca02c;" x="269.750988" xlink:href="#m291928c65d" y="307.8"/>
     <use style="fill:#2ca02c;stroke:#2ca02c;" x="280.778656" xlink:href="#m291928c65d" y="271.188179"/>
     <use style="fill:#2ca02c;stroke:#2ca02c;" x="291.806324" xlink:href="#m291928c65d" y="213.12471"/>
     <use style="fill:#2ca02c;stroke:#2ca02c;" x="302.833992" xlink:href="#m291928c65d" y="219.567785"/>
     <use style="fill:#2ca02c;stroke:#2ca02c;" x="313.86166" xlink:href="#m291928c65d" y="270.240668"/>
     <use style="fill:#2ca02c;stroke:#2ca02c;" x="324.889328" xlink:href="#m291928c65d" y="285.552444"/>
     <use style="fill:#2ca02c;stroke:#2ca02c;" x="335.916996" xlink:href="#m291928c65d" y="278.086058"/>
     <use style="fill:#2ca02c;stroke:#2ca02c;" x="346.944664" xlink:href="#m291928c65d" y="252.616965"/>
     <use style="fill:#2ca02c;stroke:#2ca02c;" x="357.972332" xlink:href="#m291928c65d" y="259.249541"/>
     <use style="fill:#2ca02c;stroke:#2ca02c;" x="369" xlink:href="#m291928c65d" y="258.681035"/>
     <use style="fill:#2ca02c;stroke:#2ca02c;" x="380.027668" xlink:href="#m291928c65d" y="260.234953"/>
     <use style="fill:#2ca02c;stroke:#2ca02c;" x="391.055336" xlink:href="#m291928c65d" y="251.479952"/>
     <use style="fill:#2ca02c;stroke:#2ca02c;" x="402.083004" xlink:href="#m291928c65d" y="280.094781"/>
     <use style="fill:#2ca02c;stroke:#2ca02c;" x="413.110672" xlink:href="#m291928c65d" y="261.71307"/>
     <use style="fill:#2ca02c;stroke:#2ca02c;" x="424.13834" xlink:href="#m291928c65d" y="264.138698"/>
     <use style="fill:#2ca02c;stroke:#2ca02c;" x="435.166008" xlink:href="#m291928c65d" y="259.628546"/>
     <use style="fill:#2ca02c;stroke:#2ca02c;" x="446.193676" xlink:href="#m291928c65d" y="219.757287"/>
     <use style="fill:#2ca02c;stroke:#2ca02c;" x="457.221344" xlink:href="#m291928c65d" y="259.09794"/>
     <use style="fill:#2ca02c;stroke:#2ca02c;" x="468.249012" xlink:href="#m291928c65d" y="224.191638"/>
     <use style="fill:#2ca02c;stroke:#2ca02c;" x="479.27668" xlink:href="#m291928c65d" y="267.322334"/>
     <use style="fill:#2ca02c;stroke:#2ca02c;" x="490.304348" xlink:href="#m291928c65d" y="242.838652"/>
     <use style="fill:#2ca02c;stroke:#2ca02c;" x="501.332016" xlink:href="#m291928c65d" y="239.427613"/>
     <use style="fill:#2ca02c;stroke:#2ca02c;" x="512.359684" xlink:href="#m291928c65d" y="249.319627"/>
     <use style="fill:#2ca02c;stroke:#2ca02c;" x="523.387352" xlink:href="#m291928c65d" y="187.04921"/>
     <use style="fill:#2ca02c;stroke:#2ca02c;" x="534.41502" xlink:href="#m291928c65d" y="240.299323"/>
     <use style="fill:#2ca02c;stroke:#2ca02c;" x="545.442688" xlink:href="#m291928c65d" y="261.637269"/>
     <use style="fill:#2ca02c;stroke:#2ca02c;" x="556.470356" xlink:href="#m291928c65d" y="293.663137"/>
     <use style="fill:#2ca02c;stroke:#2ca02c;" x="567.498024" xlink:href="#m291928c65d" y="293.397834"/>
     <use style="fill:#2ca02c;stroke:#2ca02c;" x="578.525692" xlink:href="#m291928c65d" y="267.587637"/>
     <use style="fill:#2ca02c;stroke:#2ca02c;" x="589.55336" xlink:href="#m291928c65d" y="244.506272"/>
     <use style="fill:#2ca02c;stroke:#2ca02c;" x="600.581028" xlink:href="#m291928c65d" y="273.462205"/>
     <use style="fill:#2ca02c;stroke:#2ca02c;" x="611.608696" xlink:href="#m291928c65d" y="268.042442"/>
     <use style="fill:#2ca02c;stroke:#2ca02c;" x="622.636364" xlink:href="#m291928c65d" y="283.46792"/>
    </g>
   </g>
   <g id="PathCollection_4">
    <defs>
     <path d="M 0 1.118034 
C 0.296506 1.118034 0.580908 1.000231 0.790569 0.790569 
C 1.000231 0.580908 1.118034 0.296506 1.118034 0 
C 1.118034 -0.296506 1.000231 -0.580908 0.790569 -0.790569 
C 0.580908 -1.000231 0.296506 -1.118034 0 -1.118034 
C -0.296506 -1.118034 -0.580908 -1.000231 -0.790569 -0.790569 
C -1.000231 -0.580908 -1.118034 -0.296506 -1.118034 0 
C -1.118034 0.296506 -1.000231 0.580908 -0.790569 0.790569 
C -0.580908 1.000231 -0.296506 1.118034 0 1.118034 
z
" id="m26bf0e9c81" style="stroke:#d62728;"/>
    </defs>
    <g clip-path="url(#p58a9371570)">
     <use style="fill:#d62728;stroke:#d62728;" x="115.363636" xlink:href="#m26bf0e9c81" y="283.50582"/>
     <use style="fill:#d62728;stroke:#d62728;" x="126.391304" xlink:href="#m26bf0e9c81" y="269.520559"/>
     <use style="fill:#d62728;stroke:#d62728;" x="137.418972" xlink:href="#m26bf0e9c81" y="270.771274"/>
     <use style="fill:#d62728;stroke:#d62728;" x="148.44664" xlink:href="#m26bf0e9c81" y="293.92844"/>
     <use style="fill:#d62728;stroke:#d62728;" x="159.474308" xlink:href="#m26bf0e9c81" y="278.010257"/>
     <use style="fill:#d62728;stroke:#d62728;" x="170.501976" xlink:href="#m26bf0e9c81" y="261.144563"/>
     <use style="fill:#d62728;stroke:#d62728;" x="181.529644" xlink:href="#m26bf0e9c81" y="299.1208"/>
     <use style="fill:#d62728;stroke:#d62728;" x="192.557312" xlink:href="#m26bf0e9c81" y="275.774131"/>
     <use style="fill:#d62728;stroke:#d62728;" x="203.58498" xlink:href="#m26bf0e9c81" y="263.608091"/>
     <use style="fill:#d62728;stroke:#d62728;" x="214.612648" xlink:href="#m26bf0e9c81" y="285.855647"/>
     <use style="fill:#d62728;stroke:#d62728;" x="225.640316" xlink:href="#m26bf0e9c81" y="288.053873"/>
     <use style="fill:#d62728;stroke:#d62728;" x="236.667984" xlink:href="#m26bf0e9c81" y="303.47935"/>
     <use style="fill:#d62728;stroke:#d62728;" x="247.695652" xlink:href="#m26bf0e9c81" y="304.540562"/>
     <use style="fill:#d62728;stroke:#d62728;" x="258.72332" xlink:href="#m26bf0e9c81" y="305.374372"/>
     <use style="fill:#d62728;stroke:#d62728;" x="269.750988" xlink:href="#m26bf0e9c81" y="299.007099"/>
     <use style="fill:#d62728;stroke:#d62728;" x="280.778656" xlink:href="#m26bf0e9c81" y="295.785562"/>
     <use style="fill:#d62728;stroke:#d62728;" x="291.806324" xlink:href="#m26bf0e9c81" y="285.476643"/>
     <use style="fill:#d62728;stroke:#d62728;" x="302.833992" xlink:href="#m26bf0e9c81" y="278.654565"/>
     <use style="fill:#d62728;stroke:#d62728;" x="313.86166" xlink:href="#m26bf0e9c81" y="288.394977"/>
     <use style="fill:#d62728;stroke:#d62728;" x="324.889328" xlink:href="#m26bf0e9c81" y="281.534998"/>
     <use style="fill:#d62728;stroke:#d62728;" x="335.916996" xlink:href="#m26bf0e9c81" y="298.24909"/>
     <use style="fill:#d62728;stroke:#d62728;" x="346.944664" xlink:href="#m26bf0e9c81" y="286.95476"/>
     <use style="fill:#d62728;stroke:#d62728;" x="357.972332" xlink:href="#m26bf0e9c81" y="272.021988"/>
     <use style="fill:#d62728;stroke:#d62728;" x="369" xlink:href="#m26bf0e9c81" y="275.129824"/>
     <use style="fill:#d62728;stroke:#d62728;" x="380.027668" xlink:href="#m26bf0e9c81" y="267.473936"/>
     <use style="fill:#d62728;stroke:#d62728;" x="391.055336" xlink:href="#m26bf0e9c81" y="280.625387"/>
     <use style="fill:#d62728;stroke:#d62728;" x="402.083004" xlink:href="#m26bf0e9c81" y="290.252098"/>
     <use style="fill:#d62728;stroke:#d62728;" x="413.110672" xlink:href="#m26bf0e9c81" y="288.584479"/>
     <use style="fill:#d62728;stroke:#d62728;" x="424.13834" xlink:href="#m26bf0e9c81" y="273.159001"/>
     <use style="fill:#d62728;stroke:#d62728;" x="435.166008" xlink:href="#m26bf0e9c81" y="292.488224"/>
     <use style="fill:#d62728;stroke:#d62728;" x="446.193676" xlink:href="#m26bf0e9c81" y="294.572748"/>
     <use style="fill:#d62728;stroke:#d62728;" x="457.221344" xlink:href="#m26bf0e9c81" y="295.937163"/>
     <use style="fill:#d62728;stroke:#d62728;" x="468.249012" xlink:href="#m26bf0e9c81" y="225.593954"/>
     <use style="fill:#d62728;stroke:#d62728;" x="479.27668" xlink:href="#m26bf0e9c81" y="285.779847"/>
     <use style="fill:#d62728;stroke:#d62728;" x="490.304348" xlink:href="#m26bf0e9c81" y="291.31331"/>
     <use style="fill:#d62728;stroke:#d62728;" x="501.332016" xlink:href="#m26bf0e9c81" y="286.878959"/>
     <use style="fill:#d62728;stroke:#d62728;" x="512.359684" xlink:href="#m26bf0e9c81" y="281.193894"/>
     <use style="fill:#d62728;stroke:#d62728;" x="523.387352" xlink:href="#m26bf0e9c81" y="272.666296"/>
     <use style="fill:#d62728;stroke:#d62728;" x="534.41502" xlink:href="#m26bf0e9c81" y="291.351211"/>
     <use style="fill:#d62728;stroke:#d62728;" x="545.442688" xlink:href="#m26bf0e9c81" y="293.246233"/>
     <use style="fill:#d62728;stroke:#d62728;" x="556.470356" xlink:href="#m26bf0e9c81" y="289.759392"/>
     <use style="fill:#d62728;stroke:#d62728;" x="567.498024" xlink:href="#m26bf0e9c81" y="285.969349"/>
     <use style="fill:#d62728;stroke:#d62728;" x="578.525692" xlink:href="#m26bf0e9c81" y="301.281125"/>
     <use style="fill:#d62728;stroke:#d62728;" x="589.55336" xlink:href="#m26bf0e9c81" y="299.916709"/>
     <use style="fill:#d62728;stroke:#d62728;" x="600.581028" xlink:href="#m26bf0e9c81" y="304.502662"/>
     <use style="fill:#d62728;stroke:#d62728;" x="611.608696" xlink:href="#m26bf0e9c81" y="300.86422"/>
     <use style="fill:#d62728;stroke:#d62728;" x="622.636364" xlink:href="#m26bf0e9c81" y="299.007099"/>
    </g>
   </g>
   <g id="PathCollection_5">
    <defs>
     <path d="M 0 1.118034 
C 0.296506 1.118034 0.580908 1.000231 0.790569 0.790569 
C 1.000231 0.580908 1.118034 0.296506 1.118034 0 
C 1.118034 -0.296506 1.000231 -0.580908 0.790569 -0.790569 
C 0.580908 -1.000231 0.296506 -1.118034 0 -1.118034 
C -0.296506 -1.118034 -0.580908 -1.000231 -0.790569 -0.790569 
C -1.000231 -0.580908 -1.118034 -0.296506 -1.118034 0 
C -1.118034 0.296506 -1.000231 0.580908 -0.790569 0.790569 
C -0.580908 1.000231 -0.296506 1.118034 0 1.118034 
z
" id="mb39b90f4e7" style="stroke:#9467bd;"/>
    </defs>
    <g clip-path="url(#p58a9371570)">
     <use style="fill:#9467bd;stroke:#9467bd;" x="115.363636" xlink:href="#mb39b90f4e7" y="251.669454"/>
     <use style="fill:#9467bd;stroke:#9467bd;" x="126.391304" xlink:href="#mb39b90f4e7" y="219.795187"/>
     <use style="fill:#9467bd;stroke:#9467bd;" x="137.418972" xlink:href="#mb39b90f4e7" y="285.552444"/>
     <use style="fill:#9467bd;stroke:#9467bd;" x="148.44664" xlink:href="#mb39b90f4e7" y="212.632005"/>
     <use style="fill:#9467bd;stroke:#9467bd;" x="159.474308" xlink:href="#mb39b90f4e7" y="234.121552"/>
     <use style="fill:#9467bd;stroke:#9467bd;" x="170.501976" xlink:href="#mb39b90f4e7" y="265.389412"/>
     <use style="fill:#9467bd;stroke:#9467bd;" x="181.529644" xlink:href="#mb39b90f4e7" y="267.625538"/>
     <use style="fill:#9467bd;stroke:#9467bd;" x="192.557312" xlink:href="#mb39b90f4e7" y="180.302933"/>
     <use style="fill:#9467bd;stroke:#9467bd;" x="203.58498" xlink:href="#mb39b90f4e7" y="248.296315"/>
     <use style="fill:#9467bd;stroke:#9467bd;" x="214.612648" xlink:href="#mb39b90f4e7" y="266.94333"/>
     <use style="fill:#9467bd;stroke:#9467bd;" x="225.640316" xlink:href="#mb39b90f4e7" y="263.608091"/>
     <use style="fill:#9467bd;stroke:#9467bd;" x="236.667984" xlink:href="#mb39b90f4e7" y="233.780448"/>
     <use style="fill:#9467bd;stroke:#9467bd;" x="247.695652" xlink:href="#mb39b90f4e7" y="281.838201"/>
     <use style="fill:#9467bd;stroke:#9467bd;" x="258.72332" xlink:href="#mb39b90f4e7" y="300.940021"/>
     <use style="fill:#9467bd;stroke:#9467bd;" x="269.750988" xlink:href="#mb39b90f4e7" y="290.782704"/>
     <use style="fill:#9467bd;stroke:#9467bd;" x="280.778656" xlink:href="#mb39b90f4e7" y="273.575906"/>
     <use style="fill:#9467bd;stroke:#9467bd;" x="291.806324" xlink:href="#mb39b90f4e7" y="246.477094"/>
     <use style="fill:#9467bd;stroke:#9467bd;" x="302.833992" xlink:href="#mb39b90f4e7" y="274.144413"/>
     <use style="fill:#9467bd;stroke:#9467bd;" x="313.86166" xlink:href="#mb39b90f4e7" y="241.398436"/>
     <use style="fill:#9467bd;stroke:#9467bd;" x="324.889328" xlink:href="#mb39b90f4e7" y="268.72465"/>
     <use style="fill:#9467bd;stroke:#9467bd;" x="335.916996" xlink:href="#mb39b90f4e7" y="292.071319"/>
     <use style="fill:#9467bd;stroke:#9467bd;" x="346.944664" xlink:href="#mb39b90f4e7" y="257.468221"/>
     <use style="fill:#9467bd;stroke:#9467bd;" x="357.972332" xlink:href="#mb39b90f4e7" y="257.468221"/>
     <use style="fill:#9467bd;stroke:#9467bd;" x="369" xlink:href="#mb39b90f4e7" y="234.576357"/>
     <use style="fill:#9467bd;stroke:#9467bd;" x="380.027668" xlink:href="#mb39b90f4e7" y="261.409866"/>
     <use style="fill:#9467bd;stroke:#9467bd;" x="391.055336" xlink:href="#mb39b90f4e7" y="220.780599"/>
     <use style="fill:#9467bd;stroke:#9467bd;" x="402.083004" xlink:href="#mb39b90f4e7" y="284.567033"/>
     <use style="fill:#9467bd;stroke:#9467bd;" x="413.110672" xlink:href="#mb39b90f4e7" y="255.990104"/>
     <use style="fill:#9467bd;stroke:#9467bd;" x="424.13834" xlink:href="#mb39b90f4e7" y="268.914153"/>
     <use style="fill:#9467bd;stroke:#9467bd;" x="435.166008" xlink:href="#mb39b90f4e7" y="259.704347"/>
     <use style="fill:#9467bd;stroke:#9467bd;" x="446.193676" xlink:href="#mb39b90f4e7" y="286.95476"/>
     <use style="fill:#9467bd;stroke:#9467bd;" x="457.221344" xlink:href="#mb39b90f4e7" y="263.380689"/>
     <use style="fill:#9467bd;stroke:#9467bd;" x="468.249012" xlink:href="#mb39b90f4e7" y="263.721793"/>
     <use style="fill:#9467bd;stroke:#9467bd;" x="479.27668" xlink:href="#mb39b90f4e7" y="288.584479"/>
     <use style="fill:#9467bd;stroke:#9467bd;" x="490.304348" xlink:href="#mb39b90f4e7" y="259.13584"/>
     <use style="fill:#9467bd;stroke:#9467bd;" x="501.332016" xlink:href="#mb39b90f4e7" y="270.543871"/>
     <use style="fill:#9467bd;stroke:#9467bd;" x="512.359684" xlink:href="#mb39b90f4e7" y="249.698631"/>
     <use style="fill:#9467bd;stroke:#9467bd;" x="523.387352" xlink:href="#mb39b90f4e7" y="270.354369"/>
     <use style="fill:#9467bd;stroke:#9467bd;" x="534.41502" xlink:href="#mb39b90f4e7" y="269.55846"/>
     <use style="fill:#9467bd;stroke:#9467bd;" x="545.442688" xlink:href="#mb39b90f4e7" y="232.719236"/>
     <use style="fill:#9467bd;stroke:#9467bd;" x="556.470356" xlink:href="#mb39b90f4e7" y="280.246383"/>
     <use style="fill:#9467bd;stroke:#9467bd;" x="567.498024" xlink:href="#mb39b90f4e7" y="288.167574"/>
     <use style="fill:#9467bd;stroke:#9467bd;" x="578.525692" xlink:href="#mb39b90f4e7" y="280.056881"/>
     <use style="fill:#9467bd;stroke:#9467bd;" x="589.55336" xlink:href="#mb39b90f4e7" y="249.812333"/>
     <use style="fill:#9467bd;stroke:#9467bd;" x="600.581028" xlink:href="#mb39b90f4e7" y="264.783005"/>
     <use style="fill:#9467bd;stroke:#9467bd;" x="611.608696" xlink:href="#mb39b90f4e7" y="295.67186"/>
     <use style="fill:#9467bd;stroke:#9467bd;" x="622.636364" xlink:href="#mb39b90f4e7" y="259.628546"/>
    </g>
   </g>
   <g id="PathCollection_6">
    <defs>
     <path d="M 0 1.118034 
C 0.296506 1.118034 0.580908 1.000231 0.790569 0.790569 
C 1.000231 0.580908 1.118034 0.296506 1.118034 0 
C 1.118034 -0.296506 1.000231 -0.580908 0.790569 -0.790569 
C 0.580908 -1.000231 0.296506 -1.118034 0 -1.118034 
C -0.296506 -1.118034 -0.580908 -1.000231 -0.790569 -0.790569 
C -1.000231 -0.580908 -1.118034 -0.296506 -1.118034 0 
C -1.118034 0.296506 -1.000231 0.580908 -0.790569 0.790569 
C -0.580908 1.000231 -0.296506 1.118034 0 1.118034 
z
" id="m101187fea9" style="stroke:#8c564b;"/>
    </defs>
    <g clip-path="url(#p58a9371570)">
     <use style="fill:#8c564b;stroke:#8c564b;" x="115.363636" xlink:href="#m101187fea9" y="299.651406"/>
     <use style="fill:#8c564b;stroke:#8c564b;" x="126.391304" xlink:href="#m101187fea9" y="286.196751"/>
     <use style="fill:#8c564b;stroke:#8c564b;" x="137.418972" xlink:href="#m101187fea9" y="293.435735"/>
     <use style="fill:#8c564b;stroke:#8c564b;" x="148.44664" xlink:href="#m101187fea9" y="297.794285"/>
     <use style="fill:#8c564b;stroke:#8c564b;" x="159.474308" xlink:href="#m101187fea9" y="298.324891"/>
     <use style="fill:#8c564b;stroke:#8c564b;" x="170.501976" xlink:href="#m101187fea9" y="295.937163"/>
     <use style="fill:#8c564b;stroke:#8c564b;" x="181.529644" xlink:href="#m101187fea9" y="307.724199"/>
     <use style="fill:#8c564b;stroke:#8c564b;" x="192.557312" xlink:href="#m101187fea9" y="282.709911"/>
     <use style="fill:#8c564b;stroke:#8c564b;" x="203.58498" xlink:href="#m101187fea9" y="285.287141"/>
     <use style="fill:#8c564b;stroke:#8c564b;" x="214.612648" xlink:href="#m101187fea9" y="292.564025"/>
     <use style="fill:#8c564b;stroke:#8c564b;" x="225.640316" xlink:href="#m101187fea9" y="306.511385"/>
     <use style="fill:#8c564b;stroke:#8c564b;" x="236.667984" xlink:href="#m101187fea9" y="303.403549"/>
     <use style="fill:#8c564b;stroke:#8c564b;" x="247.695652" xlink:href="#m101187fea9" y="305.336472"/>
     <use style="fill:#8c564b;stroke:#8c564b;" x="258.72332" xlink:href="#m101187fea9" y="304.995368"/>
     <use style="fill:#8c564b;stroke:#8c564b;" x="269.750988" xlink:href="#m101187fea9" y="307.610498"/>
     <use style="fill:#8c564b;stroke:#8c564b;" x="280.778656" xlink:href="#m101187fea9" y="293.92844"/>
     <use style="fill:#8c564b;stroke:#8c564b;" x="291.806324" xlink:href="#m101187fea9" y="298.665995"/>
     <use style="fill:#8c564b;stroke:#8c564b;" x="302.833992" xlink:href="#m101187fea9" y="299.310302"/>
     <use style="fill:#8c564b;stroke:#8c564b;" x="313.86166" xlink:href="#m101187fea9" y="295.63396"/>
     <use style="fill:#8c564b;stroke:#8c564b;" x="324.889328" xlink:href="#m101187fea9" y="305.450173"/>
     <use style="fill:#8c564b;stroke:#8c564b;" x="335.916996" xlink:href="#m101187fea9" y="306.283983"/>
     <use style="fill:#8c564b;stroke:#8c564b;" x="346.944664" xlink:href="#m101187fea9" y="292.18502"/>
     <use style="fill:#8c564b;stroke:#8c564b;" x="357.972332" xlink:href="#m101187fea9" y="286.537855"/>
     <use style="fill:#8c564b;stroke:#8c564b;" x="369" xlink:href="#m101187fea9" y="290.327899"/>
     <use style="fill:#8c564b;stroke:#8c564b;" x="380.027668" xlink:href="#m101187fea9" y="291.881817"/>
     <use style="fill:#8c564b;stroke:#8c564b;" x="391.055336" xlink:href="#m101187fea9" y="299.537705"/>
     <use style="fill:#8c564b;stroke:#8c564b;" x="402.083004" xlink:href="#m101187fea9" y="303.327749"/>
     <use style="fill:#8c564b;stroke:#8c564b;" x="413.110672" xlink:href="#m101187fea9" y="295.254956"/>
     <use style="fill:#8c564b;stroke:#8c564b;" x="424.13834" xlink:href="#m101187fea9" y="299.916709"/>
     <use style="fill:#8c564b;stroke:#8c564b;" x="435.166008" xlink:href="#m101187fea9" y="292.298722"/>
     <use style="fill:#8c564b;stroke:#8c564b;" x="446.193676" xlink:href="#m101187fea9" y="288.508678"/>
     <use style="fill:#8c564b;stroke:#8c564b;" x="457.221344" xlink:href="#m101187fea9" y="290.289998"/>
     <use style="fill:#8c564b;stroke:#8c564b;" x="468.249012" xlink:href="#m101187fea9" y="281.004392"/>
     <use style="fill:#8c564b;stroke:#8c564b;" x="479.27668" xlink:href="#m101187fea9" y="298.135389"/>
     <use style="fill:#8c564b;stroke:#8c564b;" x="490.304348" xlink:href="#m101187fea9" y="292.753527"/>
     <use style="fill:#8c564b;stroke:#8c564b;" x="501.332016" xlink:href="#m101187fea9" y="288.167574"/>
     <use style="fill:#8c564b;stroke:#8c564b;" x="512.359684" xlink:href="#m101187fea9" y="292.033419"/>
     <use style="fill:#8c564b;stroke:#8c564b;" x="523.387352" xlink:href="#m101187fea9" y="276.153136"/>
     <use style="fill:#8c564b;stroke:#8c564b;" x="534.41502" xlink:href="#m101187fea9" y="296.164566"/>
     <use style="fill:#8c564b;stroke:#8c564b;" x="545.442688" xlink:href="#m101187fea9" y="305.715476"/>
     <use style="fill:#8c564b;stroke:#8c564b;" x="556.470356" xlink:href="#m101187fea9" y="303.176147"/>
     <use style="fill:#8c564b;stroke:#8c564b;" x="567.498024" xlink:href="#m101187fea9" y="307.231493"/>
     <use style="fill:#8c564b;stroke:#8c564b;" x="578.525692" xlink:href="#m101187fea9" y="303.668852"/>
     <use style="fill:#8c564b;stroke:#8c564b;" x="589.55336" xlink:href="#m101187fea9" y="291.27541"/>
     <use style="fill:#8c564b;stroke:#8c564b;" x="600.581028" xlink:href="#m101187fea9" y="296.012964"/>
     <use style="fill:#8c564b;stroke:#8c564b;" x="611.608696" xlink:href="#m101187fea9" y="290.4037"/>
     <use style="fill:#8c564b;stroke:#8c564b;" x="622.636364" xlink:href="#m101187fea9" y="297.036276"/>
    </g>
   </g>
   <g id="matplotlib.axis_1">
    <g id="xtick_1">
     <g id="line2d_1">
      <defs>
       <path d="M 0 0 
L 0 3.5 
" id="mef9213e08c" style="stroke:#000000;stroke-width:0.8;"/>
      </defs>
      <g>
       <use style="stroke:#000000;stroke-width:0.8;" x="137.418972" xlink:href="#mef9213e08c" y="320.4"/>
      </g>
     </g>
     <g id="text_1">
      <!-- 2020-04-01 -->
      <defs>
       <path d="M 19.1875 8.296875 
L 53.609375 8.296875 
L 53.609375 0 
L 7.328125 0 
L 7.328125 8.296875 
Q 12.9375 14.109375 22.625 23.890625 
Q 32.328125 33.6875 34.8125 36.53125 
Q 39.546875 41.84375 41.421875 45.53125 
Q 43.3125 49.21875 43.3125 52.78125 
Q 43.3125 58.59375 39.234375 62.25 
Q 35.15625 65.921875 28.609375 65.921875 
Q 23.96875 65.921875 18.8125 64.3125 
Q 13.671875 62.703125 7.8125 59.421875 
L 7.8125 69.390625 
Q 13.765625 71.78125 18.9375 73 
Q 24.125 74.21875 28.421875 74.21875 
Q 39.75 74.21875 46.484375 68.546875 
Q 53.21875 62.890625 53.21875 53.421875 
Q 53.21875 48.921875 51.53125 44.890625 
Q 49.859375 40.875 45.40625 35.40625 
Q 44.1875 33.984375 37.640625 27.21875 
Q 31.109375 20.453125 19.1875 8.296875 
z
" id="DejaVuSans-50"/>
       <path d="M 31.78125 66.40625 
Q 24.171875 66.40625 20.328125 58.90625 
Q 16.5 51.421875 16.5 36.375 
Q 16.5 21.390625 20.328125 13.890625 
Q 24.171875 6.390625 31.78125 6.390625 
Q 39.453125 6.390625 43.28125 13.890625 
Q 47.125 21.390625 47.125 36.375 
Q 47.125 51.421875 43.28125 58.90625 
Q 39.453125 66.40625 31.78125 66.40625 
z
M 31.78125 74.21875 
Q 44.046875 74.21875 50.515625 64.515625 
Q 56.984375 54.828125 56.984375 36.375 
Q 56.984375 17.96875 50.515625 8.265625 
Q 44.046875 -1.421875 31.78125 -1.421875 
Q 19.53125 -1.421875 13.0625 8.265625 
Q 6.59375 17.96875 6.59375 36.375 
Q 6.59375 54.828125 13.0625 64.515625 
Q 19.53125 74.21875 31.78125 74.21875 
z
" id="DejaVuSans-48"/>
       <path d="M 4.890625 31.390625 
L 31.203125 31.390625 
L 31.203125 23.390625 
L 4.890625 23.390625 
z
" id="DejaVuSans-45"/>
       <path d="M 37.796875 64.3125 
L 12.890625 25.390625 
L 37.796875 25.390625 
z
M 35.203125 72.90625 
L 47.609375 72.90625 
L 47.609375 25.390625 
L 58.015625 25.390625 
L 58.015625 17.1875 
L 47.609375 17.1875 
L 47.609375 0 
L 37.796875 0 
L 37.796875 17.1875 
L 4.890625 17.1875 
L 4.890625 26.703125 
z
" id="DejaVuSans-52"/>
       <path d="M 12.40625 8.296875 
L 28.515625 8.296875 
L 28.515625 63.921875 
L 10.984375 60.40625 
L 10.984375 69.390625 
L 28.421875 72.90625 
L 38.28125 72.90625 
L 38.28125 8.296875 
L 54.390625 8.296875 
L 54.390625 0 
L 12.40625 0 
z
" id="DejaVuSans-49"/>
      </defs>
      <g transform="translate(108.36116 334.998438)scale(0.1 -0.1)">
       <use xlink:href="#DejaVuSans-50"/>
       <use x="63.623047" xlink:href="#DejaVuSans-48"/>
       <use x="127.246094" xlink:href="#DejaVuSans-50"/>
       <use x="190.869141" xlink:href="#DejaVuSans-48"/>
       <use x="254.492188" xlink:href="#DejaVuSans-45"/>
       <use x="290.576172" xlink:href="#DejaVuSans-48"/>
       <use x="354.199219" xlink:href="#DejaVuSans-52"/>
       <use x="417.822266" xlink:href="#DejaVuSans-45"/>
       <use x="453.90625" xlink:href="#DejaVuSans-48"/>
       <use x="517.529297" xlink:href="#DejaVuSans-49"/>
      </g>
     </g>
    </g>
    <g id="xtick_2">
     <g id="line2d_2">
      <g>
       <use style="stroke:#000000;stroke-width:0.8;" x="214.612648" xlink:href="#mef9213e08c" y="320.4"/>
      </g>
     </g>
     <g id="text_2">
      <!-- 2020-04-08 -->
      <defs>
       <path d="M 31.78125 34.625 
Q 24.75 34.625 20.71875 30.859375 
Q 16.703125 27.09375 16.703125 20.515625 
Q 16.703125 13.921875 20.71875 10.15625 
Q 24.75 6.390625 31.78125 6.390625 
Q 38.8125 6.390625 42.859375 10.171875 
Q 46.921875 13.96875 46.921875 20.515625 
Q 46.921875 27.09375 42.890625 30.859375 
Q 38.875 34.625 31.78125 34.625 
z
M 21.921875 38.8125 
Q 15.578125 40.375 12.03125 44.71875 
Q 8.5 49.078125 8.5 55.328125 
Q 8.5 64.0625 14.71875 69.140625 
Q 20.953125 74.21875 31.78125 74.21875 
Q 42.671875 74.21875 48.875 69.140625 
Q 55.078125 64.0625 55.078125 55.328125 
Q 55.078125 49.078125 51.53125 44.71875 
Q 48 40.375 41.703125 38.8125 
Q 48.828125 37.15625 52.796875 32.3125 
Q 56.78125 27.484375 56.78125 20.515625 
Q 56.78125 9.90625 50.3125 4.234375 
Q 43.84375 -1.421875 31.78125 -1.421875 
Q 19.734375 -1.421875 13.25 4.234375 
Q 6.78125 9.90625 6.78125 20.515625 
Q 6.78125 27.484375 10.78125 32.3125 
Q 14.796875 37.15625 21.921875 38.8125 
z
M 18.3125 54.390625 
Q 18.3125 48.734375 21.84375 45.5625 
Q 25.390625 42.390625 31.78125 42.390625 
Q 38.140625 42.390625 41.71875 45.5625 
Q 45.3125 48.734375 45.3125 54.390625 
Q 45.3125 60.0625 41.71875 63.234375 
Q 38.140625 66.40625 31.78125 66.40625 
Q 25.390625 66.40625 21.84375 63.234375 
Q 18.3125 60.0625 18.3125 54.390625 
z
" id="DejaVuSans-56"/>
      </defs>
      <g transform="translate(185.554836 334.998438)scale(0.1 -0.1)">
       <use xlink:href="#DejaVuSans-50"/>
       <use x="63.623047" xlink:href="#DejaVuSans-48"/>
       <use x="127.246094" xlink:href="#DejaVuSans-50"/>
       <use x="190.869141" xlink:href="#DejaVuSans-48"/>
       <use x="254.492188" xlink:href="#DejaVuSans-45"/>
       <use x="290.576172" xlink:href="#DejaVuSans-48"/>
       <use x="354.199219" xlink:href="#DejaVuSans-52"/>
       <use x="417.822266" xlink:href="#DejaVuSans-45"/>
       <use x="453.90625" xlink:href="#DejaVuSans-48"/>
       <use x="517.529297" xlink:href="#DejaVuSans-56"/>
      </g>
     </g>
    </g>
    <g id="xtick_3">
     <g id="line2d_3">
      <g>
       <use style="stroke:#000000;stroke-width:0.8;" x="291.806324" xlink:href="#mef9213e08c" y="320.4"/>
      </g>
     </g>
     <g id="text_3">
      <!-- 2020-04-15 -->
      <defs>
       <path d="M 10.796875 72.90625 
L 49.515625 72.90625 
L 49.515625 64.59375 
L 19.828125 64.59375 
L 19.828125 46.734375 
Q 21.96875 47.46875 24.109375 47.828125 
Q 26.265625 48.1875 28.421875 48.1875 
Q 40.625 48.1875 47.75 41.5 
Q 54.890625 34.8125 54.890625 23.390625 
Q 54.890625 11.625 47.5625 5.09375 
Q 40.234375 -1.421875 26.90625 -1.421875 
Q 22.3125 -1.421875 17.546875 -0.640625 
Q 12.796875 0.140625 7.71875 1.703125 
L 7.71875 11.625 
Q 12.109375 9.234375 16.796875 8.0625 
Q 21.484375 6.890625 26.703125 6.890625 
Q 35.15625 6.890625 40.078125 11.328125 
Q 45.015625 15.765625 45.015625 23.390625 
Q 45.015625 31 40.078125 35.4375 
Q 35.15625 39.890625 26.703125 39.890625 
Q 22.75 39.890625 18.8125 39.015625 
Q 14.890625 38.140625 10.796875 36.28125 
z
" id="DejaVuSans-53"/>
      </defs>
      <g transform="translate(262.748512 334.998438)scale(0.1 -0.1)">
       <use xlink:href="#DejaVuSans-50"/>
       <use x="63.623047" xlink:href="#DejaVuSans-48"/>
       <use x="127.246094" xlink:href="#DejaVuSans-50"/>
       <use x="190.869141" xlink:href="#DejaVuSans-48"/>
       <use x="254.492188" xlink:href="#DejaVuSans-45"/>
       <use x="290.576172" xlink:href="#DejaVuSans-48"/>
       <use x="354.199219" xlink:href="#DejaVuSans-52"/>
       <use x="417.822266" xlink:href="#DejaVuSans-45"/>
       <use x="453.90625" xlink:href="#DejaVuSans-49"/>
       <use x="517.529297" xlink:href="#DejaVuSans-53"/>
      </g>
     </g>
    </g>
    <g id="xtick_4">
     <g id="line2d_4">
      <g>
       <use style="stroke:#000000;stroke-width:0.8;" x="369" xlink:href="#mef9213e08c" y="320.4"/>
      </g>
     </g>
     <g id="text_4">
      <!-- 2020-04-22 -->
      <g transform="translate(339.942188 334.998438)scale(0.1 -0.1)">
       <use xlink:href="#DejaVuSans-50"/>
       <use x="63.623047" xlink:href="#DejaVuSans-48"/>
       <use x="127.246094" xlink:href="#DejaVuSans-50"/>
       <use x="190.869141" xlink:href="#DejaVuSans-48"/>
       <use x="254.492188" xlink:href="#DejaVuSans-45"/>
       <use x="290.576172" xlink:href="#DejaVuSans-48"/>
       <use x="354.199219" xlink:href="#DejaVuSans-52"/>
       <use x="417.822266" xlink:href="#DejaVuSans-45"/>
       <use x="453.90625" xlink:href="#DejaVuSans-50"/>
       <use x="517.529297" xlink:href="#DejaVuSans-50"/>
      </g>
     </g>
    </g>
    <g id="xtick_5">
     <g id="line2d_5">
      <g>
       <use style="stroke:#000000;stroke-width:0.8;" x="468.249012" xlink:href="#mef9213e08c" y="320.4"/>
      </g>
     </g>
     <g id="text_5">
      <!-- 2020-05-01 -->
      <g transform="translate(439.191199 334.998438)scale(0.1 -0.1)">
       <use xlink:href="#DejaVuSans-50"/>
       <use x="63.623047" xlink:href="#DejaVuSans-48"/>
       <use x="127.246094" xlink:href="#DejaVuSans-50"/>
       <use x="190.869141" xlink:href="#DejaVuSans-48"/>
       <use x="254.492188" xlink:href="#DejaVuSans-45"/>
       <use x="290.576172" xlink:href="#DejaVuSans-48"/>
       <use x="354.199219" xlink:href="#DejaVuSans-53"/>
       <use x="417.822266" xlink:href="#DejaVuSans-45"/>
       <use x="453.90625" xlink:href="#DejaVuSans-48"/>
       <use x="517.529297" xlink:href="#DejaVuSans-49"/>
      </g>
     </g>
    </g>
    <g id="xtick_6">
     <g id="line2d_6">
      <g>
       <use style="stroke:#000000;stroke-width:0.8;" x="545.442688" xlink:href="#mef9213e08c" y="320.4"/>
      </g>
     </g>
     <g id="text_6">
      <!-- 2020-05-08 -->
      <g transform="translate(516.384875 334.998438)scale(0.1 -0.1)">
       <use xlink:href="#DejaVuSans-50"/>
       <use x="63.623047" xlink:href="#DejaVuSans-48"/>
       <use x="127.246094" xlink:href="#DejaVuSans-50"/>
       <use x="190.869141" xlink:href="#DejaVuSans-48"/>
       <use x="254.492188" xlink:href="#DejaVuSans-45"/>
       <use x="290.576172" xlink:href="#DejaVuSans-48"/>
       <use x="354.199219" xlink:href="#DejaVuSans-53"/>
       <use x="417.822266" xlink:href="#DejaVuSans-45"/>
       <use x="453.90625" xlink:href="#DejaVuSans-48"/>
       <use x="517.529297" xlink:href="#DejaVuSans-56"/>
      </g>
     </g>
    </g>
    <g id="xtick_7">
     <g id="line2d_7">
      <g>
       <use style="stroke:#000000;stroke-width:0.8;" x="622.636364" xlink:href="#mef9213e08c" y="320.4"/>
      </g>
     </g>
     <g id="text_7">
      <!-- 2020-05-15 -->
      <g transform="translate(593.578551 334.998438)scale(0.1 -0.1)">
       <use xlink:href="#DejaVuSans-50"/>
       <use x="63.623047" xlink:href="#DejaVuSans-48"/>
       <use x="127.246094" xlink:href="#DejaVuSans-50"/>
       <use x="190.869141" xlink:href="#DejaVuSans-48"/>
       <use x="254.492188" xlink:href="#DejaVuSans-45"/>
       <use x="290.576172" xlink:href="#DejaVuSans-48"/>
       <use x="354.199219" xlink:href="#DejaVuSans-53"/>
       <use x="417.822266" xlink:href="#DejaVuSans-45"/>
       <use x="453.90625" xlink:href="#DejaVuSans-49"/>
       <use x="517.529297" xlink:href="#DejaVuSans-53"/>
      </g>
     </g>
    </g>
    <g id="text_8">
     <!-- Date -->
     <defs>
      <path d="M 19.671875 64.796875 
L 19.671875 8.109375 
L 31.59375 8.109375 
Q 46.6875 8.109375 53.6875 14.9375 
Q 60.6875 21.78125 60.6875 36.53125 
Q 60.6875 51.171875 53.6875 57.984375 
Q 46.6875 64.796875 31.59375 64.796875 
z
M 9.8125 72.90625 
L 30.078125 72.90625 
Q 51.265625 72.90625 61.171875 64.09375 
Q 71.09375 55.28125 71.09375 36.53125 
Q 71.09375 17.671875 61.125 8.828125 
Q 51.171875 0 30.078125 0 
L 9.8125 0 
z
" id="DejaVuSans-68"/>
      <path d="M 34.28125 27.484375 
Q 23.390625 27.484375 19.1875 25 
Q 14.984375 22.515625 14.984375 16.5 
Q 14.984375 11.71875 18.140625 8.90625 
Q 21.296875 6.109375 26.703125 6.109375 
Q 34.1875 6.109375 38.703125 11.40625 
Q 43.21875 16.703125 43.21875 25.484375 
L 43.21875 27.484375 
z
M 52.203125 31.203125 
L 52.203125 0 
L 43.21875 0 
L 43.21875 8.296875 
Q 40.140625 3.328125 35.546875 0.953125 
Q 30.953125 -1.421875 24.3125 -1.421875 
Q 15.921875 -1.421875 10.953125 3.296875 
Q 6 8.015625 6 15.921875 
Q 6 25.140625 12.171875 29.828125 
Q 18.359375 34.515625 30.609375 34.515625 
L 43.21875 34.515625 
L 43.21875 35.40625 
Q 43.21875 41.609375 39.140625 45 
Q 35.0625 48.390625 27.6875 48.390625 
Q 23 48.390625 18.546875 47.265625 
Q 14.109375 46.140625 10.015625 43.890625 
L 10.015625 52.203125 
Q 14.9375 54.109375 19.578125 55.046875 
Q 24.21875 56 28.609375 56 
Q 40.484375 56 46.34375 49.84375 
Q 52.203125 43.703125 52.203125 31.203125 
z
" id="DejaVuSans-97"/>
      <path d="M 18.3125 70.21875 
L 18.3125 54.6875 
L 36.8125 54.6875 
L 36.8125 47.703125 
L 18.3125 47.703125 
L 18.3125 18.015625 
Q 18.3125 11.328125 20.140625 9.421875 
Q 21.96875 7.515625 27.59375 7.515625 
L 36.8125 7.515625 
L 36.8125 0 
L 27.59375 0 
Q 17.1875 0 13.234375 3.875 
Q 9.28125 7.765625 9.28125 18.015625 
L 9.28125 47.703125 
L 2.6875 47.703125 
L 2.6875 54.6875 
L 9.28125 54.6875 
L 9.28125 70.21875 
z
" id="DejaVuSans-116"/>
      <path d="M 56.203125 29.59375 
L 56.203125 25.203125 
L 14.890625 25.203125 
Q 15.484375 15.921875 20.484375 11.0625 
Q 25.484375 6.203125 34.421875 6.203125 
Q 39.59375 6.203125 44.453125 7.46875 
Q 49.3125 8.734375 54.109375 11.28125 
L 54.109375 2.78125 
Q 49.265625 0.734375 44.1875 -0.34375 
Q 39.109375 -1.421875 33.890625 -1.421875 
Q 20.796875 -1.421875 13.15625 6.1875 
Q 5.515625 13.8125 5.515625 26.8125 
Q 5.515625 40.234375 12.765625 48.109375 
Q 20.015625 56 32.328125 56 
Q 43.359375 56 49.78125 48.890625 
Q 56.203125 41.796875 56.203125 29.59375 
z
M 47.21875 32.234375 
Q 47.125 39.59375 43.09375 43.984375 
Q 39.0625 48.390625 32.421875 48.390625 
Q 24.90625 48.390625 20.390625 44.140625 
Q 15.875 39.890625 15.1875 32.171875 
z
" id="DejaVuSans-101"/>
     </defs>
     <g transform="translate(357.049219 348.676562)scale(0.1 -0.1)">
      <use xlink:href="#DejaVuSans-68"/>
      <use x="77.001953" xlink:href="#DejaVuSans-97"/>
      <use x="138.28125" xlink:href="#DejaVuSans-116"/>
      <use x="177.490234" xlink:href="#DejaVuSans-101"/>
     </g>
    </g>
   </g>
   <g id="matplotlib.axis_2">
    <g id="ytick_1">
     <g id="line2d_8">
      <defs>
       <path d="M 0 0 
L -3.5 0 
" id="me5dc219af4" style="stroke:#000000;stroke-width:0.8;"/>
      </defs>
      <g>
       <use style="stroke:#000000;stroke-width:0.8;" x="90" xlink:href="#me5dc219af4" y="307.8"/>
      </g>
     </g>
     <g id="text_9">
      <!-- 0 -->
      <g transform="translate(76.6375 311.599219)scale(0.1 -0.1)">
       <use xlink:href="#DejaVuSans-48"/>
      </g>
     </g>
    </g>
    <g id="ytick_2">
     <g id="line2d_9">
      <g>
       <use style="stroke:#000000;stroke-width:0.8;" x="90" xlink:href="#me5dc219af4" y="269.899564"/>
      </g>
     </g>
     <g id="text_10">
      <!-- 1000 -->
      <g transform="translate(57.55 273.698783)scale(0.1 -0.1)">
       <use xlink:href="#DejaVuSans-49"/>
       <use x="63.623047" xlink:href="#DejaVuSans-48"/>
       <use x="127.246094" xlink:href="#DejaVuSans-48"/>
       <use x="190.869141" xlink:href="#DejaVuSans-48"/>
      </g>
     </g>
    </g>
    <g id="ytick_3">
     <g id="line2d_10">
      <g>
       <use style="stroke:#000000;stroke-width:0.8;" x="90" xlink:href="#me5dc219af4" y="231.999128"/>
      </g>
     </g>
     <g id="text_11">
      <!-- 2000 -->
      <g transform="translate(57.55 235.798346)scale(0.1 -0.1)">
       <use xlink:href="#DejaVuSans-50"/>
       <use x="63.623047" xlink:href="#DejaVuSans-48"/>
       <use x="127.246094" xlink:href="#DejaVuSans-48"/>
       <use x="190.869141" xlink:href="#DejaVuSans-48"/>
      </g>
     </g>
    </g>
    <g id="ytick_4">
     <g id="line2d_11">
      <g>
       <use style="stroke:#000000;stroke-width:0.8;" x="90" xlink:href="#me5dc219af4" y="194.098692"/>
      </g>
     </g>
     <g id="text_12">
      <!-- 3000 -->
      <defs>
       <path d="M 40.578125 39.3125 
Q 47.65625 37.796875 51.625 33 
Q 55.609375 28.21875 55.609375 21.1875 
Q 55.609375 10.40625 48.1875 4.484375 
Q 40.765625 -1.421875 27.09375 -1.421875 
Q 22.515625 -1.421875 17.65625 -0.515625 
Q 12.796875 0.390625 7.625 2.203125 
L 7.625 11.71875 
Q 11.71875 9.328125 16.59375 8.109375 
Q 21.484375 6.890625 26.8125 6.890625 
Q 36.078125 6.890625 40.9375 10.546875 
Q 45.796875 14.203125 45.796875 21.1875 
Q 45.796875 27.640625 41.28125 31.265625 
Q 36.765625 34.90625 28.71875 34.90625 
L 20.21875 34.90625 
L 20.21875 43.015625 
L 29.109375 43.015625 
Q 36.375 43.015625 40.234375 45.921875 
Q 44.09375 48.828125 44.09375 54.296875 
Q 44.09375 59.90625 40.109375 62.90625 
Q 36.140625 65.921875 28.71875 65.921875 
Q 24.65625 65.921875 20.015625 65.03125 
Q 15.375 64.15625 9.8125 62.3125 
L 9.8125 71.09375 
Q 15.4375 72.65625 20.34375 73.4375 
Q 25.25 74.21875 29.59375 74.21875 
Q 40.828125 74.21875 47.359375 69.109375 
Q 53.90625 64.015625 53.90625 55.328125 
Q 53.90625 49.265625 50.4375 45.09375 
Q 46.96875 40.921875 40.578125 39.3125 
z
" id="DejaVuSans-51"/>
      </defs>
      <g transform="translate(57.55 197.89791)scale(0.1 -0.1)">
       <use xlink:href="#DejaVuSans-51"/>
       <use x="63.623047" xlink:href="#DejaVuSans-48"/>
       <use x="127.246094" xlink:href="#DejaVuSans-48"/>
       <use x="190.869141" xlink:href="#DejaVuSans-48"/>
      </g>
     </g>
    </g>
    <g id="ytick_5">
     <g id="line2d_12">
      <g>
       <use style="stroke:#000000;stroke-width:0.8;" x="90" xlink:href="#me5dc219af4" y="156.198255"/>
      </g>
     </g>
     <g id="text_13">
      <!-- 4000 -->
      <g transform="translate(57.55 159.997474)scale(0.1 -0.1)">
       <use xlink:href="#DejaVuSans-52"/>
       <use x="63.623047" xlink:href="#DejaVuSans-48"/>
       <use x="127.246094" xlink:href="#DejaVuSans-48"/>
       <use x="190.869141" xlink:href="#DejaVuSans-48"/>
      </g>
     </g>
    </g>
    <g id="ytick_6">
     <g id="line2d_13">
      <g>
       <use style="stroke:#000000;stroke-width:0.8;" x="90" xlink:href="#me5dc219af4" y="118.297819"/>
      </g>
     </g>
     <g id="text_14">
      <!-- 5000 -->
      <g transform="translate(57.55 122.097038)scale(0.1 -0.1)">
       <use xlink:href="#DejaVuSans-53"/>
       <use x="63.623047" xlink:href="#DejaVuSans-48"/>
       <use x="127.246094" xlink:href="#DejaVuSans-48"/>
       <use x="190.869141" xlink:href="#DejaVuSans-48"/>
      </g>
     </g>
    </g>
    <g id="ytick_7">
     <g id="line2d_14">
      <g>
       <use style="stroke:#000000;stroke-width:0.8;" x="90" xlink:href="#me5dc219af4" y="80.397383"/>
      </g>
     </g>
     <g id="text_15">
      <!-- 6000 -->
      <defs>
       <path d="M 33.015625 40.375 
Q 26.375 40.375 22.484375 35.828125 
Q 18.609375 31.296875 18.609375 23.390625 
Q 18.609375 15.53125 22.484375 10.953125 
Q 26.375 6.390625 33.015625 6.390625 
Q 39.65625 6.390625 43.53125 10.953125 
Q 47.40625 15.53125 47.40625 23.390625 
Q 47.40625 31.296875 43.53125 35.828125 
Q 39.65625 40.375 33.015625 40.375 
z
M 52.59375 71.296875 
L 52.59375 62.3125 
Q 48.875 64.0625 45.09375 64.984375 
Q 41.3125 65.921875 37.59375 65.921875 
Q 27.828125 65.921875 22.671875 59.328125 
Q 17.53125 52.734375 16.796875 39.40625 
Q 19.671875 43.65625 24.015625 45.921875 
Q 28.375 48.1875 33.59375 48.1875 
Q 44.578125 48.1875 50.953125 41.515625 
Q 57.328125 34.859375 57.328125 23.390625 
Q 57.328125 12.15625 50.6875 5.359375 
Q 44.046875 -1.421875 33.015625 -1.421875 
Q 20.359375 -1.421875 13.671875 8.265625 
Q 6.984375 17.96875 6.984375 36.375 
Q 6.984375 53.65625 15.1875 63.9375 
Q 23.390625 74.21875 37.203125 74.21875 
Q 40.921875 74.21875 44.703125 73.484375 
Q 48.484375 72.75 52.59375 71.296875 
z
" id="DejaVuSans-54"/>
      </defs>
      <g transform="translate(57.55 84.196602)scale(0.1 -0.1)">
       <use xlink:href="#DejaVuSans-54"/>
       <use x="63.623047" xlink:href="#DejaVuSans-48"/>
       <use x="127.246094" xlink:href="#DejaVuSans-48"/>
       <use x="190.869141" xlink:href="#DejaVuSans-48"/>
      </g>
     </g>
    </g>
    <g id="text_16">
     <!-- Retweet count -->
     <defs>
      <path d="M 44.390625 34.1875 
Q 47.5625 33.109375 50.5625 29.59375 
Q 53.5625 26.078125 56.59375 19.921875 
L 66.609375 0 
L 56 0 
L 46.6875 18.703125 
Q 43.0625 26.03125 39.671875 28.421875 
Q 36.28125 30.8125 30.421875 30.8125 
L 19.671875 30.8125 
L 19.671875 0 
L 9.8125 0 
L 9.8125 72.90625 
L 32.078125 72.90625 
Q 44.578125 72.90625 50.734375 67.671875 
Q 56.890625 62.453125 56.890625 51.90625 
Q 56.890625 45.015625 53.6875 40.46875 
Q 50.484375 35.9375 44.390625 34.1875 
z
M 19.671875 64.796875 
L 19.671875 38.921875 
L 32.078125 38.921875 
Q 39.203125 38.921875 42.84375 42.21875 
Q 46.484375 45.515625 46.484375 51.90625 
Q 46.484375 58.296875 42.84375 61.546875 
Q 39.203125 64.796875 32.078125 64.796875 
z
" id="DejaVuSans-82"/>
      <path d="M 4.203125 54.6875 
L 13.1875 54.6875 
L 24.421875 12.015625 
L 35.59375 54.6875 
L 46.1875 54.6875 
L 57.421875 12.015625 
L 68.609375 54.6875 
L 77.59375 54.6875 
L 63.28125 0 
L 52.6875 0 
L 40.921875 44.828125 
L 29.109375 0 
L 18.5 0 
z
" id="DejaVuSans-119"/>
      <path id="DejaVuSans-32"/>
      <path d="M 48.78125 52.59375 
L 48.78125 44.1875 
Q 44.96875 46.296875 41.140625 47.34375 
Q 37.3125 48.390625 33.40625 48.390625 
Q 24.65625 48.390625 19.8125 42.84375 
Q 14.984375 37.3125 14.984375 27.296875 
Q 14.984375 17.28125 19.8125 11.734375 
Q 24.65625 6.203125 33.40625 6.203125 
Q 37.3125 6.203125 41.140625 7.25 
Q 44.96875 8.296875 48.78125 10.40625 
L 48.78125 2.09375 
Q 45.015625 0.34375 40.984375 -0.53125 
Q 36.96875 -1.421875 32.421875 -1.421875 
Q 20.0625 -1.421875 12.78125 6.34375 
Q 5.515625 14.109375 5.515625 27.296875 
Q 5.515625 40.671875 12.859375 48.328125 
Q 20.21875 56 33.015625 56 
Q 37.15625 56 41.109375 55.140625 
Q 45.0625 54.296875 48.78125 52.59375 
z
" id="DejaVuSans-99"/>
      <path d="M 30.609375 48.390625 
Q 23.390625 48.390625 19.1875 42.75 
Q 14.984375 37.109375 14.984375 27.296875 
Q 14.984375 17.484375 19.15625 11.84375 
Q 23.34375 6.203125 30.609375 6.203125 
Q 37.796875 6.203125 41.984375 11.859375 
Q 46.1875 17.53125 46.1875 27.296875 
Q 46.1875 37.015625 41.984375 42.703125 
Q 37.796875 48.390625 30.609375 48.390625 
z
M 30.609375 56 
Q 42.328125 56 49.015625 48.375 
Q 55.71875 40.765625 55.71875 27.296875 
Q 55.71875 13.875 49.015625 6.21875 
Q 42.328125 -1.421875 30.609375 -1.421875 
Q 18.84375 -1.421875 12.171875 6.21875 
Q 5.515625 13.875 5.515625 27.296875 
Q 5.515625 40.765625 12.171875 48.375 
Q 18.84375 56 30.609375 56 
z
" id="DejaVuSans-111"/>
      <path d="M 8.5 21.578125 
L 8.5 54.6875 
L 17.484375 54.6875 
L 17.484375 21.921875 
Q 17.484375 14.15625 20.5 10.265625 
Q 23.53125 6.390625 29.59375 6.390625 
Q 36.859375 6.390625 41.078125 11.03125 
Q 45.3125 15.671875 45.3125 23.6875 
L 45.3125 54.6875 
L 54.296875 54.6875 
L 54.296875 0 
L 45.3125 0 
L 45.3125 8.40625 
Q 42.046875 3.421875 37.71875 1 
Q 33.40625 -1.421875 27.6875 -1.421875 
Q 18.265625 -1.421875 13.375 4.4375 
Q 8.5 10.296875 8.5 21.578125 
z
M 31.109375 56 
z
" id="DejaVuSans-117"/>
      <path d="M 54.890625 33.015625 
L 54.890625 0 
L 45.90625 0 
L 45.90625 32.71875 
Q 45.90625 40.484375 42.875 44.328125 
Q 39.84375 48.1875 33.796875 48.1875 
Q 26.515625 48.1875 22.3125 43.546875 
Q 18.109375 38.921875 18.109375 30.90625 
L 18.109375 0 
L 9.078125 0 
L 9.078125 54.6875 
L 18.109375 54.6875 
L 18.109375 46.1875 
Q 21.34375 51.125 25.703125 53.5625 
Q 30.078125 56 35.796875 56 
Q 45.21875 56 50.046875 50.171875 
Q 54.890625 44.34375 54.890625 33.015625 
z
" id="DejaVuSans-110"/>
     </defs>
     <g transform="translate(51.470312 217.983594)rotate(-90)scale(0.1 -0.1)">
      <use xlink:href="#DejaVuSans-82"/>
      <use x="64.982422" xlink:href="#DejaVuSans-101"/>
      <use x="126.505859" xlink:href="#DejaVuSans-116"/>
      <use x="165.714844" xlink:href="#DejaVuSans-119"/>
      <use x="247.501953" xlink:href="#DejaVuSans-101"/>
      <use x="309.025391" xlink:href="#DejaVuSans-101"/>
      <use x="370.548828" xlink:href="#DejaVuSans-116"/>
      <use x="409.757812" xlink:href="#DejaVuSans-32"/>
      <use x="441.544922" xlink:href="#DejaVuSans-99"/>
      <use x="496.525391" xlink:href="#DejaVuSans-111"/>
      <use x="557.707031" xlink:href="#DejaVuSans-117"/>
      <use x="621.085938" xlink:href="#DejaVuSans-110"/>
      <use x="684.464844" xlink:href="#DejaVuSans-116"/>
     </g>
    </g>
   </g>
   <g id="line2d_15">
    <path clip-path="url(#p58a9371570)" d="M 115.363636 243.558761 
L 126.391304 289.304587 
L 137.418972 298.324891 
L 148.44664 269.406858 
L 159.474308 271.756685 
L 170.501976 299.234501 
L 181.529644 305.298571 
L 192.557312 194.705099 
L 203.58498 270.505971 
L 214.612648 291.161709 
L 225.640316 282.141405 
L 236.667984 230.558911 
L 247.695652 290.176297 
L 258.72332 279.677876 
L 269.750988 280.928591 
L 280.778656 299.499804 
L 291.806324 293.852639 
L 302.833992 301.243225 
L 313.86166 281.686599 
L 324.889328 292.450323 
L 335.916996 298.817597 
L 346.944664 153.355723 
L 357.972332 264.934607 
L 369 297.642683 
L 380.027668 289.797293 
L 391.055336 299.95461 
L 402.083004 272.21149 
L 413.110672 303.593052 
L 424.13834 253.109671 
L 435.166008 283.278418 
L 446.193676 272.590495 
L 457.221344 263.645992 
L 468.249012 55.8 
L 479.27668 292.033419 
L 490.304348 296.088765 
L 501.332016 232.112829 
L 512.359684 277.290149 
L 523.387352 175.71698 
L 534.41502 272.17359 
L 545.442688 289.039284 
L 556.470356 297.37738 
L 567.498024 306.397684 
L 578.525692 260.424455 
L 589.55336 284.188028 
L 600.581028 279.185171 
L 611.608696 271.832486 
L 622.636364 242.118544 
" style="fill:none;stroke:#1f77b4;stroke-linecap:square;stroke-width:1.5;"/>
   </g>
   <g id="line2d_16">
    <path clip-path="url(#p58a9371570)" d="M 115.363636 286.234652 
L 126.391304 281.610799 
L 137.418972 288.319176 
L 148.44664 288.69818 
L 159.474308 284.415431 
L 170.501976 299.95461 
L 181.529644 298.059588 
L 192.557312 220.287893 
L 203.58498 284.188028 
L 214.612648 274.258114 
L 225.640316 279.260972 
L 236.667984 256.52071 
L 247.695652 305.525974 
L 258.72332 301.69803 
L 269.750988 249.963934 
L 280.778656 270.202767 
L 291.806324 157.790074 
L 302.833992 258.112528 
L 313.86166 274.561317 
L 324.889328 298.021687 
L 335.916996 295.444458 
L 346.944664 289.910994 
L 357.972332 240.488825 
L 369 259.893849 
L 380.027668 278.313461 
L 391.055336 274.220214 
L 402.083004 290.972206 
L 413.110672 289.797293 
L 424.13834 288.053873 
L 435.166008 290.138397 
L 446.193676 267.473936 
L 457.221344 284.832336 
L 468.249012 269.217356 
L 479.27668 292.943029 
L 490.304348 297.983787 
L 501.332016 289.190886 
L 512.359684 276.570041 
L 523.387352 247.273003 
L 534.41502 241.208934 
L 545.442688 293.246233 
L 556.470356 293.284133 
L 567.498024 291.578613 
L 578.525692 93.624635 
L 589.55336 243.066055 
L 600.581028 292.564025 
L 611.608696 241.322635 
L 622.636364 293.663137 
" style="fill:none;stroke:#ff7f0e;stroke-linecap:square;stroke-width:1.5;"/>
   </g>
   <g id="line2d_17">
    <path clip-path="url(#p58a9371570)" d="M 115.363636 249.319627 
L 126.391304 242.800752 
L 137.418972 254.701489 
L 148.44664 257.127117 
L 159.474308 232.112829 
L 170.501976 248.144713 
L 181.529644 279.791578 
L 192.557312 196.865423 
L 203.58498 214.906031 
L 214.612648 247.045601 
L 225.640316 270.43017 
L 236.667984 285.21134 
L 247.695652 282.63411 
L 258.72332 294.004241 
L 269.750988 307.8 
L 280.778656 271.188179 
L 291.806324 213.12471 
L 302.833992 219.567785 
L 313.86166 270.240668 
L 324.889328 285.552444 
L 335.916996 278.086058 
L 346.944664 252.616965 
L 357.972332 259.249541 
L 369 258.681035 
L 380.027668 260.234953 
L 391.055336 251.479952 
L 402.083004 280.094781 
L 413.110672 261.71307 
L 424.13834 264.138698 
L 435.166008 259.628546 
L 446.193676 219.757287 
L 457.221344 259.09794 
L 468.249012 224.191638 
L 479.27668 267.322334 
L 490.304348 242.838652 
L 501.332016 239.427613 
L 512.359684 249.319627 
L 523.387352 187.04921 
L 534.41502 240.299323 
L 545.442688 261.637269 
L 556.470356 293.663137 
L 567.498024 293.397834 
L 578.525692 267.587637 
L 589.55336 244.506272 
L 600.581028 273.462205 
L 611.608696 268.042442 
L 622.636364 283.46792 
" style="fill:none;stroke:#2ca02c;stroke-linecap:square;stroke-width:1.5;"/>
   </g>
   <g id="line2d_18">
    <path clip-path="url(#p58a9371570)" d="M 115.363636 283.50582 
L 126.391304 269.520559 
L 137.418972 270.771274 
L 148.44664 293.92844 
L 159.474308 278.010257 
L 170.501976 261.144563 
L 181.529644 299.1208 
L 192.557312 275.774131 
L 203.58498 263.608091 
L 214.612648 285.855647 
L 225.640316 288.053873 
L 236.667984 303.47935 
L 247.695652 304.540562 
L 258.72332 305.374372 
L 269.750988 299.007099 
L 280.778656 295.785562 
L 291.806324 285.476643 
L 302.833992 278.654565 
L 313.86166 288.394977 
L 324.889328 281.534998 
L 335.916996 298.24909 
L 346.944664 286.95476 
L 357.972332 272.021988 
L 369 275.129824 
L 380.027668 267.473936 
L 391.055336 280.625387 
L 402.083004 290.252098 
L 413.110672 288.584479 
L 424.13834 273.159001 
L 435.166008 292.488224 
L 446.193676 294.572748 
L 457.221344 295.937163 
L 468.249012 225.593954 
L 479.27668 285.779847 
L 490.304348 291.31331 
L 501.332016 286.878959 
L 512.359684 281.193894 
L 523.387352 272.666296 
L 534.41502 291.351211 
L 545.442688 293.246233 
L 556.470356 289.759392 
L 567.498024 285.969349 
L 578.525692 301.281125 
L 589.55336 299.916709 
L 600.581028 304.502662 
L 611.608696 300.86422 
L 622.636364 299.007099 
" style="fill:none;stroke:#d62728;stroke-linecap:square;stroke-width:1.5;"/>
   </g>
   <g id="line2d_19">
    <path clip-path="url(#p58a9371570)" d="M 115.363636 251.669454 
L 126.391304 219.795187 
L 137.418972 285.552444 
L 148.44664 212.632005 
L 159.474308 234.121552 
L 170.501976 265.389412 
L 181.529644 267.625538 
L 192.557312 180.302933 
L 203.58498 248.296315 
L 214.612648 266.94333 
L 225.640316 263.608091 
L 236.667984 233.780448 
L 247.695652 281.838201 
L 258.72332 300.940021 
L 269.750988 290.782704 
L 280.778656 273.575906 
L 291.806324 246.477094 
L 302.833992 274.144413 
L 313.86166 241.398436 
L 324.889328 268.72465 
L 335.916996 292.071319 
L 346.944664 257.468221 
L 357.972332 257.468221 
L 369 234.576357 
L 380.027668 261.409866 
L 391.055336 220.780599 
L 402.083004 284.567033 
L 413.110672 255.990104 
L 424.13834 268.914153 
L 435.166008 259.704347 
L 446.193676 286.95476 
L 457.221344 263.380689 
L 468.249012 263.721793 
L 479.27668 288.584479 
L 490.304348 259.13584 
L 501.332016 270.543871 
L 512.359684 249.698631 
L 523.387352 270.354369 
L 534.41502 269.55846 
L 545.442688 232.719236 
L 556.470356 280.246383 
L 567.498024 288.167574 
L 578.525692 280.056881 
L 589.55336 249.812333 
L 600.581028 264.783005 
L 611.608696 295.67186 
L 622.636364 259.628546 
" style="fill:none;stroke:#9467bd;stroke-linecap:square;stroke-width:1.5;"/>
   </g>
   <g id="line2d_20">
    <path clip-path="url(#p58a9371570)" d="M 115.363636 299.651406 
L 126.391304 286.196751 
L 137.418972 293.435735 
L 148.44664 297.794285 
L 159.474308 298.324891 
L 170.501976 295.937163 
L 181.529644 307.724199 
L 192.557312 282.709911 
L 203.58498 285.287141 
L 214.612648 292.564025 
L 225.640316 306.511385 
L 236.667984 303.403549 
L 247.695652 305.336472 
L 258.72332 304.995368 
L 269.750988 307.610498 
L 280.778656 293.92844 
L 291.806324 298.665995 
L 302.833992 299.310302 
L 313.86166 295.63396 
L 324.889328 305.450173 
L 335.916996 306.283983 
L 346.944664 292.18502 
L 357.972332 286.537855 
L 369 290.327899 
L 380.027668 291.881817 
L 391.055336 299.537705 
L 402.083004 303.327749 
L 413.110672 295.254956 
L 424.13834 299.916709 
L 435.166008 292.298722 
L 446.193676 288.508678 
L 457.221344 290.289998 
L 468.249012 281.004392 
L 479.27668 298.135389 
L 490.304348 292.753527 
L 501.332016 288.167574 
L 512.359684 292.033419 
L 523.387352 276.153136 
L 534.41502 296.164566 
L 545.442688 305.715476 
L 556.470356 303.176147 
L 567.498024 307.231493 
L 578.525692 303.668852 
L 589.55336 291.27541 
L 600.581028 296.012964 
L 611.608696 290.4037 
L 622.636364 297.036276 
" style="fill:none;stroke:#8c564b;stroke-linecap:square;stroke-width:1.5;"/>
   </g>
   <g id="patch_3">
    <path d="M 90 320.4 
L 90 43.2 
" style="fill:none;stroke:#000000;stroke-linecap:square;stroke-linejoin:miter;stroke-width:0.8;"/>
   </g>
   <g id="patch_4">
    <path d="M 648 320.4 
L 648 43.2 
" style="fill:none;stroke:#000000;stroke-linecap:square;stroke-linejoin:miter;stroke-width:0.8;"/>
   </g>
   <g id="patch_5">
    <path d="M 90 320.4 
L 648 320.4 
" style="fill:none;stroke:#000000;stroke-linecap:square;stroke-linejoin:miter;stroke-width:0.8;"/>
   </g>
   <g id="patch_6">
    <path d="M 90 43.2 
L 648 43.2 
" style="fill:none;stroke:#000000;stroke-linecap:square;stroke-linejoin:miter;stroke-width:0.8;"/>
   </g>
   <g id="text_17">
    <!-- Retweet count for date for accounts connected to each candidate  -->
    <defs>
     <path d="M 37.109375 75.984375 
L 37.109375 68.5 
L 28.515625 68.5 
Q 23.6875 68.5 21.796875 66.546875 
Q 19.921875 64.59375 19.921875 59.515625 
L 19.921875 54.6875 
L 34.71875 54.6875 
L 34.71875 47.703125 
L 19.921875 47.703125 
L 19.921875 0 
L 10.890625 0 
L 10.890625 47.703125 
L 2.296875 47.703125 
L 2.296875 54.6875 
L 10.890625 54.6875 
L 10.890625 58.5 
Q 10.890625 67.625 15.140625 71.796875 
Q 19.390625 75.984375 28.609375 75.984375 
z
" id="DejaVuSans-102"/>
     <path d="M 41.109375 46.296875 
Q 39.59375 47.171875 37.8125 47.578125 
Q 36.03125 48 33.890625 48 
Q 26.265625 48 22.1875 43.046875 
Q 18.109375 38.09375 18.109375 28.8125 
L 18.109375 0 
L 9.078125 0 
L 9.078125 54.6875 
L 18.109375 54.6875 
L 18.109375 46.1875 
Q 20.953125 51.171875 25.484375 53.578125 
Q 30.03125 56 36.53125 56 
Q 37.453125 56 38.578125 55.875 
Q 39.703125 55.765625 41.0625 55.515625 
z
" id="DejaVuSans-114"/>
     <path d="M 45.40625 46.390625 
L 45.40625 75.984375 
L 54.390625 75.984375 
L 54.390625 0 
L 45.40625 0 
L 45.40625 8.203125 
Q 42.578125 3.328125 38.25 0.953125 
Q 33.9375 -1.421875 27.875 -1.421875 
Q 17.96875 -1.421875 11.734375 6.484375 
Q 5.515625 14.40625 5.515625 27.296875 
Q 5.515625 40.1875 11.734375 48.09375 
Q 17.96875 56 27.875 56 
Q 33.9375 56 38.25 53.625 
Q 42.578125 51.265625 45.40625 46.390625 
z
M 14.796875 27.296875 
Q 14.796875 17.390625 18.875 11.75 
Q 22.953125 6.109375 30.078125 6.109375 
Q 37.203125 6.109375 41.296875 11.75 
Q 45.40625 17.390625 45.40625 27.296875 
Q 45.40625 37.203125 41.296875 42.84375 
Q 37.203125 48.484375 30.078125 48.484375 
Q 22.953125 48.484375 18.875 42.84375 
Q 14.796875 37.203125 14.796875 27.296875 
z
" id="DejaVuSans-100"/>
     <path d="M 44.28125 53.078125 
L 44.28125 44.578125 
Q 40.484375 46.53125 36.375 47.5 
Q 32.28125 48.484375 27.875 48.484375 
Q 21.1875 48.484375 17.84375 46.4375 
Q 14.5 44.390625 14.5 40.28125 
Q 14.5 37.15625 16.890625 35.375 
Q 19.28125 33.59375 26.515625 31.984375 
L 29.59375 31.296875 
Q 39.15625 29.25 43.1875 25.515625 
Q 47.21875 21.78125 47.21875 15.09375 
Q 47.21875 7.46875 41.1875 3.015625 
Q 35.15625 -1.421875 24.609375 -1.421875 
Q 20.21875 -1.421875 15.453125 -0.5625 
Q 10.6875 0.296875 5.421875 2 
L 5.421875 11.28125 
Q 10.40625 8.6875 15.234375 7.390625 
Q 20.0625 6.109375 24.8125 6.109375 
Q 31.15625 6.109375 34.5625 8.28125 
Q 37.984375 10.453125 37.984375 14.40625 
Q 37.984375 18.0625 35.515625 20.015625 
Q 33.0625 21.96875 24.703125 23.78125 
L 21.578125 24.515625 
Q 13.234375 26.265625 9.515625 29.90625 
Q 5.8125 33.546875 5.8125 39.890625 
Q 5.8125 47.609375 11.28125 51.796875 
Q 16.75 56 26.8125 56 
Q 31.78125 56 36.171875 55.265625 
Q 40.578125 54.546875 44.28125 53.078125 
z
" id="DejaVuSans-115"/>
     <path d="M 54.890625 33.015625 
L 54.890625 0 
L 45.90625 0 
L 45.90625 32.71875 
Q 45.90625 40.484375 42.875 44.328125 
Q 39.84375 48.1875 33.796875 48.1875 
Q 26.515625 48.1875 22.3125 43.546875 
Q 18.109375 38.921875 18.109375 30.90625 
L 18.109375 0 
L 9.078125 0 
L 9.078125 75.984375 
L 18.109375 75.984375 
L 18.109375 46.1875 
Q 21.34375 51.125 25.703125 53.5625 
Q 30.078125 56 35.796875 56 
Q 45.21875 56 50.046875 50.171875 
Q 54.890625 44.34375 54.890625 33.015625 
z
" id="DejaVuSans-104"/>
     <path d="M 9.421875 54.6875 
L 18.40625 54.6875 
L 18.40625 0 
L 9.421875 0 
z
M 9.421875 75.984375 
L 18.40625 75.984375 
L 18.40625 64.59375 
L 9.421875 64.59375 
z
" id="DejaVuSans-105"/>
    </defs>
    <g transform="translate(169.66125 37.2)scale(0.12 -0.12)">
     <use xlink:href="#DejaVuSans-82"/>
     <use x="64.982422" xlink:href="#DejaVuSans-101"/>
     <use x="126.505859" xlink:href="#DejaVuSans-116"/>
     <use x="165.714844" xlink:href="#DejaVuSans-119"/>
     <use x="247.501953" xlink:href="#DejaVuSans-101"/>
     <use x="309.025391" xlink:href="#DejaVuSans-101"/>
     <use x="370.548828" xlink:href="#DejaVuSans-116"/>
     <use x="409.757812" xlink:href="#DejaVuSans-32"/>
     <use x="441.544922" xlink:href="#DejaVuSans-99"/>
     <use x="496.525391" xlink:href="#DejaVuSans-111"/>
     <use x="557.707031" xlink:href="#DejaVuSans-117"/>
     <use x="621.085938" xlink:href="#DejaVuSans-110"/>
     <use x="684.464844" xlink:href="#DejaVuSans-116"/>
     <use x="723.673828" xlink:href="#DejaVuSans-32"/>
     <use x="755.460938" xlink:href="#DejaVuSans-102"/>
     <use x="790.666016" xlink:href="#DejaVuSans-111"/>
     <use x="851.847656" xlink:href="#DejaVuSans-114"/>
     <use x="892.960938" xlink:href="#DejaVuSans-32"/>
     <use x="924.748047" xlink:href="#DejaVuSans-100"/>
     <use x="988.224609" xlink:href="#DejaVuSans-97"/>
     <use x="1049.503906" xlink:href="#DejaVuSans-116"/>
     <use x="1088.712891" xlink:href="#DejaVuSans-101"/>
     <use x="1150.236328" xlink:href="#DejaVuSans-32"/>
     <use x="1182.023438" xlink:href="#DejaVuSans-102"/>
     <use x="1217.228516" xlink:href="#DejaVuSans-111"/>
     <use x="1278.410156" xlink:href="#DejaVuSans-114"/>
     <use x="1319.523438" xlink:href="#DejaVuSans-32"/>
     <use x="1351.310547" xlink:href="#DejaVuSans-97"/>
     <use x="1412.589844" xlink:href="#DejaVuSans-99"/>
     <use x="1467.570312" xlink:href="#DejaVuSans-99"/>
     <use x="1522.550781" xlink:href="#DejaVuSans-111"/>
     <use x="1583.732422" xlink:href="#DejaVuSans-117"/>
     <use x="1647.111328" xlink:href="#DejaVuSans-110"/>
     <use x="1710.490234" xlink:href="#DejaVuSans-116"/>
     <use x="1749.699219" xlink:href="#DejaVuSans-115"/>
     <use x="1801.798828" xlink:href="#DejaVuSans-32"/>
     <use x="1833.585938" xlink:href="#DejaVuSans-99"/>
     <use x="1888.566406" xlink:href="#DejaVuSans-111"/>
     <use x="1949.748047" xlink:href="#DejaVuSans-110"/>
     <use x="2013.126953" xlink:href="#DejaVuSans-110"/>
     <use x="2076.505859" xlink:href="#DejaVuSans-101"/>
     <use x="2138.029297" xlink:href="#DejaVuSans-99"/>
     <use x="2193.009766" xlink:href="#DejaVuSans-116"/>
     <use x="2232.21875" xlink:href="#DejaVuSans-101"/>
     <use x="2293.742188" xlink:href="#DejaVuSans-100"/>
     <use x="2357.21875" xlink:href="#DejaVuSans-32"/>
     <use x="2389.005859" xlink:href="#DejaVuSans-116"/>
     <use x="2428.214844" xlink:href="#DejaVuSans-111"/>
     <use x="2489.396484" xlink:href="#DejaVuSans-32"/>
     <use x="2521.183594" xlink:href="#DejaVuSans-101"/>
     <use x="2582.707031" xlink:href="#DejaVuSans-97"/>
     <use x="2643.986328" xlink:href="#DejaVuSans-99"/>
     <use x="2698.966797" xlink:href="#DejaVuSans-104"/>
     <use x="2762.345703" xlink:href="#DejaVuSans-32"/>
     <use x="2794.132812" xlink:href="#DejaVuSans-99"/>
     <use x="2849.113281" xlink:href="#DejaVuSans-97"/>
     <use x="2910.392578" xlink:href="#DejaVuSans-110"/>
     <use x="2973.771484" xlink:href="#DejaVuSans-100"/>
     <use x="3037.248047" xlink:href="#DejaVuSans-105"/>
     <use x="3065.03125" xlink:href="#DejaVuSans-100"/>
     <use x="3128.507812" xlink:href="#DejaVuSans-97"/>
     <use x="3189.787109" xlink:href="#DejaVuSans-116"/>
     <use x="3228.996094" xlink:href="#DejaVuSans-101"/>
     <use x="3290.519531" xlink:href="#DejaVuSans-32"/>
    </g>
   </g>
   <g id="legend_1">
    <g id="patch_7">
     <path d="M 97 139.26875 
L 174.957812 139.26875 
Q 176.957812 139.26875 176.957812 137.26875 
L 176.957812 50.2 
Q 176.957812 48.2 174.957812 48.2 
L 97 48.2 
Q 95 48.2 95 50.2 
L 95 137.26875 
Q 95 139.26875 97 139.26875 
z
" style="fill:#ffffff;opacity:0.8;stroke:#cccccc;stroke-linejoin:miter;"/>
    </g>
    <g id="line2d_21">
     <path d="M 99 56.298437 
L 119 56.298437 
" style="fill:none;stroke:#1f77b4;stroke-linecap:square;stroke-width:1.5;"/>
    </g>
    <g id="line2d_22"/>
    <g id="text_18">
     <!-- Duda -->
     <g transform="translate(127 59.798437)scale(0.1 -0.1)">
      <use xlink:href="#DejaVuSans-68"/>
      <use x="77.001953" xlink:href="#DejaVuSans-117"/>
      <use x="140.380859" xlink:href="#DejaVuSans-100"/>
      <use x="203.857422" xlink:href="#DejaVuSans-97"/>
     </g>
    </g>
    <g id="line2d_23">
     <path d="M 99 70.976562 
L 119 70.976562 
" style="fill:none;stroke:#ff7f0e;stroke-linecap:square;stroke-width:1.5;"/>
    </g>
    <g id="line2d_24"/>
    <g id="text_19">
     <!-- Biedron -->
     <defs>
      <path d="M 19.671875 34.8125 
L 19.671875 8.109375 
L 35.5 8.109375 
Q 43.453125 8.109375 47.28125 11.40625 
Q 51.125 14.703125 51.125 21.484375 
Q 51.125 28.328125 47.28125 31.5625 
Q 43.453125 34.8125 35.5 34.8125 
z
M 19.671875 64.796875 
L 19.671875 42.828125 
L 34.28125 42.828125 
Q 41.5 42.828125 45.03125 45.53125 
Q 48.578125 48.25 48.578125 53.8125 
Q 48.578125 59.328125 45.03125 62.0625 
Q 41.5 64.796875 34.28125 64.796875 
z
M 9.8125 72.90625 
L 35.015625 72.90625 
Q 46.296875 72.90625 52.390625 68.21875 
Q 58.5 63.53125 58.5 54.890625 
Q 58.5 48.1875 55.375 44.234375 
Q 52.25 40.28125 46.1875 39.3125 
Q 53.46875 37.75 57.5 32.78125 
Q 61.53125 27.828125 61.53125 20.40625 
Q 61.53125 10.640625 54.890625 5.3125 
Q 48.25 0 35.984375 0 
L 9.8125 0 
z
" id="DejaVuSans-66"/>
     </defs>
     <g transform="translate(127 74.476562)scale(0.1 -0.1)">
      <use xlink:href="#DejaVuSans-66"/>
      <use x="68.603516" xlink:href="#DejaVuSans-105"/>
      <use x="96.386719" xlink:href="#DejaVuSans-101"/>
      <use x="157.910156" xlink:href="#DejaVuSans-100"/>
      <use x="221.386719" xlink:href="#DejaVuSans-114"/>
      <use x="260.25" xlink:href="#DejaVuSans-111"/>
      <use x="321.431641" xlink:href="#DejaVuSans-110"/>
     </g>
    </g>
    <g id="line2d_25">
     <path d="M 99 85.654687 
L 119 85.654687 
" style="fill:none;stroke:#2ca02c;stroke-linecap:square;stroke-width:1.5;"/>
    </g>
    <g id="line2d_26"/>
    <g id="text_20">
     <!-- Bosak -->
     <defs>
      <path d="M 9.078125 75.984375 
L 18.109375 75.984375 
L 18.109375 31.109375 
L 44.921875 54.6875 
L 56.390625 54.6875 
L 27.390625 29.109375 
L 57.625 0 
L 45.90625 0 
L 18.109375 26.703125 
L 18.109375 0 
L 9.078125 0 
z
" id="DejaVuSans-107"/>
     </defs>
     <g transform="translate(127 89.154687)scale(0.1 -0.1)">
      <use xlink:href="#DejaVuSans-66"/>
      <use x="68.603516" xlink:href="#DejaVuSans-111"/>
      <use x="129.785156" xlink:href="#DejaVuSans-115"/>
      <use x="181.884766" xlink:href="#DejaVuSans-97"/>
      <use x="243.164062" xlink:href="#DejaVuSans-107"/>
     </g>
    </g>
    <g id="line2d_27">
     <path d="M 99 100.332812 
L 119 100.332812 
" style="fill:none;stroke:#d62728;stroke-linecap:square;stroke-width:1.5;"/>
    </g>
    <g id="line2d_28"/>
    <g id="text_21">
     <!-- Holownia -->
     <defs>
      <path d="M 9.8125 72.90625 
L 19.671875 72.90625 
L 19.671875 43.015625 
L 55.515625 43.015625 
L 55.515625 72.90625 
L 65.375 72.90625 
L 65.375 0 
L 55.515625 0 
L 55.515625 34.71875 
L 19.671875 34.71875 
L 19.671875 0 
L 9.8125 0 
z
" id="DejaVuSans-72"/>
      <path d="M 9.421875 75.984375 
L 18.40625 75.984375 
L 18.40625 0 
L 9.421875 0 
z
" id="DejaVuSans-108"/>
     </defs>
     <g transform="translate(127 103.832812)scale(0.1 -0.1)">
      <use xlink:href="#DejaVuSans-72"/>
      <use x="75.195312" xlink:href="#DejaVuSans-111"/>
      <use x="136.376953" xlink:href="#DejaVuSans-108"/>
      <use x="164.160156" xlink:href="#DejaVuSans-111"/>
      <use x="225.341797" xlink:href="#DejaVuSans-119"/>
      <use x="307.128906" xlink:href="#DejaVuSans-110"/>
      <use x="370.507812" xlink:href="#DejaVuSans-105"/>
      <use x="398.291016" xlink:href="#DejaVuSans-97"/>
     </g>
    </g>
    <g id="line2d_29">
     <path d="M 99 115.010937 
L 119 115.010937 
" style="fill:none;stroke:#9467bd;stroke-linecap:square;stroke-width:1.5;"/>
    </g>
    <g id="line2d_30"/>
    <g id="text_22">
     <!-- Kidawa -->
     <defs>
      <path d="M 9.8125 72.90625 
L 19.671875 72.90625 
L 19.671875 42.09375 
L 52.390625 72.90625 
L 65.09375 72.90625 
L 28.90625 38.921875 
L 67.671875 0 
L 54.6875 0 
L 19.671875 35.109375 
L 19.671875 0 
L 9.8125 0 
z
" id="DejaVuSans-75"/>
     </defs>
     <g transform="translate(127 118.510937)scale(0.1 -0.1)">
      <use xlink:href="#DejaVuSans-75"/>
      <use x="65.576172" xlink:href="#DejaVuSans-105"/>
      <use x="93.359375" xlink:href="#DejaVuSans-100"/>
      <use x="156.835938" xlink:href="#DejaVuSans-97"/>
      <use x="218.115234" xlink:href="#DejaVuSans-119"/>
      <use x="299.902344" xlink:href="#DejaVuSans-97"/>
     </g>
    </g>
    <g id="line2d_31">
     <path d="M 99 129.689062 
L 119 129.689062 
" style="fill:none;stroke:#8c564b;stroke-linecap:square;stroke-width:1.5;"/>
    </g>
    <g id="line2d_32"/>
    <g id="text_23">
     <!-- Kosiniak -->
     <g transform="translate(127 133.189062)scale(0.1 -0.1)">
      <use xlink:href="#DejaVuSans-75"/>
      <use x="60.576172" xlink:href="#DejaVuSans-111"/>
      <use x="121.757812" xlink:href="#DejaVuSans-115"/>
      <use x="173.857422" xlink:href="#DejaVuSans-105"/>
      <use x="201.640625" xlink:href="#DejaVuSans-110"/>
      <use x="265.019531" xlink:href="#DejaVuSans-105"/>
      <use x="292.802734" xlink:href="#DejaVuSans-97"/>
      <use x="354.082031" xlink:href="#DejaVuSans-107"/>
     </g>
    </g>
   </g>
  </g>
 </g>
 <defs>
  <clipPath id="p58a9371570">
   <rect height="277.2" width="558" x="90" y="43.2"/>
  </clipPath>
 </defs>
</svg>
