<?xml version="1.0" encoding="utf-8" standalone="no"?>
<!DOCTYPE svg PUBLIC "-//W3C//DTD SVG 1.1//EN"
  "http://www.w3.org/Graphics/SVG/1.1/DTD/svg11.dtd">
<!-- Created with matplotlib (https://matplotlib.org/) -->
<svg height="360pt" version="1.1" viewBox="0 0 720 360" width="720pt" xmlns="http://www.w3.org/2000/svg" xmlns:xlink="http://www.w3.org/1999/xlink">
 <defs>
  <style type="text/css">
*{stroke-linecap:butt;stroke-linejoin:round;}
  </style>
 </defs>
 <g id="figure_1">
  <g id="patch_1">
   <path d="M 0 360 
L 720 360 
L 720 0 
L 0 0 
z
" style="fill:#ffffff;"/>
  </g>
  <g id="axes_1">
   <g id="patch_2">
    <path d="M 90 320.4 
L 648 320.4 
L 648 43.2 
L 90 43.2 
z
" style="fill:#ffffff;"/>
   </g>
   <g id="PathCollection_1">
    <defs>
     <path d="M 0 1.118034 
C 0.296506 1.118034 0.580908 1.000231 0.790569 0.790569 
C 1.000231 0.580908 1.118034 0.296506 1.118034 0 
C 1.118034 -0.296506 1.000231 -0.580908 0.790569 -0.790569 
C 0.580908 -1.000231 0.296506 -1.118034 0 -1.118034 
C -0.296506 -1.118034 -0.580908 -1.000231 -0.790569 -0.790569 
C -1.000231 -0.580908 -1.118034 -0.296506 -1.118034 0 
C -1.118034 0.296506 -1.000231 0.580908 -0.790569 0.790569 
C -0.580908 1.000231 -0.296506 1.118034 0 1.118034 
z
" id="me6d7239ca9" style="stroke:#1f77b4;"/>
    </defs>
    <g clip-path="url(#p52b2dde09a)">
     <use style="fill:#1f77b4;stroke:#1f77b4;" x="115.363636" xlink:href="#me6d7239ca9" y="263.036842"/>
     <use style="fill:#1f77b4;stroke:#1f77b4;" x="126.391304" xlink:href="#me6d7239ca9" y="264.694737"/>
     <use style="fill:#1f77b4;stroke:#1f77b4;" x="137.418972" xlink:href="#me6d7239ca9" y="279.615789"/>
     <use style="fill:#1f77b4;stroke:#1f77b4;" x="148.44664" xlink:href="#me6d7239ca9" y="294.536842"/>
     <use style="fill:#1f77b4;stroke:#1f77b4;" x="159.474308" xlink:href="#me6d7239ca9" y="286.247368"/>
     <use style="fill:#1f77b4;stroke:#1f77b4;" x="170.501976" xlink:href="#me6d7239ca9" y="296.194737"/>
     <use style="fill:#1f77b4;stroke:#1f77b4;" x="181.529644" xlink:href="#me6d7239ca9" y="301.168421"/>
     <use style="fill:#1f77b4;stroke:#1f77b4;" x="192.557312" xlink:href="#me6d7239ca9" y="238.168421"/>
     <use style="fill:#1f77b4;stroke:#1f77b4;" x="203.58498" xlink:href="#me6d7239ca9" y="279.615789"/>
     <use style="fill:#1f77b4;stroke:#1f77b4;" x="214.612648" xlink:href="#me6d7239ca9" y="271.326316"/>
     <use style="fill:#1f77b4;stroke:#1f77b4;" x="225.640316" xlink:href="#me6d7239ca9" y="263.036842"/>
     <use style="fill:#1f77b4;stroke:#1f77b4;" x="236.667984" xlink:href="#me6d7239ca9" y="264.694737"/>
     <use style="fill:#1f77b4;stroke:#1f77b4;" x="247.695652" xlink:href="#me6d7239ca9" y="302.826316"/>
     <use style="fill:#1f77b4;stroke:#1f77b4;" x="258.72332" xlink:href="#me6d7239ca9" y="307.8"/>
     <use style="fill:#1f77b4;stroke:#1f77b4;" x="269.750988" xlink:href="#me6d7239ca9" y="301.168421"/>
     <use style="fill:#1f77b4;stroke:#1f77b4;" x="280.778656" xlink:href="#me6d7239ca9" y="294.536842"/>
     <use style="fill:#1f77b4;stroke:#1f77b4;" x="291.806324" xlink:href="#me6d7239ca9" y="287.905263"/>
     <use style="fill:#1f77b4;stroke:#1f77b4;" x="302.833992" xlink:href="#me6d7239ca9" y="284.589474"/>
     <use style="fill:#1f77b4;stroke:#1f77b4;" x="313.86166" xlink:href="#me6d7239ca9" y="268.010526"/>
     <use style="fill:#1f77b4;stroke:#1f77b4;" x="324.889328" xlink:href="#me6d7239ca9" y="306.142105"/>
     <use style="fill:#1f77b4;stroke:#1f77b4;" x="335.916996" xlink:href="#me6d7239ca9" y="301.168421"/>
     <use style="fill:#1f77b4;stroke:#1f77b4;" x="346.944664" xlink:href="#me6d7239ca9" y="229.878947"/>
     <use style="fill:#1f77b4;stroke:#1f77b4;" x="357.972332" xlink:href="#me6d7239ca9" y="266.352632"/>
     <use style="fill:#1f77b4;stroke:#1f77b4;" x="369" xlink:href="#me6d7239ca9" y="292.878947"/>
     <use style="fill:#1f77b4;stroke:#1f77b4;" x="380.027668" xlink:href="#me6d7239ca9" y="289.563158"/>
     <use style="fill:#1f77b4;stroke:#1f77b4;" x="391.055336" xlink:href="#me6d7239ca9" y="289.563158"/>
     <use style="fill:#1f77b4;stroke:#1f77b4;" x="402.083004" xlink:href="#me6d7239ca9" y="271.326316"/>
     <use style="fill:#1f77b4;stroke:#1f77b4;" x="413.110672" xlink:href="#me6d7239ca9" y="302.826316"/>
     <use style="fill:#1f77b4;stroke:#1f77b4;" x="424.13834" xlink:href="#me6d7239ca9" y="263.036842"/>
     <use style="fill:#1f77b4;stroke:#1f77b4;" x="435.166008" xlink:href="#me6d7239ca9" y="287.905263"/>
     <use style="fill:#1f77b4;stroke:#1f77b4;" x="446.193676" xlink:href="#me6d7239ca9" y="251.431579"/>
     <use style="fill:#1f77b4;stroke:#1f77b4;" x="457.221344" xlink:href="#me6d7239ca9" y="271.326316"/>
     <use style="fill:#1f77b4;stroke:#1f77b4;" x="468.249012" xlink:href="#me6d7239ca9" y="165.221053"/>
     <use style="fill:#1f77b4;stroke:#1f77b4;" x="479.27668" xlink:href="#me6d7239ca9" y="297.852632"/>
     <use style="fill:#1f77b4;stroke:#1f77b4;" x="490.304348" xlink:href="#me6d7239ca9" y="297.852632"/>
     <use style="fill:#1f77b4;stroke:#1f77b4;" x="501.332016" xlink:href="#me6d7239ca9" y="287.905263"/>
     <use style="fill:#1f77b4;stroke:#1f77b4;" x="512.359684" xlink:href="#me6d7239ca9" y="276.3"/>
     <use style="fill:#1f77b4;stroke:#1f77b4;" x="523.387352" xlink:href="#me6d7239ca9" y="231.536842"/>
     <use style="fill:#1f77b4;stroke:#1f77b4;" x="534.41502" xlink:href="#me6d7239ca9" y="253.089474"/>
     <use style="fill:#1f77b4;stroke:#1f77b4;" x="545.442688" xlink:href="#me6d7239ca9" y="281.273684"/>
     <use style="fill:#1f77b4;stroke:#1f77b4;" x="556.470356" xlink:href="#me6d7239ca9" y="294.536842"/>
     <use style="fill:#1f77b4;stroke:#1f77b4;" x="567.498024" xlink:href="#me6d7239ca9" y="302.826316"/>
     <use style="fill:#1f77b4;stroke:#1f77b4;" x="578.525692" xlink:href="#me6d7239ca9" y="281.273684"/>
     <use style="fill:#1f77b4;stroke:#1f77b4;" x="589.55336" xlink:href="#me6d7239ca9" y="292.878947"/>
     <use style="fill:#1f77b4;stroke:#1f77b4;" x="600.581028" xlink:href="#me6d7239ca9" y="268.010526"/>
     <use style="fill:#1f77b4;stroke:#1f77b4;" x="611.608696" xlink:href="#me6d7239ca9" y="289.563158"/>
     <use style="fill:#1f77b4;stroke:#1f77b4;" x="622.636364" xlink:href="#me6d7239ca9" y="261.378947"/>
    </g>
   </g>
   <g id="PathCollection_2">
    <defs>
     <path d="M 0 1.118034 
C 0.296506 1.118034 0.580908 1.000231 0.790569 0.790569 
C 1.000231 0.580908 1.118034 0.296506 1.118034 0 
C 1.118034 -0.296506 1.000231 -0.580908 0.790569 -0.790569 
C 0.580908 -1.000231 0.296506 -1.118034 0 -1.118034 
C -0.296506 -1.118034 -0.580908 -1.000231 -0.790569 -0.790569 
C -1.000231 -0.580908 -1.118034 -0.296506 -1.118034 0 
C -1.118034 0.296506 -1.000231 0.580908 -0.790569 0.790569 
C -0.580908 1.000231 -0.296506 1.118034 0 1.118034 
z
" id="m21a0b55fe9" style="stroke:#ff7f0e;"/>
    </defs>
    <g clip-path="url(#p52b2dde09a)">
     <use style="fill:#ff7f0e;stroke:#ff7f0e;" x="115.363636" xlink:href="#m21a0b55fe9" y="263.036842"/>
     <use style="fill:#ff7f0e;stroke:#ff7f0e;" x="126.391304" xlink:href="#m21a0b55fe9" y="239.826316"/>
     <use style="fill:#ff7f0e;stroke:#ff7f0e;" x="137.418972" xlink:href="#m21a0b55fe9" y="274.642105"/>
     <use style="fill:#ff7f0e;stroke:#ff7f0e;" x="148.44664" xlink:href="#m21a0b55fe9" y="246.457895"/>
     <use style="fill:#ff7f0e;stroke:#ff7f0e;" x="159.474308" xlink:href="#m21a0b55fe9" y="208.326316"/>
     <use style="fill:#ff7f0e;stroke:#ff7f0e;" x="170.501976" xlink:href="#m21a0b55fe9" y="277.957895"/>
     <use style="fill:#ff7f0e;stroke:#ff7f0e;" x="181.529644" xlink:href="#m21a0b55fe9" y="281.273684"/>
     <use style="fill:#ff7f0e;stroke:#ff7f0e;" x="192.557312" xlink:href="#m21a0b55fe9" y="107.194737"/>
     <use style="fill:#ff7f0e;stroke:#ff7f0e;" x="203.58498" xlink:href="#m21a0b55fe9" y="216.615789"/>
     <use style="fill:#ff7f0e;stroke:#ff7f0e;" x="214.612648" xlink:href="#m21a0b55fe9" y="219.931579"/>
     <use style="fill:#ff7f0e;stroke:#ff7f0e;" x="225.640316" xlink:href="#m21a0b55fe9" y="254.747368"/>
     <use style="fill:#ff7f0e;stroke:#ff7f0e;" x="236.667984" xlink:href="#m21a0b55fe9" y="274.642105"/>
     <use style="fill:#ff7f0e;stroke:#ff7f0e;" x="247.695652" xlink:href="#m21a0b55fe9" y="294.536842"/>
     <use style="fill:#ff7f0e;stroke:#ff7f0e;" x="258.72332" xlink:href="#m21a0b55fe9" y="276.3"/>
     <use style="fill:#ff7f0e;stroke:#ff7f0e;" x="269.750988" xlink:href="#m21a0b55fe9" y="284.589474"/>
     <use style="fill:#ff7f0e;stroke:#ff7f0e;" x="280.778656" xlink:href="#m21a0b55fe9" y="233.194737"/>
     <use style="fill:#ff7f0e;stroke:#ff7f0e;" x="291.806324" xlink:href="#m21a0b55fe9" y="55.8"/>
     <use style="fill:#ff7f0e;stroke:#ff7f0e;" x="302.833992" xlink:href="#m21a0b55fe9" y="183.457895"/>
     <use style="fill:#ff7f0e;stroke:#ff7f0e;" x="313.86166" xlink:href="#m21a0b55fe9" y="249.773684"/>
     <use style="fill:#ff7f0e;stroke:#ff7f0e;" x="324.889328" xlink:href="#m21a0b55fe9" y="279.615789"/>
     <use style="fill:#ff7f0e;stroke:#ff7f0e;" x="335.916996" xlink:href="#m21a0b55fe9" y="268.010526"/>
     <use style="fill:#ff7f0e;stroke:#ff7f0e;" x="346.944664" xlink:href="#m21a0b55fe9" y="216.615789"/>
     <use style="fill:#ff7f0e;stroke:#ff7f0e;" x="357.972332" xlink:href="#m21a0b55fe9" y="173.510526"/>
     <use style="fill:#ff7f0e;stroke:#ff7f0e;" x="369" xlink:href="#m21a0b55fe9" y="168.536842"/>
     <use style="fill:#ff7f0e;stroke:#ff7f0e;" x="380.027668" xlink:href="#m21a0b55fe9" y="193.405263"/>
     <use style="fill:#ff7f0e;stroke:#ff7f0e;" x="391.055336" xlink:href="#m21a0b55fe9" y="209.984211"/>
     <use style="fill:#ff7f0e;stroke:#ff7f0e;" x="402.083004" xlink:href="#m21a0b55fe9" y="236.510526"/>
     <use style="fill:#ff7f0e;stroke:#ff7f0e;" x="413.110672" xlink:href="#m21a0b55fe9" y="233.194737"/>
     <use style="fill:#ff7f0e;stroke:#ff7f0e;" x="424.13834" xlink:href="#m21a0b55fe9" y="256.405263"/>
     <use style="fill:#ff7f0e;stroke:#ff7f0e;" x="435.166008" xlink:href="#m21a0b55fe9" y="203.352632"/>
     <use style="fill:#ff7f0e;stroke:#ff7f0e;" x="446.193676" xlink:href="#m21a0b55fe9" y="72.378947"/>
     <use style="fill:#ff7f0e;stroke:#ff7f0e;" x="457.221344" xlink:href="#m21a0b55fe9" y="200.036842"/>
     <use style="fill:#ff7f0e;stroke:#ff7f0e;" x="468.249012" xlink:href="#m21a0b55fe9" y="178.484211"/>
     <use style="fill:#ff7f0e;stroke:#ff7f0e;" x="479.27668" xlink:href="#m21a0b55fe9" y="266.352632"/>
     <use style="fill:#ff7f0e;stroke:#ff7f0e;" x="490.304348" xlink:href="#m21a0b55fe9" y="234.852632"/>
     <use style="fill:#ff7f0e;stroke:#ff7f0e;" x="501.332016" xlink:href="#m21a0b55fe9" y="213.3"/>
     <use style="fill:#ff7f0e;stroke:#ff7f0e;" x="512.359684" xlink:href="#m21a0b55fe9" y="156.931579"/>
     <use style="fill:#ff7f0e;stroke:#ff7f0e;" x="523.387352" xlink:href="#m21a0b55fe9" y="188.431579"/>
     <use style="fill:#ff7f0e;stroke:#ff7f0e;" x="534.41502" xlink:href="#m21a0b55fe9" y="175.168421"/>
     <use style="fill:#ff7f0e;stroke:#ff7f0e;" x="545.442688" xlink:href="#m21a0b55fe9" y="249.773684"/>
     <use style="fill:#ff7f0e;stroke:#ff7f0e;" x="556.470356" xlink:href="#m21a0b55fe9" y="272.984211"/>
     <use style="fill:#ff7f0e;stroke:#ff7f0e;" x="567.498024" xlink:href="#m21a0b55fe9" y="233.194737"/>
     <use style="fill:#ff7f0e;stroke:#ff7f0e;" x="578.525692" xlink:href="#m21a0b55fe9" y="251.431579"/>
     <use style="fill:#ff7f0e;stroke:#ff7f0e;" x="589.55336" xlink:href="#m21a0b55fe9" y="218.273684"/>
     <use style="fill:#ff7f0e;stroke:#ff7f0e;" x="600.581028" xlink:href="#m21a0b55fe9" y="191.747368"/>
     <use style="fill:#ff7f0e;stroke:#ff7f0e;" x="611.608696" xlink:href="#m21a0b55fe9" y="236.510526"/>
     <use style="fill:#ff7f0e;stroke:#ff7f0e;" x="622.636364" xlink:href="#m21a0b55fe9" y="254.747368"/>
    </g>
   </g>
   <g id="PathCollection_3">
    <defs>
     <path d="M 0 1.118034 
C 0.296506 1.118034 0.580908 1.000231 0.790569 0.790569 
C 1.000231 0.580908 1.118034 0.296506 1.118034 0 
C 1.118034 -0.296506 1.000231 -0.580908 0.790569 -0.790569 
C 0.580908 -1.000231 0.296506 -1.118034 0 -1.118034 
C -0.296506 -1.118034 -0.580908 -1.000231 -0.790569 -0.790569 
C -1.000231 -0.580908 -1.118034 -0.296506 -1.118034 0 
C -1.118034 0.296506 -1.000231 0.580908 -0.790569 0.790569 
C -0.580908 1.000231 -0.296506 1.118034 0 1.118034 
z
" id="m1ba301fc35" style="stroke:#2ca02c;"/>
    </defs>
    <g clip-path="url(#p52b2dde09a)">
     <use style="fill:#2ca02c;stroke:#2ca02c;" x="115.363636" xlink:href="#m1ba301fc35" y="183.457895"/>
     <use style="fill:#2ca02c;stroke:#2ca02c;" x="126.391304" xlink:href="#m1ba301fc35" y="166.878947"/>
     <use style="fill:#2ca02c;stroke:#2ca02c;" x="137.418972" xlink:href="#m1ba301fc35" y="211.642105"/>
     <use style="fill:#2ca02c;stroke:#2ca02c;" x="148.44664" xlink:href="#m1ba301fc35" y="191.747368"/>
     <use style="fill:#2ca02c;stroke:#2ca02c;" x="159.474308" xlink:href="#m1ba301fc35" y="161.905263"/>
     <use style="fill:#2ca02c;stroke:#2ca02c;" x="170.501976" xlink:href="#m1ba301fc35" y="209.984211"/>
     <use style="fill:#2ca02c;stroke:#2ca02c;" x="181.529644" xlink:href="#m1ba301fc35" y="234.852632"/>
     <use style="fill:#2ca02c;stroke:#2ca02c;" x="192.557312" xlink:href="#m1ba301fc35" y="74.036842"/>
     <use style="fill:#2ca02c;stroke:#2ca02c;" x="203.58498" xlink:href="#m1ba301fc35" y="148.642105"/>
     <use style="fill:#2ca02c;stroke:#2ca02c;" x="214.612648" xlink:href="#m1ba301fc35" y="190.089474"/>
     <use style="fill:#2ca02c;stroke:#2ca02c;" x="225.640316" xlink:href="#m1ba301fc35" y="206.668421"/>
     <use style="fill:#2ca02c;stroke:#2ca02c;" x="236.667984" xlink:href="#m1ba301fc35" y="248.115789"/>
     <use style="fill:#2ca02c;stroke:#2ca02c;" x="247.695652" xlink:href="#m1ba301fc35" y="284.589474"/>
     <use style="fill:#2ca02c;stroke:#2ca02c;" x="258.72332" xlink:href="#m1ba301fc35" y="296.194737"/>
     <use style="fill:#2ca02c;stroke:#2ca02c;" x="269.750988" xlink:href="#m1ba301fc35" y="306.142105"/>
     <use style="fill:#2ca02c;stroke:#2ca02c;" x="280.778656" xlink:href="#m1ba301fc35" y="214.957895"/>
     <use style="fill:#2ca02c;stroke:#2ca02c;" x="291.806324" xlink:href="#m1ba301fc35" y="103.878947"/>
     <use style="fill:#2ca02c;stroke:#2ca02c;" x="302.833992" xlink:href="#m1ba301fc35" y="132.063158"/>
     <use style="fill:#2ca02c;stroke:#2ca02c;" x="313.86166" xlink:href="#m1ba301fc35" y="193.405263"/>
     <use style="fill:#2ca02c;stroke:#2ca02c;" x="324.889328" xlink:href="#m1ba301fc35" y="251.431579"/>
     <use style="fill:#2ca02c;stroke:#2ca02c;" x="335.916996" xlink:href="#m1ba301fc35" y="239.826316"/>
     <use style="fill:#2ca02c;stroke:#2ca02c;" x="346.944664" xlink:href="#m1ba301fc35" y="180.142105"/>
     <use style="fill:#2ca02c;stroke:#2ca02c;" x="357.972332" xlink:href="#m1ba301fc35" y="168.536842"/>
     <use style="fill:#2ca02c;stroke:#2ca02c;" x="369" xlink:href="#m1ba301fc35" y="170.194737"/>
     <use style="fill:#2ca02c;stroke:#2ca02c;" x="380.027668" xlink:href="#m1ba301fc35" y="151.957895"/>
     <use style="fill:#2ca02c;stroke:#2ca02c;" x="391.055336" xlink:href="#m1ba301fc35" y="193.405263"/>
     <use style="fill:#2ca02c;stroke:#2ca02c;" x="402.083004" xlink:href="#m1ba301fc35" y="208.326316"/>
     <use style="fill:#2ca02c;stroke:#2ca02c;" x="413.110672" xlink:href="#m1ba301fc35" y="205.010526"/>
     <use style="fill:#2ca02c;stroke:#2ca02c;" x="424.13834" xlink:href="#m1ba301fc35" y="171.852632"/>
     <use style="fill:#2ca02c;stroke:#2ca02c;" x="435.166008" xlink:href="#m1ba301fc35" y="188.431579"/>
     <use style="fill:#2ca02c;stroke:#2ca02c;" x="446.193676" xlink:href="#m1ba301fc35" y="175.168421"/>
     <use style="fill:#2ca02c;stroke:#2ca02c;" x="457.221344" xlink:href="#m1ba301fc35" y="153.615789"/>
     <use style="fill:#2ca02c;stroke:#2ca02c;" x="468.249012" xlink:href="#m1ba301fc35" y="77.352632"/>
     <use style="fill:#2ca02c;stroke:#2ca02c;" x="479.27668" xlink:href="#m1ba301fc35" y="213.3"/>
     <use style="fill:#2ca02c;stroke:#2ca02c;" x="490.304348" xlink:href="#m1ba301fc35" y="253.089474"/>
     <use style="fill:#2ca02c;stroke:#2ca02c;" x="501.332016" xlink:href="#m1ba301fc35" y="113.826316"/>
     <use style="fill:#2ca02c;stroke:#2ca02c;" x="512.359684" xlink:href="#m1ba301fc35" y="158.589474"/>
     <use style="fill:#2ca02c;stroke:#2ca02c;" x="523.387352" xlink:href="#m1ba301fc35" y="74.036842"/>
     <use style="fill:#2ca02c;stroke:#2ca02c;" x="534.41502" xlink:href="#m1ba301fc35" y="138.694737"/>
     <use style="fill:#2ca02c;stroke:#2ca02c;" x="545.442688" xlink:href="#m1ba301fc35" y="188.431579"/>
     <use style="fill:#2ca02c;stroke:#2ca02c;" x="556.470356" xlink:href="#m1ba301fc35" y="268.010526"/>
     <use style="fill:#2ca02c;stroke:#2ca02c;" x="567.498024" xlink:href="#m1ba301fc35" y="294.536842"/>
     <use style="fill:#2ca02c;stroke:#2ca02c;" x="578.525692" xlink:href="#m1ba301fc35" y="213.3"/>
     <use style="fill:#2ca02c;stroke:#2ca02c;" x="589.55336" xlink:href="#m1ba301fc35" y="209.984211"/>
     <use style="fill:#2ca02c;stroke:#2ca02c;" x="600.581028" xlink:href="#m1ba301fc35" y="219.931579"/>
     <use style="fill:#2ca02c;stroke:#2ca02c;" x="611.608696" xlink:href="#m1ba301fc35" y="218.273684"/>
     <use style="fill:#2ca02c;stroke:#2ca02c;" x="622.636364" xlink:href="#m1ba301fc35" y="228.221053"/>
    </g>
   </g>
   <g id="PathCollection_4">
    <defs>
     <path d="M 0 1.118034 
C 0.296506 1.118034 0.580908 1.000231 0.790569 0.790569 
C 1.000231 0.580908 1.118034 0.296506 1.118034 0 
C 1.118034 -0.296506 1.000231 -0.580908 0.790569 -0.790569 
C 0.580908 -1.000231 0.296506 -1.118034 0 -1.118034 
C -0.296506 -1.118034 -0.580908 -1.000231 -0.790569 -0.790569 
C -1.000231 -0.580908 -1.118034 -0.296506 -1.118034 0 
C -1.118034 0.296506 -1.000231 0.580908 -0.790569 0.790569 
C -0.580908 1.000231 -0.296506 1.118034 0 1.118034 
z
" id="me364180d84" style="stroke:#d62728;"/>
    </defs>
    <g clip-path="url(#p52b2dde09a)">
     <use style="fill:#d62728;stroke:#d62728;" x="115.363636" xlink:href="#me364180d84" y="258.063158"/>
     <use style="fill:#d62728;stroke:#d62728;" x="126.391304" xlink:href="#me364180d84" y="246.457895"/>
     <use style="fill:#d62728;stroke:#d62728;" x="137.418972" xlink:href="#me364180d84" y="263.036842"/>
     <use style="fill:#d62728;stroke:#d62728;" x="148.44664" xlink:href="#me364180d84" y="263.036842"/>
     <use style="fill:#d62728;stroke:#d62728;" x="159.474308" xlink:href="#me364180d84" y="271.326316"/>
     <use style="fill:#d62728;stroke:#d62728;" x="170.501976" xlink:href="#me364180d84" y="276.3"/>
     <use style="fill:#d62728;stroke:#d62728;" x="181.529644" xlink:href="#me364180d84" y="296.194737"/>
     <use style="fill:#d62728;stroke:#d62728;" x="192.557312" xlink:href="#me364180d84" y="256.405263"/>
     <use style="fill:#d62728;stroke:#d62728;" x="203.58498" xlink:href="#me364180d84" y="277.957895"/>
     <use style="fill:#d62728;stroke:#d62728;" x="214.612648" xlink:href="#me364180d84" y="286.247368"/>
     <use style="fill:#d62728;stroke:#d62728;" x="225.640316" xlink:href="#me364180d84" y="284.589474"/>
     <use style="fill:#d62728;stroke:#d62728;" x="236.667984" xlink:href="#me364180d84" y="296.194737"/>
     <use style="fill:#d62728;stroke:#d62728;" x="247.695652" xlink:href="#me364180d84" y="304.484211"/>
     <use style="fill:#d62728;stroke:#d62728;" x="258.72332" xlink:href="#me364180d84" y="306.142105"/>
     <use style="fill:#d62728;stroke:#d62728;" x="269.750988" xlink:href="#me364180d84" y="292.878947"/>
     <use style="fill:#d62728;stroke:#d62728;" x="280.778656" xlink:href="#me364180d84" y="292.878947"/>
     <use style="fill:#d62728;stroke:#d62728;" x="291.806324" xlink:href="#me364180d84" y="292.878947"/>
     <use style="fill:#d62728;stroke:#d62728;" x="302.833992" xlink:href="#me364180d84" y="281.273684"/>
     <use style="fill:#d62728;stroke:#d62728;" x="313.86166" xlink:href="#me364180d84" y="277.957895"/>
     <use style="fill:#d62728;stroke:#d62728;" x="324.889328" xlink:href="#me364180d84" y="286.247368"/>
     <use style="fill:#d62728;stroke:#d62728;" x="335.916996" xlink:href="#me364180d84" y="296.194737"/>
     <use style="fill:#d62728;stroke:#d62728;" x="346.944664" xlink:href="#me364180d84" y="277.957895"/>
     <use style="fill:#d62728;stroke:#d62728;" x="357.972332" xlink:href="#me364180d84" y="269.668421"/>
     <use style="fill:#d62728;stroke:#d62728;" x="369" xlink:href="#me364180d84" y="258.063158"/>
     <use style="fill:#d62728;stroke:#d62728;" x="380.027668" xlink:href="#me364180d84" y="284.589474"/>
     <use style="fill:#d62728;stroke:#d62728;" x="391.055336" xlink:href="#me364180d84" y="276.3"/>
     <use style="fill:#d62728;stroke:#d62728;" x="402.083004" xlink:href="#me364180d84" y="289.563158"/>
     <use style="fill:#d62728;stroke:#d62728;" x="413.110672" xlink:href="#me364180d84" y="297.852632"/>
     <use style="fill:#d62728;stroke:#d62728;" x="424.13834" xlink:href="#me364180d84" y="276.3"/>
     <use style="fill:#d62728;stroke:#d62728;" x="435.166008" xlink:href="#me364180d84" y="289.563158"/>
     <use style="fill:#d62728;stroke:#d62728;" x="446.193676" xlink:href="#me364180d84" y="286.247368"/>
     <use style="fill:#d62728;stroke:#d62728;" x="457.221344" xlink:href="#me364180d84" y="286.247368"/>
     <use style="fill:#d62728;stroke:#d62728;" x="468.249012" xlink:href="#me364180d84" y="243.142105"/>
     <use style="fill:#d62728;stroke:#d62728;" x="479.27668" xlink:href="#me364180d84" y="289.563158"/>
     <use style="fill:#d62728;stroke:#d62728;" x="490.304348" xlink:href="#me364180d84" y="291.221053"/>
     <use style="fill:#d62728;stroke:#d62728;" x="501.332016" xlink:href="#me364180d84" y="276.3"/>
     <use style="fill:#d62728;stroke:#d62728;" x="512.359684" xlink:href="#me364180d84" y="271.326316"/>
     <use style="fill:#d62728;stroke:#d62728;" x="523.387352" xlink:href="#me364180d84" y="253.089474"/>
     <use style="fill:#d62728;stroke:#d62728;" x="534.41502" xlink:href="#me364180d84" y="272.984211"/>
     <use style="fill:#d62728;stroke:#d62728;" x="545.442688" xlink:href="#me364180d84" y="277.957895"/>
     <use style="fill:#d62728;stroke:#d62728;" x="556.470356" xlink:href="#me364180d84" y="284.589474"/>
     <use style="fill:#d62728;stroke:#d62728;" x="567.498024" xlink:href="#me364180d84" y="291.221053"/>
     <use style="fill:#d62728;stroke:#d62728;" x="578.525692" xlink:href="#me364180d84" y="294.536842"/>
     <use style="fill:#d62728;stroke:#d62728;" x="589.55336" xlink:href="#me364180d84" y="294.536842"/>
     <use style="fill:#d62728;stroke:#d62728;" x="600.581028" xlink:href="#me364180d84" y="304.484211"/>
     <use style="fill:#d62728;stroke:#d62728;" x="611.608696" xlink:href="#me364180d84" y="294.536842"/>
     <use style="fill:#d62728;stroke:#d62728;" x="622.636364" xlink:href="#me364180d84" y="299.510526"/>
    </g>
   </g>
   <g id="PathCollection_5">
    <defs>
     <path d="M 0 1.118034 
C 0.296506 1.118034 0.580908 1.000231 0.790569 0.790569 
C 1.000231 0.580908 1.118034 0.296506 1.118034 0 
C 1.118034 -0.296506 1.000231 -0.580908 0.790569 -0.790569 
C 0.580908 -1.000231 0.296506 -1.118034 0 -1.118034 
C -0.296506 -1.118034 -0.580908 -1.000231 -0.790569 -0.790569 
C -1.000231 -0.580908 -1.118034 -0.296506 -1.118034 0 
C -1.118034 0.296506 -1.000231 0.580908 -0.790569 0.790569 
C -0.580908 1.000231 -0.296506 1.118034 0 1.118034 
z
" id="m1dea7e1148" style="stroke:#9467bd;"/>
    </defs>
    <g clip-path="url(#p52b2dde09a)">
     <use style="fill:#9467bd;stroke:#9467bd;" x="115.363636" xlink:href="#m1dea7e1148" y="249.773684"/>
     <use style="fill:#9467bd;stroke:#9467bd;" x="126.391304" xlink:href="#m1dea7e1148" y="241.484211"/>
     <use style="fill:#9467bd;stroke:#9467bd;" x="137.418972" xlink:href="#m1dea7e1148" y="284.589474"/>
     <use style="fill:#9467bd;stroke:#9467bd;" x="148.44664" xlink:href="#m1dea7e1148" y="264.694737"/>
     <use style="fill:#9467bd;stroke:#9467bd;" x="159.474308" xlink:href="#m1dea7e1148" y="244.8"/>
     <use style="fill:#9467bd;stroke:#9467bd;" x="170.501976" xlink:href="#m1dea7e1148" y="289.563158"/>
     <use style="fill:#9467bd;stroke:#9467bd;" x="181.529644" xlink:href="#m1dea7e1148" y="296.194737"/>
     <use style="fill:#9467bd;stroke:#9467bd;" x="192.557312" xlink:href="#m1dea7e1148" y="211.642105"/>
     <use style="fill:#9467bd;stroke:#9467bd;" x="203.58498" xlink:href="#m1dea7e1148" y="259.721053"/>
     <use style="fill:#9467bd;stroke:#9467bd;" x="214.612648" xlink:href="#m1dea7e1148" y="263.036842"/>
     <use style="fill:#9467bd;stroke:#9467bd;" x="225.640316" xlink:href="#m1dea7e1148" y="289.563158"/>
     <use style="fill:#9467bd;stroke:#9467bd;" x="236.667984" xlink:href="#m1dea7e1148" y="277.957895"/>
     <use style="fill:#9467bd;stroke:#9467bd;" x="247.695652" xlink:href="#m1dea7e1148" y="294.536842"/>
     <use style="fill:#9467bd;stroke:#9467bd;" x="258.72332" xlink:href="#m1dea7e1148" y="304.484211"/>
     <use style="fill:#9467bd;stroke:#9467bd;" x="269.750988" xlink:href="#m1dea7e1148" y="297.852632"/>
     <use style="fill:#9467bd;stroke:#9467bd;" x="280.778656" xlink:href="#m1dea7e1148" y="286.247368"/>
     <use style="fill:#9467bd;stroke:#9467bd;" x="291.806324" xlink:href="#m1dea7e1148" y="264.694737"/>
     <use style="fill:#9467bd;stroke:#9467bd;" x="302.833992" xlink:href="#m1dea7e1148" y="281.273684"/>
     <use style="fill:#9467bd;stroke:#9467bd;" x="313.86166" xlink:href="#m1dea7e1148" y="281.273684"/>
     <use style="fill:#9467bd;stroke:#9467bd;" x="324.889328" xlink:href="#m1dea7e1148" y="286.247368"/>
     <use style="fill:#9467bd;stroke:#9467bd;" x="335.916996" xlink:href="#m1dea7e1148" y="294.536842"/>
     <use style="fill:#9467bd;stroke:#9467bd;" x="346.944664" xlink:href="#m1dea7e1148" y="246.457895"/>
     <use style="fill:#9467bd;stroke:#9467bd;" x="357.972332" xlink:href="#m1dea7e1148" y="276.3"/>
     <use style="fill:#9467bd;stroke:#9467bd;" x="369" xlink:href="#m1dea7e1148" y="263.036842"/>
     <use style="fill:#9467bd;stroke:#9467bd;" x="380.027668" xlink:href="#m1dea7e1148" y="249.773684"/>
     <use style="fill:#9467bd;stroke:#9467bd;" x="391.055336" xlink:href="#m1dea7e1148" y="234.852632"/>
     <use style="fill:#9467bd;stroke:#9467bd;" x="402.083004" xlink:href="#m1dea7e1148" y="299.510526"/>
     <use style="fill:#9467bd;stroke:#9467bd;" x="413.110672" xlink:href="#m1dea7e1148" y="294.536842"/>
     <use style="fill:#9467bd;stroke:#9467bd;" x="424.13834" xlink:href="#m1dea7e1148" y="277.957895"/>
     <use style="fill:#9467bd;stroke:#9467bd;" x="435.166008" xlink:href="#m1dea7e1148" y="277.957895"/>
     <use style="fill:#9467bd;stroke:#9467bd;" x="446.193676" xlink:href="#m1dea7e1148" y="296.194737"/>
     <use style="fill:#9467bd;stroke:#9467bd;" x="457.221344" xlink:href="#m1dea7e1148" y="272.984211"/>
     <use style="fill:#9467bd;stroke:#9467bd;" x="468.249012" xlink:href="#m1dea7e1148" y="292.878947"/>
     <use style="fill:#9467bd;stroke:#9467bd;" x="479.27668" xlink:href="#m1dea7e1148" y="296.194737"/>
     <use style="fill:#9467bd;stroke:#9467bd;" x="490.304348" xlink:href="#m1dea7e1148" y="286.247368"/>
     <use style="fill:#9467bd;stroke:#9467bd;" x="501.332016" xlink:href="#m1dea7e1148" y="263.036842"/>
     <use style="fill:#9467bd;stroke:#9467bd;" x="512.359684" xlink:href="#m1dea7e1148" y="259.721053"/>
     <use style="fill:#9467bd;stroke:#9467bd;" x="523.387352" xlink:href="#m1dea7e1148" y="284.589474"/>
     <use style="fill:#9467bd;stroke:#9467bd;" x="534.41502" xlink:href="#m1dea7e1148" y="253.089474"/>
     <use style="fill:#9467bd;stroke:#9467bd;" x="545.442688" xlink:href="#m1dea7e1148" y="238.168421"/>
     <use style="fill:#9467bd;stroke:#9467bd;" x="556.470356" xlink:href="#m1dea7e1148" y="299.510526"/>
     <use style="fill:#9467bd;stroke:#9467bd;" x="567.498024" xlink:href="#m1dea7e1148" y="287.905263"/>
     <use style="fill:#9467bd;stroke:#9467bd;" x="578.525692" xlink:href="#m1dea7e1148" y="291.221053"/>
     <use style="fill:#9467bd;stroke:#9467bd;" x="589.55336" xlink:href="#m1dea7e1148" y="276.3"/>
     <use style="fill:#9467bd;stroke:#9467bd;" x="600.581028" xlink:href="#m1dea7e1148" y="291.221053"/>
     <use style="fill:#9467bd;stroke:#9467bd;" x="611.608696" xlink:href="#m1dea7e1148" y="299.510526"/>
     <use style="fill:#9467bd;stroke:#9467bd;" x="622.636364" xlink:href="#m1dea7e1148" y="254.747368"/>
    </g>
   </g>
   <g id="PathCollection_6">
    <defs>
     <path d="M 0 1.118034 
C 0.296506 1.118034 0.580908 1.000231 0.790569 0.790569 
C 1.000231 0.580908 1.118034 0.296506 1.118034 0 
C 1.118034 -0.296506 1.000231 -0.580908 0.790569 -0.790569 
C 0.580908 -1.000231 0.296506 -1.118034 0 -1.118034 
C -0.296506 -1.118034 -0.580908 -1.000231 -0.790569 -0.790569 
C -1.000231 -0.580908 -1.118034 -0.296506 -1.118034 0 
C -1.118034 0.296506 -1.000231 0.580908 -0.790569 0.790569 
C -0.580908 1.000231 -0.296506 1.118034 0 1.118034 
z
" id="m97fe974a21" style="stroke:#8c564b;"/>
    </defs>
    <g clip-path="url(#p52b2dde09a)">
     <use style="fill:#8c564b;stroke:#8c564b;" x="115.363636" xlink:href="#m97fe974a21" y="291.221053"/>
     <use style="fill:#8c564b;stroke:#8c564b;" x="126.391304" xlink:href="#m97fe974a21" y="264.694737"/>
     <use style="fill:#8c564b;stroke:#8c564b;" x="137.418972" xlink:href="#m97fe974a21" y="281.273684"/>
     <use style="fill:#8c564b;stroke:#8c564b;" x="148.44664" xlink:href="#m97fe974a21" y="291.221053"/>
     <use style="fill:#8c564b;stroke:#8c564b;" x="159.474308" xlink:href="#m97fe974a21" y="292.878947"/>
     <use style="fill:#8c564b;stroke:#8c564b;" x="170.501976" xlink:href="#m97fe974a21" y="294.536842"/>
     <use style="fill:#8c564b;stroke:#8c564b;" x="181.529644" xlink:href="#m97fe974a21" y="307.8"/>
     <use style="fill:#8c564b;stroke:#8c564b;" x="192.557312" xlink:href="#m97fe974a21" y="276.3"/>
     <use style="fill:#8c564b;stroke:#8c564b;" x="203.58498" xlink:href="#m97fe974a21" y="269.668421"/>
     <use style="fill:#8c564b;stroke:#8c564b;" x="214.612648" xlink:href="#m97fe974a21" y="284.589474"/>
     <use style="fill:#8c564b;stroke:#8c564b;" x="225.640316" xlink:href="#m97fe974a21" y="302.826316"/>
     <use style="fill:#8c564b;stroke:#8c564b;" x="236.667984" xlink:href="#m97fe974a21" y="302.826316"/>
     <use style="fill:#8c564b;stroke:#8c564b;" x="247.695652" xlink:href="#m97fe974a21" y="304.484211"/>
     <use style="fill:#8c564b;stroke:#8c564b;" x="258.72332" xlink:href="#m97fe974a21" y="301.168421"/>
     <use style="fill:#8c564b;stroke:#8c564b;" x="269.750988" xlink:href="#m97fe974a21" y="307.8"/>
     <use style="fill:#8c564b;stroke:#8c564b;" x="280.778656" xlink:href="#m97fe974a21" y="294.536842"/>
     <use style="fill:#8c564b;stroke:#8c564b;" x="291.806324" xlink:href="#m97fe974a21" y="297.852632"/>
     <use style="fill:#8c564b;stroke:#8c564b;" x="302.833992" xlink:href="#m97fe974a21" y="299.510526"/>
     <use style="fill:#8c564b;stroke:#8c564b;" x="313.86166" xlink:href="#m97fe974a21" y="294.536842"/>
     <use style="fill:#8c564b;stroke:#8c564b;" x="324.889328" xlink:href="#m97fe974a21" y="302.826316"/>
     <use style="fill:#8c564b;stroke:#8c564b;" x="335.916996" xlink:href="#m97fe974a21" y="304.484211"/>
     <use style="fill:#8c564b;stroke:#8c564b;" x="346.944664" xlink:href="#m97fe974a21" y="282.931579"/>
     <use style="fill:#8c564b;stroke:#8c564b;" x="357.972332" xlink:href="#m97fe974a21" y="274.642105"/>
     <use style="fill:#8c564b;stroke:#8c564b;" x="369" xlink:href="#m97fe974a21" y="269.668421"/>
     <use style="fill:#8c564b;stroke:#8c564b;" x="380.027668" xlink:href="#m97fe974a21" y="281.273684"/>
     <use style="fill:#8c564b;stroke:#8c564b;" x="391.055336" xlink:href="#m97fe974a21" y="292.878947"/>
     <use style="fill:#8c564b;stroke:#8c564b;" x="402.083004" xlink:href="#m97fe974a21" y="286.247368"/>
     <use style="fill:#8c564b;stroke:#8c564b;" x="413.110672" xlink:href="#m97fe974a21" y="287.905263"/>
     <use style="fill:#8c564b;stroke:#8c564b;" x="424.13834" xlink:href="#m97fe974a21" y="297.852632"/>
     <use style="fill:#8c564b;stroke:#8c564b;" x="435.166008" xlink:href="#m97fe974a21" y="281.273684"/>
     <use style="fill:#8c564b;stroke:#8c564b;" x="446.193676" xlink:href="#m97fe974a21" y="277.957895"/>
     <use style="fill:#8c564b;stroke:#8c564b;" x="457.221344" xlink:href="#m97fe974a21" y="276.3"/>
     <use style="fill:#8c564b;stroke:#8c564b;" x="468.249012" xlink:href="#m97fe974a21" y="249.773684"/>
     <use style="fill:#8c564b;stroke:#8c564b;" x="479.27668" xlink:href="#m97fe974a21" y="294.536842"/>
     <use style="fill:#8c564b;stroke:#8c564b;" x="490.304348" xlink:href="#m97fe974a21" y="287.905263"/>
     <use style="fill:#8c564b;stroke:#8c564b;" x="501.332016" xlink:href="#m97fe974a21" y="274.642105"/>
     <use style="fill:#8c564b;stroke:#8c564b;" x="512.359684" xlink:href="#m97fe974a21" y="296.194737"/>
     <use style="fill:#8c564b;stroke:#8c564b;" x="523.387352" xlink:href="#m97fe974a21" y="269.668421"/>
     <use style="fill:#8c564b;stroke:#8c564b;" x="534.41502" xlink:href="#m97fe974a21" y="289.563158"/>
     <use style="fill:#8c564b;stroke:#8c564b;" x="545.442688" xlink:href="#m97fe974a21" y="302.826316"/>
     <use style="fill:#8c564b;stroke:#8c564b;" x="556.470356" xlink:href="#m97fe974a21" y="292.878947"/>
     <use style="fill:#8c564b;stroke:#8c564b;" x="567.498024" xlink:href="#m97fe974a21" y="306.142105"/>
     <use style="fill:#8c564b;stroke:#8c564b;" x="578.525692" xlink:href="#m97fe974a21" y="302.826316"/>
     <use style="fill:#8c564b;stroke:#8c564b;" x="589.55336" xlink:href="#m97fe974a21" y="282.931579"/>
     <use style="fill:#8c564b;stroke:#8c564b;" x="600.581028" xlink:href="#m97fe974a21" y="289.563158"/>
     <use style="fill:#8c564b;stroke:#8c564b;" x="611.608696" xlink:href="#m97fe974a21" y="286.247368"/>
     <use style="fill:#8c564b;stroke:#8c564b;" x="622.636364" xlink:href="#m97fe974a21" y="291.221053"/>
    </g>
   </g>
   <g id="matplotlib.axis_1">
    <g id="xtick_1">
     <g id="line2d_1">
      <defs>
       <path d="M 0 0 
L 0 3.5 
" id="m49b8822cf2" style="stroke:#000000;stroke-width:0.8;"/>
      </defs>
      <g>
       <use style="stroke:#000000;stroke-width:0.8;" x="137.418972" xlink:href="#m49b8822cf2" y="320.4"/>
      </g>
     </g>
     <g id="text_1">
      <!-- 2020-04-01 -->
      <defs>
       <path d="M 19.1875 8.296875 
L 53.609375 8.296875 
L 53.609375 0 
L 7.328125 0 
L 7.328125 8.296875 
Q 12.9375 14.109375 22.625 23.890625 
Q 32.328125 33.6875 34.8125 36.53125 
Q 39.546875 41.84375 41.421875 45.53125 
Q 43.3125 49.21875 43.3125 52.78125 
Q 43.3125 58.59375 39.234375 62.25 
Q 35.15625 65.921875 28.609375 65.921875 
Q 23.96875 65.921875 18.8125 64.3125 
Q 13.671875 62.703125 7.8125 59.421875 
L 7.8125 69.390625 
Q 13.765625 71.78125 18.9375 73 
Q 24.125 74.21875 28.421875 74.21875 
Q 39.75 74.21875 46.484375 68.546875 
Q 53.21875 62.890625 53.21875 53.421875 
Q 53.21875 48.921875 51.53125 44.890625 
Q 49.859375 40.875 45.40625 35.40625 
Q 44.1875 33.984375 37.640625 27.21875 
Q 31.109375 20.453125 19.1875 8.296875 
z
" id="DejaVuSans-50"/>
       <path d="M 31.78125 66.40625 
Q 24.171875 66.40625 20.328125 58.90625 
Q 16.5 51.421875 16.5 36.375 
Q 16.5 21.390625 20.328125 13.890625 
Q 24.171875 6.390625 31.78125 6.390625 
Q 39.453125 6.390625 43.28125 13.890625 
Q 47.125 21.390625 47.125 36.375 
Q 47.125 51.421875 43.28125 58.90625 
Q 39.453125 66.40625 31.78125 66.40625 
z
M 31.78125 74.21875 
Q 44.046875 74.21875 50.515625 64.515625 
Q 56.984375 54.828125 56.984375 36.375 
Q 56.984375 17.96875 50.515625 8.265625 
Q 44.046875 -1.421875 31.78125 -1.421875 
Q 19.53125 -1.421875 13.0625 8.265625 
Q 6.59375 17.96875 6.59375 36.375 
Q 6.59375 54.828125 13.0625 64.515625 
Q 19.53125 74.21875 31.78125 74.21875 
z
" id="DejaVuSans-48"/>
       <path d="M 4.890625 31.390625 
L 31.203125 31.390625 
L 31.203125 23.390625 
L 4.890625 23.390625 
z
" id="DejaVuSans-45"/>
       <path d="M 37.796875 64.3125 
L 12.890625 25.390625 
L 37.796875 25.390625 
z
M 35.203125 72.90625 
L 47.609375 72.90625 
L 47.609375 25.390625 
L 58.015625 25.390625 
L 58.015625 17.1875 
L 47.609375 17.1875 
L 47.609375 0 
L 37.796875 0 
L 37.796875 17.1875 
L 4.890625 17.1875 
L 4.890625 26.703125 
z
" id="DejaVuSans-52"/>
       <path d="M 12.40625 8.296875 
L 28.515625 8.296875 
L 28.515625 63.921875 
L 10.984375 60.40625 
L 10.984375 69.390625 
L 28.421875 72.90625 
L 38.28125 72.90625 
L 38.28125 8.296875 
L 54.390625 8.296875 
L 54.390625 0 
L 12.40625 0 
z
" id="DejaVuSans-49"/>
      </defs>
      <g transform="translate(108.36116 334.998438)scale(0.1 -0.1)">
       <use xlink:href="#DejaVuSans-50"/>
       <use x="63.623047" xlink:href="#DejaVuSans-48"/>
       <use x="127.246094" xlink:href="#DejaVuSans-50"/>
       <use x="190.869141" xlink:href="#DejaVuSans-48"/>
       <use x="254.492188" xlink:href="#DejaVuSans-45"/>
       <use x="290.576172" xlink:href="#DejaVuSans-48"/>
       <use x="354.199219" xlink:href="#DejaVuSans-52"/>
       <use x="417.822266" xlink:href="#DejaVuSans-45"/>
       <use x="453.90625" xlink:href="#DejaVuSans-48"/>
       <use x="517.529297" xlink:href="#DejaVuSans-49"/>
      </g>
     </g>
    </g>
    <g id="xtick_2">
     <g id="line2d_2">
      <g>
       <use style="stroke:#000000;stroke-width:0.8;" x="214.612648" xlink:href="#m49b8822cf2" y="320.4"/>
      </g>
     </g>
     <g id="text_2">
      <!-- 2020-04-08 -->
      <defs>
       <path d="M 31.78125 34.625 
Q 24.75 34.625 20.71875 30.859375 
Q 16.703125 27.09375 16.703125 20.515625 
Q 16.703125 13.921875 20.71875 10.15625 
Q 24.75 6.390625 31.78125 6.390625 
Q 38.8125 6.390625 42.859375 10.171875 
Q 46.921875 13.96875 46.921875 20.515625 
Q 46.921875 27.09375 42.890625 30.859375 
Q 38.875 34.625 31.78125 34.625 
z
M 21.921875 38.8125 
Q 15.578125 40.375 12.03125 44.71875 
Q 8.5 49.078125 8.5 55.328125 
Q 8.5 64.0625 14.71875 69.140625 
Q 20.953125 74.21875 31.78125 74.21875 
Q 42.671875 74.21875 48.875 69.140625 
Q 55.078125 64.0625 55.078125 55.328125 
Q 55.078125 49.078125 51.53125 44.71875 
Q 48 40.375 41.703125 38.8125 
Q 48.828125 37.15625 52.796875 32.3125 
Q 56.78125 27.484375 56.78125 20.515625 
Q 56.78125 9.90625 50.3125 4.234375 
Q 43.84375 -1.421875 31.78125 -1.421875 
Q 19.734375 -1.421875 13.25 4.234375 
Q 6.78125 9.90625 6.78125 20.515625 
Q 6.78125 27.484375 10.78125 32.3125 
Q 14.796875 37.15625 21.921875 38.8125 
z
M 18.3125 54.390625 
Q 18.3125 48.734375 21.84375 45.5625 
Q 25.390625 42.390625 31.78125 42.390625 
Q 38.140625 42.390625 41.71875 45.5625 
Q 45.3125 48.734375 45.3125 54.390625 
Q 45.3125 60.0625 41.71875 63.234375 
Q 38.140625 66.40625 31.78125 66.40625 
Q 25.390625 66.40625 21.84375 63.234375 
Q 18.3125 60.0625 18.3125 54.390625 
z
" id="DejaVuSans-56"/>
      </defs>
      <g transform="translate(185.554836 334.998438)scale(0.1 -0.1)">
       <use xlink:href="#DejaVuSans-50"/>
       <use x="63.623047" xlink:href="#DejaVuSans-48"/>
       <use x="127.246094" xlink:href="#DejaVuSans-50"/>
       <use x="190.869141" xlink:href="#DejaVuSans-48"/>
       <use x="254.492188" xlink:href="#DejaVuSans-45"/>
       <use x="290.576172" xlink:href="#DejaVuSans-48"/>
       <use x="354.199219" xlink:href="#DejaVuSans-52"/>
       <use x="417.822266" xlink:href="#DejaVuSans-45"/>
       <use x="453.90625" xlink:href="#DejaVuSans-48"/>
       <use x="517.529297" xlink:href="#DejaVuSans-56"/>
      </g>
     </g>
    </g>
    <g id="xtick_3">
     <g id="line2d_3">
      <g>
       <use style="stroke:#000000;stroke-width:0.8;" x="291.806324" xlink:href="#m49b8822cf2" y="320.4"/>
      </g>
     </g>
     <g id="text_3">
      <!-- 2020-04-15 -->
      <defs>
       <path d="M 10.796875 72.90625 
L 49.515625 72.90625 
L 49.515625 64.59375 
L 19.828125 64.59375 
L 19.828125 46.734375 
Q 21.96875 47.46875 24.109375 47.828125 
Q 26.265625 48.1875 28.421875 48.1875 
Q 40.625 48.1875 47.75 41.5 
Q 54.890625 34.8125 54.890625 23.390625 
Q 54.890625 11.625 47.5625 5.09375 
Q 40.234375 -1.421875 26.90625 -1.421875 
Q 22.3125 -1.421875 17.546875 -0.640625 
Q 12.796875 0.140625 7.71875 1.703125 
L 7.71875 11.625 
Q 12.109375 9.234375 16.796875 8.0625 
Q 21.484375 6.890625 26.703125 6.890625 
Q 35.15625 6.890625 40.078125 11.328125 
Q 45.015625 15.765625 45.015625 23.390625 
Q 45.015625 31 40.078125 35.4375 
Q 35.15625 39.890625 26.703125 39.890625 
Q 22.75 39.890625 18.8125 39.015625 
Q 14.890625 38.140625 10.796875 36.28125 
z
" id="DejaVuSans-53"/>
      </defs>
      <g transform="translate(262.748512 334.998438)scale(0.1 -0.1)">
       <use xlink:href="#DejaVuSans-50"/>
       <use x="63.623047" xlink:href="#DejaVuSans-48"/>
       <use x="127.246094" xlink:href="#DejaVuSans-50"/>
       <use x="190.869141" xlink:href="#DejaVuSans-48"/>
       <use x="254.492188" xlink:href="#DejaVuSans-45"/>
       <use x="290.576172" xlink:href="#DejaVuSans-48"/>
       <use x="354.199219" xlink:href="#DejaVuSans-52"/>
       <use x="417.822266" xlink:href="#DejaVuSans-45"/>
       <use x="453.90625" xlink:href="#DejaVuSans-49"/>
       <use x="517.529297" xlink:href="#DejaVuSans-53"/>
      </g>
     </g>
    </g>
    <g id="xtick_4">
     <g id="line2d_4">
      <g>
       <use style="stroke:#000000;stroke-width:0.8;" x="369" xlink:href="#m49b8822cf2" y="320.4"/>
      </g>
     </g>
     <g id="text_4">
      <!-- 2020-04-22 -->
      <g transform="translate(339.942188 334.998438)scale(0.1 -0.1)">
       <use xlink:href="#DejaVuSans-50"/>
       <use x="63.623047" xlink:href="#DejaVuSans-48"/>
       <use x="127.246094" xlink:href="#DejaVuSans-50"/>
       <use x="190.869141" xlink:href="#DejaVuSans-48"/>
       <use x="254.492188" xlink:href="#DejaVuSans-45"/>
       <use x="290.576172" xlink:href="#DejaVuSans-48"/>
       <use x="354.199219" xlink:href="#DejaVuSans-52"/>
       <use x="417.822266" xlink:href="#DejaVuSans-45"/>
       <use x="453.90625" xlink:href="#DejaVuSans-50"/>
       <use x="517.529297" xlink:href="#DejaVuSans-50"/>
      </g>
     </g>
    </g>
    <g id="xtick_5">
     <g id="line2d_5">
      <g>
       <use style="stroke:#000000;stroke-width:0.8;" x="468.249012" xlink:href="#m49b8822cf2" y="320.4"/>
      </g>
     </g>
     <g id="text_5">
      <!-- 2020-05-01 -->
      <g transform="translate(439.191199 334.998438)scale(0.1 -0.1)">
       <use xlink:href="#DejaVuSans-50"/>
       <use x="63.623047" xlink:href="#DejaVuSans-48"/>
       <use x="127.246094" xlink:href="#DejaVuSans-50"/>
       <use x="190.869141" xlink:href="#DejaVuSans-48"/>
       <use x="254.492188" xlink:href="#DejaVuSans-45"/>
       <use x="290.576172" xlink:href="#DejaVuSans-48"/>
       <use x="354.199219" xlink:href="#DejaVuSans-53"/>
       <use x="417.822266" xlink:href="#DejaVuSans-45"/>
       <use x="453.90625" xlink:href="#DejaVuSans-48"/>
       <use x="517.529297" xlink:href="#DejaVuSans-49"/>
      </g>
     </g>
    </g>
    <g id="xtick_6">
     <g id="line2d_6">
      <g>
       <use style="stroke:#000000;stroke-width:0.8;" x="545.442688" xlink:href="#m49b8822cf2" y="320.4"/>
      </g>
     </g>
     <g id="text_6">
      <!-- 2020-05-08 -->
      <g transform="translate(516.384875 334.998438)scale(0.1 -0.1)">
       <use xlink:href="#DejaVuSans-50"/>
       <use x="63.623047" xlink:href="#DejaVuSans-48"/>
       <use x="127.246094" xlink:href="#DejaVuSans-50"/>
       <use x="190.869141" xlink:href="#DejaVuSans-48"/>
       <use x="254.492188" xlink:href="#DejaVuSans-45"/>
       <use x="290.576172" xlink:href="#DejaVuSans-48"/>
       <use x="354.199219" xlink:href="#DejaVuSans-53"/>
       <use x="417.822266" xlink:href="#DejaVuSans-45"/>
       <use x="453.90625" xlink:href="#DejaVuSans-48"/>
       <use x="517.529297" xlink:href="#DejaVuSans-56"/>
      </g>
     </g>
    </g>
    <g id="xtick_7">
     <g id="line2d_7">
      <g>
       <use style="stroke:#000000;stroke-width:0.8;" x="622.636364" xlink:href="#m49b8822cf2" y="320.4"/>
      </g>
     </g>
     <g id="text_7">
      <!-- 2020-05-15 -->
      <g transform="translate(593.578551 334.998438)scale(0.1 -0.1)">
       <use xlink:href="#DejaVuSans-50"/>
       <use x="63.623047" xlink:href="#DejaVuSans-48"/>
       <use x="127.246094" xlink:href="#DejaVuSans-50"/>
       <use x="190.869141" xlink:href="#DejaVuSans-48"/>
       <use x="254.492188" xlink:href="#DejaVuSans-45"/>
       <use x="290.576172" xlink:href="#DejaVuSans-48"/>
       <use x="354.199219" xlink:href="#DejaVuSans-53"/>
       <use x="417.822266" xlink:href="#DejaVuSans-45"/>
       <use x="453.90625" xlink:href="#DejaVuSans-49"/>
       <use x="517.529297" xlink:href="#DejaVuSans-53"/>
      </g>
     </g>
    </g>
    <g id="text_8">
     <!-- Date -->
     <defs>
      <path d="M 19.671875 64.796875 
L 19.671875 8.109375 
L 31.59375 8.109375 
Q 46.6875 8.109375 53.6875 14.9375 
Q 60.6875 21.78125 60.6875 36.53125 
Q 60.6875 51.171875 53.6875 57.984375 
Q 46.6875 64.796875 31.59375 64.796875 
z
M 9.8125 72.90625 
L 30.078125 72.90625 
Q 51.265625 72.90625 61.171875 64.09375 
Q 71.09375 55.28125 71.09375 36.53125 
Q 71.09375 17.671875 61.125 8.828125 
Q 51.171875 0 30.078125 0 
L 9.8125 0 
z
" id="DejaVuSans-68"/>
      <path d="M 34.28125 27.484375 
Q 23.390625 27.484375 19.1875 25 
Q 14.984375 22.515625 14.984375 16.5 
Q 14.984375 11.71875 18.140625 8.90625 
Q 21.296875 6.109375 26.703125 6.109375 
Q 34.1875 6.109375 38.703125 11.40625 
Q 43.21875 16.703125 43.21875 25.484375 
L 43.21875 27.484375 
z
M 52.203125 31.203125 
L 52.203125 0 
L 43.21875 0 
L 43.21875 8.296875 
Q 40.140625 3.328125 35.546875 0.953125 
Q 30.953125 -1.421875 24.3125 -1.421875 
Q 15.921875 -1.421875 10.953125 3.296875 
Q 6 8.015625 6 15.921875 
Q 6 25.140625 12.171875 29.828125 
Q 18.359375 34.515625 30.609375 34.515625 
L 43.21875 34.515625 
L 43.21875 35.40625 
Q 43.21875 41.609375 39.140625 45 
Q 35.0625 48.390625 27.6875 48.390625 
Q 23 48.390625 18.546875 47.265625 
Q 14.109375 46.140625 10.015625 43.890625 
L 10.015625 52.203125 
Q 14.9375 54.109375 19.578125 55.046875 
Q 24.21875 56 28.609375 56 
Q 40.484375 56 46.34375 49.84375 
Q 52.203125 43.703125 52.203125 31.203125 
z
" id="DejaVuSans-97"/>
      <path d="M 18.3125 70.21875 
L 18.3125 54.6875 
L 36.8125 54.6875 
L 36.8125 47.703125 
L 18.3125 47.703125 
L 18.3125 18.015625 
Q 18.3125 11.328125 20.140625 9.421875 
Q 21.96875 7.515625 27.59375 7.515625 
L 36.8125 7.515625 
L 36.8125 0 
L 27.59375 0 
Q 17.1875 0 13.234375 3.875 
Q 9.28125 7.765625 9.28125 18.015625 
L 9.28125 47.703125 
L 2.6875 47.703125 
L 2.6875 54.6875 
L 9.28125 54.6875 
L 9.28125 70.21875 
z
" id="DejaVuSans-116"/>
      <path d="M 56.203125 29.59375 
L 56.203125 25.203125 
L 14.890625 25.203125 
Q 15.484375 15.921875 20.484375 11.0625 
Q 25.484375 6.203125 34.421875 6.203125 
Q 39.59375 6.203125 44.453125 7.46875 
Q 49.3125 8.734375 54.109375 11.28125 
L 54.109375 2.78125 
Q 49.265625 0.734375 44.1875 -0.34375 
Q 39.109375 -1.421875 33.890625 -1.421875 
Q 20.796875 -1.421875 13.15625 6.1875 
Q 5.515625 13.8125 5.515625 26.8125 
Q 5.515625 40.234375 12.765625 48.109375 
Q 20.015625 56 32.328125 56 
Q 43.359375 56 49.78125 48.890625 
Q 56.203125 41.796875 56.203125 29.59375 
z
M 47.21875 32.234375 
Q 47.125 39.59375 43.09375 43.984375 
Q 39.0625 48.390625 32.421875 48.390625 
Q 24.90625 48.390625 20.390625 44.140625 
Q 15.875 39.890625 15.1875 32.171875 
z
" id="DejaVuSans-101"/>
     </defs>
     <g transform="translate(357.049219 348.676562)scale(0.1 -0.1)">
      <use xlink:href="#DejaVuSans-68"/>
      <use x="77.001953" xlink:href="#DejaVuSans-97"/>
      <use x="138.28125" xlink:href="#DejaVuSans-116"/>
      <use x="177.490234" xlink:href="#DejaVuSans-101"/>
     </g>
    </g>
   </g>
   <g id="matplotlib.axis_2">
    <g id="ytick_1">
     <g id="line2d_8">
      <defs>
       <path d="M 0 0 
L -3.5 0 
" id="mefc5f2a60b" style="stroke:#000000;stroke-width:0.8;"/>
      </defs>
      <g>
       <use style="stroke:#000000;stroke-width:0.8;" x="90" xlink:href="#mefc5f2a60b" y="309.457895"/>
      </g>
     </g>
     <g id="text_9">
      <!-- 0 -->
      <g transform="translate(76.6375 313.257113)scale(0.1 -0.1)">
       <use xlink:href="#DejaVuSans-48"/>
      </g>
     </g>
    </g>
    <g id="ytick_2">
     <g id="line2d_9">
      <g>
       <use style="stroke:#000000;stroke-width:0.8;" x="90" xlink:href="#mefc5f2a60b" y="276.3"/>
      </g>
     </g>
     <g id="text_10">
      <!-- 20 -->
      <g transform="translate(70.275 280.099219)scale(0.1 -0.1)">
       <use xlink:href="#DejaVuSans-50"/>
       <use x="63.623047" xlink:href="#DejaVuSans-48"/>
      </g>
     </g>
    </g>
    <g id="ytick_3">
     <g id="line2d_10">
      <g>
       <use style="stroke:#000000;stroke-width:0.8;" x="90" xlink:href="#mefc5f2a60b" y="243.142105"/>
      </g>
     </g>
     <g id="text_11">
      <!-- 40 -->
      <g transform="translate(70.275 246.941324)scale(0.1 -0.1)">
       <use xlink:href="#DejaVuSans-52"/>
       <use x="63.623047" xlink:href="#DejaVuSans-48"/>
      </g>
     </g>
    </g>
    <g id="ytick_4">
     <g id="line2d_11">
      <g>
       <use style="stroke:#000000;stroke-width:0.8;" x="90" xlink:href="#mefc5f2a60b" y="209.984211"/>
      </g>
     </g>
     <g id="text_12">
      <!-- 60 -->
      <defs>
       <path d="M 33.015625 40.375 
Q 26.375 40.375 22.484375 35.828125 
Q 18.609375 31.296875 18.609375 23.390625 
Q 18.609375 15.53125 22.484375 10.953125 
Q 26.375 6.390625 33.015625 6.390625 
Q 39.65625 6.390625 43.53125 10.953125 
Q 47.40625 15.53125 47.40625 23.390625 
Q 47.40625 31.296875 43.53125 35.828125 
Q 39.65625 40.375 33.015625 40.375 
z
M 52.59375 71.296875 
L 52.59375 62.3125 
Q 48.875 64.0625 45.09375 64.984375 
Q 41.3125 65.921875 37.59375 65.921875 
Q 27.828125 65.921875 22.671875 59.328125 
Q 17.53125 52.734375 16.796875 39.40625 
Q 19.671875 43.65625 24.015625 45.921875 
Q 28.375 48.1875 33.59375 48.1875 
Q 44.578125 48.1875 50.953125 41.515625 
Q 57.328125 34.859375 57.328125 23.390625 
Q 57.328125 12.15625 50.6875 5.359375 
Q 44.046875 -1.421875 33.015625 -1.421875 
Q 20.359375 -1.421875 13.671875 8.265625 
Q 6.984375 17.96875 6.984375 36.375 
Q 6.984375 53.65625 15.1875 63.9375 
Q 23.390625 74.21875 37.203125 74.21875 
Q 40.921875 74.21875 44.703125 73.484375 
Q 48.484375 72.75 52.59375 71.296875 
z
" id="DejaVuSans-54"/>
      </defs>
      <g transform="translate(70.275 213.783429)scale(0.1 -0.1)">
       <use xlink:href="#DejaVuSans-54"/>
       <use x="63.623047" xlink:href="#DejaVuSans-48"/>
      </g>
     </g>
    </g>
    <g id="ytick_5">
     <g id="line2d_12">
      <g>
       <use style="stroke:#000000;stroke-width:0.8;" x="90" xlink:href="#mefc5f2a60b" y="176.826316"/>
      </g>
     </g>
     <g id="text_13">
      <!-- 80 -->
      <g transform="translate(70.275 180.625535)scale(0.1 -0.1)">
       <use xlink:href="#DejaVuSans-56"/>
       <use x="63.623047" xlink:href="#DejaVuSans-48"/>
      </g>
     </g>
    </g>
    <g id="ytick_6">
     <g id="line2d_13">
      <g>
       <use style="stroke:#000000;stroke-width:0.8;" x="90" xlink:href="#mefc5f2a60b" y="143.668421"/>
      </g>
     </g>
     <g id="text_14">
      <!-- 100 -->
      <g transform="translate(63.9125 147.46764)scale(0.1 -0.1)">
       <use xlink:href="#DejaVuSans-49"/>
       <use x="63.623047" xlink:href="#DejaVuSans-48"/>
       <use x="127.246094" xlink:href="#DejaVuSans-48"/>
      </g>
     </g>
    </g>
    <g id="ytick_7">
     <g id="line2d_14">
      <g>
       <use style="stroke:#000000;stroke-width:0.8;" x="90" xlink:href="#mefc5f2a60b" y="110.510526"/>
      </g>
     </g>
     <g id="text_15">
      <!-- 120 -->
      <g transform="translate(63.9125 114.309745)scale(0.1 -0.1)">
       <use xlink:href="#DejaVuSans-49"/>
       <use x="63.623047" xlink:href="#DejaVuSans-50"/>
       <use x="127.246094" xlink:href="#DejaVuSans-48"/>
      </g>
     </g>
    </g>
    <g id="ytick_8">
     <g id="line2d_15">
      <g>
       <use style="stroke:#000000;stroke-width:0.8;" x="90" xlink:href="#mefc5f2a60b" y="77.352632"/>
      </g>
     </g>
     <g id="text_16">
      <!-- 140 -->
      <g transform="translate(63.9125 81.15185)scale(0.1 -0.1)">
       <use xlink:href="#DejaVuSans-49"/>
       <use x="63.623047" xlink:href="#DejaVuSans-52"/>
       <use x="127.246094" xlink:href="#DejaVuSans-48"/>
      </g>
     </g>
    </g>
    <g id="ytick_9">
     <g id="line2d_16">
      <g>
       <use style="stroke:#000000;stroke-width:0.8;" x="90" xlink:href="#mefc5f2a60b" y="44.194737"/>
      </g>
     </g>
     <g id="text_17">
      <!-- 160 -->
      <g transform="translate(63.9125 47.993956)scale(0.1 -0.1)">
       <use xlink:href="#DejaVuSans-49"/>
       <use x="63.623047" xlink:href="#DejaVuSans-54"/>
       <use x="127.246094" xlink:href="#DejaVuSans-48"/>
      </g>
     </g>
    </g>
    <g id="text_18">
     <!-- Number of tweets -->
     <defs>
      <path d="M 9.8125 72.90625 
L 23.09375 72.90625 
L 55.421875 11.921875 
L 55.421875 72.90625 
L 64.984375 72.90625 
L 64.984375 0 
L 51.703125 0 
L 19.390625 60.984375 
L 19.390625 0 
L 9.8125 0 
z
" id="DejaVuSans-78"/>
      <path d="M 8.5 21.578125 
L 8.5 54.6875 
L 17.484375 54.6875 
L 17.484375 21.921875 
Q 17.484375 14.15625 20.5 10.265625 
Q 23.53125 6.390625 29.59375 6.390625 
Q 36.859375 6.390625 41.078125 11.03125 
Q 45.3125 15.671875 45.3125 23.6875 
L 45.3125 54.6875 
L 54.296875 54.6875 
L 54.296875 0 
L 45.3125 0 
L 45.3125 8.40625 
Q 42.046875 3.421875 37.71875 1 
Q 33.40625 -1.421875 27.6875 -1.421875 
Q 18.265625 -1.421875 13.375 4.4375 
Q 8.5 10.296875 8.5 21.578125 
z
M 31.109375 56 
z
" id="DejaVuSans-117"/>
      <path d="M 52 44.1875 
Q 55.375 50.25 60.0625 53.125 
Q 64.75 56 71.09375 56 
Q 79.640625 56 84.28125 50.015625 
Q 88.921875 44.046875 88.921875 33.015625 
L 88.921875 0 
L 79.890625 0 
L 79.890625 32.71875 
Q 79.890625 40.578125 77.09375 44.375 
Q 74.3125 48.1875 68.609375 48.1875 
Q 61.625 48.1875 57.5625 43.546875 
Q 53.515625 38.921875 53.515625 30.90625 
L 53.515625 0 
L 44.484375 0 
L 44.484375 32.71875 
Q 44.484375 40.625 41.703125 44.40625 
Q 38.921875 48.1875 33.109375 48.1875 
Q 26.21875 48.1875 22.15625 43.53125 
Q 18.109375 38.875 18.109375 30.90625 
L 18.109375 0 
L 9.078125 0 
L 9.078125 54.6875 
L 18.109375 54.6875 
L 18.109375 46.1875 
Q 21.1875 51.21875 25.484375 53.609375 
Q 29.78125 56 35.6875 56 
Q 41.65625 56 45.828125 52.96875 
Q 50 49.953125 52 44.1875 
z
" id="DejaVuSans-109"/>
      <path d="M 48.6875 27.296875 
Q 48.6875 37.203125 44.609375 42.84375 
Q 40.53125 48.484375 33.40625 48.484375 
Q 26.265625 48.484375 22.1875 42.84375 
Q 18.109375 37.203125 18.109375 27.296875 
Q 18.109375 17.390625 22.1875 11.75 
Q 26.265625 6.109375 33.40625 6.109375 
Q 40.53125 6.109375 44.609375 11.75 
Q 48.6875 17.390625 48.6875 27.296875 
z
M 18.109375 46.390625 
Q 20.953125 51.265625 25.265625 53.625 
Q 29.59375 56 35.59375 56 
Q 45.5625 56 51.78125 48.09375 
Q 58.015625 40.1875 58.015625 27.296875 
Q 58.015625 14.40625 51.78125 6.484375 
Q 45.5625 -1.421875 35.59375 -1.421875 
Q 29.59375 -1.421875 25.265625 0.953125 
Q 20.953125 3.328125 18.109375 8.203125 
L 18.109375 0 
L 9.078125 0 
L 9.078125 75.984375 
L 18.109375 75.984375 
z
" id="DejaVuSans-98"/>
      <path d="M 41.109375 46.296875 
Q 39.59375 47.171875 37.8125 47.578125 
Q 36.03125 48 33.890625 48 
Q 26.265625 48 22.1875 43.046875 
Q 18.109375 38.09375 18.109375 28.8125 
L 18.109375 0 
L 9.078125 0 
L 9.078125 54.6875 
L 18.109375 54.6875 
L 18.109375 46.1875 
Q 20.953125 51.171875 25.484375 53.578125 
Q 30.03125 56 36.53125 56 
Q 37.453125 56 38.578125 55.875 
Q 39.703125 55.765625 41.0625 55.515625 
z
" id="DejaVuSans-114"/>
      <path id="DejaVuSans-32"/>
      <path d="M 30.609375 48.390625 
Q 23.390625 48.390625 19.1875 42.75 
Q 14.984375 37.109375 14.984375 27.296875 
Q 14.984375 17.484375 19.15625 11.84375 
Q 23.34375 6.203125 30.609375 6.203125 
Q 37.796875 6.203125 41.984375 11.859375 
Q 46.1875 17.53125 46.1875 27.296875 
Q 46.1875 37.015625 41.984375 42.703125 
Q 37.796875 48.390625 30.609375 48.390625 
z
M 30.609375 56 
Q 42.328125 56 49.015625 48.375 
Q 55.71875 40.765625 55.71875 27.296875 
Q 55.71875 13.875 49.015625 6.21875 
Q 42.328125 -1.421875 30.609375 -1.421875 
Q 18.84375 -1.421875 12.171875 6.21875 
Q 5.515625 13.875 5.515625 27.296875 
Q 5.515625 40.765625 12.171875 48.375 
Q 18.84375 56 30.609375 56 
z
" id="DejaVuSans-111"/>
      <path d="M 37.109375 75.984375 
L 37.109375 68.5 
L 28.515625 68.5 
Q 23.6875 68.5 21.796875 66.546875 
Q 19.921875 64.59375 19.921875 59.515625 
L 19.921875 54.6875 
L 34.71875 54.6875 
L 34.71875 47.703125 
L 19.921875 47.703125 
L 19.921875 0 
L 10.890625 0 
L 10.890625 47.703125 
L 2.296875 47.703125 
L 2.296875 54.6875 
L 10.890625 54.6875 
L 10.890625 58.5 
Q 10.890625 67.625 15.140625 71.796875 
Q 19.390625 75.984375 28.609375 75.984375 
z
" id="DejaVuSans-102"/>
      <path d="M 4.203125 54.6875 
L 13.1875 54.6875 
L 24.421875 12.015625 
L 35.59375 54.6875 
L 46.1875 54.6875 
L 57.421875 12.015625 
L 68.609375 54.6875 
L 77.59375 54.6875 
L 63.28125 0 
L 52.6875 0 
L 40.921875 44.828125 
L 29.109375 0 
L 18.5 0 
z
" id="DejaVuSans-119"/>
      <path d="M 44.28125 53.078125 
L 44.28125 44.578125 
Q 40.484375 46.53125 36.375 47.5 
Q 32.28125 48.484375 27.875 48.484375 
Q 21.1875 48.484375 17.84375 46.4375 
Q 14.5 44.390625 14.5 40.28125 
Q 14.5 37.15625 16.890625 35.375 
Q 19.28125 33.59375 26.515625 31.984375 
L 29.59375 31.296875 
Q 39.15625 29.25 43.1875 25.515625 
Q 47.21875 21.78125 47.21875 15.09375 
Q 47.21875 7.46875 41.1875 3.015625 
Q 35.15625 -1.421875 24.609375 -1.421875 
Q 20.21875 -1.421875 15.453125 -0.5625 
Q 10.6875 0.296875 5.421875 2 
L 5.421875 11.28125 
Q 10.40625 8.6875 15.234375 7.390625 
Q 20.0625 6.109375 24.8125 6.109375 
Q 31.15625 6.109375 34.5625 8.28125 
Q 37.984375 10.453125 37.984375 14.40625 
Q 37.984375 18.0625 35.515625 20.015625 
Q 33.0625 21.96875 24.703125 23.78125 
L 21.578125 24.515625 
Q 13.234375 26.265625 9.515625 29.90625 
Q 5.8125 33.546875 5.8125 39.890625 
Q 5.8125 47.609375 11.28125 51.796875 
Q 16.75 56 26.8125 56 
Q 31.78125 56 36.171875 55.265625 
Q 40.578125 54.546875 44.28125 53.078125 
z
" id="DejaVuSans-115"/>
     </defs>
     <g transform="translate(57.832812 226.650781)rotate(-90)scale(0.1 -0.1)">
      <use xlink:href="#DejaVuSans-78"/>
      <use x="74.804688" xlink:href="#DejaVuSans-117"/>
      <use x="138.183594" xlink:href="#DejaVuSans-109"/>
      <use x="235.595703" xlink:href="#DejaVuSans-98"/>
      <use x="299.072266" xlink:href="#DejaVuSans-101"/>
      <use x="360.595703" xlink:href="#DejaVuSans-114"/>
      <use x="401.708984" xlink:href="#DejaVuSans-32"/>
      <use x="433.496094" xlink:href="#DejaVuSans-111"/>
      <use x="494.677734" xlink:href="#DejaVuSans-102"/>
      <use x="529.882812" xlink:href="#DejaVuSans-32"/>
      <use x="561.669922" xlink:href="#DejaVuSans-116"/>
      <use x="600.878906" xlink:href="#DejaVuSans-119"/>
      <use x="682.666016" xlink:href="#DejaVuSans-101"/>
      <use x="744.189453" xlink:href="#DejaVuSans-101"/>
      <use x="805.712891" xlink:href="#DejaVuSans-116"/>
      <use x="844.921875" xlink:href="#DejaVuSans-115"/>
     </g>
    </g>
   </g>
   <g id="line2d_17">
    <path clip-path="url(#p52b2dde09a)" d="M 115.363636 263.036842 
L 126.391304 264.694737 
L 137.418972 279.615789 
L 148.44664 294.536842 
L 159.474308 286.247368 
L 170.501976 296.194737 
L 181.529644 301.168421 
L 192.557312 238.168421 
L 203.58498 279.615789 
L 214.612648 271.326316 
L 225.640316 263.036842 
L 236.667984 264.694737 
L 247.695652 302.826316 
L 258.72332 307.8 
L 269.750988 301.168421 
L 280.778656 294.536842 
L 291.806324 287.905263 
L 302.833992 284.589474 
L 313.86166 268.010526 
L 324.889328 306.142105 
L 335.916996 301.168421 
L 346.944664 229.878947 
L 357.972332 266.352632 
L 369 292.878947 
L 380.027668 289.563158 
L 391.055336 289.563158 
L 402.083004 271.326316 
L 413.110672 302.826316 
L 424.13834 263.036842 
L 435.166008 287.905263 
L 446.193676 251.431579 
L 457.221344 271.326316 
L 468.249012 165.221053 
L 479.27668 297.852632 
L 490.304348 297.852632 
L 501.332016 287.905263 
L 512.359684 276.3 
L 523.387352 231.536842 
L 534.41502 253.089474 
L 545.442688 281.273684 
L 556.470356 294.536842 
L 567.498024 302.826316 
L 578.525692 281.273684 
L 589.55336 292.878947 
L 600.581028 268.010526 
L 611.608696 289.563158 
L 622.636364 261.378947 
" style="fill:none;stroke:#1f77b4;stroke-linecap:square;stroke-width:1.5;"/>
   </g>
   <g id="line2d_18">
    <path clip-path="url(#p52b2dde09a)" d="M 115.363636 263.036842 
L 126.391304 239.826316 
L 137.418972 274.642105 
L 148.44664 246.457895 
L 159.474308 208.326316 
L 170.501976 277.957895 
L 181.529644 281.273684 
L 192.557312 107.194737 
L 203.58498 216.615789 
L 214.612648 219.931579 
L 225.640316 254.747368 
L 236.667984 274.642105 
L 247.695652 294.536842 
L 258.72332 276.3 
L 269.750988 284.589474 
L 280.778656 233.194737 
L 291.806324 55.8 
L 302.833992 183.457895 
L 313.86166 249.773684 
L 324.889328 279.615789 
L 335.916996 268.010526 
L 346.944664 216.615789 
L 357.972332 173.510526 
L 369 168.536842 
L 380.027668 193.405263 
L 391.055336 209.984211 
L 402.083004 236.510526 
L 413.110672 233.194737 
L 424.13834 256.405263 
L 435.166008 203.352632 
L 446.193676 72.378947 
L 457.221344 200.036842 
L 468.249012 178.484211 
L 479.27668 266.352632 
L 490.304348 234.852632 
L 501.332016 213.3 
L 512.359684 156.931579 
L 523.387352 188.431579 
L 534.41502 175.168421 
L 545.442688 249.773684 
L 556.470356 272.984211 
L 567.498024 233.194737 
L 578.525692 251.431579 
L 589.55336 218.273684 
L 600.581028 191.747368 
L 611.608696 236.510526 
L 622.636364 254.747368 
" style="fill:none;stroke:#ff7f0e;stroke-linecap:square;stroke-width:1.5;"/>
   </g>
   <g id="line2d_19">
    <path clip-path="url(#p52b2dde09a)" d="M 115.363636 183.457895 
L 126.391304 166.878947 
L 137.418972 211.642105 
L 148.44664 191.747368 
L 159.474308 161.905263 
L 170.501976 209.984211 
L 181.529644 234.852632 
L 192.557312 74.036842 
L 203.58498 148.642105 
L 214.612648 190.089474 
L 225.640316 206.668421 
L 236.667984 248.115789 
L 247.695652 284.589474 
L 258.72332 296.194737 
L 269.750988 306.142105 
L 280.778656 214.957895 
L 291.806324 103.878947 
L 302.833992 132.063158 
L 313.86166 193.405263 
L 324.889328 251.431579 
L 335.916996 239.826316 
L 346.944664 180.142105 
L 357.972332 168.536842 
L 369 170.194737 
L 380.027668 151.957895 
L 391.055336 193.405263 
L 402.083004 208.326316 
L 413.110672 205.010526 
L 424.13834 171.852632 
L 435.166008 188.431579 
L 446.193676 175.168421 
L 457.221344 153.615789 
L 468.249012 77.352632 
L 479.27668 213.3 
L 490.304348 253.089474 
L 501.332016 113.826316 
L 512.359684 158.589474 
L 523.387352 74.036842 
L 534.41502 138.694737 
L 545.442688 188.431579 
L 556.470356 268.010526 
L 567.498024 294.536842 
L 578.525692 213.3 
L 589.55336 209.984211 
L 600.581028 219.931579 
L 611.608696 218.273684 
L 622.636364 228.221053 
" style="fill:none;stroke:#2ca02c;stroke-linecap:square;stroke-width:1.5;"/>
   </g>
   <g id="line2d_20">
    <path clip-path="url(#p52b2dde09a)" d="M 115.363636 258.063158 
L 126.391304 246.457895 
L 137.418972 263.036842 
L 148.44664 263.036842 
L 159.474308 271.326316 
L 170.501976 276.3 
L 181.529644 296.194737 
L 192.557312 256.405263 
L 203.58498 277.957895 
L 214.612648 286.247368 
L 225.640316 284.589474 
L 236.667984 296.194737 
L 247.695652 304.484211 
L 258.72332 306.142105 
L 269.750988 292.878947 
L 280.778656 292.878947 
L 291.806324 292.878947 
L 302.833992 281.273684 
L 313.86166 277.957895 
L 324.889328 286.247368 
L 335.916996 296.194737 
L 346.944664 277.957895 
L 357.972332 269.668421 
L 369 258.063158 
L 380.027668 284.589474 
L 391.055336 276.3 
L 402.083004 289.563158 
L 413.110672 297.852632 
L 424.13834 276.3 
L 435.166008 289.563158 
L 446.193676 286.247368 
L 457.221344 286.247368 
L 468.249012 243.142105 
L 479.27668 289.563158 
L 490.304348 291.221053 
L 501.332016 276.3 
L 512.359684 271.326316 
L 523.387352 253.089474 
L 534.41502 272.984211 
L 545.442688 277.957895 
L 556.470356 284.589474 
L 567.498024 291.221053 
L 578.525692 294.536842 
L 589.55336 294.536842 
L 600.581028 304.484211 
L 611.608696 294.536842 
L 622.636364 299.510526 
" style="fill:none;stroke:#d62728;stroke-linecap:square;stroke-width:1.5;"/>
   </g>
   <g id="line2d_21">
    <path clip-path="url(#p52b2dde09a)" d="M 115.363636 249.773684 
L 126.391304 241.484211 
L 137.418972 284.589474 
L 148.44664 264.694737 
L 159.474308 244.8 
L 170.501976 289.563158 
L 181.529644 296.194737 
L 192.557312 211.642105 
L 203.58498 259.721053 
L 214.612648 263.036842 
L 225.640316 289.563158 
L 236.667984 277.957895 
L 247.695652 294.536842 
L 258.72332 304.484211 
L 269.750988 297.852632 
L 280.778656 286.247368 
L 291.806324 264.694737 
L 302.833992 281.273684 
L 313.86166 281.273684 
L 324.889328 286.247368 
L 335.916996 294.536842 
L 346.944664 246.457895 
L 357.972332 276.3 
L 369 263.036842 
L 380.027668 249.773684 
L 391.055336 234.852632 
L 402.083004 299.510526 
L 413.110672 294.536842 
L 424.13834 277.957895 
L 435.166008 277.957895 
L 446.193676 296.194737 
L 457.221344 272.984211 
L 468.249012 292.878947 
L 479.27668 296.194737 
L 490.304348 286.247368 
L 501.332016 263.036842 
L 512.359684 259.721053 
L 523.387352 284.589474 
L 534.41502 253.089474 
L 545.442688 238.168421 
L 556.470356 299.510526 
L 567.498024 287.905263 
L 578.525692 291.221053 
L 589.55336 276.3 
L 600.581028 291.221053 
L 611.608696 299.510526 
L 622.636364 254.747368 
" style="fill:none;stroke:#9467bd;stroke-linecap:square;stroke-width:1.5;"/>
   </g>
   <g id="line2d_22">
    <path clip-path="url(#p52b2dde09a)" d="M 115.363636 291.221053 
L 126.391304 264.694737 
L 137.418972 281.273684 
L 148.44664 291.221053 
L 159.474308 292.878947 
L 170.501976 294.536842 
L 181.529644 307.8 
L 192.557312 276.3 
L 203.58498 269.668421 
L 214.612648 284.589474 
L 225.640316 302.826316 
L 236.667984 302.826316 
L 247.695652 304.484211 
L 258.72332 301.168421 
L 269.750988 307.8 
L 280.778656 294.536842 
L 291.806324 297.852632 
L 302.833992 299.510526 
L 313.86166 294.536842 
L 324.889328 302.826316 
L 335.916996 304.484211 
L 346.944664 282.931579 
L 357.972332 274.642105 
L 369 269.668421 
L 380.027668 281.273684 
L 391.055336 292.878947 
L 402.083004 286.247368 
L 413.110672 287.905263 
L 424.13834 297.852632 
L 435.166008 281.273684 
L 446.193676 277.957895 
L 457.221344 276.3 
L 468.249012 249.773684 
L 479.27668 294.536842 
L 490.304348 287.905263 
L 501.332016 274.642105 
L 512.359684 296.194737 
L 523.387352 269.668421 
L 534.41502 289.563158 
L 545.442688 302.826316 
L 556.470356 292.878947 
L 567.498024 306.142105 
L 578.525692 302.826316 
L 589.55336 282.931579 
L 600.581028 289.563158 
L 611.608696 286.247368 
L 622.636364 291.221053 
" style="fill:none;stroke:#8c564b;stroke-linecap:square;stroke-width:1.5;"/>
   </g>
   <g id="patch_3">
    <path d="M 90 320.4 
L 90 43.2 
" style="fill:none;stroke:#000000;stroke-linecap:square;stroke-linejoin:miter;stroke-width:0.8;"/>
   </g>
   <g id="patch_4">
    <path d="M 648 320.4 
L 648 43.2 
" style="fill:none;stroke:#000000;stroke-linecap:square;stroke-linejoin:miter;stroke-width:0.8;"/>
   </g>
   <g id="patch_5">
    <path d="M 90 320.4 
L 648 320.4 
" style="fill:none;stroke:#000000;stroke-linecap:square;stroke-linejoin:miter;stroke-width:0.8;"/>
   </g>
   <g id="patch_6">
    <path d="M 90 43.2 
L 648 43.2 
" style="fill:none;stroke:#000000;stroke-linecap:square;stroke-linejoin:miter;stroke-width:0.8;"/>
   </g>
   <g id="text_19">
    <!-- Number of tweets for date for accounts connected to each candidate  -->
    <defs>
     <path d="M 45.40625 46.390625 
L 45.40625 75.984375 
L 54.390625 75.984375 
L 54.390625 0 
L 45.40625 0 
L 45.40625 8.203125 
Q 42.578125 3.328125 38.25 0.953125 
Q 33.9375 -1.421875 27.875 -1.421875 
Q 17.96875 -1.421875 11.734375 6.484375 
Q 5.515625 14.40625 5.515625 27.296875 
Q 5.515625 40.1875 11.734375 48.09375 
Q 17.96875 56 27.875 56 
Q 33.9375 56 38.25 53.625 
Q 42.578125 51.265625 45.40625 46.390625 
z
M 14.796875 27.296875 
Q 14.796875 17.390625 18.875 11.75 
Q 22.953125 6.109375 30.078125 6.109375 
Q 37.203125 6.109375 41.296875 11.75 
Q 45.40625 17.390625 45.40625 27.296875 
Q 45.40625 37.203125 41.296875 42.84375 
Q 37.203125 48.484375 30.078125 48.484375 
Q 22.953125 48.484375 18.875 42.84375 
Q 14.796875 37.203125 14.796875 27.296875 
z
" id="DejaVuSans-100"/>
     <path d="M 48.78125 52.59375 
L 48.78125 44.1875 
Q 44.96875 46.296875 41.140625 47.34375 
Q 37.3125 48.390625 33.40625 48.390625 
Q 24.65625 48.390625 19.8125 42.84375 
Q 14.984375 37.3125 14.984375 27.296875 
Q 14.984375 17.28125 19.8125 11.734375 
Q 24.65625 6.203125 33.40625 6.203125 
Q 37.3125 6.203125 41.140625 7.25 
Q 44.96875 8.296875 48.78125 10.40625 
L 48.78125 2.09375 
Q 45.015625 0.34375 40.984375 -0.53125 
Q 36.96875 -1.421875 32.421875 -1.421875 
Q 20.0625 -1.421875 12.78125 6.34375 
Q 5.515625 14.109375 5.515625 27.296875 
Q 5.515625 40.671875 12.859375 48.328125 
Q 20.21875 56 33.015625 56 
Q 37.15625 56 41.109375 55.140625 
Q 45.0625 54.296875 48.78125 52.59375 
z
" id="DejaVuSans-99"/>
     <path d="M 54.890625 33.015625 
L 54.890625 0 
L 45.90625 0 
L 45.90625 32.71875 
Q 45.90625 40.484375 42.875 44.328125 
Q 39.84375 48.1875 33.796875 48.1875 
Q 26.515625 48.1875 22.3125 43.546875 
Q 18.109375 38.921875 18.109375 30.90625 
L 18.109375 0 
L 9.078125 0 
L 9.078125 54.6875 
L 18.109375 54.6875 
L 18.109375 46.1875 
Q 21.34375 51.125 25.703125 53.5625 
Q 30.078125 56 35.796875 56 
Q 45.21875 56 50.046875 50.171875 
Q 54.890625 44.34375 54.890625 33.015625 
z
" id="DejaVuSans-110"/>
     <path d="M 54.890625 33.015625 
L 54.890625 0 
L 45.90625 0 
L 45.90625 32.71875 
Q 45.90625 40.484375 42.875 44.328125 
Q 39.84375 48.1875 33.796875 48.1875 
Q 26.515625 48.1875 22.3125 43.546875 
Q 18.109375 38.921875 18.109375 30.90625 
L 18.109375 0 
L 9.078125 0 
L 9.078125 75.984375 
L 18.109375 75.984375 
L 18.109375 46.1875 
Q 21.34375 51.125 25.703125 53.5625 
Q 30.078125 56 35.796875 56 
Q 45.21875 56 50.046875 50.171875 
Q 54.890625 44.34375 54.890625 33.015625 
z
" id="DejaVuSans-104"/>
     <path d="M 9.421875 54.6875 
L 18.40625 54.6875 
L 18.40625 0 
L 9.421875 0 
z
M 9.421875 75.984375 
L 18.40625 75.984375 
L 18.40625 64.59375 
L 9.421875 64.59375 
z
" id="DejaVuSans-105"/>
    </defs>
    <g transform="translate(159.260625 37.2)scale(0.12 -0.12)">
     <use xlink:href="#DejaVuSans-78"/>
     <use x="74.804688" xlink:href="#DejaVuSans-117"/>
     <use x="138.183594" xlink:href="#DejaVuSans-109"/>
     <use x="235.595703" xlink:href="#DejaVuSans-98"/>
     <use x="299.072266" xlink:href="#DejaVuSans-101"/>
     <use x="360.595703" xlink:href="#DejaVuSans-114"/>
     <use x="401.708984" xlink:href="#DejaVuSans-32"/>
     <use x="433.496094" xlink:href="#DejaVuSans-111"/>
     <use x="494.677734" xlink:href="#DejaVuSans-102"/>
     <use x="529.882812" xlink:href="#DejaVuSans-32"/>
     <use x="561.669922" xlink:href="#DejaVuSans-116"/>
     <use x="600.878906" xlink:href="#DejaVuSans-119"/>
     <use x="682.666016" xlink:href="#DejaVuSans-101"/>
     <use x="744.189453" xlink:href="#DejaVuSans-101"/>
     <use x="805.712891" xlink:href="#DejaVuSans-116"/>
     <use x="844.921875" xlink:href="#DejaVuSans-115"/>
     <use x="897.021484" xlink:href="#DejaVuSans-32"/>
     <use x="928.808594" xlink:href="#DejaVuSans-102"/>
     <use x="964.013672" xlink:href="#DejaVuSans-111"/>
     <use x="1025.195312" xlink:href="#DejaVuSans-114"/>
     <use x="1066.308594" xlink:href="#DejaVuSans-32"/>
     <use x="1098.095703" xlink:href="#DejaVuSans-100"/>
     <use x="1161.572266" xlink:href="#DejaVuSans-97"/>
     <use x="1222.851562" xlink:href="#DejaVuSans-116"/>
     <use x="1262.060547" xlink:href="#DejaVuSans-101"/>
     <use x="1323.583984" xlink:href="#DejaVuSans-32"/>
     <use x="1355.371094" xlink:href="#DejaVuSans-102"/>
     <use x="1390.576172" xlink:href="#DejaVuSans-111"/>
     <use x="1451.757812" xlink:href="#DejaVuSans-114"/>
     <use x="1492.871094" xlink:href="#DejaVuSans-32"/>
     <use x="1524.658203" xlink:href="#DejaVuSans-97"/>
     <use x="1585.9375" xlink:href="#DejaVuSans-99"/>
     <use x="1640.917969" xlink:href="#DejaVuSans-99"/>
     <use x="1695.898438" xlink:href="#DejaVuSans-111"/>
     <use x="1757.080078" xlink:href="#DejaVuSans-117"/>
     <use x="1820.458984" xlink:href="#DejaVuSans-110"/>
     <use x="1883.837891" xlink:href="#DejaVuSans-116"/>
     <use x="1923.046875" xlink:href="#DejaVuSans-115"/>
     <use x="1975.146484" xlink:href="#DejaVuSans-32"/>
     <use x="2006.933594" xlink:href="#DejaVuSans-99"/>
     <use x="2061.914062" xlink:href="#DejaVuSans-111"/>
     <use x="2123.095703" xlink:href="#DejaVuSans-110"/>
     <use x="2186.474609" xlink:href="#DejaVuSans-110"/>
     <use x="2249.853516" xlink:href="#DejaVuSans-101"/>
     <use x="2311.376953" xlink:href="#DejaVuSans-99"/>
     <use x="2366.357422" xlink:href="#DejaVuSans-116"/>
     <use x="2405.566406" xlink:href="#DejaVuSans-101"/>
     <use x="2467.089844" xlink:href="#DejaVuSans-100"/>
     <use x="2530.566406" xlink:href="#DejaVuSans-32"/>
     <use x="2562.353516" xlink:href="#DejaVuSans-116"/>
     <use x="2601.5625" xlink:href="#DejaVuSans-111"/>
     <use x="2662.744141" xlink:href="#DejaVuSans-32"/>
     <use x="2694.53125" xlink:href="#DejaVuSans-101"/>
     <use x="2756.054688" xlink:href="#DejaVuSans-97"/>
     <use x="2817.333984" xlink:href="#DejaVuSans-99"/>
     <use x="2872.314453" xlink:href="#DejaVuSans-104"/>
     <use x="2935.693359" xlink:href="#DejaVuSans-32"/>
     <use x="2967.480469" xlink:href="#DejaVuSans-99"/>
     <use x="3022.460938" xlink:href="#DejaVuSans-97"/>
     <use x="3083.740234" xlink:href="#DejaVuSans-110"/>
     <use x="3147.119141" xlink:href="#DejaVuSans-100"/>
     <use x="3210.595703" xlink:href="#DejaVuSans-105"/>
     <use x="3238.378906" xlink:href="#DejaVuSans-100"/>
     <use x="3301.855469" xlink:href="#DejaVuSans-97"/>
     <use x="3363.134766" xlink:href="#DejaVuSans-116"/>
     <use x="3402.34375" xlink:href="#DejaVuSans-101"/>
     <use x="3463.867188" xlink:href="#DejaVuSans-32"/>
    </g>
   </g>
   <g id="legend_1">
    <g id="patch_7">
     <path d="M 97 139.26875 
L 174.957812 139.26875 
Q 176.957812 139.26875 176.957812 137.26875 
L 176.957812 50.2 
Q 176.957812 48.2 174.957812 48.2 
L 97 48.2 
Q 95 48.2 95 50.2 
L 95 137.26875 
Q 95 139.26875 97 139.26875 
z
" style="fill:#ffffff;opacity:0.8;stroke:#cccccc;stroke-linejoin:miter;"/>
    </g>
    <g id="line2d_23">
     <path d="M 99 56.298437 
L 119 56.298437 
" style="fill:none;stroke:#1f77b4;stroke-linecap:square;stroke-width:1.5;"/>
    </g>
    <g id="line2d_24"/>
    <g id="text_20">
     <!-- Duda -->
     <g transform="translate(127 59.798437)scale(0.1 -0.1)">
      <use xlink:href="#DejaVuSans-68"/>
      <use x="77.001953" xlink:href="#DejaVuSans-117"/>
      <use x="140.380859" xlink:href="#DejaVuSans-100"/>
      <use x="203.857422" xlink:href="#DejaVuSans-97"/>
     </g>
    </g>
    <g id="line2d_25">
     <path d="M 99 70.976562 
L 119 70.976562 
" style="fill:none;stroke:#ff7f0e;stroke-linecap:square;stroke-width:1.5;"/>
    </g>
    <g id="line2d_26"/>
    <g id="text_21">
     <!-- Biedron -->
     <defs>
      <path d="M 19.671875 34.8125 
L 19.671875 8.109375 
L 35.5 8.109375 
Q 43.453125 8.109375 47.28125 11.40625 
Q 51.125 14.703125 51.125 21.484375 
Q 51.125 28.328125 47.28125 31.5625 
Q 43.453125 34.8125 35.5 34.8125 
z
M 19.671875 64.796875 
L 19.671875 42.828125 
L 34.28125 42.828125 
Q 41.5 42.828125 45.03125 45.53125 
Q 48.578125 48.25 48.578125 53.8125 
Q 48.578125 59.328125 45.03125 62.0625 
Q 41.5 64.796875 34.28125 64.796875 
z
M 9.8125 72.90625 
L 35.015625 72.90625 
Q 46.296875 72.90625 52.390625 68.21875 
Q 58.5 63.53125 58.5 54.890625 
Q 58.5 48.1875 55.375 44.234375 
Q 52.25 40.28125 46.1875 39.3125 
Q 53.46875 37.75 57.5 32.78125 
Q 61.53125 27.828125 61.53125 20.40625 
Q 61.53125 10.640625 54.890625 5.3125 
Q 48.25 0 35.984375 0 
L 9.8125 0 
z
" id="DejaVuSans-66"/>
     </defs>
     <g transform="translate(127 74.476562)scale(0.1 -0.1)">
      <use xlink:href="#DejaVuSans-66"/>
      <use x="68.603516" xlink:href="#DejaVuSans-105"/>
      <use x="96.386719" xlink:href="#DejaVuSans-101"/>
      <use x="157.910156" xlink:href="#DejaVuSans-100"/>
      <use x="221.386719" xlink:href="#DejaVuSans-114"/>
      <use x="260.25" xlink:href="#DejaVuSans-111"/>
      <use x="321.431641" xlink:href="#DejaVuSans-110"/>
     </g>
    </g>
    <g id="line2d_27">
     <path d="M 99 85.654687 
L 119 85.654687 
" style="fill:none;stroke:#2ca02c;stroke-linecap:square;stroke-width:1.5;"/>
    </g>
    <g id="line2d_28"/>
    <g id="text_22">
     <!-- Bosak -->
     <defs>
      <path d="M 9.078125 75.984375 
L 18.109375 75.984375 
L 18.109375 31.109375 
L 44.921875 54.6875 
L 56.390625 54.6875 
L 27.390625 29.109375 
L 57.625 0 
L 45.90625 0 
L 18.109375 26.703125 
L 18.109375 0 
L 9.078125 0 
z
" id="DejaVuSans-107"/>
     </defs>
     <g transform="translate(127 89.154687)scale(0.1 -0.1)">
      <use xlink:href="#DejaVuSans-66"/>
      <use x="68.603516" xlink:href="#DejaVuSans-111"/>
      <use x="129.785156" xlink:href="#DejaVuSans-115"/>
      <use x="181.884766" xlink:href="#DejaVuSans-97"/>
      <use x="243.164062" xlink:href="#DejaVuSans-107"/>
     </g>
    </g>
    <g id="line2d_29">
     <path d="M 99 100.332812 
L 119 100.332812 
" style="fill:none;stroke:#d62728;stroke-linecap:square;stroke-width:1.5;"/>
    </g>
    <g id="line2d_30"/>
    <g id="text_23">
     <!-- Holownia -->
     <defs>
      <path d="M 9.8125 72.90625 
L 19.671875 72.90625 
L 19.671875 43.015625 
L 55.515625 43.015625 
L 55.515625 72.90625 
L 65.375 72.90625 
L 65.375 0 
L 55.515625 0 
L 55.515625 34.71875 
L 19.671875 34.71875 
L 19.671875 0 
L 9.8125 0 
z
" id="DejaVuSans-72"/>
      <path d="M 9.421875 75.984375 
L 18.40625 75.984375 
L 18.40625 0 
L 9.421875 0 
z
" id="DejaVuSans-108"/>
     </defs>
     <g transform="translate(127 103.832812)scale(0.1 -0.1)">
      <use xlink:href="#DejaVuSans-72"/>
      <use x="75.195312" xlink:href="#DejaVuSans-111"/>
      <use x="136.376953" xlink:href="#DejaVuSans-108"/>
      <use x="164.160156" xlink:href="#DejaVuSans-111"/>
      <use x="225.341797" xlink:href="#DejaVuSans-119"/>
      <use x="307.128906" xlink:href="#DejaVuSans-110"/>
      <use x="370.507812" xlink:href="#DejaVuSans-105"/>
      <use x="398.291016" xlink:href="#DejaVuSans-97"/>
     </g>
    </g>
    <g id="line2d_31">
     <path d="M 99 115.010937 
L 119 115.010937 
" style="fill:none;stroke:#9467bd;stroke-linecap:square;stroke-width:1.5;"/>
    </g>
    <g id="line2d_32"/>
    <g id="text_24">
     <!-- Kidawa -->
     <defs>
      <path d="M 9.8125 72.90625 
L 19.671875 72.90625 
L 19.671875 42.09375 
L 52.390625 72.90625 
L 65.09375 72.90625 
L 28.90625 38.921875 
L 67.671875 0 
L 54.6875 0 
L 19.671875 35.109375 
L 19.671875 0 
L 9.8125 0 
z
" id="DejaVuSans-75"/>
     </defs>
     <g transform="translate(127 118.510937)scale(0.1 -0.1)">
      <use xlink:href="#DejaVuSans-75"/>
      <use x="65.576172" xlink:href="#DejaVuSans-105"/>
      <use x="93.359375" xlink:href="#DejaVuSans-100"/>
      <use x="156.835938" xlink:href="#DejaVuSans-97"/>
      <use x="218.115234" xlink:href="#DejaVuSans-119"/>
      <use x="299.902344" xlink:href="#DejaVuSans-97"/>
     </g>
    </g>
    <g id="line2d_33">
     <path d="M 99 129.689062 
L 119 129.689062 
" style="fill:none;stroke:#8c564b;stroke-linecap:square;stroke-width:1.5;"/>
    </g>
    <g id="line2d_34"/>
    <g id="text_25">
     <!-- Kosiniak -->
     <g transform="translate(127 133.189062)scale(0.1 -0.1)">
      <use xlink:href="#DejaVuSans-75"/>
      <use x="60.576172" xlink:href="#DejaVuSans-111"/>
      <use x="121.757812" xlink:href="#DejaVuSans-115"/>
      <use x="173.857422" xlink:href="#DejaVuSans-105"/>
      <use x="201.640625" xlink:href="#DejaVuSans-110"/>
      <use x="265.019531" xlink:href="#DejaVuSans-105"/>
      <use x="292.802734" xlink:href="#DejaVuSans-97"/>
      <use x="354.082031" xlink:href="#DejaVuSans-107"/>
     </g>
    </g>
   </g>
  </g>
 </g>
 <defs>
  <clipPath id="p52b2dde09a">
   <rect height="277.2" width="558" x="90" y="43.2"/>
  </clipPath>
 </defs>
</svg>
