<?xml version="1.0" encoding="utf-8" standalone="no"?>
<!DOCTYPE svg PUBLIC "-//W3C//DTD SVG 1.1//EN"
  "http://www.w3.org/Graphics/SVG/1.1/DTD/svg11.dtd">
<!-- Created with matplotlib (https://matplotlib.org/) -->
<svg height="360pt" version="1.1" viewBox="0 0 720 360" width="720pt" xmlns="http://www.w3.org/2000/svg" xmlns:xlink="http://www.w3.org/1999/xlink">
 <defs>
  <style type="text/css">
*{stroke-linecap:butt;stroke-linejoin:round;}
  </style>
 </defs>
 <g id="figure_1">
  <g id="patch_1">
   <path d="M 0 360 
L 720 360 
L 720 0 
L 0 0 
z
" style="fill:#ffffff;"/>
  </g>
  <g id="axes_1">
   <g id="patch_2">
    <path d="M 90 320.4 
L 648 320.4 
L 648 43.2 
L 90 43.2 
z
" style="fill:#ffffff;"/>
   </g>
   <g id="PathCollection_1">
    <defs>
     <path d="M 0 1.118034 
C 0.296506 1.118034 0.580908 1.000231 0.790569 0.790569 
C 1.000231 0.580908 1.118034 0.296506 1.118034 0 
C 1.118034 -0.296506 1.000231 -0.580908 0.790569 -0.790569 
C 0.580908 -1.000231 0.296506 -1.118034 0 -1.118034 
C -0.296506 -1.118034 -0.580908 -1.000231 -0.790569 -0.790569 
C -1.000231 -0.580908 -1.118034 -0.296506 -1.118034 0 
C -1.118034 0.296506 -1.000231 0.580908 -0.790569 0.790569 
C -0.580908 1.000231 -0.296506 1.118034 0 1.118034 
z
" id="m4a9b9f794b" style="stroke:#1f77b4;"/>
    </defs>
    <g clip-path="url(#p8988d29611)">
     <use style="fill:#1f77b4;stroke:#1f77b4;" x="115.363636" xlink:href="#m4a9b9f794b" y="279.514286"/>
     <use style="fill:#1f77b4;stroke:#1f77b4;" x="126.391304" xlink:href="#m4a9b9f794b" y="274.371429"/>
     <use style="fill:#1f77b4;stroke:#1f77b4;" x="137.418972" xlink:href="#m4a9b9f794b" y="284.657143"/>
     <use style="fill:#1f77b4;stroke:#1f77b4;" x="148.44664" xlink:href="#m4a9b9f794b" y="266.657143"/>
     <use style="fill:#1f77b4;stroke:#1f77b4;" x="159.474308" xlink:href="#m4a9b9f794b" y="279.514286"/>
     <use style="fill:#1f77b4;stroke:#1f77b4;" x="170.501976" xlink:href="#m4a9b9f794b" y="302.657143"/>
     <use style="fill:#1f77b4;stroke:#1f77b4;" x="181.529644" xlink:href="#m4a9b9f794b" y="302.657143"/>
     <use style="fill:#1f77b4;stroke:#1f77b4;" x="192.557312" xlink:href="#m4a9b9f794b" y="248.657143"/>
     <use style="fill:#1f77b4;stroke:#1f77b4;" x="203.58498" xlink:href="#m4a9b9f794b" y="282.085714"/>
     <use style="fill:#1f77b4;stroke:#1f77b4;" x="214.612648" xlink:href="#m4a9b9f794b" y="217.8"/>
     <use style="fill:#1f77b4;stroke:#1f77b4;" x="225.640316" xlink:href="#m4a9b9f794b" y="269.228571"/>
     <use style="fill:#1f77b4;stroke:#1f77b4;" x="236.667984" xlink:href="#m4a9b9f794b" y="289.8"/>
     <use style="fill:#1f77b4;stroke:#1f77b4;" x="247.695652" xlink:href="#m4a9b9f794b" y="302.657143"/>
     <use style="fill:#1f77b4;stroke:#1f77b4;" x="258.72332" xlink:href="#m4a9b9f794b" y="305.228571"/>
     <use style="fill:#1f77b4;stroke:#1f77b4;" x="269.750988" xlink:href="#m4a9b9f794b" y="297.514286"/>
     <use style="fill:#1f77b4;stroke:#1f77b4;" x="280.778656" xlink:href="#m4a9b9f794b" y="274.371429"/>
     <use style="fill:#1f77b4;stroke:#1f77b4;" x="291.806324" xlink:href="#m4a9b9f794b" y="220.371429"/>
     <use style="fill:#1f77b4;stroke:#1f77b4;" x="302.833992" xlink:href="#m4a9b9f794b" y="264.085714"/>
     <use style="fill:#1f77b4;stroke:#1f77b4;" x="313.86166" xlink:href="#m4a9b9f794b" y="269.228571"/>
     <use style="fill:#1f77b4;stroke:#1f77b4;" x="324.889328" xlink:href="#m4a9b9f794b" y="294.942857"/>
     <use style="fill:#1f77b4;stroke:#1f77b4;" x="335.916996" xlink:href="#m4a9b9f794b" y="302.657143"/>
     <use style="fill:#1f77b4;stroke:#1f77b4;" x="346.944664" xlink:href="#m4a9b9f794b" y="284.657143"/>
     <use style="fill:#1f77b4;stroke:#1f77b4;" x="357.972332" xlink:href="#m4a9b9f794b" y="225.514286"/>
     <use style="fill:#1f77b4;stroke:#1f77b4;" x="369" xlink:href="#m4a9b9f794b" y="238.371429"/>
     <use style="fill:#1f77b4;stroke:#1f77b4;" x="380.027668" xlink:href="#m4a9b9f794b" y="258.942857"/>
     <use style="fill:#1f77b4;stroke:#1f77b4;" x="391.055336" xlink:href="#m4a9b9f794b" y="243.514286"/>
     <use style="fill:#1f77b4;stroke:#1f77b4;" x="402.083004" xlink:href="#m4a9b9f794b" y="271.8"/>
     <use style="fill:#1f77b4;stroke:#1f77b4;" x="413.110672" xlink:href="#m4a9b9f794b" y="279.514286"/>
     <use style="fill:#1f77b4;stroke:#1f77b4;" x="424.13834" xlink:href="#m4a9b9f794b" y="271.8"/>
     <use style="fill:#1f77b4;stroke:#1f77b4;" x="435.166008" xlink:href="#m4a9b9f794b" y="256.371429"/>
     <use style="fill:#1f77b4;stroke:#1f77b4;" x="446.193676" xlink:href="#m4a9b9f794b" y="233.228571"/>
     <use style="fill:#1f77b4;stroke:#1f77b4;" x="457.221344" xlink:href="#m4a9b9f794b" y="204.942857"/>
     <use style="fill:#1f77b4;stroke:#1f77b4;" x="468.249012" xlink:href="#m4a9b9f794b" y="228.085714"/>
     <use style="fill:#1f77b4;stroke:#1f77b4;" x="479.27668" xlink:href="#m4a9b9f794b" y="276.942857"/>
     <use style="fill:#1f77b4;stroke:#1f77b4;" x="490.304348" xlink:href="#m4a9b9f794b" y="289.8"/>
     <use style="fill:#1f77b4;stroke:#1f77b4;" x="501.332016" xlink:href="#m4a9b9f794b" y="251.228571"/>
     <use style="fill:#1f77b4;stroke:#1f77b4;" x="512.359684" xlink:href="#m4a9b9f794b" y="228.085714"/>
     <use style="fill:#1f77b4;stroke:#1f77b4;" x="523.387352" xlink:href="#m4a9b9f794b" y="246.085714"/>
     <use style="fill:#1f77b4;stroke:#1f77b4;" x="534.41502" xlink:href="#m4a9b9f794b" y="222.942857"/>
     <use style="fill:#1f77b4;stroke:#1f77b4;" x="545.442688" xlink:href="#m4a9b9f794b" y="294.942857"/>
     <use style="fill:#1f77b4;stroke:#1f77b4;" x="556.470356" xlink:href="#m4a9b9f794b" y="300.085714"/>
     <use style="fill:#1f77b4;stroke:#1f77b4;" x="567.498024" xlink:href="#m4a9b9f794b" y="302.657143"/>
     <use style="fill:#1f77b4;stroke:#1f77b4;" x="578.525692" xlink:href="#m4a9b9f794b" y="305.228571"/>
     <use style="fill:#1f77b4;stroke:#1f77b4;" x="589.55336" xlink:href="#m4a9b9f794b" y="302.657143"/>
     <use style="fill:#1f77b4;stroke:#1f77b4;" x="600.581028" xlink:href="#m4a9b9f794b" y="305.228571"/>
     <use style="fill:#1f77b4;stroke:#1f77b4;" x="611.608696" xlink:href="#m4a9b9f794b" y="300.085714"/>
     <use style="fill:#1f77b4;stroke:#1f77b4;" x="622.636364" xlink:href="#m4a9b9f794b" y="297.514286"/>
    </g>
   </g>
   <g id="PathCollection_2">
    <defs>
     <path d="M 0 1.118034 
C 0.296506 1.118034 0.580908 1.000231 0.790569 0.790569 
C 1.000231 0.580908 1.118034 0.296506 1.118034 0 
C 1.118034 -0.296506 1.000231 -0.580908 0.790569 -0.790569 
C 0.580908 -1.000231 0.296506 -1.118034 0 -1.118034 
C -0.296506 -1.118034 -0.580908 -1.000231 -0.790569 -0.790569 
C -1.000231 -0.580908 -1.118034 -0.296506 -1.118034 0 
C -1.118034 0.296506 -1.000231 0.580908 -0.790569 0.790569 
C -0.580908 1.000231 -0.296506 1.118034 0 1.118034 
z
" id="ma53cc95280" style="stroke:#ff7f0e;"/>
    </defs>
    <g clip-path="url(#p8988d29611)">
     <use style="fill:#ff7f0e;stroke:#ff7f0e;" x="115.363636" xlink:href="#ma53cc95280" y="289.8"/>
     <use style="fill:#ff7f0e;stroke:#ff7f0e;" x="126.391304" xlink:href="#ma53cc95280" y="282.085714"/>
     <use style="fill:#ff7f0e;stroke:#ff7f0e;" x="137.418972" xlink:href="#ma53cc95280" y="305.228571"/>
     <use style="fill:#ff7f0e;stroke:#ff7f0e;" x="148.44664" xlink:href="#ma53cc95280" y="284.657143"/>
     <use style="fill:#ff7f0e;stroke:#ff7f0e;" x="159.474308" xlink:href="#ma53cc95280" y="274.371429"/>
     <use style="fill:#ff7f0e;stroke:#ff7f0e;" x="170.501976" xlink:href="#ma53cc95280" y="297.514286"/>
     <use style="fill:#ff7f0e;stroke:#ff7f0e;" x="181.529644" xlink:href="#ma53cc95280" y="289.8"/>
     <use style="fill:#ff7f0e;stroke:#ff7f0e;" x="192.557312" xlink:href="#ma53cc95280" y="258.942857"/>
     <use style="fill:#ff7f0e;stroke:#ff7f0e;" x="203.58498" xlink:href="#ma53cc95280" y="292.371429"/>
     <use style="fill:#ff7f0e;stroke:#ff7f0e;" x="214.612648" xlink:href="#ma53cc95280" y="300.085714"/>
     <use style="fill:#ff7f0e;stroke:#ff7f0e;" x="225.640316" xlink:href="#ma53cc95280" y="289.8"/>
     <use style="fill:#ff7f0e;stroke:#ff7f0e;" x="236.667984" xlink:href="#ma53cc95280" y="294.942857"/>
     <use style="fill:#ff7f0e;stroke:#ff7f0e;" x="247.695652" xlink:href="#ma53cc95280" y="300.085714"/>
     <use style="fill:#ff7f0e;stroke:#ff7f0e;" x="258.72332" xlink:href="#ma53cc95280" y="302.657143"/>
     <use style="fill:#ff7f0e;stroke:#ff7f0e;" x="269.750988" xlink:href="#ma53cc95280" y="297.514286"/>
     <use style="fill:#ff7f0e;stroke:#ff7f0e;" x="280.778656" xlink:href="#ma53cc95280" y="294.942857"/>
     <use style="fill:#ff7f0e;stroke:#ff7f0e;" x="291.806324" xlink:href="#ma53cc95280" y="284.657143"/>
     <use style="fill:#ff7f0e;stroke:#ff7f0e;" x="302.833992" xlink:href="#ma53cc95280" y="279.514286"/>
     <use style="fill:#ff7f0e;stroke:#ff7f0e;" x="313.86166" xlink:href="#ma53cc95280" y="294.942857"/>
     <use style="fill:#ff7f0e;stroke:#ff7f0e;" x="324.889328" xlink:href="#ma53cc95280" y="297.514286"/>
     <use style="fill:#ff7f0e;stroke:#ff7f0e;" x="335.916996" xlink:href="#ma53cc95280" y="287.228571"/>
     <use style="fill:#ff7f0e;stroke:#ff7f0e;" x="346.944664" xlink:href="#ma53cc95280" y="243.514286"/>
     <use style="fill:#ff7f0e;stroke:#ff7f0e;" x="357.972332" xlink:href="#ma53cc95280" y="284.657143"/>
     <use style="fill:#ff7f0e;stroke:#ff7f0e;" x="369" xlink:href="#ma53cc95280" y="271.8"/>
     <use style="fill:#ff7f0e;stroke:#ff7f0e;" x="380.027668" xlink:href="#ma53cc95280" y="292.371429"/>
     <use style="fill:#ff7f0e;stroke:#ff7f0e;" x="391.055336" xlink:href="#ma53cc95280" y="292.371429"/>
     <use style="fill:#ff7f0e;stroke:#ff7f0e;" x="402.083004" xlink:href="#ma53cc95280" y="294.942857"/>
     <use style="fill:#ff7f0e;stroke:#ff7f0e;" x="413.110672" xlink:href="#ma53cc95280" y="300.085714"/>
     <use style="fill:#ff7f0e;stroke:#ff7f0e;" x="424.13834" xlink:href="#ma53cc95280" y="300.085714"/>
     <use style="fill:#ff7f0e;stroke:#ff7f0e;" x="435.166008" xlink:href="#ma53cc95280" y="292.371429"/>
     <use style="fill:#ff7f0e;stroke:#ff7f0e;" x="446.193676" xlink:href="#ma53cc95280" y="297.514286"/>
     <use style="fill:#ff7f0e;stroke:#ff7f0e;" x="457.221344" xlink:href="#ma53cc95280" y="297.514286"/>
     <use style="fill:#ff7f0e;stroke:#ff7f0e;" x="468.249012" xlink:href="#ma53cc95280" y="269.228571"/>
     <use style="fill:#ff7f0e;stroke:#ff7f0e;" x="479.27668" xlink:href="#ma53cc95280" y="294.942857"/>
     <use style="fill:#ff7f0e;stroke:#ff7f0e;" x="490.304348" xlink:href="#ma53cc95280" y="294.942857"/>
     <use style="fill:#ff7f0e;stroke:#ff7f0e;" x="501.332016" xlink:href="#ma53cc95280" y="294.942857"/>
     <use style="fill:#ff7f0e;stroke:#ff7f0e;" x="512.359684" xlink:href="#ma53cc95280" y="284.657143"/>
     <use style="fill:#ff7f0e;stroke:#ff7f0e;" x="523.387352" xlink:href="#ma53cc95280" y="289.8"/>
     <use style="fill:#ff7f0e;stroke:#ff7f0e;" x="534.41502" xlink:href="#ma53cc95280" y="284.657143"/>
     <use style="fill:#ff7f0e;stroke:#ff7f0e;" x="545.442688" xlink:href="#ma53cc95280" y="284.657143"/>
     <use style="fill:#ff7f0e;stroke:#ff7f0e;" x="556.470356" xlink:href="#ma53cc95280" y="289.8"/>
     <use style="fill:#ff7f0e;stroke:#ff7f0e;" x="567.498024" xlink:href="#ma53cc95280" y="276.942857"/>
     <use style="fill:#ff7f0e;stroke:#ff7f0e;" x="578.525692" xlink:href="#ma53cc95280" y="302.657143"/>
     <use style="fill:#ff7f0e;stroke:#ff7f0e;" x="589.55336" xlink:href="#ma53cc95280" y="292.371429"/>
     <use style="fill:#ff7f0e;stroke:#ff7f0e;" x="600.581028" xlink:href="#ma53cc95280" y="289.8"/>
     <use style="fill:#ff7f0e;stroke:#ff7f0e;" x="611.608696" xlink:href="#ma53cc95280" y="300.085714"/>
     <use style="fill:#ff7f0e;stroke:#ff7f0e;" x="622.636364" xlink:href="#ma53cc95280" y="289.8"/>
    </g>
   </g>
   <g id="PathCollection_3">
    <defs>
     <path d="M 0 1.118034 
C 0.296506 1.118034 0.580908 1.000231 0.790569 0.790569 
C 1.000231 0.580908 1.118034 0.296506 1.118034 0 
C 1.118034 -0.296506 1.000231 -0.580908 0.790569 -0.790569 
C 0.580908 -1.000231 0.296506 -1.118034 0 -1.118034 
C -0.296506 -1.118034 -0.580908 -1.000231 -0.790569 -0.790569 
C -1.000231 -0.580908 -1.118034 -0.296506 -1.118034 0 
C -1.118034 0.296506 -1.000231 0.580908 -0.790569 0.790569 
C -0.580908 1.000231 -0.296506 1.118034 0 1.118034 
z
" id="m87c35c3c28" style="stroke:#2ca02c;"/>
    </defs>
    <g clip-path="url(#p8988d29611)">
     <use style="fill:#2ca02c;stroke:#2ca02c;" x="115.363636" xlink:href="#m87c35c3c28" y="302.657143"/>
     <use style="fill:#2ca02c;stroke:#2ca02c;" x="126.391304" xlink:href="#m87c35c3c28" y="307.8"/>
     <use style="fill:#2ca02c;stroke:#2ca02c;" x="137.418972" xlink:href="#m87c35c3c28" y="292.371429"/>
     <use style="fill:#2ca02c;stroke:#2ca02c;" x="148.44664" xlink:href="#m87c35c3c28" y="294.942857"/>
     <use style="fill:#2ca02c;stroke:#2ca02c;" x="159.474308" xlink:href="#m87c35c3c28" y="292.371429"/>
     <use style="fill:#2ca02c;stroke:#2ca02c;" x="170.501976" xlink:href="#m87c35c3c28" y="289.8"/>
     <use style="fill:#2ca02c;stroke:#2ca02c;" x="181.529644" xlink:href="#m87c35c3c28" y="300.085714"/>
     <use style="fill:#2ca02c;stroke:#2ca02c;" x="192.557312" xlink:href="#m87c35c3c28" y="279.514286"/>
     <use style="fill:#2ca02c;stroke:#2ca02c;" x="203.58498" xlink:href="#m87c35c3c28" y="297.514286"/>
     <use style="fill:#2ca02c;stroke:#2ca02c;" x="214.612648" xlink:href="#m87c35c3c28" y="284.657143"/>
     <use style="fill:#2ca02c;stroke:#2ca02c;" x="225.640316" xlink:href="#m87c35c3c28" y="289.8"/>
     <use style="fill:#2ca02c;stroke:#2ca02c;" x="236.667984" xlink:href="#m87c35c3c28" y="300.085714"/>
     <use style="fill:#2ca02c;stroke:#2ca02c;" x="247.695652" xlink:href="#m87c35c3c28" y="305.228571"/>
     <use style="fill:#2ca02c;stroke:#2ca02c;" x="258.72332" xlink:href="#m87c35c3c28" y="305.228571"/>
     <use style="fill:#2ca02c;stroke:#2ca02c;" x="269.750988" xlink:href="#m87c35c3c28" y="300.085714"/>
     <use style="fill:#2ca02c;stroke:#2ca02c;" x="280.778656" xlink:href="#m87c35c3c28" y="294.942857"/>
     <use style="fill:#2ca02c;stroke:#2ca02c;" x="291.806324" xlink:href="#m87c35c3c28" y="276.942857"/>
     <use style="fill:#2ca02c;stroke:#2ca02c;" x="302.833992" xlink:href="#m87c35c3c28" y="279.514286"/>
     <use style="fill:#2ca02c;stroke:#2ca02c;" x="313.86166" xlink:href="#m87c35c3c28" y="297.514286"/>
     <use style="fill:#2ca02c;stroke:#2ca02c;" x="324.889328" xlink:href="#m87c35c3c28" y="307.8"/>
     <use style="fill:#2ca02c;stroke:#2ca02c;" x="335.916996" xlink:href="#m87c35c3c28" y="302.657143"/>
     <use style="fill:#2ca02c;stroke:#2ca02c;" x="346.944664" xlink:href="#m87c35c3c28" y="294.942857"/>
     <use style="fill:#2ca02c;stroke:#2ca02c;" x="357.972332" xlink:href="#m87c35c3c28" y="292.371429"/>
     <use style="fill:#2ca02c;stroke:#2ca02c;" x="369" xlink:href="#m87c35c3c28" y="287.228571"/>
     <use style="fill:#2ca02c;stroke:#2ca02c;" x="380.027668" xlink:href="#m87c35c3c28" y="287.228571"/>
     <use style="fill:#2ca02c;stroke:#2ca02c;" x="391.055336" xlink:href="#m87c35c3c28" y="287.228571"/>
     <use style="fill:#2ca02c;stroke:#2ca02c;" x="402.083004" xlink:href="#m87c35c3c28" y="300.085714"/>
     <use style="fill:#2ca02c;stroke:#2ca02c;" x="413.110672" xlink:href="#m87c35c3c28" y="297.514286"/>
     <use style="fill:#2ca02c;stroke:#2ca02c;" x="424.13834" xlink:href="#m87c35c3c28" y="302.657143"/>
     <use style="fill:#2ca02c;stroke:#2ca02c;" x="435.166008" xlink:href="#m87c35c3c28" y="297.514286"/>
     <use style="fill:#2ca02c;stroke:#2ca02c;" x="446.193676" xlink:href="#m87c35c3c28" y="276.942857"/>
     <use style="fill:#2ca02c;stroke:#2ca02c;" x="457.221344" xlink:href="#m87c35c3c28" y="289.8"/>
     <use style="fill:#2ca02c;stroke:#2ca02c;" x="468.249012" xlink:href="#m87c35c3c28" y="287.228571"/>
     <use style="fill:#2ca02c;stroke:#2ca02c;" x="479.27668" xlink:href="#m87c35c3c28" y="300.085714"/>
     <use style="fill:#2ca02c;stroke:#2ca02c;" x="490.304348" xlink:href="#m87c35c3c28" y="292.371429"/>
     <use style="fill:#2ca02c;stroke:#2ca02c;" x="501.332016" xlink:href="#m87c35c3c28" y="302.657143"/>
     <use style="fill:#2ca02c;stroke:#2ca02c;" x="512.359684" xlink:href="#m87c35c3c28" y="274.371429"/>
     <use style="fill:#2ca02c;stroke:#2ca02c;" x="523.387352" xlink:href="#m87c35c3c28" y="282.085714"/>
     <use style="fill:#2ca02c;stroke:#2ca02c;" x="534.41502" xlink:href="#m87c35c3c28" y="292.371429"/>
     <use style="fill:#2ca02c;stroke:#2ca02c;" x="545.442688" xlink:href="#m87c35c3c28" y="302.657143"/>
     <use style="fill:#2ca02c;stroke:#2ca02c;" x="556.470356" xlink:href="#m87c35c3c28" y="297.514286"/>
     <use style="fill:#2ca02c;stroke:#2ca02c;" x="567.498024" xlink:href="#m87c35c3c28" y="300.085714"/>
     <use style="fill:#2ca02c;stroke:#2ca02c;" x="578.525692" xlink:href="#m87c35c3c28" y="287.228571"/>
     <use style="fill:#2ca02c;stroke:#2ca02c;" x="589.55336" xlink:href="#m87c35c3c28" y="292.371429"/>
     <use style="fill:#2ca02c;stroke:#2ca02c;" x="600.581028" xlink:href="#m87c35c3c28" y="294.942857"/>
     <use style="fill:#2ca02c;stroke:#2ca02c;" x="611.608696" xlink:href="#m87c35c3c28" y="294.942857"/>
     <use style="fill:#2ca02c;stroke:#2ca02c;" x="622.636364" xlink:href="#m87c35c3c28" y="292.371429"/>
    </g>
   </g>
   <g id="PathCollection_4">
    <defs>
     <path d="M 0 1.118034 
C 0.296506 1.118034 0.580908 1.000231 0.790569 0.790569 
C 1.000231 0.580908 1.118034 0.296506 1.118034 0 
C 1.118034 -0.296506 1.000231 -0.580908 0.790569 -0.790569 
C 0.580908 -1.000231 0.296506 -1.118034 0 -1.118034 
C -0.296506 -1.118034 -0.580908 -1.000231 -0.790569 -0.790569 
C -1.000231 -0.580908 -1.118034 -0.296506 -1.118034 0 
C -1.118034 0.296506 -1.000231 0.580908 -0.790569 0.790569 
C -0.580908 1.000231 -0.296506 1.118034 0 1.118034 
z
" id="mb2f91c2a79" style="stroke:#d62728;"/>
    </defs>
    <g clip-path="url(#p8988d29611)">
     <use style="fill:#d62728;stroke:#d62728;" x="115.363636" xlink:href="#mb2f91c2a79" y="287.228571"/>
     <use style="fill:#d62728;stroke:#d62728;" x="126.391304" xlink:href="#mb2f91c2a79" y="258.942857"/>
     <use style="fill:#d62728;stroke:#d62728;" x="137.418972" xlink:href="#mb2f91c2a79" y="294.942857"/>
     <use style="fill:#d62728;stroke:#d62728;" x="148.44664" xlink:href="#mb2f91c2a79" y="287.228571"/>
     <use style="fill:#d62728;stroke:#d62728;" x="159.474308" xlink:href="#mb2f91c2a79" y="228.085714"/>
     <use style="fill:#d62728;stroke:#d62728;" x="170.501976" xlink:href="#mb2f91c2a79" y="292.371429"/>
     <use style="fill:#d62728;stroke:#d62728;" x="181.529644" xlink:href="#mb2f91c2a79" y="294.942857"/>
     <use style="fill:#d62728;stroke:#d62728;" x="192.557312" xlink:href="#mb2f91c2a79" y="130.371429"/>
     <use style="fill:#d62728;stroke:#d62728;" x="203.58498" xlink:href="#mb2f91c2a79" y="215.228571"/>
     <use style="fill:#d62728;stroke:#d62728;" x="214.612648" xlink:href="#mb2f91c2a79" y="289.8"/>
     <use style="fill:#d62728;stroke:#d62728;" x="225.640316" xlink:href="#mb2f91c2a79" y="297.514286"/>
     <use style="fill:#d62728;stroke:#d62728;" x="236.667984" xlink:href="#mb2f91c2a79" y="292.371429"/>
     <use style="fill:#d62728;stroke:#d62728;" x="247.695652" xlink:href="#mb2f91c2a79" y="300.085714"/>
     <use style="fill:#d62728;stroke:#d62728;" x="258.72332" xlink:href="#mb2f91c2a79" y="266.657143"/>
     <use style="fill:#d62728;stroke:#d62728;" x="269.750988" xlink:href="#mb2f91c2a79" y="297.514286"/>
     <use style="fill:#d62728;stroke:#d62728;" x="280.778656" xlink:href="#mb2f91c2a79" y="248.657143"/>
     <use style="fill:#d62728;stroke:#d62728;" x="291.806324" xlink:href="#mb2f91c2a79" y="55.8"/>
     <use style="fill:#d62728;stroke:#d62728;" x="302.833992" xlink:href="#mb2f91c2a79" y="212.657143"/>
     <use style="fill:#d62728;stroke:#d62728;" x="313.86166" xlink:href="#mb2f91c2a79" y="276.942857"/>
     <use style="fill:#d62728;stroke:#d62728;" x="324.889328" xlink:href="#mb2f91c2a79" y="284.657143"/>
     <use style="fill:#d62728;stroke:#d62728;" x="335.916996" xlink:href="#mb2f91c2a79" y="274.371429"/>
     <use style="fill:#d62728;stroke:#d62728;" x="346.944664" xlink:href="#mb2f91c2a79" y="264.085714"/>
     <use style="fill:#d62728;stroke:#d62728;" x="357.972332" xlink:href="#mb2f91c2a79" y="217.8"/>
     <use style="fill:#d62728;stroke:#d62728;" x="369" xlink:href="#mb2f91c2a79" y="215.228571"/>
     <use style="fill:#d62728;stroke:#d62728;" x="380.027668" xlink:href="#mb2f91c2a79" y="212.657143"/>
     <use style="fill:#d62728;stroke:#d62728;" x="391.055336" xlink:href="#mb2f91c2a79" y="253.8"/>
     <use style="fill:#d62728;stroke:#d62728;" x="402.083004" xlink:href="#mb2f91c2a79" y="251.228571"/>
     <use style="fill:#d62728;stroke:#d62728;" x="413.110672" xlink:href="#mb2f91c2a79" y="235.8"/>
     <use style="fill:#d62728;stroke:#d62728;" x="424.13834" xlink:href="#mb2f91c2a79" y="274.371429"/>
     <use style="fill:#d62728;stroke:#d62728;" x="435.166008" xlink:href="#mb2f91c2a79" y="220.371429"/>
     <use style="fill:#d62728;stroke:#d62728;" x="446.193676" xlink:href="#mb2f91c2a79" y="55.8"/>
     <use style="fill:#d62728;stroke:#d62728;" x="457.221344" xlink:href="#mb2f91c2a79" y="269.228571"/>
     <use style="fill:#d62728;stroke:#d62728;" x="468.249012" xlink:href="#mb2f91c2a79" y="243.514286"/>
     <use style="fill:#d62728;stroke:#d62728;" x="479.27668" xlink:href="#mb2f91c2a79" y="292.371429"/>
     <use style="fill:#d62728;stroke:#d62728;" x="490.304348" xlink:href="#mb2f91c2a79" y="238.371429"/>
     <use style="fill:#d62728;stroke:#d62728;" x="501.332016" xlink:href="#mb2f91c2a79" y="233.228571"/>
     <use style="fill:#d62728;stroke:#d62728;" x="512.359684" xlink:href="#mb2f91c2a79" y="207.514286"/>
     <use style="fill:#d62728;stroke:#d62728;" x="523.387352" xlink:href="#mb2f91c2a79" y="225.514286"/>
     <use style="fill:#d62728;stroke:#d62728;" x="534.41502" xlink:href="#mb2f91c2a79" y="222.942857"/>
     <use style="fill:#d62728;stroke:#d62728;" x="545.442688" xlink:href="#mb2f91c2a79" y="256.371429"/>
     <use style="fill:#d62728;stroke:#d62728;" x="556.470356" xlink:href="#mb2f91c2a79" y="287.228571"/>
     <use style="fill:#d62728;stroke:#d62728;" x="567.498024" xlink:href="#mb2f91c2a79" y="233.228571"/>
     <use style="fill:#d62728;stroke:#d62728;" x="578.525692" xlink:href="#mb2f91c2a79" y="246.085714"/>
     <use style="fill:#d62728;stroke:#d62728;" x="589.55336" xlink:href="#mb2f91c2a79" y="202.371429"/>
     <use style="fill:#d62728;stroke:#d62728;" x="600.581028" xlink:href="#mb2f91c2a79" y="158.657143"/>
     <use style="fill:#d62728;stroke:#d62728;" x="611.608696" xlink:href="#mb2f91c2a79" y="222.942857"/>
     <use style="fill:#d62728;stroke:#d62728;" x="622.636364" xlink:href="#mb2f91c2a79" y="266.657143"/>
    </g>
   </g>
   <g id="matplotlib.axis_1">
    <g id="xtick_1">
     <g id="line2d_1">
      <defs>
       <path d="M 0 0 
L 0 3.5 
" id="m51d6876f8e" style="stroke:#000000;stroke-width:0.8;"/>
      </defs>
      <g>
       <use style="stroke:#000000;stroke-width:0.8;" x="137.418972" xlink:href="#m51d6876f8e" y="320.4"/>
      </g>
     </g>
     <g id="text_1">
      <!-- 2020-04-01 -->
      <defs>
       <path d="M 19.1875 8.296875 
L 53.609375 8.296875 
L 53.609375 0 
L 7.328125 0 
L 7.328125 8.296875 
Q 12.9375 14.109375 22.625 23.890625 
Q 32.328125 33.6875 34.8125 36.53125 
Q 39.546875 41.84375 41.421875 45.53125 
Q 43.3125 49.21875 43.3125 52.78125 
Q 43.3125 58.59375 39.234375 62.25 
Q 35.15625 65.921875 28.609375 65.921875 
Q 23.96875 65.921875 18.8125 64.3125 
Q 13.671875 62.703125 7.8125 59.421875 
L 7.8125 69.390625 
Q 13.765625 71.78125 18.9375 73 
Q 24.125 74.21875 28.421875 74.21875 
Q 39.75 74.21875 46.484375 68.546875 
Q 53.21875 62.890625 53.21875 53.421875 
Q 53.21875 48.921875 51.53125 44.890625 
Q 49.859375 40.875 45.40625 35.40625 
Q 44.1875 33.984375 37.640625 27.21875 
Q 31.109375 20.453125 19.1875 8.296875 
z
" id="DejaVuSans-50"/>
       <path d="M 31.78125 66.40625 
Q 24.171875 66.40625 20.328125 58.90625 
Q 16.5 51.421875 16.5 36.375 
Q 16.5 21.390625 20.328125 13.890625 
Q 24.171875 6.390625 31.78125 6.390625 
Q 39.453125 6.390625 43.28125 13.890625 
Q 47.125 21.390625 47.125 36.375 
Q 47.125 51.421875 43.28125 58.90625 
Q 39.453125 66.40625 31.78125 66.40625 
z
M 31.78125 74.21875 
Q 44.046875 74.21875 50.515625 64.515625 
Q 56.984375 54.828125 56.984375 36.375 
Q 56.984375 17.96875 50.515625 8.265625 
Q 44.046875 -1.421875 31.78125 -1.421875 
Q 19.53125 -1.421875 13.0625 8.265625 
Q 6.59375 17.96875 6.59375 36.375 
Q 6.59375 54.828125 13.0625 64.515625 
Q 19.53125 74.21875 31.78125 74.21875 
z
" id="DejaVuSans-48"/>
       <path d="M 4.890625 31.390625 
L 31.203125 31.390625 
L 31.203125 23.390625 
L 4.890625 23.390625 
z
" id="DejaVuSans-45"/>
       <path d="M 37.796875 64.3125 
L 12.890625 25.390625 
L 37.796875 25.390625 
z
M 35.203125 72.90625 
L 47.609375 72.90625 
L 47.609375 25.390625 
L 58.015625 25.390625 
L 58.015625 17.1875 
L 47.609375 17.1875 
L 47.609375 0 
L 37.796875 0 
L 37.796875 17.1875 
L 4.890625 17.1875 
L 4.890625 26.703125 
z
" id="DejaVuSans-52"/>
       <path d="M 12.40625 8.296875 
L 28.515625 8.296875 
L 28.515625 63.921875 
L 10.984375 60.40625 
L 10.984375 69.390625 
L 28.421875 72.90625 
L 38.28125 72.90625 
L 38.28125 8.296875 
L 54.390625 8.296875 
L 54.390625 0 
L 12.40625 0 
z
" id="DejaVuSans-49"/>
      </defs>
      <g transform="translate(108.36116 334.998438)scale(0.1 -0.1)">
       <use xlink:href="#DejaVuSans-50"/>
       <use x="63.623047" xlink:href="#DejaVuSans-48"/>
       <use x="127.246094" xlink:href="#DejaVuSans-50"/>
       <use x="190.869141" xlink:href="#DejaVuSans-48"/>
       <use x="254.492188" xlink:href="#DejaVuSans-45"/>
       <use x="290.576172" xlink:href="#DejaVuSans-48"/>
       <use x="354.199219" xlink:href="#DejaVuSans-52"/>
       <use x="417.822266" xlink:href="#DejaVuSans-45"/>
       <use x="453.90625" xlink:href="#DejaVuSans-48"/>
       <use x="517.529297" xlink:href="#DejaVuSans-49"/>
      </g>
     </g>
    </g>
    <g id="xtick_2">
     <g id="line2d_2">
      <g>
       <use style="stroke:#000000;stroke-width:0.8;" x="214.612648" xlink:href="#m51d6876f8e" y="320.4"/>
      </g>
     </g>
     <g id="text_2">
      <!-- 2020-04-08 -->
      <defs>
       <path d="M 31.78125 34.625 
Q 24.75 34.625 20.71875 30.859375 
Q 16.703125 27.09375 16.703125 20.515625 
Q 16.703125 13.921875 20.71875 10.15625 
Q 24.75 6.390625 31.78125 6.390625 
Q 38.8125 6.390625 42.859375 10.171875 
Q 46.921875 13.96875 46.921875 20.515625 
Q 46.921875 27.09375 42.890625 30.859375 
Q 38.875 34.625 31.78125 34.625 
z
M 21.921875 38.8125 
Q 15.578125 40.375 12.03125 44.71875 
Q 8.5 49.078125 8.5 55.328125 
Q 8.5 64.0625 14.71875 69.140625 
Q 20.953125 74.21875 31.78125 74.21875 
Q 42.671875 74.21875 48.875 69.140625 
Q 55.078125 64.0625 55.078125 55.328125 
Q 55.078125 49.078125 51.53125 44.71875 
Q 48 40.375 41.703125 38.8125 
Q 48.828125 37.15625 52.796875 32.3125 
Q 56.78125 27.484375 56.78125 20.515625 
Q 56.78125 9.90625 50.3125 4.234375 
Q 43.84375 -1.421875 31.78125 -1.421875 
Q 19.734375 -1.421875 13.25 4.234375 
Q 6.78125 9.90625 6.78125 20.515625 
Q 6.78125 27.484375 10.78125 32.3125 
Q 14.796875 37.15625 21.921875 38.8125 
z
M 18.3125 54.390625 
Q 18.3125 48.734375 21.84375 45.5625 
Q 25.390625 42.390625 31.78125 42.390625 
Q 38.140625 42.390625 41.71875 45.5625 
Q 45.3125 48.734375 45.3125 54.390625 
Q 45.3125 60.0625 41.71875 63.234375 
Q 38.140625 66.40625 31.78125 66.40625 
Q 25.390625 66.40625 21.84375 63.234375 
Q 18.3125 60.0625 18.3125 54.390625 
z
" id="DejaVuSans-56"/>
      </defs>
      <g transform="translate(185.554836 334.998438)scale(0.1 -0.1)">
       <use xlink:href="#DejaVuSans-50"/>
       <use x="63.623047" xlink:href="#DejaVuSans-48"/>
       <use x="127.246094" xlink:href="#DejaVuSans-50"/>
       <use x="190.869141" xlink:href="#DejaVuSans-48"/>
       <use x="254.492188" xlink:href="#DejaVuSans-45"/>
       <use x="290.576172" xlink:href="#DejaVuSans-48"/>
       <use x="354.199219" xlink:href="#DejaVuSans-52"/>
       <use x="417.822266" xlink:href="#DejaVuSans-45"/>
       <use x="453.90625" xlink:href="#DejaVuSans-48"/>
       <use x="517.529297" xlink:href="#DejaVuSans-56"/>
      </g>
     </g>
    </g>
    <g id="xtick_3">
     <g id="line2d_3">
      <g>
       <use style="stroke:#000000;stroke-width:0.8;" x="291.806324" xlink:href="#m51d6876f8e" y="320.4"/>
      </g>
     </g>
     <g id="text_3">
      <!-- 2020-04-15 -->
      <defs>
       <path d="M 10.796875 72.90625 
L 49.515625 72.90625 
L 49.515625 64.59375 
L 19.828125 64.59375 
L 19.828125 46.734375 
Q 21.96875 47.46875 24.109375 47.828125 
Q 26.265625 48.1875 28.421875 48.1875 
Q 40.625 48.1875 47.75 41.5 
Q 54.890625 34.8125 54.890625 23.390625 
Q 54.890625 11.625 47.5625 5.09375 
Q 40.234375 -1.421875 26.90625 -1.421875 
Q 22.3125 -1.421875 17.546875 -0.640625 
Q 12.796875 0.140625 7.71875 1.703125 
L 7.71875 11.625 
Q 12.109375 9.234375 16.796875 8.0625 
Q 21.484375 6.890625 26.703125 6.890625 
Q 35.15625 6.890625 40.078125 11.328125 
Q 45.015625 15.765625 45.015625 23.390625 
Q 45.015625 31 40.078125 35.4375 
Q 35.15625 39.890625 26.703125 39.890625 
Q 22.75 39.890625 18.8125 39.015625 
Q 14.890625 38.140625 10.796875 36.28125 
z
" id="DejaVuSans-53"/>
      </defs>
      <g transform="translate(262.748512 334.998438)scale(0.1 -0.1)">
       <use xlink:href="#DejaVuSans-50"/>
       <use x="63.623047" xlink:href="#DejaVuSans-48"/>
       <use x="127.246094" xlink:href="#DejaVuSans-50"/>
       <use x="190.869141" xlink:href="#DejaVuSans-48"/>
       <use x="254.492188" xlink:href="#DejaVuSans-45"/>
       <use x="290.576172" xlink:href="#DejaVuSans-48"/>
       <use x="354.199219" xlink:href="#DejaVuSans-52"/>
       <use x="417.822266" xlink:href="#DejaVuSans-45"/>
       <use x="453.90625" xlink:href="#DejaVuSans-49"/>
       <use x="517.529297" xlink:href="#DejaVuSans-53"/>
      </g>
     </g>
    </g>
    <g id="xtick_4">
     <g id="line2d_4">
      <g>
       <use style="stroke:#000000;stroke-width:0.8;" x="369" xlink:href="#m51d6876f8e" y="320.4"/>
      </g>
     </g>
     <g id="text_4">
      <!-- 2020-04-22 -->
      <g transform="translate(339.942188 334.998438)scale(0.1 -0.1)">
       <use xlink:href="#DejaVuSans-50"/>
       <use x="63.623047" xlink:href="#DejaVuSans-48"/>
       <use x="127.246094" xlink:href="#DejaVuSans-50"/>
       <use x="190.869141" xlink:href="#DejaVuSans-48"/>
       <use x="254.492188" xlink:href="#DejaVuSans-45"/>
       <use x="290.576172" xlink:href="#DejaVuSans-48"/>
       <use x="354.199219" xlink:href="#DejaVuSans-52"/>
       <use x="417.822266" xlink:href="#DejaVuSans-45"/>
       <use x="453.90625" xlink:href="#DejaVuSans-50"/>
       <use x="517.529297" xlink:href="#DejaVuSans-50"/>
      </g>
     </g>
    </g>
    <g id="xtick_5">
     <g id="line2d_5">
      <g>
       <use style="stroke:#000000;stroke-width:0.8;" x="468.249012" xlink:href="#m51d6876f8e" y="320.4"/>
      </g>
     </g>
     <g id="text_5">
      <!-- 2020-05-01 -->
      <g transform="translate(439.191199 334.998438)scale(0.1 -0.1)">
       <use xlink:href="#DejaVuSans-50"/>
       <use x="63.623047" xlink:href="#DejaVuSans-48"/>
       <use x="127.246094" xlink:href="#DejaVuSans-50"/>
       <use x="190.869141" xlink:href="#DejaVuSans-48"/>
       <use x="254.492188" xlink:href="#DejaVuSans-45"/>
       <use x="290.576172" xlink:href="#DejaVuSans-48"/>
       <use x="354.199219" xlink:href="#DejaVuSans-53"/>
       <use x="417.822266" xlink:href="#DejaVuSans-45"/>
       <use x="453.90625" xlink:href="#DejaVuSans-48"/>
       <use x="517.529297" xlink:href="#DejaVuSans-49"/>
      </g>
     </g>
    </g>
    <g id="xtick_6">
     <g id="line2d_6">
      <g>
       <use style="stroke:#000000;stroke-width:0.8;" x="545.442688" xlink:href="#m51d6876f8e" y="320.4"/>
      </g>
     </g>
     <g id="text_6">
      <!-- 2020-05-08 -->
      <g transform="translate(516.384875 334.998438)scale(0.1 -0.1)">
       <use xlink:href="#DejaVuSans-50"/>
       <use x="63.623047" xlink:href="#DejaVuSans-48"/>
       <use x="127.246094" xlink:href="#DejaVuSans-50"/>
       <use x="190.869141" xlink:href="#DejaVuSans-48"/>
       <use x="254.492188" xlink:href="#DejaVuSans-45"/>
       <use x="290.576172" xlink:href="#DejaVuSans-48"/>
       <use x="354.199219" xlink:href="#DejaVuSans-53"/>
       <use x="417.822266" xlink:href="#DejaVuSans-45"/>
       <use x="453.90625" xlink:href="#DejaVuSans-48"/>
       <use x="517.529297" xlink:href="#DejaVuSans-56"/>
      </g>
     </g>
    </g>
    <g id="xtick_7">
     <g id="line2d_7">
      <g>
       <use style="stroke:#000000;stroke-width:0.8;" x="622.636364" xlink:href="#m51d6876f8e" y="320.4"/>
      </g>
     </g>
     <g id="text_7">
      <!-- 2020-05-15 -->
      <g transform="translate(593.578551 334.998438)scale(0.1 -0.1)">
       <use xlink:href="#DejaVuSans-50"/>
       <use x="63.623047" xlink:href="#DejaVuSans-48"/>
       <use x="127.246094" xlink:href="#DejaVuSans-50"/>
       <use x="190.869141" xlink:href="#DejaVuSans-48"/>
       <use x="254.492188" xlink:href="#DejaVuSans-45"/>
       <use x="290.576172" xlink:href="#DejaVuSans-48"/>
       <use x="354.199219" xlink:href="#DejaVuSans-53"/>
       <use x="417.822266" xlink:href="#DejaVuSans-45"/>
       <use x="453.90625" xlink:href="#DejaVuSans-49"/>
       <use x="517.529297" xlink:href="#DejaVuSans-53"/>
      </g>
     </g>
    </g>
    <g id="text_8">
     <!-- Date -->
     <defs>
      <path d="M 19.671875 64.796875 
L 19.671875 8.109375 
L 31.59375 8.109375 
Q 46.6875 8.109375 53.6875 14.9375 
Q 60.6875 21.78125 60.6875 36.53125 
Q 60.6875 51.171875 53.6875 57.984375 
Q 46.6875 64.796875 31.59375 64.796875 
z
M 9.8125 72.90625 
L 30.078125 72.90625 
Q 51.265625 72.90625 61.171875 64.09375 
Q 71.09375 55.28125 71.09375 36.53125 
Q 71.09375 17.671875 61.125 8.828125 
Q 51.171875 0 30.078125 0 
L 9.8125 0 
z
" id="DejaVuSans-68"/>
      <path d="M 34.28125 27.484375 
Q 23.390625 27.484375 19.1875 25 
Q 14.984375 22.515625 14.984375 16.5 
Q 14.984375 11.71875 18.140625 8.90625 
Q 21.296875 6.109375 26.703125 6.109375 
Q 34.1875 6.109375 38.703125 11.40625 
Q 43.21875 16.703125 43.21875 25.484375 
L 43.21875 27.484375 
z
M 52.203125 31.203125 
L 52.203125 0 
L 43.21875 0 
L 43.21875 8.296875 
Q 40.140625 3.328125 35.546875 0.953125 
Q 30.953125 -1.421875 24.3125 -1.421875 
Q 15.921875 -1.421875 10.953125 3.296875 
Q 6 8.015625 6 15.921875 
Q 6 25.140625 12.171875 29.828125 
Q 18.359375 34.515625 30.609375 34.515625 
L 43.21875 34.515625 
L 43.21875 35.40625 
Q 43.21875 41.609375 39.140625 45 
Q 35.0625 48.390625 27.6875 48.390625 
Q 23 48.390625 18.546875 47.265625 
Q 14.109375 46.140625 10.015625 43.890625 
L 10.015625 52.203125 
Q 14.9375 54.109375 19.578125 55.046875 
Q 24.21875 56 28.609375 56 
Q 40.484375 56 46.34375 49.84375 
Q 52.203125 43.703125 52.203125 31.203125 
z
" id="DejaVuSans-97"/>
      <path d="M 18.3125 70.21875 
L 18.3125 54.6875 
L 36.8125 54.6875 
L 36.8125 47.703125 
L 18.3125 47.703125 
L 18.3125 18.015625 
Q 18.3125 11.328125 20.140625 9.421875 
Q 21.96875 7.515625 27.59375 7.515625 
L 36.8125 7.515625 
L 36.8125 0 
L 27.59375 0 
Q 17.1875 0 13.234375 3.875 
Q 9.28125 7.765625 9.28125 18.015625 
L 9.28125 47.703125 
L 2.6875 47.703125 
L 2.6875 54.6875 
L 9.28125 54.6875 
L 9.28125 70.21875 
z
" id="DejaVuSans-116"/>
      <path d="M 56.203125 29.59375 
L 56.203125 25.203125 
L 14.890625 25.203125 
Q 15.484375 15.921875 20.484375 11.0625 
Q 25.484375 6.203125 34.421875 6.203125 
Q 39.59375 6.203125 44.453125 7.46875 
Q 49.3125 8.734375 54.109375 11.28125 
L 54.109375 2.78125 
Q 49.265625 0.734375 44.1875 -0.34375 
Q 39.109375 -1.421875 33.890625 -1.421875 
Q 20.796875 -1.421875 13.15625 6.1875 
Q 5.515625 13.8125 5.515625 26.8125 
Q 5.515625 40.234375 12.765625 48.109375 
Q 20.015625 56 32.328125 56 
Q 43.359375 56 49.78125 48.890625 
Q 56.203125 41.796875 56.203125 29.59375 
z
M 47.21875 32.234375 
Q 47.125 39.59375 43.09375 43.984375 
Q 39.0625 48.390625 32.421875 48.390625 
Q 24.90625 48.390625 20.390625 44.140625 
Q 15.875 39.890625 15.1875 32.171875 
z
" id="DejaVuSans-101"/>
     </defs>
     <g transform="translate(357.049219 348.676562)scale(0.1 -0.1)">
      <use xlink:href="#DejaVuSans-68"/>
      <use x="77.001953" xlink:href="#DejaVuSans-97"/>
      <use x="138.28125" xlink:href="#DejaVuSans-116"/>
      <use x="177.490234" xlink:href="#DejaVuSans-101"/>
     </g>
    </g>
   </g>
   <g id="matplotlib.axis_2">
    <g id="ytick_1">
     <g id="line2d_8">
      <defs>
       <path d="M 0 0 
L -3.5 0 
" id="m21125d4b40" style="stroke:#000000;stroke-width:0.8;"/>
      </defs>
      <g>
       <use style="stroke:#000000;stroke-width:0.8;" x="90" xlink:href="#m21125d4b40" y="307.8"/>
      </g>
     </g>
     <g id="text_9">
      <!-- 0 -->
      <g transform="translate(76.6375 311.599219)scale(0.1 -0.1)">
       <use xlink:href="#DejaVuSans-48"/>
      </g>
     </g>
    </g>
    <g id="ytick_2">
     <g id="line2d_9">
      <g>
       <use style="stroke:#000000;stroke-width:0.8;" x="90" xlink:href="#m21125d4b40" y="256.371429"/>
      </g>
     </g>
     <g id="text_10">
      <!-- 20 -->
      <g transform="translate(70.275 260.170647)scale(0.1 -0.1)">
       <use xlink:href="#DejaVuSans-50"/>
       <use x="63.623047" xlink:href="#DejaVuSans-48"/>
      </g>
     </g>
    </g>
    <g id="ytick_3">
     <g id="line2d_10">
      <g>
       <use style="stroke:#000000;stroke-width:0.8;" x="90" xlink:href="#m21125d4b40" y="204.942857"/>
      </g>
     </g>
     <g id="text_11">
      <!-- 40 -->
      <g transform="translate(70.275 208.742076)scale(0.1 -0.1)">
       <use xlink:href="#DejaVuSans-52"/>
       <use x="63.623047" xlink:href="#DejaVuSans-48"/>
      </g>
     </g>
    </g>
    <g id="ytick_4">
     <g id="line2d_11">
      <g>
       <use style="stroke:#000000;stroke-width:0.8;" x="90" xlink:href="#m21125d4b40" y="153.514286"/>
      </g>
     </g>
     <g id="text_12">
      <!-- 60 -->
      <defs>
       <path d="M 33.015625 40.375 
Q 26.375 40.375 22.484375 35.828125 
Q 18.609375 31.296875 18.609375 23.390625 
Q 18.609375 15.53125 22.484375 10.953125 
Q 26.375 6.390625 33.015625 6.390625 
Q 39.65625 6.390625 43.53125 10.953125 
Q 47.40625 15.53125 47.40625 23.390625 
Q 47.40625 31.296875 43.53125 35.828125 
Q 39.65625 40.375 33.015625 40.375 
z
M 52.59375 71.296875 
L 52.59375 62.3125 
Q 48.875 64.0625 45.09375 64.984375 
Q 41.3125 65.921875 37.59375 65.921875 
Q 27.828125 65.921875 22.671875 59.328125 
Q 17.53125 52.734375 16.796875 39.40625 
Q 19.671875 43.65625 24.015625 45.921875 
Q 28.375 48.1875 33.59375 48.1875 
Q 44.578125 48.1875 50.953125 41.515625 
Q 57.328125 34.859375 57.328125 23.390625 
Q 57.328125 12.15625 50.6875 5.359375 
Q 44.046875 -1.421875 33.015625 -1.421875 
Q 20.359375 -1.421875 13.671875 8.265625 
Q 6.984375 17.96875 6.984375 36.375 
Q 6.984375 53.65625 15.1875 63.9375 
Q 23.390625 74.21875 37.203125 74.21875 
Q 40.921875 74.21875 44.703125 73.484375 
Q 48.484375 72.75 52.59375 71.296875 
z
" id="DejaVuSans-54"/>
      </defs>
      <g transform="translate(70.275 157.313504)scale(0.1 -0.1)">
       <use xlink:href="#DejaVuSans-54"/>
       <use x="63.623047" xlink:href="#DejaVuSans-48"/>
      </g>
     </g>
    </g>
    <g id="ytick_5">
     <g id="line2d_12">
      <g>
       <use style="stroke:#000000;stroke-width:0.8;" x="90" xlink:href="#m21125d4b40" y="102.085714"/>
      </g>
     </g>
     <g id="text_13">
      <!-- 80 -->
      <g transform="translate(70.275 105.884933)scale(0.1 -0.1)">
       <use xlink:href="#DejaVuSans-56"/>
       <use x="63.623047" xlink:href="#DejaVuSans-48"/>
      </g>
     </g>
    </g>
    <g id="ytick_6">
     <g id="line2d_13">
      <g>
       <use style="stroke:#000000;stroke-width:0.8;" x="90" xlink:href="#m21125d4b40" y="50.657143"/>
      </g>
     </g>
     <g id="text_14">
      <!-- 100 -->
      <g transform="translate(63.9125 54.456362)scale(0.1 -0.1)">
       <use xlink:href="#DejaVuSans-49"/>
       <use x="63.623047" xlink:href="#DejaVuSans-48"/>
       <use x="127.246094" xlink:href="#DejaVuSans-48"/>
      </g>
     </g>
    </g>
    <g id="text_15">
     <!-- Number of tweets -->
     <defs>
      <path d="M 9.8125 72.90625 
L 23.09375 72.90625 
L 55.421875 11.921875 
L 55.421875 72.90625 
L 64.984375 72.90625 
L 64.984375 0 
L 51.703125 0 
L 19.390625 60.984375 
L 19.390625 0 
L 9.8125 0 
z
" id="DejaVuSans-78"/>
      <path d="M 8.5 21.578125 
L 8.5 54.6875 
L 17.484375 54.6875 
L 17.484375 21.921875 
Q 17.484375 14.15625 20.5 10.265625 
Q 23.53125 6.390625 29.59375 6.390625 
Q 36.859375 6.390625 41.078125 11.03125 
Q 45.3125 15.671875 45.3125 23.6875 
L 45.3125 54.6875 
L 54.296875 54.6875 
L 54.296875 0 
L 45.3125 0 
L 45.3125 8.40625 
Q 42.046875 3.421875 37.71875 1 
Q 33.40625 -1.421875 27.6875 -1.421875 
Q 18.265625 -1.421875 13.375 4.4375 
Q 8.5 10.296875 8.5 21.578125 
z
M 31.109375 56 
z
" id="DejaVuSans-117"/>
      <path d="M 52 44.1875 
Q 55.375 50.25 60.0625 53.125 
Q 64.75 56 71.09375 56 
Q 79.640625 56 84.28125 50.015625 
Q 88.921875 44.046875 88.921875 33.015625 
L 88.921875 0 
L 79.890625 0 
L 79.890625 32.71875 
Q 79.890625 40.578125 77.09375 44.375 
Q 74.3125 48.1875 68.609375 48.1875 
Q 61.625 48.1875 57.5625 43.546875 
Q 53.515625 38.921875 53.515625 30.90625 
L 53.515625 0 
L 44.484375 0 
L 44.484375 32.71875 
Q 44.484375 40.625 41.703125 44.40625 
Q 38.921875 48.1875 33.109375 48.1875 
Q 26.21875 48.1875 22.15625 43.53125 
Q 18.109375 38.875 18.109375 30.90625 
L 18.109375 0 
L 9.078125 0 
L 9.078125 54.6875 
L 18.109375 54.6875 
L 18.109375 46.1875 
Q 21.1875 51.21875 25.484375 53.609375 
Q 29.78125 56 35.6875 56 
Q 41.65625 56 45.828125 52.96875 
Q 50 49.953125 52 44.1875 
z
" id="DejaVuSans-109"/>
      <path d="M 48.6875 27.296875 
Q 48.6875 37.203125 44.609375 42.84375 
Q 40.53125 48.484375 33.40625 48.484375 
Q 26.265625 48.484375 22.1875 42.84375 
Q 18.109375 37.203125 18.109375 27.296875 
Q 18.109375 17.390625 22.1875 11.75 
Q 26.265625 6.109375 33.40625 6.109375 
Q 40.53125 6.109375 44.609375 11.75 
Q 48.6875 17.390625 48.6875 27.296875 
z
M 18.109375 46.390625 
Q 20.953125 51.265625 25.265625 53.625 
Q 29.59375 56 35.59375 56 
Q 45.5625 56 51.78125 48.09375 
Q 58.015625 40.1875 58.015625 27.296875 
Q 58.015625 14.40625 51.78125 6.484375 
Q 45.5625 -1.421875 35.59375 -1.421875 
Q 29.59375 -1.421875 25.265625 0.953125 
Q 20.953125 3.328125 18.109375 8.203125 
L 18.109375 0 
L 9.078125 0 
L 9.078125 75.984375 
L 18.109375 75.984375 
z
" id="DejaVuSans-98"/>
      <path d="M 41.109375 46.296875 
Q 39.59375 47.171875 37.8125 47.578125 
Q 36.03125 48 33.890625 48 
Q 26.265625 48 22.1875 43.046875 
Q 18.109375 38.09375 18.109375 28.8125 
L 18.109375 0 
L 9.078125 0 
L 9.078125 54.6875 
L 18.109375 54.6875 
L 18.109375 46.1875 
Q 20.953125 51.171875 25.484375 53.578125 
Q 30.03125 56 36.53125 56 
Q 37.453125 56 38.578125 55.875 
Q 39.703125 55.765625 41.0625 55.515625 
z
" id="DejaVuSans-114"/>
      <path id="DejaVuSans-32"/>
      <path d="M 30.609375 48.390625 
Q 23.390625 48.390625 19.1875 42.75 
Q 14.984375 37.109375 14.984375 27.296875 
Q 14.984375 17.484375 19.15625 11.84375 
Q 23.34375 6.203125 30.609375 6.203125 
Q 37.796875 6.203125 41.984375 11.859375 
Q 46.1875 17.53125 46.1875 27.296875 
Q 46.1875 37.015625 41.984375 42.703125 
Q 37.796875 48.390625 30.609375 48.390625 
z
M 30.609375 56 
Q 42.328125 56 49.015625 48.375 
Q 55.71875 40.765625 55.71875 27.296875 
Q 55.71875 13.875 49.015625 6.21875 
Q 42.328125 -1.421875 30.609375 -1.421875 
Q 18.84375 -1.421875 12.171875 6.21875 
Q 5.515625 13.875 5.515625 27.296875 
Q 5.515625 40.765625 12.171875 48.375 
Q 18.84375 56 30.609375 56 
z
" id="DejaVuSans-111"/>
      <path d="M 37.109375 75.984375 
L 37.109375 68.5 
L 28.515625 68.5 
Q 23.6875 68.5 21.796875 66.546875 
Q 19.921875 64.59375 19.921875 59.515625 
L 19.921875 54.6875 
L 34.71875 54.6875 
L 34.71875 47.703125 
L 19.921875 47.703125 
L 19.921875 0 
L 10.890625 0 
L 10.890625 47.703125 
L 2.296875 47.703125 
L 2.296875 54.6875 
L 10.890625 54.6875 
L 10.890625 58.5 
Q 10.890625 67.625 15.140625 71.796875 
Q 19.390625 75.984375 28.609375 75.984375 
z
" id="DejaVuSans-102"/>
      <path d="M 4.203125 54.6875 
L 13.1875 54.6875 
L 24.421875 12.015625 
L 35.59375 54.6875 
L 46.1875 54.6875 
L 57.421875 12.015625 
L 68.609375 54.6875 
L 77.59375 54.6875 
L 63.28125 0 
L 52.6875 0 
L 40.921875 44.828125 
L 29.109375 0 
L 18.5 0 
z
" id="DejaVuSans-119"/>
      <path d="M 44.28125 53.078125 
L 44.28125 44.578125 
Q 40.484375 46.53125 36.375 47.5 
Q 32.28125 48.484375 27.875 48.484375 
Q 21.1875 48.484375 17.84375 46.4375 
Q 14.5 44.390625 14.5 40.28125 
Q 14.5 37.15625 16.890625 35.375 
Q 19.28125 33.59375 26.515625 31.984375 
L 29.59375 31.296875 
Q 39.15625 29.25 43.1875 25.515625 
Q 47.21875 21.78125 47.21875 15.09375 
Q 47.21875 7.46875 41.1875 3.015625 
Q 35.15625 -1.421875 24.609375 -1.421875 
Q 20.21875 -1.421875 15.453125 -0.5625 
Q 10.6875 0.296875 5.421875 2 
L 5.421875 11.28125 
Q 10.40625 8.6875 15.234375 7.390625 
Q 20.0625 6.109375 24.8125 6.109375 
Q 31.15625 6.109375 34.5625 8.28125 
Q 37.984375 10.453125 37.984375 14.40625 
Q 37.984375 18.0625 35.515625 20.015625 
Q 33.0625 21.96875 24.703125 23.78125 
L 21.578125 24.515625 
Q 13.234375 26.265625 9.515625 29.90625 
Q 5.8125 33.546875 5.8125 39.890625 
Q 5.8125 47.609375 11.28125 51.796875 
Q 16.75 56 26.8125 56 
Q 31.78125 56 36.171875 55.265625 
Q 40.578125 54.546875 44.28125 53.078125 
z
" id="DejaVuSans-115"/>
     </defs>
     <g transform="translate(57.832812 226.650781)rotate(-90)scale(0.1 -0.1)">
      <use xlink:href="#DejaVuSans-78"/>
      <use x="74.804688" xlink:href="#DejaVuSans-117"/>
      <use x="138.183594" xlink:href="#DejaVuSans-109"/>
      <use x="235.595703" xlink:href="#DejaVuSans-98"/>
      <use x="299.072266" xlink:href="#DejaVuSans-101"/>
      <use x="360.595703" xlink:href="#DejaVuSans-114"/>
      <use x="401.708984" xlink:href="#DejaVuSans-32"/>
      <use x="433.496094" xlink:href="#DejaVuSans-111"/>
      <use x="494.677734" xlink:href="#DejaVuSans-102"/>
      <use x="529.882812" xlink:href="#DejaVuSans-32"/>
      <use x="561.669922" xlink:href="#DejaVuSans-116"/>
      <use x="600.878906" xlink:href="#DejaVuSans-119"/>
      <use x="682.666016" xlink:href="#DejaVuSans-101"/>
      <use x="744.189453" xlink:href="#DejaVuSans-101"/>
      <use x="805.712891" xlink:href="#DejaVuSans-116"/>
      <use x="844.921875" xlink:href="#DejaVuSans-115"/>
     </g>
    </g>
   </g>
   <g id="line2d_14">
    <path clip-path="url(#p8988d29611)" d="M 115.363636 279.514286 
L 126.391304 274.371429 
L 137.418972 284.657143 
L 148.44664 266.657143 
L 159.474308 279.514286 
L 170.501976 302.657143 
L 181.529644 302.657143 
L 192.557312 248.657143 
L 203.58498 282.085714 
L 214.612648 217.8 
L 225.640316 269.228571 
L 236.667984 289.8 
L 247.695652 302.657143 
L 258.72332 305.228571 
L 269.750988 297.514286 
L 280.778656 274.371429 
L 291.806324 220.371429 
L 302.833992 264.085714 
L 313.86166 269.228571 
L 324.889328 294.942857 
L 335.916996 302.657143 
L 346.944664 284.657143 
L 357.972332 225.514286 
L 369 238.371429 
L 380.027668 258.942857 
L 391.055336 243.514286 
L 402.083004 271.8 
L 413.110672 279.514286 
L 424.13834 271.8 
L 435.166008 256.371429 
L 446.193676 233.228571 
L 457.221344 204.942857 
L 468.249012 228.085714 
L 479.27668 276.942857 
L 490.304348 289.8 
L 501.332016 251.228571 
L 512.359684 228.085714 
L 523.387352 246.085714 
L 534.41502 222.942857 
L 545.442688 294.942857 
L 556.470356 300.085714 
L 567.498024 302.657143 
L 578.525692 305.228571 
L 589.55336 302.657143 
L 600.581028 305.228571 
L 611.608696 300.085714 
L 622.636364 297.514286 
" style="fill:none;stroke:#1f77b4;stroke-linecap:square;stroke-width:1.5;"/>
   </g>
   <g id="line2d_15">
    <path clip-path="url(#p8988d29611)" d="M 115.363636 289.8 
L 126.391304 282.085714 
L 137.418972 305.228571 
L 148.44664 284.657143 
L 159.474308 274.371429 
L 170.501976 297.514286 
L 181.529644 289.8 
L 192.557312 258.942857 
L 203.58498 292.371429 
L 214.612648 300.085714 
L 225.640316 289.8 
L 236.667984 294.942857 
L 247.695652 300.085714 
L 258.72332 302.657143 
L 269.750988 297.514286 
L 280.778656 294.942857 
L 291.806324 284.657143 
L 302.833992 279.514286 
L 313.86166 294.942857 
L 324.889328 297.514286 
L 335.916996 287.228571 
L 346.944664 243.514286 
L 357.972332 284.657143 
L 369 271.8 
L 380.027668 292.371429 
L 391.055336 292.371429 
L 402.083004 294.942857 
L 413.110672 300.085714 
L 424.13834 300.085714 
L 435.166008 292.371429 
L 446.193676 297.514286 
L 457.221344 297.514286 
L 468.249012 269.228571 
L 479.27668 294.942857 
L 490.304348 294.942857 
L 501.332016 294.942857 
L 512.359684 284.657143 
L 523.387352 289.8 
L 534.41502 284.657143 
L 545.442688 284.657143 
L 556.470356 289.8 
L 567.498024 276.942857 
L 578.525692 302.657143 
L 589.55336 292.371429 
L 600.581028 289.8 
L 611.608696 300.085714 
L 622.636364 289.8 
" style="fill:none;stroke:#ff7f0e;stroke-linecap:square;stroke-width:1.5;"/>
   </g>
   <g id="line2d_16">
    <path clip-path="url(#p8988d29611)" d="M 115.363636 302.657143 
L 126.391304 307.8 
L 137.418972 292.371429 
L 148.44664 294.942857 
L 159.474308 292.371429 
L 170.501976 289.8 
L 181.529644 300.085714 
L 192.557312 279.514286 
L 203.58498 297.514286 
L 214.612648 284.657143 
L 225.640316 289.8 
L 236.667984 300.085714 
L 247.695652 305.228571 
L 258.72332 305.228571 
L 269.750988 300.085714 
L 280.778656 294.942857 
L 291.806324 276.942857 
L 302.833992 279.514286 
L 313.86166 297.514286 
L 324.889328 307.8 
L 335.916996 302.657143 
L 346.944664 294.942857 
L 357.972332 292.371429 
L 369 287.228571 
L 380.027668 287.228571 
L 391.055336 287.228571 
L 402.083004 300.085714 
L 413.110672 297.514286 
L 424.13834 302.657143 
L 435.166008 297.514286 
L 446.193676 276.942857 
L 457.221344 289.8 
L 468.249012 287.228571 
L 479.27668 300.085714 
L 490.304348 292.371429 
L 501.332016 302.657143 
L 512.359684 274.371429 
L 523.387352 282.085714 
L 534.41502 292.371429 
L 545.442688 302.657143 
L 556.470356 297.514286 
L 567.498024 300.085714 
L 578.525692 287.228571 
L 589.55336 292.371429 
L 600.581028 294.942857 
L 611.608696 294.942857 
L 622.636364 292.371429 
" style="fill:none;stroke:#2ca02c;stroke-linecap:square;stroke-width:1.5;"/>
   </g>
   <g id="line2d_17">
    <path clip-path="url(#p8988d29611)" d="M 115.363636 287.228571 
L 126.391304 258.942857 
L 137.418972 294.942857 
L 148.44664 287.228571 
L 159.474308 228.085714 
L 170.501976 292.371429 
L 181.529644 294.942857 
L 192.557312 130.371429 
L 203.58498 215.228571 
L 214.612648 289.8 
L 225.640316 297.514286 
L 236.667984 292.371429 
L 247.695652 300.085714 
L 258.72332 266.657143 
L 269.750988 297.514286 
L 280.778656 248.657143 
L 291.806324 55.8 
L 302.833992 212.657143 
L 313.86166 276.942857 
L 324.889328 284.657143 
L 335.916996 274.371429 
L 346.944664 264.085714 
L 357.972332 217.8 
L 369 215.228571 
L 380.027668 212.657143 
L 391.055336 253.8 
L 402.083004 251.228571 
L 413.110672 235.8 
L 424.13834 274.371429 
L 435.166008 220.371429 
L 446.193676 55.8 
L 457.221344 269.228571 
L 468.249012 243.514286 
L 479.27668 292.371429 
L 490.304348 238.371429 
L 501.332016 233.228571 
L 512.359684 207.514286 
L 523.387352 225.514286 
L 534.41502 222.942857 
L 545.442688 256.371429 
L 556.470356 287.228571 
L 567.498024 233.228571 
L 578.525692 246.085714 
L 589.55336 202.371429 
L 600.581028 158.657143 
L 611.608696 222.942857 
L 622.636364 266.657143 
" style="fill:none;stroke:#d62728;stroke-linecap:square;stroke-width:1.5;"/>
   </g>
   <g id="patch_3">
    <path d="M 90 320.4 
L 90 43.2 
" style="fill:none;stroke:#000000;stroke-linecap:square;stroke-linejoin:miter;stroke-width:0.8;"/>
   </g>
   <g id="patch_4">
    <path d="M 648 320.4 
L 648 43.2 
" style="fill:none;stroke:#000000;stroke-linecap:square;stroke-linejoin:miter;stroke-width:0.8;"/>
   </g>
   <g id="patch_5">
    <path d="M 90 320.4 
L 648 320.4 
" style="fill:none;stroke:#000000;stroke-linecap:square;stroke-linejoin:miter;stroke-width:0.8;"/>
   </g>
   <g id="patch_6">
    <path d="M 90 43.2 
L 648 43.2 
" style="fill:none;stroke:#000000;stroke-linecap:square;stroke-linejoin:miter;stroke-width:0.8;"/>
   </g>
   <g id="text_16">
    <!-- Number of tweets for date for accounts connected to candidate Biedron -->
    <defs>
     <path d="M 45.40625 46.390625 
L 45.40625 75.984375 
L 54.390625 75.984375 
L 54.390625 0 
L 45.40625 0 
L 45.40625 8.203125 
Q 42.578125 3.328125 38.25 0.953125 
Q 33.9375 -1.421875 27.875 -1.421875 
Q 17.96875 -1.421875 11.734375 6.484375 
Q 5.515625 14.40625 5.515625 27.296875 
Q 5.515625 40.1875 11.734375 48.09375 
Q 17.96875 56 27.875 56 
Q 33.9375 56 38.25 53.625 
Q 42.578125 51.265625 45.40625 46.390625 
z
M 14.796875 27.296875 
Q 14.796875 17.390625 18.875 11.75 
Q 22.953125 6.109375 30.078125 6.109375 
Q 37.203125 6.109375 41.296875 11.75 
Q 45.40625 17.390625 45.40625 27.296875 
Q 45.40625 37.203125 41.296875 42.84375 
Q 37.203125 48.484375 30.078125 48.484375 
Q 22.953125 48.484375 18.875 42.84375 
Q 14.796875 37.203125 14.796875 27.296875 
z
" id="DejaVuSans-100"/>
     <path d="M 48.78125 52.59375 
L 48.78125 44.1875 
Q 44.96875 46.296875 41.140625 47.34375 
Q 37.3125 48.390625 33.40625 48.390625 
Q 24.65625 48.390625 19.8125 42.84375 
Q 14.984375 37.3125 14.984375 27.296875 
Q 14.984375 17.28125 19.8125 11.734375 
Q 24.65625 6.203125 33.40625 6.203125 
Q 37.3125 6.203125 41.140625 7.25 
Q 44.96875 8.296875 48.78125 10.40625 
L 48.78125 2.09375 
Q 45.015625 0.34375 40.984375 -0.53125 
Q 36.96875 -1.421875 32.421875 -1.421875 
Q 20.0625 -1.421875 12.78125 6.34375 
Q 5.515625 14.109375 5.515625 27.296875 
Q 5.515625 40.671875 12.859375 48.328125 
Q 20.21875 56 33.015625 56 
Q 37.15625 56 41.109375 55.140625 
Q 45.0625 54.296875 48.78125 52.59375 
z
" id="DejaVuSans-99"/>
     <path d="M 54.890625 33.015625 
L 54.890625 0 
L 45.90625 0 
L 45.90625 32.71875 
Q 45.90625 40.484375 42.875 44.328125 
Q 39.84375 48.1875 33.796875 48.1875 
Q 26.515625 48.1875 22.3125 43.546875 
Q 18.109375 38.921875 18.109375 30.90625 
L 18.109375 0 
L 9.078125 0 
L 9.078125 54.6875 
L 18.109375 54.6875 
L 18.109375 46.1875 
Q 21.34375 51.125 25.703125 53.5625 
Q 30.078125 56 35.796875 56 
Q 45.21875 56 50.046875 50.171875 
Q 54.890625 44.34375 54.890625 33.015625 
z
" id="DejaVuSans-110"/>
     <path d="M 9.421875 54.6875 
L 18.40625 54.6875 
L 18.40625 0 
L 9.421875 0 
z
M 9.421875 75.984375 
L 18.40625 75.984375 
L 18.40625 64.59375 
L 9.421875 64.59375 
z
" id="DejaVuSans-105"/>
     <path d="M 19.671875 34.8125 
L 19.671875 8.109375 
L 35.5 8.109375 
Q 43.453125 8.109375 47.28125 11.40625 
Q 51.125 14.703125 51.125 21.484375 
Q 51.125 28.328125 47.28125 31.5625 
Q 43.453125 34.8125 35.5 34.8125 
z
M 19.671875 64.796875 
L 19.671875 42.828125 
L 34.28125 42.828125 
Q 41.5 42.828125 45.03125 45.53125 
Q 48.578125 48.25 48.578125 53.8125 
Q 48.578125 59.328125 45.03125 62.0625 
Q 41.5 64.796875 34.28125 64.796875 
z
M 9.8125 72.90625 
L 35.015625 72.90625 
Q 46.296875 72.90625 52.390625 68.21875 
Q 58.5 63.53125 58.5 54.890625 
Q 58.5 48.1875 55.375 44.234375 
Q 52.25 40.28125 46.1875 39.3125 
Q 53.46875 37.75 57.5 32.78125 
Q 61.53125 27.828125 61.53125 20.40625 
Q 61.53125 10.640625 54.890625 5.3125 
Q 48.25 0 35.984375 0 
L 9.8125 0 
z
" id="DejaVuSans-66"/>
    </defs>
    <g transform="translate(152.548125 37.2)scale(0.12 -0.12)">
     <use xlink:href="#DejaVuSans-78"/>
     <use x="74.804688" xlink:href="#DejaVuSans-117"/>
     <use x="138.183594" xlink:href="#DejaVuSans-109"/>
     <use x="235.595703" xlink:href="#DejaVuSans-98"/>
     <use x="299.072266" xlink:href="#DejaVuSans-101"/>
     <use x="360.595703" xlink:href="#DejaVuSans-114"/>
     <use x="401.708984" xlink:href="#DejaVuSans-32"/>
     <use x="433.496094" xlink:href="#DejaVuSans-111"/>
     <use x="494.677734" xlink:href="#DejaVuSans-102"/>
     <use x="529.882812" xlink:href="#DejaVuSans-32"/>
     <use x="561.669922" xlink:href="#DejaVuSans-116"/>
     <use x="600.878906" xlink:href="#DejaVuSans-119"/>
     <use x="682.666016" xlink:href="#DejaVuSans-101"/>
     <use x="744.189453" xlink:href="#DejaVuSans-101"/>
     <use x="805.712891" xlink:href="#DejaVuSans-116"/>
     <use x="844.921875" xlink:href="#DejaVuSans-115"/>
     <use x="897.021484" xlink:href="#DejaVuSans-32"/>
     <use x="928.808594" xlink:href="#DejaVuSans-102"/>
     <use x="964.013672" xlink:href="#DejaVuSans-111"/>
     <use x="1025.195312" xlink:href="#DejaVuSans-114"/>
     <use x="1066.308594" xlink:href="#DejaVuSans-32"/>
     <use x="1098.095703" xlink:href="#DejaVuSans-100"/>
     <use x="1161.572266" xlink:href="#DejaVuSans-97"/>
     <use x="1222.851562" xlink:href="#DejaVuSans-116"/>
     <use x="1262.060547" xlink:href="#DejaVuSans-101"/>
     <use x="1323.583984" xlink:href="#DejaVuSans-32"/>
     <use x="1355.371094" xlink:href="#DejaVuSans-102"/>
     <use x="1390.576172" xlink:href="#DejaVuSans-111"/>
     <use x="1451.757812" xlink:href="#DejaVuSans-114"/>
     <use x="1492.871094" xlink:href="#DejaVuSans-32"/>
     <use x="1524.658203" xlink:href="#DejaVuSans-97"/>
     <use x="1585.9375" xlink:href="#DejaVuSans-99"/>
     <use x="1640.917969" xlink:href="#DejaVuSans-99"/>
     <use x="1695.898438" xlink:href="#DejaVuSans-111"/>
     <use x="1757.080078" xlink:href="#DejaVuSans-117"/>
     <use x="1820.458984" xlink:href="#DejaVuSans-110"/>
     <use x="1883.837891" xlink:href="#DejaVuSans-116"/>
     <use x="1923.046875" xlink:href="#DejaVuSans-115"/>
     <use x="1975.146484" xlink:href="#DejaVuSans-32"/>
     <use x="2006.933594" xlink:href="#DejaVuSans-99"/>
     <use x="2061.914062" xlink:href="#DejaVuSans-111"/>
     <use x="2123.095703" xlink:href="#DejaVuSans-110"/>
     <use x="2186.474609" xlink:href="#DejaVuSans-110"/>
     <use x="2249.853516" xlink:href="#DejaVuSans-101"/>
     <use x="2311.376953" xlink:href="#DejaVuSans-99"/>
     <use x="2366.357422" xlink:href="#DejaVuSans-116"/>
     <use x="2405.566406" xlink:href="#DejaVuSans-101"/>
     <use x="2467.089844" xlink:href="#DejaVuSans-100"/>
     <use x="2530.566406" xlink:href="#DejaVuSans-32"/>
     <use x="2562.353516" xlink:href="#DejaVuSans-116"/>
     <use x="2601.5625" xlink:href="#DejaVuSans-111"/>
     <use x="2662.744141" xlink:href="#DejaVuSans-32"/>
     <use x="2694.53125" xlink:href="#DejaVuSans-99"/>
     <use x="2749.511719" xlink:href="#DejaVuSans-97"/>
     <use x="2810.791016" xlink:href="#DejaVuSans-110"/>
     <use x="2874.169922" xlink:href="#DejaVuSans-100"/>
     <use x="2937.646484" xlink:href="#DejaVuSans-105"/>
     <use x="2965.429688" xlink:href="#DejaVuSans-100"/>
     <use x="3028.90625" xlink:href="#DejaVuSans-97"/>
     <use x="3090.185547" xlink:href="#DejaVuSans-116"/>
     <use x="3129.394531" xlink:href="#DejaVuSans-101"/>
     <use x="3190.917969" xlink:href="#DejaVuSans-32"/>
     <use x="3222.705078" xlink:href="#DejaVuSans-66"/>
     <use x="3291.308594" xlink:href="#DejaVuSans-105"/>
     <use x="3319.091797" xlink:href="#DejaVuSans-101"/>
     <use x="3380.615234" xlink:href="#DejaVuSans-100"/>
     <use x="3444.091797" xlink:href="#DejaVuSans-114"/>
     <use x="3482.955078" xlink:href="#DejaVuSans-111"/>
     <use x="3544.136719" xlink:href="#DejaVuSans-110"/>
    </g>
   </g>
   <g id="legend_1">
    <g id="patch_7">
     <path d="M 97 95.5125 
L 204.109375 95.5125 
Q 206.109375 95.5125 206.109375 93.5125 
L 206.109375 50.2 
Q 206.109375 48.2 204.109375 48.2 
L 97 48.2 
Q 95 48.2 95 50.2 
L 95 93.5125 
Q 95 95.5125 97 95.5125 
z
" style="fill:#ffffff;opacity:0.8;stroke:#cccccc;stroke-linejoin:miter;"/>
    </g>
    <g id="line2d_18">
     <path d="M 99 56.298437 
L 119 56.298437 
" style="fill:none;stroke:#1f77b4;stroke-linecap:square;stroke-width:1.5;"/>
    </g>
    <g id="line2d_19"/>
    <g id="text_17">
     <!-- RobertBiedron -->
     <defs>
      <path d="M 44.390625 34.1875 
Q 47.5625 33.109375 50.5625 29.59375 
Q 53.5625 26.078125 56.59375 19.921875 
L 66.609375 0 
L 56 0 
L 46.6875 18.703125 
Q 43.0625 26.03125 39.671875 28.421875 
Q 36.28125 30.8125 30.421875 30.8125 
L 19.671875 30.8125 
L 19.671875 0 
L 9.8125 0 
L 9.8125 72.90625 
L 32.078125 72.90625 
Q 44.578125 72.90625 50.734375 67.671875 
Q 56.890625 62.453125 56.890625 51.90625 
Q 56.890625 45.015625 53.6875 40.46875 
Q 50.484375 35.9375 44.390625 34.1875 
z
M 19.671875 64.796875 
L 19.671875 38.921875 
L 32.078125 38.921875 
Q 39.203125 38.921875 42.84375 42.21875 
Q 46.484375 45.515625 46.484375 51.90625 
Q 46.484375 58.296875 42.84375 61.546875 
Q 39.203125 64.796875 32.078125 64.796875 
z
" id="DejaVuSans-82"/>
     </defs>
     <g transform="translate(127 59.798437)scale(0.1 -0.1)">
      <use xlink:href="#DejaVuSans-82"/>
      <use x="64.982422" xlink:href="#DejaVuSans-111"/>
      <use x="126.164062" xlink:href="#DejaVuSans-98"/>
      <use x="189.640625" xlink:href="#DejaVuSans-101"/>
      <use x="251.164062" xlink:href="#DejaVuSans-114"/>
      <use x="292.277344" xlink:href="#DejaVuSans-116"/>
      <use x="331.486328" xlink:href="#DejaVuSans-66"/>
      <use x="400.089844" xlink:href="#DejaVuSans-105"/>
      <use x="427.873047" xlink:href="#DejaVuSans-101"/>
      <use x="489.396484" xlink:href="#DejaVuSans-100"/>
      <use x="552.873047" xlink:href="#DejaVuSans-114"/>
      <use x="591.736328" xlink:href="#DejaVuSans-111"/>
      <use x="652.917969" xlink:href="#DejaVuSans-110"/>
     </g>
    </g>
    <g id="line2d_20">
     <path d="M 99 70.976562 
L 119 70.976562 
" style="fill:none;stroke:#ff7f0e;stroke-linecap:square;stroke-width:1.5;"/>
    </g>
    <g id="line2d_21"/>
    <g id="text_18">
     <!-- poselTTrela -->
     <defs>
      <path d="M 18.109375 8.203125 
L 18.109375 -20.796875 
L 9.078125 -20.796875 
L 9.078125 54.6875 
L 18.109375 54.6875 
L 18.109375 46.390625 
Q 20.953125 51.265625 25.265625 53.625 
Q 29.59375 56 35.59375 56 
Q 45.5625 56 51.78125 48.09375 
Q 58.015625 40.1875 58.015625 27.296875 
Q 58.015625 14.40625 51.78125 6.484375 
Q 45.5625 -1.421875 35.59375 -1.421875 
Q 29.59375 -1.421875 25.265625 0.953125 
Q 20.953125 3.328125 18.109375 8.203125 
z
M 48.6875 27.296875 
Q 48.6875 37.203125 44.609375 42.84375 
Q 40.53125 48.484375 33.40625 48.484375 
Q 26.265625 48.484375 22.1875 42.84375 
Q 18.109375 37.203125 18.109375 27.296875 
Q 18.109375 17.390625 22.1875 11.75 
Q 26.265625 6.109375 33.40625 6.109375 
Q 40.53125 6.109375 44.609375 11.75 
Q 48.6875 17.390625 48.6875 27.296875 
z
" id="DejaVuSans-112"/>
      <path d="M 9.421875 75.984375 
L 18.40625 75.984375 
L 18.40625 0 
L 9.421875 0 
z
" id="DejaVuSans-108"/>
      <path d="M -0.296875 72.90625 
L 61.375 72.90625 
L 61.375 64.59375 
L 35.5 64.59375 
L 35.5 0 
L 25.59375 0 
L 25.59375 64.59375 
L -0.296875 64.59375 
z
" id="DejaVuSans-84"/>
     </defs>
     <g transform="translate(127 74.476562)scale(0.1 -0.1)">
      <use xlink:href="#DejaVuSans-112"/>
      <use x="63.476562" xlink:href="#DejaVuSans-111"/>
      <use x="124.658203" xlink:href="#DejaVuSans-115"/>
      <use x="176.757812" xlink:href="#DejaVuSans-101"/>
      <use x="238.28125" xlink:href="#DejaVuSans-108"/>
      <use x="266.064453" xlink:href="#DejaVuSans-84"/>
      <use x="325.398438" xlink:href="#DejaVuSans-84"/>
      <use x="371.732422" xlink:href="#DejaVuSans-114"/>
      <use x="410.595703" xlink:href="#DejaVuSans-101"/>
      <use x="472.119141" xlink:href="#DejaVuSans-108"/>
      <use x="499.902344" xlink:href="#DejaVuSans-97"/>
     </g>
    </g>
    <g id="line2d_22">
     <path d="M 99 85.654687 
L 119 85.654687 
" style="fill:none;stroke:#2ca02c;stroke-linecap:square;stroke-width:1.5;"/>
    </g>
    <g id="line2d_23"/>
    <g id="text_19">
     <!-- B_Maciejewska -->
     <defs>
      <path d="M 50.984375 -16.609375 
L 50.984375 -23.578125 
L -0.984375 -23.578125 
L -0.984375 -16.609375 
z
" id="DejaVuSans-95"/>
      <path d="M 9.8125 72.90625 
L 24.515625 72.90625 
L 43.109375 23.296875 
L 61.8125 72.90625 
L 76.515625 72.90625 
L 76.515625 0 
L 66.890625 0 
L 66.890625 64.015625 
L 48.09375 14.015625 
L 38.1875 14.015625 
L 19.390625 64.015625 
L 19.390625 0 
L 9.8125 0 
z
" id="DejaVuSans-77"/>
      <path d="M 9.421875 54.6875 
L 18.40625 54.6875 
L 18.40625 -0.984375 
Q 18.40625 -11.421875 14.421875 -16.109375 
Q 10.453125 -20.796875 1.609375 -20.796875 
L -1.8125 -20.796875 
L -1.8125 -13.1875 
L 0.59375 -13.1875 
Q 5.71875 -13.1875 7.5625 -10.8125 
Q 9.421875 -8.453125 9.421875 -0.984375 
z
M 9.421875 75.984375 
L 18.40625 75.984375 
L 18.40625 64.59375 
L 9.421875 64.59375 
z
" id="DejaVuSans-106"/>
      <path d="M 9.078125 75.984375 
L 18.109375 75.984375 
L 18.109375 31.109375 
L 44.921875 54.6875 
L 56.390625 54.6875 
L 27.390625 29.109375 
L 57.625 0 
L 45.90625 0 
L 18.109375 26.703125 
L 18.109375 0 
L 9.078125 0 
z
" id="DejaVuSans-107"/>
     </defs>
     <g transform="translate(127 89.154687)scale(0.1 -0.1)">
      <use xlink:href="#DejaVuSans-66"/>
      <use x="68.603516" xlink:href="#DejaVuSans-95"/>
      <use x="118.603516" xlink:href="#DejaVuSans-77"/>
      <use x="204.882812" xlink:href="#DejaVuSans-97"/>
      <use x="266.162109" xlink:href="#DejaVuSans-99"/>
      <use x="321.142578" xlink:href="#DejaVuSans-105"/>
      <use x="348.925781" xlink:href="#DejaVuSans-101"/>
      <use x="410.449219" xlink:href="#DejaVuSans-106"/>
      <use x="438.232422" xlink:href="#DejaVuSans-101"/>
      <use x="499.755859" xlink:href="#DejaVuSans-119"/>
      <use x="581.542969" xlink:href="#DejaVuSans-115"/>
      <use x="633.642578" xlink:href="#DejaVuSans-107"/>
      <use x="689.802734" xlink:href="#DejaVuSans-97"/>
     </g>
    </g>
   </g>
  </g>
 </g>
 <defs>
  <clipPath id="p8988d29611">
   <rect height="277.2" width="558" x="90" y="43.2"/>
  </clipPath>
 </defs>
</svg>
